<svg width="56" height="48" viewBox="0 0 56 48" fill="none" xmlns="http://www.w3.org/2000/svg">
<g clip-path="url(#clip0_2776_38303)">
<path fill-rule="evenodd" clip-rule="evenodd" d="M39.6856 21.335C39.1227 21.483 38.5659 21.2609 38.2938 20.5823L37.6318 17.0781L38.3123 17.2447L39.1969 19.7803L39.6856 21.335Z" fill="#8E5913"/>
<path d="M38.3183 17.2456L38.0028 16.6781C37.9409 16.567 37.842 16.4806 37.7244 16.4313L37.2605 16.2524C37.0996 16.1907 36.9326 16.3141 36.945 16.4992L37.378 17.1901C37.4708 17.3444 37.6255 17.4616 37.811 17.5233L38.1142 17.622L38.3183 17.2456Z" fill="#8E5913"/>
<path fill-rule="evenodd" clip-rule="evenodd" d="M41.9559 25.3702C41.0961 25.2468 38.5165 21.6501 38.4175 21.2676C38.3123 20.8419 37.6133 18.3741 37.6133 18.3741L38.8691 18.1582C38.8691 18.1582 39.7413 20.2003 39.9145 20.3607C40.0877 20.5211 42.4632 22.705 42.4632 22.705L41.9559 25.3702Z" fill="#FFCF2E"/>
<path fill-rule="evenodd" clip-rule="evenodd" d="M42.3582 21.2192C42.3582 21.2192 42.0056 20.7442 42.5623 20.3308C43.1191 19.9175 43.0819 21.0218 43.0634 21.0341C43.0448 21.0527 42.3582 21.2192 42.3582 21.2192Z" fill="#572A22"/>
<path fill-rule="evenodd" clip-rule="evenodd" d="M43.886 21.447C43.886 21.447 43.756 22.0023 43.3292 21.9653C42.9024 21.9344 43.0323 20.7129 43.0323 20.7129L43.886 21.447Z" fill="#572A22"/>
<path fill-rule="evenodd" clip-rule="evenodd" d="M42.5752 21.5831C42.5752 21.5831 42.6185 22.1938 42.6556 22.7059C42.668 22.8416 42.7546 22.9588 42.8907 23.0144C43.0268 23.0699 43.1938 23.0514 43.3175 22.9712C43.3608 22.9465 43.3979 22.9157 43.4351 22.8972C43.6083 22.7861 43.6949 22.601 43.6578 22.4159C43.5712 21.9471 43.4041 21.0957 43.4041 21.0957L42.5752 21.5831Z" fill="#8E5913"/>
<path fill-rule="evenodd" clip-rule="evenodd" d="M43.6512 21.0085C43.7007 20.8358 43.6079 20.6568 43.4347 20.6013C43.2491 20.5458 43.0202 20.4779 42.8408 20.4224C42.6676 20.3731 42.5129 20.4779 42.4387 20.6445C42.3459 20.8358 42.2531 21.2614 42.2222 21.5822C42.2036 21.7612 42.2902 21.9586 42.4635 22.0079C42.649 22.0635 43.2429 22.0511 43.3976 21.7365C43.5089 21.4959 43.5708 21.2614 43.6512 21.0085Z" fill="#8E5913"/>
<path fill-rule="evenodd" clip-rule="evenodd" d="M43.9609 21.571C43.9609 21.571 44.1465 20.8986 43.9114 20.6086C43.6021 20.2138 43.1443 19.9608 42.5628 20.3372C42.5628 20.3372 42.2473 20.4729 43.1691 20.7197C43.2866 20.7505 43.0392 21.2996 43.1815 21.3674C43.3794 21.46 43.633 21.534 43.9609 21.571Z" fill="#572A22"/>
<path fill-rule="evenodd" clip-rule="evenodd" d="M43.633 21.7484C43.5464 21.8657 43.3979 21.9027 43.2989 21.8348C43.1999 21.767 43.1937 21.6065 43.2804 21.4893C43.367 21.3721 43.5154 21.3351 43.6144 21.403C43.7134 21.4708 43.7258 21.6312 43.633 21.7484Z" fill="#8E5913"/>
<path fill-rule="evenodd" clip-rule="evenodd" d="M41.1826 44.6313L42.061 44.5819C42.061 44.5819 43.2302 39.6403 42.4446 37.6846L43.5457 30.9785" fill="#8E5913"/>
<path fill-rule="evenodd" clip-rule="evenodd" d="M41.164 44.3851L40.6753 44.8354C40.5454 44.9465 39.8588 45.1624 39.8588 45.1624C39.7783 45.2981 39.9021 45.3722 40.0134 45.3907L41.9868 45.3475C41.9868 45.3475 42.4507 45.255 42.1229 44.3789C41.7517 44.5455 41.2383 44.6565 41.164 44.3851Z" fill="#4A2A1A"/>
<path fill-rule="evenodd" clip-rule="evenodd" d="M40.6947 29.6641L40.3174 37.9187L40.7752 43.613H43.0702L43.3486 32.0639L40.6947 29.6641Z" fill="#5B8EF5"/>
<path fill-rule="evenodd" clip-rule="evenodd" d="M48.5695 44.2303C48.5695 44.2303 48.2045 39.2146 46.825 37.4502L45.5569 30.9785L42.8164 31.4967L47.7467 44.4277L48.5695 44.2303Z" fill="#8E5913"/>
<path fill-rule="evenodd" clip-rule="evenodd" d="M42.6494 32.0396L44.8084 38.0547L47.0106 43.5146L49.2686 43.1136L45.5383 29.9297L42.6494 32.0396Z" fill="#5B8EF5"/>
<path fill-rule="evenodd" clip-rule="evenodd" d="M44.4372 27.5547L41.4121 27.9742C40.8678 28.2457 40.9853 32.2372 40.9853 32.2372L42.8659 32.3113C43.8742 32.2496 45.0434 33.2367 45.2228 31.065C45.4269 28.5788 44.4372 27.5547 44.4372 27.5547Z" fill="#5B8EF5"/>
<path fill-rule="evenodd" clip-rule="evenodd" d="M41.257 22.7788L42.6117 22.5443L43.7809 22.4395L44.6098 22.7356C45.946 23.0872 45.7481 28.9543 45.6615 30.4103C43.5458 31.2986 41.3188 31.2431 40.6631 30.1882C40.8425 26.9986 40.8549 26.1411 41.257 22.7788Z" fill="#FFCF2E"/>
<path d="M42.4568 22.5028C42.4568 22.5028 42.1289 23.0581 42.7414 23.2493C43.3538 23.4406 43.9291 22.6632 43.9291 22.6632L43.4033 22.3301L42.4568 22.5028Z" fill="#8E5913"/>
<path d="M31.2051 20.3607C31.2051 19.6574 31.768 19.0898 32.4732 19.0898C33.1785 19.0898 33.7476 19.6574 33.7476 20.3546C33.7476 20.4903 33.729 20.6198 33.6857 20.7432L33.0733 22.8346L31.7371 22.8408L31.2298 20.6569C31.2174 20.552 31.2051 20.4594 31.2051 20.3607Z" fill="#192743"/>
<path d="M37.4585 25.0566C38.1637 25.0566 38.7328 25.6181 38.7328 26.3214C38.7328 27.0247 38.1637 27.5922 37.4647 27.5922C37.3286 27.5922 37.1987 27.5737 37.075 27.5306L34.9779 26.9198L34.9717 25.5872L37.1616 25.0813C37.2667 25.069 37.3595 25.0566 37.4585 25.0566Z" fill="#192743"/>
<path d="M33.9144 30.2514C33.9515 30.128 33.9763 29.9985 33.9763 29.8628C33.9763 29.1594 33.401 28.598 32.7019 28.598C31.9967 28.598 31.4338 29.1718 31.4338 29.8689C31.4338 29.9676 31.4461 30.0663 31.4647 30.1589L31.6936 31.1398L27.2643 31.1521L27.252 27.4382L27.6541 27.5554C27.7778 27.5924 27.9077 27.6171 28.0438 27.6171C28.749 27.6171 29.3119 27.0434 29.3119 26.3462C29.3119 25.6429 28.7366 25.0815 28.0376 25.0815C27.9386 25.0815 27.8396 25.0938 27.7468 25.1124L27.2458 25.2296L27.2334 21.5465L36.8714 21.5156L36.9023 31.1275L33.6608 31.1398L33.9144 30.2514Z" fill="#192743"/>
<path fill-rule="evenodd" clip-rule="evenodd" d="M42.3336 26.845C42.2532 27.4557 41.8387 27.9184 41.1211 27.9061L37.7002 27.1534L38.1147 26.5488L40.7438 26.6969L42.3336 26.845Z" fill="#8E5913"/>
<path d="M38.1086 26.5547L37.4776 26.6411C37.3539 26.6596 37.2363 26.7213 37.1497 26.8138L36.8095 27.1963C36.692 27.332 36.7414 27.5418 36.9085 27.6096L37.7003 27.4554C37.8735 27.4246 38.0405 27.3197 38.1643 27.1655L38.3684 26.9125L38.1086 26.5547Z" fill="#8E5913"/>
<path fill-rule="evenodd" clip-rule="evenodd" d="M45.2535 25.8075C44.8143 26.6033 42.1729 28.121 41.7893 28.0655C41.3625 27.9976 38.8633 27.7015 38.8633 27.7015L39.1478 26.3812C39.1478 26.3812 41.3315 26.3442 41.5419 26.2332C41.7522 26.1221 43.9545 24.0801 43.9545 24.0801L45.2535 25.8075Z" fill="#FFCF2E"/>
<path fill-rule="evenodd" clip-rule="evenodd" d="M15.0839 44.5505C15.0839 44.5505 14.5829 39.9111 15.486 38.0727L14.9973 31.7676L17.9419 31.9712L15.9562 44.5998L15.0839 44.5505Z" fill="#FCBF8F"/>
<path fill-rule="evenodd" clip-rule="evenodd" d="M15.9746 44.3789L16.5623 44.8046C16.6798 44.9095 17.3046 45.1131 17.3046 45.1131C17.3665 45.2426 17.2428 45.3105 17.1438 45.329L15.2941 45.292C15.2941 45.292 14.8673 45.2056 15.2446 44.3789C15.5787 44.527 15.888 44.638 15.9746 44.3789Z" fill="#4A2A1A"/>
<path fill-rule="evenodd" clip-rule="evenodd" d="M18.0157 32.9517L17.4651 38.2944L16.5681 43.6494H14.4092L15.0897 32.7852L18.0157 32.9517Z" fill="#065D66"/>
<path fill-rule="evenodd" clip-rule="evenodd" d="M13.1039 38.6713L10.4191 43.9831C9.88708 44.1743 9.55922 43.6191 9.70769 43.1317C10.3325 41.0033 10.3139 39.6892 12.077 37.7891L13.1039 38.6713Z" fill="#FCBF8F"/>
<path fill-rule="evenodd" clip-rule="evenodd" d="M15.7268 32.5263L14.1184 37.7825C14.0503 38.0293 11.1923 43.1931 11.1923 43.1931L9.8252 42.4096C10.1654 40.2194 12.6584 31.9648 12.6584 31.9648L14.0503 32.0204L15.7268 32.5263Z" fill="#065D66"/>
<path fill-rule="evenodd" clip-rule="evenodd" d="M10.4012 43.7127L10.4198 44.4345C10.4074 44.5888 10.6301 45.2057 10.6301 45.2057C10.5621 45.3353 10.4383 45.2797 10.3579 45.2057L9.2568 43.7251C9.2568 43.7251 9.06503 43.3364 9.94964 43.1328C10.0363 43.4845 10.1476 43.7991 10.4012 43.7127Z" fill="#4A2A1A"/>
<path d="M19.377 22.9585C19.8905 21.9282 20.1132 21.5025 20.6081 20.4537L21.3875 20.4414C20.7132 22.6932 20.8246 23.4027 20.1132 24.106C19.043 24.0135 19.309 23.2238 19.377 22.9585Z" fill="#FCBF8F"/>
<path d="M20.9298 21.0834L21.3999 20.6392C21.4927 20.5528 21.5546 20.4295 21.5669 20.2999L21.6226 19.7755C21.6412 19.5966 21.4742 19.4485 21.2948 19.4979L20.7318 20.0901C20.6081 20.2197 20.5339 20.4048 20.5215 20.6022L20.5029 20.9353L20.9298 21.0834Z" fill="#FCBF8F"/>
<path fill-rule="evenodd" clip-rule="evenodd" d="M15.4609 24.1115C15.4609 24.1115 19.7727 22.8591 20.0201 23.3341L20.1376 23.5439C20.2861 23.8153 20.1438 24.1485 19.8469 24.2287L17.6199 24.8148L17.1931 24.9382L15.4609 24.1115Z" fill="#B06052"/>
<path fill-rule="evenodd" clip-rule="evenodd" d="M13.7232 28.6406L17.6205 28.9491C18.2762 29.1897 18.0164 32.9592 18.0164 32.9592L15.4986 33.0826C14.2676 33.0579 12.8139 34.0203 12.6592 31.9721C12.486 29.6339 13.7232 28.6406 13.7232 28.6406Z" fill="#065D66"/>
<path fill-rule="evenodd" clip-rule="evenodd" d="M16.5934 23.8524L15.1149 23.6797L14.7066 23.6982L12.9002 24.2781C12.3806 24.5311 12.4054 25.0925 12.6033 25.6354C12.6033 25.6354 12.8013 29.9663 12.8755 31.3358C15.2633 31.0212 17.1996 30.9595 18.0471 30.7929C18.0409 30.7929 17.6574 25.6169 16.5934 23.8524Z" fill="#5B8EF5"/>
<path fill-rule="evenodd" clip-rule="evenodd" d="M15.8445 22.9099C15.8445 22.9099 15.7703 23.4898 15.7023 23.971C15.6837 24.1006 15.5909 24.0882 15.4672 24.1129C15.294 24.1499 15.0836 24.1684 14.9847 24.0882C14.9537 24.0635 14.6692 23.8723 14.7125 23.6995C14.8176 23.2554 15.1764 22.4102 15.1764 22.4102L15.8445 22.9099Z" fill="#FCBF8F"/>
<path fill-rule="evenodd" clip-rule="evenodd" d="M14.8792 22.2853C14.8235 22.1249 14.9101 21.946 15.071 21.8905C15.2442 21.8288 15.4607 21.7609 15.6339 21.6992C15.7947 21.6437 15.9494 21.7424 16.0236 21.8966C16.1164 22.0755 16.2216 22.4827 16.2587 22.785C16.2834 22.9578 16.203 23.1428 16.0422 23.1984C15.869 23.2601 15.2998 23.2662 15.1452 22.9763C15.0277 22.7418 14.9596 22.5197 14.8792 22.2853Z" fill="#FCBF8F"/>
<path fill-rule="evenodd" clip-rule="evenodd" d="M14.3975 23.0808C14.3975 23.0808 14.4036 22.1986 14.614 21.9148C14.8985 21.5323 15.3254 21.2732 15.8945 21.6064C15.8945 21.6064 15.6904 22.322 14.614 23.0562L14.3975 23.0808Z" fill="#572A22"/>
<path fill-rule="evenodd" clip-rule="evenodd" d="M14.9164 22.9887C15.003 23.0998 15.1515 23.1306 15.2381 23.0566C15.3247 22.9826 15.3309 22.8345 15.2443 22.7234C15.1577 22.6124 15.0092 22.5816 14.9226 22.6556C14.836 22.7296 14.8298 22.8777 14.9164 22.9887Z" fill="#FCBF8F"/>
<path fill-rule="evenodd" clip-rule="evenodd" d="M11.9038 28.2083L13.5555 26.1971C13.9638 25.7221 13.8401 24.9941 13.3081 24.6733C13.0977 24.5437 12.8194 24.6116 12.6895 24.8214L11.0625 27.4187L11.9038 28.2083Z" fill="#B06052"/>
<path fill-rule="evenodd" clip-rule="evenodd" d="M21.2761 21.3914L20.1997 20.9102L19.3398 23.0139C19.3398 23.0139 16.3643 23.8221 16.1354 23.7974C15.9065 23.7727 17.1561 25.8024 17.1561 25.8024L19.5749 25.056C19.5749 25.056 20.4905 24.9696 20.7441 24.0997C20.8678 23.6185 21.2761 21.3914 21.2761 21.3914Z" fill="#5B8EF5"/>
<path d="M15.257 31.0225L11.1928 32.3242C10.9824 32.3921 10.7597 32.2749 10.6917 32.0651L9.88749 29.5727C9.81944 29.3629 9.93698 29.1408 10.1473 29.073L14.2116 27.7712C14.4219 27.7034 14.6446 27.8206 14.7127 28.0303L15.5169 30.5228C15.5849 30.7325 15.4674 30.9546 15.257 31.0225Z" fill="#192743"/>
<path fill-rule="evenodd" clip-rule="evenodd" d="M11.5266 27.1035C11.0008 27.3194 10.6976 27.8007 10.877 28.4299L12.3679 31.2678L12.8009 30.7619L12.04 28.4793L11.5266 27.1035Z" fill="#FCBF8F"/>
<path d="M12.795 30.763L12.8692 31.3429C12.8816 31.4601 12.8568 31.5773 12.795 31.6761L12.5352 32.0709C12.4424 32.2066 12.2444 32.2128 12.1454 32.0832L12.0898 31.3491C12.0774 31.1887 12.1269 31.0159 12.232 30.8679L12.4052 30.6211L12.795 30.763Z" fill="#FCBF8F"/>
<path fill-rule="evenodd" clip-rule="evenodd" d="M12.8814 30.5344L11.9039 30.7935C11.9039 30.7935 10.7904 28.7267 10.7038 28.4861C10.6172 28.2455 10.5863 27.7335 10.908 27.3325C11.2297 26.9315 12.7081 24.4082 12.7081 24.4082C12.7081 24.4082 13.6237 24.4761 14.1866 25.5927C14.5825 26.3824 12.1761 28.0728 12.1761 28.0728L12.8814 30.5344Z" fill="#5B8EF5"/>
<path d="M24.0661 12.7491C24.1713 12.7491 24.2764 12.7615 24.3754 12.7862L24.6414 12.8478L24.629 8.91797L14.1807 8.95498L14.2178 19.375L18.1089 19.3627C18.0779 19.2516 18.0594 19.1344 18.0594 19.011C18.0594 18.2522 18.6718 17.6353 19.4327 17.6291C20.1936 17.6291 20.8122 18.2399 20.8184 18.9987C20.8184 19.1036 20.806 19.2084 20.7813 19.3133L20.7751 19.3503L24.6661 19.338L24.6538 15.3958L24.4929 15.4451C24.363 15.4883 24.2207 15.513 24.0723 15.513C23.3114 15.513 22.6928 14.9022 22.6866 14.1434C22.6866 13.3722 23.3052 12.7491 24.0661 12.7491Z" stroke="#065D66" stroke-width="1.3215" stroke-linecap="round" stroke-linejoin="round"/>
<path d="M36.4757 13.1551C36.5808 13.1551 36.686 13.1674 36.785 13.1859L37.5892 13.3587L37.5397 8.68232L33.5991 8.71934L33.6981 8.26281C33.7228 8.1641 33.729 8.05922 33.729 7.95434C33.7228 7.20168 33.1042 6.60325 32.3495 6.60942C31.5948 6.61559 30.9948 7.23253 31.001 7.98519C31.001 8.12708 31.0257 8.26898 31.069 8.39853L31.1742 8.75019L27.2089 8.7872L27.2584 13.4697L26.4294 13.2908C26.3304 13.2661 26.2253 13.26 26.1201 13.26C25.3654 13.2661 24.7653 13.8831 24.7715 14.6357C24.7777 15.3884 25.3963 15.9868 26.151 15.9807C26.2933 15.9807 26.4356 15.956 26.5655 15.9128L27.2831 15.6907L27.3202 19.0838L31.3226 19.0468L31.1804 18.578C31.1371 18.4484 31.1123 18.3065 31.1123 18.1646C31.1061 17.412 31.7062 16.8012 32.4609 16.7888C33.2156 16.7827 33.828 17.3811 33.8404 18.1338C33.8404 18.2386 33.828 18.3435 33.8095 18.4422L33.6857 19.016L37.651 18.979L37.6139 15.592L36.9211 15.8018C36.7912 15.8449 36.6489 15.8696 36.5066 15.8696C35.7519 15.8758 35.1395 15.2774 35.1271 14.5247C35.1147 13.7782 35.721 13.1613 36.4757 13.1551Z" fill="#30B3AF"/>
<path d="M9.78831 42.7363C9.78831 42.7363 9.3491 42.9399 8.65625 43.6L10.7719 45.6791C10.7719 45.6791 11.4029 45.0683 10.9204 44.4823C10.4379 43.8962 10.7039 43.6309 10.7039 43.6309L9.78831 42.7363Z" fill="#192743"/>
<path d="M14.9724 44.0762C14.9724 44.0762 14.793 44.5204 14.7373 45.4766L17.7128 45.5506C17.7128 45.5506 17.7561 44.6746 17.0014 44.5759C16.2467 44.471 16.2653 44.107 16.2653 44.107L14.9724 44.0762Z" fill="#192743"/>
<path d="M16.2777 21.4355C16.2777 21.4355 16.5499 22.9655 16.4076 23.0889C16.2158 23.2 16.0055 23.2802 15.789 23.3234L15.7209 23.8354L14.7188 23.7491L14.6631 23.4838C14.7806 23.2432 14.8734 22.9964 14.9415 22.7434C14.9415 22.7434 14.5208 22.4782 14.7497 22.2499C14.9786 22.0216 15.1332 22.398 15.1332 22.398L15.2446 22.3733L15.257 21.7193C15.2631 21.7132 15.9684 21.7378 16.2777 21.4355Z" fill="#FCBF8F"/>
<path d="M15.6651 20.7448C15.2507 20.9546 15.1517 21.152 14.9475 21.152C14.7434 21.152 13.9516 20.9916 13.8464 21.8059C13.7412 22.6203 14.3289 23.4593 14.6568 23.484C14.7743 23.2434 14.8671 22.9966 14.9352 22.7437C14.9352 22.7437 14.5145 22.4784 14.7434 22.2501C14.9661 22.0219 15.1269 22.3982 15.1269 22.3982L15.2383 22.3735L15.2507 21.7196C15.2507 21.7196 15.9559 21.7442 16.2652 21.4358C16.5621 21.1335 16.0796 20.5351 15.6651 20.7448Z" fill="#DD7222"/>
<path d="M13.7965 31.2246L12.881 36.9559L10.5674 42.6873" stroke="#192743" stroke-width="0.330376" stroke-miterlimit="10"/>
<path d="M16.4445 30.9727L16.2033 37.9749L15.5537 43.6507" stroke="#192743" stroke-width="0.330376" stroke-miterlimit="10"/>
<path d="M42.2904 44.0332C42.2904 44.0332 42.4698 44.4774 42.5255 45.4336L39.5561 45.5077C39.5561 45.5077 39.5128 44.6316 40.2675 44.5329C41.0222 44.428 41.0099 44.064 41.0099 44.064L42.2904 44.0332Z" fill="#192743"/>
<path d="M48.773 43.8789C48.773 43.8789 49.0081 44.2984 49.1875 45.2362L46.2491 45.6989C46.2491 45.6989 46.0944 44.8352 46.8244 44.6377C47.5605 44.4403 47.4925 44.0763 47.4925 44.0763L48.773 43.8789Z" fill="#192743"/>
<path d="M42.6428 22.47C43.1686 23.0067 43.8676 22.6859 43.8429 22.7044C43.8986 22.7291 43.9542 22.76 44.0099 22.7846C44.2697 22.908 44.7894 22.9574 44.7956 22.834C44.8017 22.76 44.8017 22.6798 44.8017 22.6057C44.8017 22.0505 44.3749 21.5693 44.4306 21.0325C44.4862 20.4958 44.412 19.8234 43.8429 19.6259C42.9273 19.2866 42.6242 19.7 42.6242 19.7C42.1726 19.7493 42.117 20.3107 42.0365 20.7734C41.9623 21.2361 41.9932 21.1744 41.7334 21.6927C41.7025 21.7667 41.653 21.8592 41.6221 21.9394L42.3273 22.6181C42.4386 22.5996 42.6428 22.4638 42.6428 22.47Z" fill="#3A2604"/>
<path d="M42.7855 21.86C42.7607 22.0698 42.7174 22.2672 42.6432 22.4646C43.1504 22.9767 43.8124 22.7052 43.8433 22.6991C43.701 22.5263 43.5835 22.3289 43.503 22.1192C43.3793 21.8169 43.3917 21.4775 43.534 21.1876C43.6082 21.2986 43.9732 20.7619 43.7752 20.7002C43.5773 20.6385 43.5773 20.8051 43.5773 20.8051C43.1752 20.7372 42.4638 20.0586 42.4638 20.0586C42.3586 20.62 42.3339 21.5701 42.3957 21.6935C42.4576 21.8169 42.7855 21.86 42.7855 21.86Z" fill="#8E5913"/>
</g>
<defs>
<clipPath id="clip0_2776_38303">
<rect width="46" height="42.1983" fill="white" transform="translate(5 3.5)"/>
</clipPath>
</defs>
</svg>
