<svg width="56" height="48" viewBox="0 0 56 48" fill="none" xmlns="http://www.w3.org/2000/svg">
<g clip-path="url(#clip0_2776_38491)">
<g clip-path="url(#clip1_2776_38491)">
<path d="M11.5133 45.1L6.62577 42.273C-1.70742 37.4525 -0.662487 29.0319 8.96034 23.4656C10.1009 22.806 11.3109 22.2158 12.5718 21.6959C21.9467 17.8322 52.5584 31.062 51.8267 34.6781C51.1771 37.8862 48.5492 41.1333 44.0259 43.7496C34.4031 49.3159 19.8473 49.9205 11.5141 45.1H11.5133Z" fill="#F9F8F4"/>
<path d="M40.2341 23.9572C40.2341 23.9572 37.6971 18.8508 40.1273 16.1252C42.5575 13.3995 38.7078 8.86737 42.9266 6.06424C47.1454 3.26031 46.6863 1.47461 46.6863 1.47461C46.6863 1.47461 49.3006 8.00966 47.1055 11.1346C44.9104 14.2596 44.7941 19.996 43.8097 21.4607C42.8253 22.9246 41.735 26.2204 41.735 26.2204L40.2333 23.9572H40.2341Z" fill="#47B574"/>
<path d="M41.4668 21.1973C41.4668 21.1973 42.1451 16.1757 43.9385 11.602C44.9651 8.98335 47.039 4.06309 46.8182 2.38281" stroke="#4A996A" stroke-width="0.488311" stroke-miterlimit="10"/>
<path d="M40.2733 27.3033C40.2733 27.3033 42.7385 17.9331 47.4021 15.1819C52.0657 12.4307 54.7143 14.6756 54.7143 14.6756C54.7143 14.6756 52.4275 15.0214 50.7577 17.3222C49.0879 19.6238 47.4539 20.8896 46.3062 21.6451C45.1584 22.4006 43.6281 26.523 43.6281 26.523L40.2725 27.3041L40.2733 27.3033Z" fill="#80D6A3"/>
<path d="M43.4824 22.269C43.4824 22.269 46.6762 17.2641 48.5174 16.5805C50.3594 15.8977 52.1185 14.4195 53.6863 14.5512" stroke="#4A996A" stroke-width="0.488311" stroke-miterlimit="10"/>
<path d="M26.318 24.9949L12.0029 16.7141L26.2287 8.48438L40.6849 16.7484L26.318 24.9949Z" fill="#EEFFFC"/>
<path d="M26.3174 24.9945L26.3365 36.104L40.6843 27.8679V16.748L26.3174 24.9945Z" fill="#B2DCD8"/>
<path d="M12.0234 16.7109V27.8173L26.3393 36.0981V24.9926L12.0234 16.7109Z" fill="#D4F4EE"/>
<path d="M19.9531 41.5557L10.8604 36.2953L19.8965 31.0684L29.0786 36.3176L19.9531 41.5557Z" fill="#EEFFFC"/>
<path d="M19.9531 41.5565L19.9619 46.674L29.0786 41.4415V36.3184L19.9531 41.5565Z" fill="#B2DCD8"/>
<path d="M10.874 36.2949V41.4156L19.9668 46.6753V41.5546L10.874 36.2949Z" fill="#D4F4EE"/>
<path d="M34.5974 19.4603L26.3989 14.81C26.3041 14.7565 26.3145 14.6606 26.4213 14.5983L30.267 12.3526C30.3746 12.2903 30.5396 12.2831 30.6345 12.3367L38.833 16.987C38.9278 17.0405 38.9175 17.1363 38.8107 17.1986L34.9649 19.4443C34.8573 19.5066 34.6923 19.5138 34.5974 19.4603Z" fill="#B2DCD8"/>
<path d="M35.298 10.48C35.4694 10.579 35.6041 10.7954 35.6001 10.9631L35.3968 18.5835C35.3928 18.7512 35.2502 18.8071 35.0788 18.7081L22.4662 11.408C22.2949 11.3089 22.1602 11.0925 22.1641 10.9248L22.3674 3.30443C22.3722 3.13672 22.5141 3.08081 22.6854 3.17984L35.2988 10.48H35.298Z" fill="#EFEFEF"/>
<path d="M35.92 8.86815C35.92 8.86815 35.92 8.86735 35.92 8.86655C35.92 8.86575 35.92 8.86415 35.92 8.86335C35.92 8.85856 35.92 8.85457 35.9192 8.84978C35.9192 8.84658 35.9192 8.84259 35.9176 8.8386C35.9176 8.8386 35.9176 8.8378 35.9176 8.837C35.9176 8.837 35.9176 8.837 35.9176 8.8362C35.9176 8.83221 35.916 8.82742 35.916 8.82342C35.916 8.81943 35.9144 8.81464 35.9136 8.81065V8.80905V8.80745C35.9136 8.80426 35.912 8.80106 35.912 8.79787C35.9112 8.79388 35.9096 8.78908 35.9088 8.78509C35.9088 8.78269 35.908 8.7811 35.9072 8.7787C35.9072 8.7779 35.9072 8.7771 35.9072 8.77631C35.9072 8.77471 35.9072 8.77391 35.9064 8.77231C35.9048 8.76832 35.904 8.76353 35.9024 8.75953C35.9008 8.75554 35.9 8.75155 35.8984 8.74756C35.8968 8.74356 35.8953 8.73877 35.8937 8.73478C35.8921 8.73078 35.8905 8.72599 35.8889 8.722C35.8889 8.7212 35.8881 8.7196 35.8873 8.71881C35.8873 8.71801 35.8873 8.71721 35.8865 8.71641C35.8857 8.71401 35.8849 8.71162 35.8833 8.70922C35.8817 8.70523 35.8793 8.70124 35.8777 8.69644C35.8761 8.69325 35.8745 8.69005 35.8729 8.68686C35.8729 8.68686 35.8729 8.68606 35.8729 8.68526C35.8729 8.68526 35.8729 8.68446 35.8729 8.68367C35.8713 8.67967 35.8689 8.67568 35.8674 8.67169C35.8658 8.66769 35.8634 8.6645 35.8618 8.66051C35.861 8.65891 35.8602 8.65731 35.8594 8.65571C35.8594 8.65571 35.8594 8.65412 35.8586 8.65332C35.8578 8.65172 35.857 8.65012 35.8562 8.64853C35.8538 8.64453 35.8514 8.64054 35.8498 8.63655C35.8474 8.63256 35.845 8.62856 35.8426 8.62537C35.8426 8.62537 35.8426 8.62537 35.8426 8.62457C35.8426 8.62457 35.8426 8.62377 35.8418 8.62297C35.8395 8.61898 35.8371 8.61499 35.8339 8.61099C35.8315 8.607 35.8291 8.60381 35.8259 8.59981C35.8243 8.59742 35.8227 8.59502 35.8211 8.59262C35.8203 8.59183 35.8195 8.59023 35.8187 8.58943C35.8147 8.58304 35.81 8.57745 35.8052 8.57186C35.8036 8.57026 35.802 8.56787 35.8012 8.56627C35.8012 8.56627 35.8012 8.56627 35.8012 8.56547C35.7956 8.55828 35.7892 8.5511 35.7837 8.54391C35.7829 8.54311 35.7821 8.54151 35.7813 8.54071C35.7813 8.53992 35.7797 8.53912 35.7789 8.53832C35.7765 8.53592 35.7749 8.53353 35.7725 8.53113C35.7693 8.52714 35.7653 8.52314 35.7613 8.51915C35.7598 8.51755 35.7582 8.51596 35.7574 8.51436C35.7574 8.51436 35.7558 8.51276 35.755 8.51196C35.7534 8.51037 35.7526 8.50877 35.751 8.50797C35.7478 8.50398 35.7438 8.50078 35.7398 8.49679C35.7374 8.49439 35.7342 8.4912 35.7319 8.4888C35.7319 8.4888 35.7311 8.48801 35.7303 8.48721C35.7303 8.48721 35.7295 8.48641 35.7287 8.48561C35.7247 8.48162 35.7207 8.47842 35.7167 8.47523C35.7127 8.47124 35.7087 8.46804 35.7048 8.46485C35.7008 8.46165 35.6968 8.45846 35.6928 8.45526C35.6888 8.45207 35.684 8.44887 35.68 8.44568C35.68 8.44568 35.6793 8.44568 35.6785 8.44488C35.6785 8.44488 35.6769 8.44408 35.6769 8.44328C35.6737 8.44089 35.6705 8.43849 35.6673 8.4361C35.6633 8.4329 35.6585 8.42971 35.6545 8.42731C35.6537 8.42651 35.6522 8.42571 35.6506 8.42492C35.6506 8.42492 35.6506 8.42492 35.6498 8.42412C35.6474 8.42252 35.645 8.42092 35.6418 8.41933C35.6378 8.41693 35.633 8.41373 35.629 8.41134C35.6282 8.41134 35.3246 8.23485 35.3238 8.23485H35.3222L23.0515 1.13438C23.0515 1.13438 23.0515 1.13438 23.0507 1.13438L23.0324 1.12399C23.0181 1.11601 23.0013 1.10642 22.9997 1.10483C22.9957 1.10243 22.991 1.10003 22.987 1.09844C22.983 1.09604 22.9782 1.09444 22.9742 1.09205C22.9702 1.08965 22.9654 1.08806 22.9615 1.08646C22.9567 1.08486 22.9527 1.08247 22.9479 1.08087C22.9431 1.07927 22.9391 1.07767 22.9344 1.07608C22.9296 1.07448 22.9248 1.07288 22.9208 1.07208C22.9208 1.07208 22.9208 1.07208 22.92 1.07208C22.92 1.07208 22.9192 1.07208 22.9184 1.07208C22.9144 1.07128 22.9105 1.06969 22.9065 1.06889C22.9041 1.06889 22.9025 1.06809 22.9001 1.06729C22.8985 1.06729 22.8969 1.06729 22.8953 1.06649C22.8937 1.06649 22.8929 1.06649 22.8913 1.06649C22.8865 1.06569 22.8818 1.0649 22.877 1.0641C22.877 1.0641 22.8762 1.0641 22.8754 1.0641C22.8698 1.0641 22.8642 1.0633 22.8586 1.0625H22.8571C22.8547 1.0625 22.8523 1.0625 22.8499 1.0625C22.8467 1.0625 22.8443 1.0625 22.8411 1.0625C22.8403 1.0625 22.8395 1.0625 22.8387 1.0625C22.8347 1.0625 22.8307 1.0625 22.8268 1.0633C22.8244 1.0633 22.8228 1.0633 22.8204 1.0633C22.8204 1.0633 22.8196 1.0633 22.8188 1.0633C22.8108 1.0649 22.8036 1.06649 22.7965 1.06889C22.7965 1.06889 22.7957 1.06889 22.7949 1.06889C22.7949 1.06889 22.7933 1.06889 22.7925 1.06969C22.7837 1.07288 22.7742 1.07688 22.7662 1.08167L22.4521 1.26535C22.4601 1.26056 22.4689 1.25736 22.4777 1.25417C22.4808 1.25337 22.4848 1.25177 22.488 1.25097C22.492 1.25017 22.4968 1.24858 22.5008 1.24778C22.5063 1.24698 22.5111 1.24618 22.5167 1.24538C22.5191 1.24538 22.5207 1.24538 22.5231 1.24538C22.5311 1.24538 22.539 1.24538 22.547 1.24538C22.5486 1.24538 22.5502 1.24538 22.5518 1.24538C22.5598 1.24538 22.5685 1.24698 22.5773 1.24858H22.5789C22.5876 1.25017 22.5972 1.25257 22.6068 1.25497C22.6068 1.25497 22.6084 1.25497 22.6092 1.25497C22.6187 1.25736 22.6275 1.26135 22.6371 1.26455C22.6379 1.26455 22.6387 1.26455 22.6403 1.26535C22.6506 1.26934 22.661 1.27413 22.6713 1.27972C22.6753 1.28212 22.6801 1.28372 22.6841 1.28611C22.6873 1.28771 22.6905 1.2901 22.6937 1.2917L22.763 1.33163L35.0065 8.41773L34.9954 8.42492C34.9954 8.42492 35.315 8.59502 35.319 8.59742C35.323 8.59981 35.3278 8.60301 35.3317 8.6054C35.3357 8.6086 35.3405 8.61099 35.3445 8.61419C35.3485 8.61738 35.3533 8.62058 35.3572 8.62377C35.3588 8.62537 35.3604 8.62617 35.3628 8.62776C35.37 8.63335 35.3764 8.63815 35.3827 8.64374C35.3891 8.64933 35.3963 8.65492 35.4027 8.6613C35.4035 8.6613 35.4043 8.6629 35.4051 8.6637C35.4114 8.66929 35.417 8.67568 35.4234 8.68127C35.4242 8.68207 35.425 8.68287 35.4258 8.68367C35.4314 8.68926 35.4369 8.69565 35.4433 8.70203C35.4441 8.70283 35.4457 8.70443 35.4465 8.70523C35.4521 8.71162 35.4577 8.71801 35.4632 8.7244C35.4656 8.72759 35.4688 8.73078 35.4712 8.73478C35.4744 8.73877 35.4776 8.74276 35.4808 8.74676C35.4848 8.75155 35.488 8.75634 35.4919 8.76113C35.4943 8.76433 35.4967 8.76752 35.4991 8.77072C35.5007 8.77391 35.5031 8.77631 35.5047 8.7795C35.5079 8.78429 35.5119 8.78988 35.5151 8.79467C35.5159 8.79627 35.5167 8.79707 35.5174 8.79867C35.5222 8.80585 35.5262 8.81304 35.5302 8.81943C35.5302 8.81943 35.5302 8.82023 35.531 8.82103C35.535 8.82822 35.5398 8.8362 35.5438 8.84339C35.5438 8.84339 35.5445 8.84499 35.5453 8.84579C35.5493 8.85297 35.5533 8.86096 35.5565 8.86815C35.5565 8.86894 35.5573 8.86974 35.5581 8.87134C35.5613 8.87853 35.5645 8.88572 35.5677 8.8937C35.5677 8.8945 35.5685 8.8961 35.5693 8.8969C35.5724 8.90408 35.5748 8.91127 35.578 8.91926C35.578 8.92006 35.5788 8.92165 35.5796 8.92245C35.582 8.92964 35.5844 8.93683 35.5868 8.94481C35.5868 8.94561 35.5868 8.94721 35.5876 8.94801C35.59 8.95519 35.5916 8.96318 35.594 8.97037C35.594 8.97117 35.594 8.97197 35.594 8.97356C35.5956 8.98075 35.5972 8.98874 35.5987 8.99592C35.5987 8.99992 35.6003 9.00311 35.6011 9.0071C35.6011 9.0111 35.6027 9.01589 35.6027 9.01988C35.6027 9.02467 35.6035 9.02867 35.6043 9.03346C35.6043 9.03825 35.6043 9.04224 35.6051 9.04704C35.6051 9.05183 35.6051 9.05662 35.6051 9.06141C35.6051 9.0654 35.6051 9.0686 35.6051 9.07259C35.6051 9.07259 35.6051 9.07978 35.6051 9.09256L35.5732 10.2961C35.5621 10.2897 35.5071 10.2577 35.5063 10.2577L35.1795 10.4342C35.1795 10.4342 35.2704 10.4869 35.2743 10.4893C35.2783 10.4917 35.2831 10.4949 35.2871 10.4973C35.2911 10.5005 35.2959 10.5029 35.2999 10.5061C35.3038 10.5093 35.3086 10.5125 35.3126 10.5157C35.3142 10.5173 35.3158 10.5181 35.3182 10.5197C35.3254 10.5253 35.3317 10.5301 35.3381 10.5357C35.3445 10.5412 35.3517 10.5468 35.358 10.5532C35.3588 10.5532 35.3596 10.5548 35.3604 10.5556C35.3668 10.5612 35.3724 10.5676 35.3788 10.5732C35.3796 10.574 35.3804 10.5748 35.3812 10.5756C35.3867 10.5812 35.3923 10.5876 35.3987 10.5939C35.3995 10.5947 35.4011 10.5963 35.4019 10.5971C35.4075 10.6035 35.413 10.6099 35.4186 10.6163C35.421 10.6195 35.4242 10.6227 35.4266 10.6267C35.4298 10.6307 35.433 10.6347 35.4361 10.6387C35.4401 10.6435 35.4433 10.6483 35.4473 10.653C35.4497 10.6562 35.4521 10.6594 35.4545 10.6626C35.4561 10.6658 35.4585 10.6682 35.4601 10.6714C35.4632 10.6762 35.4672 10.6818 35.4704 10.6866C35.4712 10.6882 35.472 10.689 35.4728 10.6906C35.4776 10.6978 35.4816 10.705 35.4856 10.7113C35.4856 10.7113 35.4856 10.7121 35.4864 10.7129C35.4903 10.7201 35.4951 10.7281 35.4991 10.7353C35.4991 10.7353 35.4999 10.7369 35.5007 10.7377C35.5047 10.7449 35.5087 10.7529 35.5119 10.7601C35.5119 10.7609 35.5127 10.7617 35.5135 10.7633C35.5167 10.7704 35.5198 10.7776 35.523 10.7856C35.523 10.7864 35.5238 10.788 35.5246 10.7888C35.5278 10.796 35.5302 10.8032 35.5334 10.8112C35.5334 10.812 35.5342 10.8136 35.535 10.8144C35.5374 10.8216 35.5398 10.8287 35.5422 10.8367C35.5422 10.8375 35.5422 10.8391 35.543 10.8399C35.5453 10.8471 35.5469 10.8543 35.5493 10.8623C35.5493 10.8631 35.5493 10.8639 35.5493 10.8655C35.5509 10.8727 35.5525 10.8807 35.5541 10.8878C35.5541 10.8918 35.5557 10.895 35.5565 10.899C35.5565 10.9014 35.5565 10.9046 35.5573 10.907L35.4051 16.6051C35.4043 16.641 35.2967 16.8647 35.3254 16.8479L35.4059 16.7744L35.3596 18.4954C35.3588 18.5314 35.2512 18.755 35.2799 18.7382L35.5748 18.4691C35.637 18.4124 35.6729 18.3309 35.6753 18.2399L35.8721 10.8703C35.8729 10.8343 35.8745 10.7808 35.8745 10.7808C35.8745 10.7768 35.8745 10.7736 35.8745 10.7696C35.8745 10.7664 35.8745 10.7633 35.8745 10.7601C35.8745 10.7601 35.8745 10.7593 35.8745 10.7585C35.8745 10.7577 35.8745 10.7561 35.8745 10.7553C35.8745 10.7505 35.8745 10.7465 35.8737 10.7417C35.8737 10.7385 35.8737 10.7345 35.8721 10.7305C35.8721 10.7305 35.8721 10.7297 35.8721 10.7289C35.8721 10.7289 35.8721 10.7289 35.8721 10.7281C35.8721 10.7265 35.8721 10.7249 35.8721 10.7233L35.9184 8.97995C35.9192 8.94401 35.9208 8.89051 35.9208 8.89051C35.9208 8.88651 35.9208 8.88332 35.9208 8.87933C35.9208 8.87613 35.9208 8.87294 35.9208 8.86974L35.92 8.86815Z" fill="#D6D6D6"/>
<path d="M35.3068 9.58934C35.4782 9.68837 35.5961 9.59094 35.5913 9.75865L35.42 17.6953C35.416 17.863 35.2582 17.9165 35.0876 17.8175L22.475 10.5173C22.3037 10.4183 22.169 10.2019 22.1729 10.0342L22.3762 2.4138C22.381 2.24609 22.5228 2.19019 22.6942 2.28922L35.3076 9.58934H35.3068Z" fill="#BBBBBC"/>
<path d="M35.3064 8.58934C35.4777 8.68837 35.6124 8.90479 35.6085 9.0725L35.4196 16.6953C35.4156 16.863 35.2578 16.9165 35.0872 16.8175L22.4746 9.51733C22.3032 9.4183 22.1797 9.79205 22.1837 9.62434L22.3758 1.4138C22.3806 1.24609 22.5224 1.19019 22.6938 1.28922L35.3072 8.58934H35.3064Z" fill="#BBBBBC"/>
<path d="M35.2835 9.5153C35.289 9.37474 35.1623 9.18547 34.9997 9.09283L23.0535 2.29024C22.8917 2.1976 22.7554 2.23753 22.7498 2.37809L22.7131 3.30129C22.7083 3.31646 22.7052 3.33323 22.7044 3.3516L22.5402 9.75328C22.5346 9.89384 22.7179 10.1526 22.8797 10.2452L34.6833 16.9664C34.8451 17.059 34.9814 17.0191 34.987 16.8785L35.0236 15.9553C35.0284 15.9401 35.0316 15.9234 35.0324 15.905L35.2843 9.5153H35.2835Z" fill="#FFCF2E"/>
<path d="M35.1344 19.228L35.1305 18.7273L34.6458 19.0379L34.5422 18.7975L22.3903 11.7681C22.2437 11.6835 21.9536 11.6939 21.7838 11.7921L16.5193 14.8188V14.7342L15.7198 15.1231L15.6074 15.0776L15.6226 15.4474C15.6345 15.528 15.6656 15.5616 15.715 15.5903L28.3611 22.9248C28.5077 23.0094 28.766 23.0086 28.935 22.9104L34.995 19.4101C35.0874 19.3566 35.1344 19.2903 35.1344 19.2256V19.228Z" fill="#A0A0A0"/>
<path d="M28.3542 22.4319L15.7081 15.1167C15.5614 15.032 15.5806 14.8827 15.7495 14.7852L21.8095 11.2801C21.9785 11.1827 22.2368 11.1715 22.3826 11.2562L35.0287 18.5715C35.1753 18.6561 35.1562 18.8054 34.9872 18.9029L28.9272 22.408C28.7583 22.5054 28.5 22.5166 28.3542 22.4319Z" fill="#E2E2E2"/>
<g style="mix-blend-mode:multiply" opacity="0.56">
<path d="M22.5656 12.6114C22.5473 12.6217 22.5098 12.6177 22.4819 12.6018L21.7144 12.1577C21.6865 12.1418 21.6793 12.1202 21.6976 12.109L22.2061 11.8143C22.2245 11.804 22.2619 11.8079 22.2898 11.8239L23.0574 12.2679C23.0853 12.2839 23.0925 12.3055 23.0741 12.3159L22.5656 12.6106V12.6114Z" fill="#7FB0F0"/>
<path d="M23.4572 13.9348C23.4389 13.9452 23.4014 13.9412 23.3735 13.9252L22.606 13.4812C22.5781 13.4652 22.5709 13.4436 22.5892 13.4332L23.0977 13.1386C23.1161 13.1282 23.1527 13.1322 23.1806 13.1481L23.9482 13.5922C23.9761 13.6081 23.9833 13.6297 23.9657 13.6401L23.4572 13.9348Z" fill="#7FB0F0"/>
<path d="M23.0068 14.4873C22.9885 14.4977 22.951 14.4937 22.9231 14.4777L22.1556 14.0337C22.1285 14.0177 22.1205 13.9962 22.1388 13.9858L22.6473 13.6911C22.6657 13.6807 22.7031 13.6855 22.7302 13.7007L23.4978 14.1447C23.5257 14.1607 23.5329 14.1822 23.5153 14.1926L23.0068 14.4873Z" fill="#7FB0F0"/>
<path d="M21.7892 14.5949C21.7709 14.6053 21.7334 14.6013 21.7063 14.5853L20.9388 14.1413C20.9117 14.1253 20.9037 14.1038 20.922 14.0934L21.4305 13.7987C21.4489 13.7883 21.4863 13.7923 21.5142 13.8083L22.2818 14.2523C22.3089 14.2683 22.3169 14.2899 22.2985 14.3002L21.79 14.5949H21.7892Z" fill="#7FB0F0"/>
<path d="M19.676 14.2828C19.6576 14.2931 19.6202 14.2891 19.5923 14.2732L18.8247 13.8291C18.7968 13.8132 18.7896 13.7916 18.808 13.7812L19.405 13.4354C19.4233 13.425 19.4608 13.429 19.4887 13.445L20.2562 13.889C20.2841 13.905 20.2913 13.9266 20.273 13.937L19.676 14.2828Z" fill="#7FB0F0"/>
<path d="M20.9997 15.0475C20.9814 15.0578 20.9367 15.0499 20.9009 15.0283L19.895 14.4469C19.8591 14.4261 19.844 14.4006 19.8623 14.3894L20.4593 14.0436C20.4768 14.0332 20.5223 14.0412 20.5581 14.062L21.564 14.6434C21.6007 14.6641 21.615 14.6905 21.5967 14.7009L20.9997 15.0467V15.0475Z" fill="#7FB0F0"/>
<path d="M27.6074 18.8756C27.5922 18.8844 27.5572 18.8788 27.5293 18.8628L26.7625 18.4196C26.7346 18.4036 26.7242 18.3829 26.7394 18.3741L26.9602 18.2463C26.9753 18.2375 27.0104 18.2431 27.0383 18.2599L27.8051 18.7031C27.8329 18.7191 27.8425 18.7391 27.8274 18.7478L27.6066 18.8756H27.6074Z" fill="#7FB0F0"/>
<path d="M28.6337 19.485C28.6186 19.4938 28.5835 19.4882 28.5556 19.4722L27.7889 19.029C27.761 19.013 27.7506 18.9922 27.7658 18.9835L27.9865 18.8557C28.0017 18.8469 28.0368 18.8525 28.0647 18.8693L28.8314 19.3125C28.8593 19.3285 28.8689 19.3484 28.8537 19.3572L28.633 19.485H28.6337Z" fill="#7FB0F0"/>
<path d="M29.7209 20.098C29.7066 20.1068 29.6715 20.1004 29.6436 20.0845L28.8761 19.6404C28.8482 19.6244 28.8378 19.6045 28.8521 19.5957L29.065 19.4727C29.0793 19.4639 29.1144 19.4703 29.1423 19.4863L29.9098 19.9303C29.9377 19.9463 29.9481 19.9663 29.9337 19.975L29.7209 20.098Z" fill="#7FB0F0"/>
<path d="M29.052 19.2504C29.0376 19.2592 29.0026 19.2528 28.9747 19.2368L28.2071 18.7928C28.1792 18.7768 28.1688 18.7568 28.1832 18.748L28.396 18.6251C28.4104 18.6163 28.4454 18.6227 28.4733 18.6386L29.2409 19.0827C29.2688 19.0986 29.2791 19.1186 29.2648 19.1274L29.052 19.2504Z" fill="#7FB0F0"/>
<path d="M26.2801 18.1018C26.2618 18.1121 26.2243 18.1081 26.1964 18.0914L21.2005 15.2028C21.1734 15.1868 21.1654 15.1653 21.1837 15.1541L21.7807 14.8083C21.7983 14.7979 21.8373 14.8027 21.8644 14.8179L26.8604 17.7064C26.8883 17.7224 26.8954 17.7448 26.8779 17.7552L26.2809 18.101L26.2801 18.1018Z" fill="#7FB0F0"/>
<path d="M20.8623 14.8584C20.8623 14.8584 20.8576 14.8584 20.8544 14.856L20.2677 14.5166C20.2677 14.5166 20.263 14.5126 20.2638 14.5118L20.3012 14.4902C20.3012 14.4902 20.306 14.4902 20.3092 14.4926L20.8958 14.832C20.8958 14.832 20.9006 14.836 20.8998 14.8368L20.8623 14.8584Z" fill="#7FB0F0"/>
<path d="M19.3575 13.9236C19.3575 13.9236 19.3543 13.9236 19.3527 13.9236L19.1032 13.7798C19.1032 13.7798 19.1017 13.7782 19.1032 13.7774L19.1407 13.7559C19.1407 13.7559 19.1439 13.7559 19.1455 13.7559L19.395 13.8996C19.395 13.8996 19.3966 13.902 19.395 13.902L19.3575 13.9236Z" fill="#7FB0F0"/>
<path d="M22.8408 15.2002C22.8225 15.2106 22.785 15.2066 22.7571 15.1906L21.9895 14.7466C21.9624 14.7306 21.9545 14.709 21.9728 14.6987L22.4813 14.404C22.4997 14.3936 22.5379 14.3984 22.565 14.4136L23.3326 14.8576C23.3605 14.8736 23.3676 14.8951 23.3493 14.9063L22.8408 15.201V15.2002Z" fill="#7FB0F0"/>
<path d="M23.898 15.8106C23.8797 15.821 23.8422 15.817 23.8151 15.801L23.0476 15.357C23.0197 15.341 23.0125 15.3194 23.03 15.3082L23.5385 15.0136C23.5569 15.0032 23.5943 15.0072 23.6222 15.0231L24.3898 15.4672C24.4169 15.4831 24.4249 15.5047 24.4065 15.5151L23.898 15.8098V15.8106Z" fill="#7FB0F0"/>
<path d="M24.9552 16.4231C24.9369 16.4334 24.8994 16.4294 24.8723 16.4135L24.1048 15.9694C24.0777 15.9535 24.0697 15.9319 24.088 15.9215L24.5966 15.6268C24.6149 15.6165 24.6523 15.6204 24.6802 15.6364L25.4478 16.0804C25.4749 16.0964 25.4829 16.118 25.4645 16.1284L24.956 16.4231H24.9552Z" fill="#7FB0F0"/>
<path d="M26.0131 17.0344C25.9947 17.0448 25.9573 17.0408 25.9302 17.0248L25.1626 16.5808C25.1347 16.5648 25.1275 16.5432 25.1459 16.5329L25.6544 16.2382C25.6727 16.2278 25.7102 16.2318 25.7381 16.2477L26.5056 16.6918C26.5335 16.7077 26.5407 16.7293 26.5224 16.7397L26.0139 17.0344H26.0131Z" fill="#7FB0F0"/>
<path d="M27.0693 17.6465C27.051 17.6569 27.0135 17.6529 26.9856 17.6361L26.2181 17.1921C26.191 17.1761 26.183 17.1546 26.2013 17.1442L26.7098 16.8495C26.7282 16.8391 26.7656 16.8431 26.7935 16.8591L27.5611 17.3031C27.589 17.3191 27.5962 17.3414 27.5786 17.3518L27.0701 17.6465H27.0693Z" fill="#7FB0F0"/>
<path d="M28.1271 18.257C28.1088 18.2674 28.0713 18.2634 28.0434 18.2475L27.2759 17.8034C27.248 17.7875 27.2408 17.7659 27.2591 17.7555L27.7677 17.4608C27.786 17.4504 27.8235 17.4544 27.8514 17.4704L28.6189 17.9144C28.6468 17.9304 28.654 17.952 28.6357 17.9631L28.1271 18.2578V18.257Z" fill="#7FB0F0"/>
<path d="M30.5077 19.6334C30.4893 19.6438 30.4519 19.6398 30.424 19.6239L28.3325 18.4148C28.3046 18.3988 28.2974 18.3772 28.3158 18.3668L28.8243 18.0721C28.8426 18.0618 28.8801 18.0658 28.908 18.0817L30.9995 19.2908C31.0274 19.3068 31.0345 19.3284 31.0162 19.3395L30.5077 19.6342V19.6334Z" fill="#7FB0F0"/>
<path d="M24.0589 15.0949C24.0406 15.1053 24.004 15.1013 23.9761 15.0853L23.2085 14.6413C23.1806 14.6253 23.1734 14.6038 23.1918 14.5934L23.7003 14.2987C23.7186 14.2883 23.7561 14.2923 23.7832 14.3083L24.5507 14.7523C24.5786 14.7683 24.5858 14.7899 24.5675 14.8002L24.0589 15.0949Z" fill="#7FB0F0"/>
<path d="M25.1162 15.7063C25.0978 15.7166 25.0604 15.7126 25.0333 15.6967L24.2649 15.2526C24.2378 15.2367 24.2299 15.2151 24.2482 15.2047L24.7567 14.91C24.775 14.8997 24.8125 14.9037 24.8396 14.9196L25.608 15.3637C25.6351 15.3796 25.643 15.4012 25.6247 15.4116L25.1162 15.7063Z" fill="#7FB0F0"/>
<path d="M26.1734 16.3154C26.155 16.3258 26.1176 16.3218 26.0897 16.3058L25.3221 15.8618C25.295 15.8458 25.2863 15.8242 25.3046 15.8139L25.8131 15.5192C25.8314 15.5088 25.8689 15.5136 25.8968 15.5296L26.6644 15.9736C26.6915 15.9896 26.6994 16.0111 26.6819 16.0215L26.1734 16.3162V16.3154Z" fill="#7FB0F0"/>
<path d="M27.2302 16.927C27.2119 16.9373 27.1744 16.9333 27.1473 16.9174L26.3797 16.4733C26.3518 16.4574 26.3439 16.4358 26.363 16.4254L26.8715 16.1307C26.8899 16.1204 26.9273 16.1244 26.9544 16.1403L27.722 16.5844C27.7499 16.6003 27.7571 16.6219 27.7387 16.6323L27.2302 16.927Z" fill="#7FB0F0"/>
<path d="M28.2883 17.5402C28.2699 17.5506 28.2325 17.5466 28.2054 17.5307L27.437 17.0866C27.4091 17.0707 27.4019 17.0491 27.4203 17.0387L27.9288 16.744C27.9471 16.7336 27.9838 16.7376 28.0117 16.7536L28.78 17.1976C28.8071 17.2136 28.8151 17.2352 28.7968 17.2456L28.2883 17.5402Z" fill="#7FB0F0"/>
<path d="M29.3447 18.1504C29.3263 18.1608 29.2889 18.1568 29.2618 18.1408L28.4942 17.6968C28.4663 17.6808 28.4583 17.6592 28.4767 17.648L28.9852 17.3534C29.0035 17.343 29.041 17.347 29.0689 17.3637L29.8364 17.8078C29.8643 17.8237 29.8715 17.8453 29.8532 17.8557L29.3447 18.1504Z" fill="#7FB0F0"/>
<path d="M30.4023 18.7609C30.384 18.7713 30.3465 18.7673 30.3194 18.7514L29.5511 18.3073C29.524 18.2914 29.516 18.2698 29.5343 18.2594L30.0428 17.9647C30.0612 17.9543 30.0978 17.9583 30.1257 17.9743L30.8941 18.4183C30.9212 18.4343 30.9292 18.4559 30.9108 18.4663L30.4023 18.7609Z" fill="#7FB0F0"/>
<path d="M24.5095 14.5441C24.4912 14.5545 24.4537 14.5505 24.4258 14.5346L23.6583 14.0905C23.6312 14.0746 23.6232 14.053 23.6423 14.0426L24.1509 13.7479C24.1692 13.7375 24.2067 13.7415 24.2338 13.7575L25.0013 14.2015C25.0292 14.2175 25.0364 14.2391 25.0181 14.2495L24.5095 14.5441Z" fill="#7FB0F0"/>
<path d="M25.5666 15.1543C25.5483 15.1647 25.5108 15.1607 25.4829 15.1447L24.7153 14.7007C24.6874 14.6847 24.6803 14.6632 24.6986 14.652L25.2071 14.3573C25.2254 14.3469 25.2629 14.3509 25.29 14.3669L26.0576 14.8109C26.0847 14.8269 26.0926 14.8485 26.0743 14.8588L25.5658 15.1535L25.5666 15.1543Z" fill="#7FB0F0"/>
<path d="M26.623 15.7668C26.6047 15.7772 26.5672 15.7732 26.5393 15.7572L25.7718 15.3132C25.7447 15.2972 25.7367 15.2757 25.755 15.2653L26.2635 14.9706C26.2819 14.9602 26.3193 14.9642 26.3464 14.9802L27.114 15.4242C27.1419 15.4402 27.1491 15.4617 27.1315 15.4721L26.623 15.7668Z" fill="#7FB0F0"/>
<path d="M27.6799 16.3789C27.6615 16.3893 27.6241 16.3853 27.5962 16.3693L26.8286 15.9253C26.8007 15.9093 26.7935 15.8878 26.8119 15.8766L27.3204 15.5819C27.3387 15.5715 27.3762 15.5755 27.4033 15.5915L28.1709 16.0355C28.1987 16.0515 28.2059 16.0731 28.1876 16.0834L27.6791 16.3781L27.6799 16.3789Z" fill="#7FB0F0"/>
<path d="M28.7377 16.9883C28.7193 16.9987 28.6819 16.9947 28.6548 16.9787L27.8872 16.5347C27.8593 16.5187 27.8521 16.4972 27.8705 16.486L28.379 16.1913C28.3973 16.1809 28.434 16.1849 28.4619 16.2009L29.2294 16.6449C29.2565 16.6609 29.2645 16.6824 29.2462 16.6928L28.7377 16.9875V16.9883Z" fill="#7FB0F0"/>
<path d="M29.7959 17.5986C29.7775 17.609 29.7401 17.605 29.7122 17.589L28.9446 17.145C28.9175 17.129 28.9095 17.1075 28.9279 17.0971L29.4364 16.8024C29.4547 16.792 29.4922 16.7968 29.5193 16.812L30.2869 17.256C30.3148 17.272 30.3219 17.2936 30.3044 17.3039L29.7959 17.5986Z" fill="#7FB0F0"/>
<path d="M30.8527 18.209C30.8344 18.2194 30.7969 18.2154 30.769 18.1994L30.0015 17.7554C29.9736 17.7394 29.9664 17.7179 29.9847 17.7067L30.4932 17.412C30.5116 17.4016 30.549 17.4056 30.5761 17.4216L31.3437 17.8656C31.3708 17.8816 31.3788 17.9031 31.3604 17.9135L30.8519 18.2082L30.8527 18.209Z" fill="#7FB0F0"/>
<path d="M22.4004 13.3259C22.3821 13.3362 22.3446 13.3323 22.3167 13.3163L21.0151 12.564C20.9872 12.548 20.9801 12.5265 20.9984 12.5153L21.5069 12.2206C21.5253 12.2102 21.5627 12.2142 21.5898 12.2302L22.8914 12.9825C22.9193 12.9984 22.9265 13.02 22.9089 13.0304L22.4004 13.3251V13.3259Z" fill="#7FB0F0"/>
<path d="M32.6102 18.4157C32.5918 18.4261 32.5544 18.4221 32.5265 18.4061L31.2249 17.653C31.1978 17.6371 31.1898 17.6155 31.2082 17.6051L31.7167 17.3104C31.735 17.3 31.7725 17.304 31.8004 17.32L33.102 18.0731C33.1298 18.0891 33.137 18.1106 33.1187 18.121L32.6102 18.4157Z" fill="#7FB0F0"/>
<path d="M21.9489 13.8728C21.9306 13.8831 21.8939 13.8791 21.8652 13.8632L20.3133 12.9655C20.2854 12.9496 20.2775 12.928 20.2966 12.9176L20.8051 12.6229C20.8235 12.6125 20.8609 12.6165 20.888 12.6325L22.4399 13.5302C22.4678 13.5461 22.4749 13.5677 22.4574 13.5781L21.9489 13.8728Z" fill="#7FB0F0"/>
<path d="M20.732 13.9795C20.7137 13.9899 20.6762 13.9859 20.6483 13.9699L19.6138 13.3718C19.5859 13.3558 19.5787 13.3342 19.597 13.3239L20.1055 13.0292C20.1239 13.0188 20.1613 13.0228 20.1892 13.0388L21.2238 13.6369C21.2517 13.6529 21.2589 13.6745 21.2406 13.6856L20.732 13.9803V13.9795Z" fill="#7FB0F0"/>
<path d="M23.6232 13.2199C23.6049 13.2303 23.5674 13.2263 23.5395 13.2103L22.772 12.7671C22.7441 12.7511 22.7369 12.7296 22.7552 12.7184L23.2638 12.4237C23.2821 12.4133 23.3195 12.4173 23.3474 12.4333L24.115 12.8765C24.1429 12.8925 24.1501 12.9141 24.1317 12.9252L23.6232 13.2199Z" fill="#7FB0F0"/>
<path d="M24.6758 13.8293C24.6574 13.8397 24.62 13.8357 24.5921 13.8197L23.8245 13.3757C23.7974 13.3597 23.7894 13.3382 23.8078 13.3278L24.3163 13.0331C24.3346 13.0227 24.3721 13.0267 24.4 13.0427L25.1675 13.4867C25.1954 13.5027 25.2026 13.5242 25.1843 13.5354L24.6758 13.8301V13.8293Z" fill="#7FB0F0"/>
<path d="M25.7326 14.4406C25.7142 14.451 25.6768 14.447 25.6497 14.431L24.8821 13.987C24.855 13.971 24.847 13.9495 24.8654 13.9391L25.3739 13.6444C25.3922 13.634 25.4297 13.638 25.4576 13.654L26.2252 14.098C26.253 14.114 26.2602 14.1356 26.2419 14.1459L25.7334 14.4406H25.7326Z" fill="#7FB0F0"/>
<path d="M26.7902 15.0528C26.7719 15.0631 26.7344 15.0591 26.7065 15.0432L25.939 14.5991C25.9111 14.5832 25.9039 14.5616 25.9222 14.5504L26.4307 14.2557C26.4491 14.2454 26.4865 14.2494 26.5144 14.2653L27.282 14.7094C27.3099 14.7253 27.3171 14.7469 27.2987 14.7581L26.7902 15.0528Z" fill="#7FB0F0"/>
<path d="M27.847 15.6621C27.8287 15.6725 27.792 15.6685 27.7641 15.6525L26.9966 15.2085C26.9687 15.1925 26.9615 15.171 26.9798 15.1598L27.4884 14.8651C27.5067 14.8547 27.5442 14.8587 27.5721 14.8747L28.3396 15.3187C28.3675 15.3347 28.3747 15.3563 28.3564 15.3666L27.8478 15.6613L27.847 15.6621Z" fill="#7FB0F0"/>
<path d="M28.9043 16.2746C28.8859 16.285 28.8485 16.281 28.8214 16.265L28.053 15.821C28.0259 15.805 28.0179 15.7835 28.0363 15.7731L28.5448 15.4784C28.5631 15.468 28.6006 15.472 28.6277 15.488L29.3961 15.932C29.4232 15.948 29.4311 15.9695 29.4128 15.9799L28.9043 16.2746Z" fill="#7FB0F0"/>
<path d="M29.9611 16.8848C29.9428 16.8952 29.9053 16.8912 29.8774 16.8752L29.1099 16.4312C29.082 16.4152 29.0748 16.3936 29.0931 16.3825L29.6016 16.0878C29.62 16.0774 29.6574 16.0814 29.6853 16.0974L30.4529 16.5414C30.4808 16.5574 30.488 16.5789 30.4696 16.5893L29.9611 16.884V16.8848Z" fill="#7FB0F0"/>
<path d="M31.0175 17.4953C30.9992 17.5057 30.9618 17.5017 30.9347 17.4857L30.1663 17.0417C30.1392 17.0257 30.1312 17.0042 30.1496 16.9938L30.6581 16.6991C30.6764 16.6887 30.7139 16.6927 30.741 16.7087L31.5093 17.1527C31.5364 17.1687 31.5444 17.1902 31.5261 17.2006L31.0175 17.4953Z" fill="#7FB0F0"/>
<path d="M31.6328 18.0365C31.62 18.0293 31.6041 18.0237 31.5881 18.0221C31.5722 18.0205 31.5587 18.0221 31.5507 18.0269L31.0422 18.3216C31.0334 18.3264 31.0294 18.3343 31.0326 18.3439C31.0358 18.3535 31.0453 18.3623 31.0581 18.3703L31.2582 18.4861L30.591 18.8726C30.5823 18.8774 30.5791 18.8854 30.5823 18.895C30.5855 18.9046 30.595 18.9133 30.6078 18.9213L31.1251 19.22C31.1378 19.2272 31.1537 19.2328 31.1705 19.2352C31.1864 19.2376 31.2 19.2352 31.2087 19.2304L32.4179 18.53C32.4266 18.5252 32.4298 18.5172 32.4266 18.5076C32.4235 18.4981 32.4139 18.4893 32.4011 18.4813L31.6336 18.0373L31.6328 18.0365Z" fill="#7FB0F0"/>
<path d="M20.5938 13.7353C20.5938 13.7353 20.589 13.7353 20.5858 13.733L19.9992 13.3935C19.9992 13.3935 19.9944 13.3895 19.9952 13.3887L20.0327 13.3672C20.0327 13.3672 20.0375 13.3672 20.0406 13.3696L20.6273 13.709C20.6273 13.709 20.6321 13.713 20.6313 13.7138L20.5938 13.7353Z" fill="#7FB0F0"/>
</g>
<g style="mix-blend-mode:multiply" opacity="0.4">
<path d="M17.5658 31.0449L14.415 32.8075C14.2954 32.8745 14.2476 33.0111 14.309 33.1109C14.3704 33.2108 14.5178 33.2379 14.6374 33.1716L17.9954 31.2941L17.5666 31.0457L17.5658 31.0449Z" fill="#192743"/>
</g>
<g style="mix-blend-mode:multiply" opacity="0.4">
<path d="M15.5325 29.8675L15.0726 29.6016L11.9609 31.3769C11.8413 31.444 11.7935 31.5805 11.8549 31.6804C11.9163 31.7802 12.0637 31.8073 12.1833 31.741L15.5333 29.8683L15.5325 29.8675Z" fill="#192743"/>
</g>
<path d="M17.559 21.2962L17.5391 21.2842C17.4673 21.2435 17.3844 21.3018 17.3541 21.4136L16.9779 22.8247L14.7334 21.543L15.1096 20.1318C15.1399 20.0192 15.1057 19.8946 15.0339 19.8531L15.014 19.8411C14.9423 19.8004 14.8594 19.8587 14.8291 19.9705L14.4218 21.4966L14.3819 21.6452L13.8941 23.4724L13.8646 23.5818L13.3665 25.4482L13.3649 25.4554L12.8205 27.4958L12.7998 27.5725L12.312 29.3997L12.2721 29.5483L11.762 31.4601C11.7317 31.5727 11.766 31.6973 11.8377 31.7389L11.8577 31.7508C11.9294 31.7916 12.0123 31.7333 12.0426 31.6215L12.5224 29.8246L14.7669 31.1064L14.2871 32.9032C14.2568 33.0158 14.2911 33.1404 14.3628 33.182L14.3827 33.1939C14.4545 33.2347 14.5374 33.1764 14.5676 33.0646L17.6347 21.5749C17.665 21.4623 17.6307 21.3369 17.559 21.2962ZM16.8759 23.2041L16.4495 24.8013L14.205 23.5195L14.6314 21.9223L16.8759 23.2041ZM15.9226 26.7771L13.6781 25.4953L14.1046 23.8981L16.3491 25.1798L15.9226 26.7771ZM15.395 28.7528L13.1505 27.4711L13.5769 25.8738L15.8214 27.1556L15.395 28.7528ZM12.6236 29.4468L13.05 27.8496L15.2946 29.1314L14.8681 30.7286L12.6236 29.4468Z" fill="#192743"/>
<path d="M40.779 35.0846L29.7725 28.718L40.7096 22.3906L51.8245 28.7444L40.779 35.0846Z" fill="#EEFFFC"/>
<path d="M40.7793 35.0824L40.7889 41.2772L51.8249 34.9426V28.7422L40.7793 35.0824Z" fill="#B2DCD8"/>
<path d="M29.7881 28.7168V34.9148L40.7946 41.2814V35.0841L29.7881 28.7168Z" fill="#D4F4EE"/>
<path d="M19.848 11.0668L14.4033 14.2166C14.1013 14.3915 13.7227 14.1727 13.7227 13.8229V4.3521C13.7227 4.11651 13.8486 3.89769 14.0526 3.7803L19.6495 0.541921C19.8544 0.422927 20.111 0.571469 20.111 0.808657V10.61C20.111 10.7985 20.0106 10.9726 19.848 11.0668Z" fill="#FFCF2E"/>
<path d="M15.0806 9.61588C15.0567 10.7938 15.8665 11.2914 16.8899 10.7267C17.9133 10.1621 18.763 8.75018 18.7877 7.57223C18.8116 6.39427 18.0018 5.89674 16.9784 6.46136C15.955 7.02598 15.1053 8.43792 15.0806 9.61588ZM16.909 9.81793C16.3216 10.1414 15.8569 9.85626 15.8705 9.18063C15.884 8.50501 16.3718 7.69442 16.9593 7.37018C17.5467 7.04674 18.0114 7.33185 17.9978 8.00747C17.9843 8.6831 17.4965 9.49369 16.909 9.81793Z" fill="#30B3AF"/>
<path d="M15.1572 9.02178C15.39 7.99796 16.1233 6.9358 16.9777 6.46462C17.6042 6.11962 18.1502 6.17233 18.4746 6.5349L18.249 6.82879C18.249 6.82879 18.2514 6.83118 18.2522 6.83198L17.8122 7.40698C17.6257 7.20493 17.3149 7.17698 16.9594 7.37344C16.4732 7.64177 16.0555 8.24313 15.9184 8.82532L15.1572 9.02178Z" fill="#FC4A0E"/>
<path d="M17.707 8.97968C17.8816 8.66902 17.9916 8.32402 17.998 8.00936C18.0035 7.72426 17.9238 7.50863 17.7859 7.37846L17.9358 7.1796C17.9358 7.1796 17.9318 7.17561 17.9302 7.17401L18.4084 6.46484C18.4212 6.47602 18.4331 6.4888 18.4459 6.50078C18.4459 6.50078 18.4483 6.50318 18.4499 6.50477C18.4515 6.50637 18.4539 6.50877 18.4555 6.51036C18.461 6.51595 18.4658 6.52155 18.4706 6.52714C18.6794 6.75634 18.7982 7.11252 18.7886 7.57332C18.7775 8.11558 18.591 8.70655 18.2937 9.24242L17.7078 8.97888L17.707 8.97968Z" fill="#B2DCD8"/>
<path d="M17.9591 4.60438L18.6199 4.22185C18.7275 4.15956 18.8144 3.99265 18.8144 3.8489C18.8144 3.70515 18.7275 3.63886 18.6199 3.70115L17.9591 4.08369C17.8515 4.14598 17.7646 4.31289 17.7646 4.45664C17.7646 4.60039 17.8515 4.66668 17.9591 4.60438Z" fill="white"/>
<path d="M17.9591 3.44032L18.6199 3.05779C18.7275 2.99549 18.8144 2.82858 18.8144 2.68483C18.8144 2.54108 18.7275 2.4748 18.6199 2.53709L17.9591 2.91963C17.8515 2.98192 17.7646 3.14883 17.7646 3.29258C17.7646 3.43633 17.8515 3.50261 17.9591 3.44032Z" fill="#30B3AF"/>
<path d="M17.6046 3.6454L18.2654 3.26286C18.373 3.20057 18.4599 3.03366 18.4599 2.88991C18.4599 2.74616 18.373 2.67988 18.2654 2.74217L17.6046 3.1247C17.497 3.187 17.4102 3.35391 17.4102 3.49766C17.4102 3.64141 17.497 3.70769 17.6046 3.6454Z" fill="#30B3AF"/>
<path d="M16.591 5.40321L17.2517 5.02068C17.3593 4.95839 17.4462 4.79148 17.4462 4.64772C17.4462 4.50397 17.3593 4.43769 17.2517 4.49998L16.591 4.88252C16.4834 4.94481 16.3965 5.11172 16.3965 5.25547C16.3965 5.39922 16.4834 5.4655 16.591 5.40321Z" fill="white"/>
<path d="M15.2238 6.19618L15.8845 5.81365C15.9921 5.75135 16.079 5.58444 16.079 5.44069C16.079 5.29694 15.9921 5.23066 15.8845 5.29295L15.2238 5.67549C15.1162 5.73778 15.0293 5.90469 15.0293 6.04844C15.0293 6.19219 15.1162 6.25847 15.2238 6.19618Z" fill="white"/>
<path d="M30.9641 7.22656L30.8047 14.097L34.1754 16.064L34.3348 9.19355L30.9641 7.22656Z" fill="white" stroke="#B3DDFF" stroke-width="0.371117" stroke-miterlimit="10"/>
<path d="M33.5961 10.5373L32.0801 9.65239L32.0865 9.38086L33.6025 10.2649L33.5961 10.5373Z" fill="#B2DCD8"/>
<path d="M33.5678 11.7689L32.0518 10.8848L32.0581 10.6133L33.5741 11.4973L33.5678 11.7689Z" fill="#B2DCD8"/>
<path d="M33.5394 13.0001L32.0234 12.1153L32.0298 11.8438L33.5458 12.7278L33.5394 13.0001Z" fill="#B2DCD8"/>
<path d="M31.6827 9.56939L31.3766 9.3913C31.3312 9.36495 31.2953 9.29387 31.2969 9.23238L31.3041 8.90894C31.3057 8.84745 31.344 8.81949 31.3894 8.84585L31.6955 9.02394C31.7409 9.05029 31.7768 9.12137 31.7752 9.18286L31.768 9.5063C31.7664 9.5678 31.7281 9.59575 31.6827 9.56939Z" fill="#30B3AF"/>
<path d="M31.6524 10.8897L31.3464 10.7116C31.3009 10.6853 31.2651 10.6142 31.2667 10.5527L31.2738 10.2293C31.2754 10.1678 31.3137 10.1398 31.3591 10.1662L31.6652 10.3443C31.7106 10.3706 31.7465 10.4417 31.7449 10.5032L31.7377 10.8266C31.7361 10.8881 31.6979 10.9161 31.6524 10.8897Z" fill="#30B3AF"/>
<path d="M31.6212 12.2139L31.3151 12.0358C31.2697 12.0095 31.2338 11.9384 31.2354 11.8769L31.2426 11.5535C31.2442 11.492 31.2824 11.464 31.3279 11.4904L31.6339 11.6685C31.6794 11.6948 31.7152 11.7659 31.7136 11.8274L31.7065 12.1508C31.7049 12.2123 31.6666 12.2403 31.6212 12.2139Z" fill="#30B3AF"/>
<path d="M32.4645 14.7397L30.6903 13.7055C30.4488 13.5641 30.2567 13.1824 30.2639 12.8566L30.2663 12.7615C30.2742 12.4357 30.4783 12.2848 30.7198 12.4261L32.494 13.4603C32.7355 13.6017 32.9276 13.9834 32.9204 14.3092L32.9181 14.4043C32.9109 14.7301 32.706 14.881 32.4645 14.7397Z" fill="#FC4A0E"/>
<path d="M32.3139 14.0567L30.7748 13.159C30.7437 13.1407 30.7182 13.0911 30.7198 13.0488C30.7206 13.0065 30.7469 12.9865 30.7788 13.0049L32.3179 13.9025C32.349 13.9209 32.3745 13.9704 32.3729 14.0127C32.3721 14.0551 32.3458 14.075 32.3139 14.0567Z" fill="white"/>
<path d="M30.1671 7.17451L30.1695 7.06909L23.416 3.13672L23.2773 9.35951L30.03 13.2919L30.1671 7.17451Z" fill="white"/>
<path d="M29.438 11.8944L23.7383 8.57621L23.8419 3.95703L29.5408 7.27607L29.438 11.8944Z" stroke="#B3DDFF" stroke-width="0.371117" stroke-miterlimit="10"/>
<path d="M25.6935 5.03125L25.5898 9.65043" stroke="#B3DDFF" stroke-width="0.371117" stroke-miterlimit="10"/>
<path d="M27.6165 6.1543L27.5137 10.7735" stroke="#B3DDFF" stroke-width="0.371117" stroke-miterlimit="10"/>
<path d="M23.8232 4.74219L29.523 8.06122" stroke="#B3DDFF" stroke-width="0.263688" stroke-miterlimit="10"/>
<path d="M23.8066 5.51562L29.5056 8.83386" stroke="#B3DDFF" stroke-width="0.263688" stroke-miterlimit="10"/>
<path d="M23.7891 6.28516L29.4888 9.60339" stroke="#B3DDFF" stroke-width="0.263688" stroke-miterlimit="10"/>
<path d="M29.4714 10.371L23.7725 7.05273" stroke="#B3DDFF" stroke-width="0.263688" stroke-miterlimit="10"/>
<path d="M29.4546 11.1425L23.7549 7.82422" stroke="#B3DDFF" stroke-width="0.263688" stroke-miterlimit="10"/>
<path d="M25.3301 9.95615L25.0982 9.82118C25.0671 9.80361 25.0432 9.7549 25.044 9.71337C25.0448 9.67184 25.0703 9.65268 25.1014 9.67104L25.3333 9.80601C25.3644 9.82358 25.3883 9.8723 25.3875 9.91382C25.3867 9.95535 25.3612 9.97452 25.3301 9.95615Z" fill="#1737A2"/>
<path d="M27.2451 11.089L27.0132 10.954C26.9821 10.9364 26.9582 10.8877 26.959 10.8462C26.9598 10.8047 26.9853 10.7855 27.0164 10.8039L27.2483 10.9388C27.2794 10.9564 27.3033 11.0051 27.3025 11.0466C27.3017 11.0882 27.2762 11.1073 27.2451 11.089Z" fill="#1737A2"/>
<path d="M29.1817 12.2647L28.9497 12.1298C28.9186 12.1122 28.8947 12.0635 28.8955 12.022C28.8963 11.9804 28.9218 11.9613 28.9529 11.9796L29.1849 12.1146C29.2159 12.1322 29.2399 12.1809 29.2391 12.2224C29.2383 12.2639 29.2128 12.2831 29.1817 12.2647Z" fill="#1737A2"/>
<path d="M29.486 9.73653C28.7336 9.38194 28.5614 10.5439 28.2012 10.373C27.8409 10.2021 27.9126 8.94191 27.5205 8.7135C27.1283 8.4851 27.1849 9.79163 26.8103 9.60316C26.4357 9.41469 26.6796 7.91329 26.0451 7.59784C25.2576 7.20652 25.802 9.20625 25.0863 8.91715C24.5084 8.68396 25.0193 8.06343 24.451 7.70645C24.1593 7.52357 23.7488 8.12892 23.7488 8.12892L23.7393 8.57375L29.4382 11.892L29.486 9.73653Z" fill="#FFCF2E"/>
<path d="M10.2518 10.2152L12.2683 9.07478L12.2587 6.78516L10.2422 7.92478L10.2518 10.2152Z" stroke="#B3DDFF" stroke-width="0.459013" stroke-miterlimit="10"/>
<path d="M8.23515 11.3558L10.2517 10.2162L10.2421 7.92578L8.22559 9.0662L8.23515 11.3558Z" stroke="#B3DDFF" stroke-width="0.459013" stroke-miterlimit="10"/>
<path d="M6.21837 12.4957L8.23491 11.356L8.22535 9.06641L6.20801 10.206L6.21837 12.4957Z" stroke="#B3DDFF" stroke-width="0.459013" stroke-miterlimit="10"/>
<path d="M4.20177 13.6324L6.21831 12.4927L6.20795 10.2031L4.19141 11.3427L4.20177 13.6324Z" stroke="#B3DDFF" stroke-width="0.459013" stroke-miterlimit="10"/>
<path d="M10.2623 12.5043L12.2789 11.3646L12.2685 9.07422L10.252 10.2146L10.2623 12.5043Z" stroke="#B3DDFF" stroke-width="0.459013" stroke-miterlimit="10"/>
<path d="M8.24571 13.6421L10.2623 12.5025L10.2519 10.2129L8.23535 11.3525L8.24571 13.6421Z" stroke="#B3DDFF" stroke-width="0.459013" stroke-miterlimit="10"/>
<path d="M4.21171 15.9222L6.22826 14.7826L6.21869 12.4922L4.20215 13.6318L4.21171 15.9222Z" stroke="#B3DDFF" stroke-width="0.459013" stroke-miterlimit="10"/>
<path d="M12.2783 11.3633L12.2879 13.6529" stroke="#B3DDFF" stroke-width="0.459013" stroke-miterlimit="10"/>
<path d="M8.25468 15.9339L10.2712 14.7935L10.2617 12.5039L8.24512 13.6435L8.25468 15.9339Z" stroke="#B3DDFF" stroke-width="0.459013" stroke-miterlimit="10"/>
<path d="M6.2379 17.0707L8.25445 15.931L8.24488 13.6406L6.22754 14.781L6.2379 17.0707Z" stroke="#B3DDFF" stroke-width="0.459013" stroke-miterlimit="10"/>
<path d="M4.2213 18.2144L6.23784 17.0748L6.22748 14.7852L4.21094 15.9248L4.2213 18.2144Z" stroke="#B3DDFF" stroke-width="0.459013" stroke-miterlimit="10"/>
<path d="M12.2881 13.6523L12.2984 15.942" stroke="#B3DDFF" stroke-width="0.459013" stroke-miterlimit="10"/>
<path d="M10.2818 17.0824L12.2984 15.942L12.288 13.6523L10.2715 14.792L10.2818 17.0824Z" stroke="#B3DDFF" stroke-width="0.459013" stroke-miterlimit="10"/>
<path d="M8.26524 18.223L10.2818 17.0834L10.2714 14.793L8.25488 15.9334L8.26524 18.223Z" stroke="#B3DDFF" stroke-width="0.459013" stroke-miterlimit="10"/>
<path d="M6.24785 19.3628L8.26519 18.2232L8.25483 15.9336L6.23828 17.0732L6.24785 19.3628Z" stroke="#B3DDFF" stroke-width="0.459013" stroke-miterlimit="10"/>
<path d="M4.23124 20.5043L6.24779 19.3638L6.23823 17.0742L4.22168 18.2138L4.23124 20.5043Z" stroke="#B3DDFF" stroke-width="0.459013" stroke-miterlimit="10"/>
<path d="M4.75 19.8441L5.95754 15.3735L7.92068 15.1211L8.55593 11.826L10.2616 11.854L11.4006 9.15625" stroke="#1737A2" stroke-width="0.976622" stroke-linecap="round" stroke-linejoin="round"/>
<path d="M10.9658 8.94281L11.4488 8.73438L11.5469 9.16403" stroke="#1737A2" stroke-width="0.976622" stroke-linecap="round" stroke-linejoin="round"/>
<path d="M43.5667 30.0501L39.7162 27.8659L39.2363 22.9425C39.3439 22.8802 39.5089 22.873 39.6038 22.9265L47.8023 27.5768C47.8971 27.6303 47.8868 27.7262 47.7799 27.7885L43.9342 30.0342C43.8266 30.0964 43.6616 30.1036 43.5667 30.0501Z" fill="#B2DCD8"/>
<path d="M43.8123 30.0014L39.3273 27.2414C39.0571 27.0849 38.8379 26.6656 38.8379 26.3038V16.8474C38.8379 16.4865 39.0571 16.3204 39.3273 16.4769L43.8418 19.0884C44.112 19.2449 44.3312 19.6642 44.3312 20.0259V29.4376C44.3312 29.6756 44.2571 29.7187 44.108 29.8049L43.8123 30.0014Z" fill="#D6D6D6"/>
<path d="M40.9665 20.9073C40.9665 20.9073 38.8352 26.6518 38.8352 26.29L38.6279 16.6212L39.0225 16.4279C39.1054 16.3888 39.2106 16.3968 39.3246 16.4631L43.8391 19.0745C43.9714 19.1512 44.0909 19.2902 44.1794 19.4547L40.9665 20.9073Z" fill="#DDDDDD"/>
<path d="M43.4269 30.0326L38.9235 27.4211C38.6533 27.2646 38.4453 26.8453 38.4453 26.4835V17.0271C38.4453 16.6662 38.6589 16.5001 38.9291 16.6566L43.4301 19.268C43.7003 19.4246 43.9059 19.8438 43.9059 20.2056V29.662C43.9059 30.023 43.6971 30.1891 43.4269 30.0326Z" fill="#A0A0A0"/>
<path d="M44.0986 20.9019V21.4418C44.0986 21.4793 44.121 21.4969 44.1488 21.4809L44.1425 21.4761C44.1704 21.4601 44.1791 21.4154 44.1791 21.3779V20.838C44.1791 20.8005 44.1704 20.7829 44.1425 20.7989V20.8037C44.1138 20.8196 44.0986 20.8644 44.0986 20.9019Z" fill="#2C4482"/>
<path d="M44.0986 21.8433V22.3832C44.0986 22.4207 44.121 22.4383 44.1488 22.4223L44.1425 22.4175C44.1704 22.4015 44.1791 22.3568 44.1791 22.3193V21.7794C44.1791 21.7419 44.1704 21.7243 44.1425 21.7403V21.7451C44.1138 21.761 44.0986 21.8058 44.0986 21.8433Z" fill="#2C4482"/>
<path d="M43.302 28.4188L38.911 25.8784C38.8656 25.8521 38.8369 25.8034 38.8369 25.7507V17.7653C38.8369 17.6511 38.9597 17.5801 39.0585 17.6376L43.4495 20.1779C43.4949 20.2043 43.5236 20.253 43.5236 20.3057V28.2911C43.5236 28.4053 43.4008 28.4763 43.302 28.4188Z" fill="#FFCF2E"/>
<path d="M41.9653 18.9796L40.5728 18.1738C40.5242 18.1459 40.4844 18.0692 40.4844 18.0037C40.4844 17.9382 40.5242 17.9079 40.5728 17.9366L41.9653 18.7424C42.0139 18.7704 42.0538 18.8471 42.0538 18.9125C42.0538 18.978 42.0139 19.0084 41.9653 18.9796Z" fill="white"/>
<path d="M39.1807 25.5137L42.879 27.6963" stroke="white" stroke-width="0.28322" stroke-linecap="round" stroke-linejoin="round"/>
<path d="M40.2511 25.7296L39.1807 25.1106V23.1836L40.2511 23.8025V25.7296Z" fill="#30B3AF"/>
<path d="M41.5617 26.4885L40.4912 25.8696V24.6094L41.5617 25.2283V26.4885Z" fill="white"/>
<path d="M42.9134 27.2688L41.8438 26.6499V24.123L42.9134 24.742V27.2688Z" fill="#30B3AF"/>
<path d="M39.3555 18.584L42.7852 20.5685" stroke="white" stroke-width="0.322285" stroke-miterlimit="10"/>
<path d="M39.377 20.4648L42.8067 22.4494" stroke="white" stroke-width="0.322285" stroke-miterlimit="10"/>
<path d="M39.3984 22.3438L42.8282 24.3283" stroke="white" stroke-width="0.322285" stroke-miterlimit="10"/>
<path d="M41.0922 21.455L39.377 20.4631L39.3555 18.584L41.0707 19.5759L41.0922 21.455Z" stroke="white" stroke-width="0.322285" stroke-miterlimit="10"/>
<path d="M42.8063 22.4499L41.0918 21.4573L41.0703 19.5781L42.7848 20.5708L42.8063 22.4499Z" stroke="white" stroke-width="0.322285" stroke-miterlimit="10"/>
<path d="M41.1129 23.3359L39.3985 22.344L39.377 20.4648L41.0922 21.4567L41.1129 23.3359Z" stroke="white" stroke-width="0.322285" stroke-miterlimit="10"/>
<path d="M42.8288 24.3308L41.1135 23.3381L41.0928 21.459L42.8072 22.4517L42.8288 24.3308Z" stroke="white" stroke-width="0.322285" stroke-miterlimit="10"/>
<path d="M41.1129 23.3356L39.3984 22.3438" stroke="white" stroke-width="0.322285" stroke-miterlimit="10"/>
<path d="M41.1133 23.3359L42.8285 24.3286" stroke="white" stroke-width="0.322285" stroke-miterlimit="10"/>
<path d="M39.4766 22.2411L40.3629 21.7732L41.3648 21.6797L42.55 21.0137" stroke="#1737A2" stroke-width="0.488311" stroke-linecap="round" stroke-linejoin="round"/>
<path d="M42.3525 20.9102L42.6004 20.9868L42.4761 21.2368" stroke="#1737A2" stroke-width="0.488311" stroke-linecap="round" stroke-linejoin="round"/>
<path d="M29.3205 5.53292C29.3205 5.61838 29.2608 5.65192 29.1866 5.60959C29.1125 5.56647 29.0527 5.46345 29.0527 5.37799C29.0527 5.29334 29.1125 5.259 29.1866 5.30133C29.2608 5.34445 29.3205 5.44747 29.3205 5.53292Z" fill="white"/>
<g style="mix-blend-mode:multiply" opacity="0.4">
<path d="M24.0627 37.8491C25.9661 36.7486 25.9557 34.9581 24.0412 33.8496L23.1421 34.3695C21.2683 33.7386 18.8341 33.8831 17.2384 34.8063C15.335 35.9068 15.3454 37.6973 17.2599 38.8058C19.1744 39.9143 22.2702 39.9191 24.1727 38.8186L20.7055 36.8125L21.4882 36.3597L24.0627 37.8491Z" fill="#A8C4E5"/>
</g>
<path d="M23.2228 38.3339C21.3195 39.4344 18.2245 39.4288 16.31 38.3211C14.3947 37.2135 14.3851 35.423 16.2885 34.3217C18.1918 33.2212 21.2868 33.2268 23.2013 34.3345L19.7556 36.3278L23.2228 38.3339Z" fill="#F4BD21"/>
<path d="M19.749 36.3313L19.7554 36.3281L23.2226 38.3342C22.4064 38.8062 21.3902 39.0993 20.2663 39.1424L20.1651 39.1472L20.1324 38.4572C19.9985 37.7672 19.8048 36.7442 19.749 36.3313Z" fill="#BAD0E6"/>
<path d="M23.2009 37.6152L23.2224 38.3356L21.877 37.7406L23.2009 37.6152Z" fill="#BAD0E6"/>
<path d="M23.2119 36.8119C23.2119 36.8119 25.1288 35.8136 24.6331 34.1373C24.1373 32.461 23.2119 36.2233 23.2119 36.2233V36.8119Z" fill="#DB431B"/>
<path d="M16.31 38.3237C14.3947 37.216 14.3851 35.4255 16.2885 34.3242L19.7556 36.3303L16.31 38.3237Z" fill="#249B95"/>
<path d="M23.2009 34.3345C21.2856 33.2268 18.1907 33.2212 16.2881 34.3217L19.7553 36.3278L23.2009 34.3345Z" fill="#4282EA"/>
<path d="M19.7491 36.3335L19.7555 36.3303L16.2883 34.3242C15.8157 34.5973 15.1079 35.1787 14.8672 35.6044V36.284C16.4462 36.3583 18.6253 36.284 19.7491 36.3335Z" fill="#249B95"/>
<path d="M23.2228 37.6445C21.3195 38.745 18.2245 38.7394 16.31 37.6317C14.3947 36.524 14.3851 34.7335 16.2885 33.6322C18.1918 32.5317 21.2868 32.5373 23.2013 33.645L19.7556 35.6384L23.2228 37.6445Z" fill="#FFCF2E"/>
<path d="M16.31 37.6323C14.3947 36.5246 14.3851 34.7341 16.2885 33.6328L19.7556 35.6389L16.31 37.6323Z" fill="#30B3AF"/>
<path d="M23.2009 33.645C21.2856 32.5373 18.1907 32.5317 16.2881 33.6322L19.7553 35.6384L23.2009 33.645Z" fill="#4F8BFA"/>
<path d="M23.1898 32.2246C25.1051 33.3323 25.1147 35.1228 23.2113 36.2241L19.7441 34.2179L23.1898 32.2246Z" fill="#E94E1D"/>
<path d="M19.7491 35.6421L19.7555 35.6389L16.2883 33.6328C15.4291 34.1303 14.9596 34.7676 14.8799 35.4201C16.4588 35.4944 18.626 35.5918 19.7499 35.6429L19.7491 35.6421Z" fill="#055D66"/>
<path d="M19.749 35.6419L19.7554 35.6387L23.2226 37.6448C22.3634 38.1423 21.261 38.4131 20.1332 38.4594C20.0049 37.5458 19.8359 36.2927 19.749 35.6427V35.6419Z" fill="white"/>
<path d="M19.7441 34.2168V34.7159L23.2121 36.8107V36.2221L19.7441 34.2168Z" fill="#DB431B"/>
<path d="M16.3096 38.3244V37.6328C16.575 37.7877 16.8587 37.9187 17.1608 38.0273L16.3096 38.3244Z" fill="#F4BD21"/>
<path d="M20.3793 24.8374C20.471 24.7495 20.3801 24.5786 20.3833 24.4349C20.3961 23.887 20.3586 23.2337 20.3578 22.7186C20.3578 22.5366 20.7484 22.1764 20.7675 21.9999C20.7555 22.1069 20.3395 22.3441 20.3514 22.3137C20.3618 22.2866 20.3721 22.2602 20.3841 22.2339C20.4104 22.1724 20.4423 22.1149 20.4742 22.0566C20.4766 22.0526 20.4774 22.051 20.4782 22.0486C20.4813 22.0454 20.4829 22.0438 20.4869 22.0398C20.5061 22.0199 20.526 21.9991 20.5435 21.9783C20.5467 21.9751 20.5507 21.9711 20.5555 21.9663C20.573 21.9536 20.5905 21.9408 20.6089 21.9296C20.6192 21.9232 20.7388 21.8162 20.7492 21.8106L20.0764 21.4121C19.9728 21.5343 19.7257 21.7994 19.666 21.9528C19.5488 22.253 19.5599 22.5733 19.5671 22.9023C19.5783 23.4374 19.6221 23.9781 19.7656 24.5107C19.7752 24.5451 19.7911 24.5762 19.8118 24.6042L19.446 25.1504C19.3431 25.3636 18.7079 25.5889 19.0729 25.826C19.2077 25.9482 20.0669 25.5409 20.29 25.3317L20.2454 24.9404C20.2988 24.8461 20.4208 24.938 20.3801 24.8374H20.3793ZM20.5658 21.9576C20.5778 21.948 20.585 21.9432 20.5658 21.9576V21.9576Z" fill="#A8C4E5"/>
<path d="M21.4592 22.0535C21.3619 22.1621 21.1157 22.5055 21.0583 22.6437C20.9475 22.912 20.9196 23.2003 20.8558 23.4831C20.7418 23.987 20.6239 24.4877 20.5466 25.002C20.5242 25.1506 20.592 25.2711 20.694 25.3486L20.435 26.0059C20.3792 26.2383 20.1656 26.4347 20.3146 26.4842C20.3959 26.5274 20.686 26.4076 21.0367 26.2359L21.3723 26.1025C21.4393 26.0761 21.4799 26.0067 21.468 25.9356C21.4488 25.815 21.3962 25.672 21.4082 25.6233C21.5445 25.6233 21.515 25.593 21.5237 25.5331C21.5979 25.0348 21.7692 23.5861 21.8832 23.0989C21.9119 22.9775 22.3383 22.5854 22.4483 22.4872L21.4592 22.0527V22.0535Z" fill="#A8C4E5"/>
<path d="M20.0647 26.1068L20.5796 25.5765L20.692 25.2555L21.1144 25.1484C21.3192 25.5933 21.4739 25.8544 21.3926 26.0117L20.7262 26.3344C20.4544 26.4462 20.3596 26.4917 20.1739 26.4685C20.036 26.3935 19.9778 26.201 20.0639 26.1068H20.0647Z" fill="#192743"/>
<path d="M18.8987 25.4329L19.4136 24.9027L19.5259 24.5816L19.9484 24.4746C20.1532 24.9194 20.3078 25.1806 20.2265 25.3379L19.5602 25.6606C19.2884 25.7724 19.1936 25.8179 19.0079 25.7947C18.87 25.7196 18.8118 25.5272 18.8979 25.4329H18.8987Z" fill="#192743"/>
<path d="M21.8698 18.5242C21.5893 18.874 21.4219 19.1583 21.335 19.6015C21.2481 20.0448 21.1724 20.4377 21.1063 20.8633C21.0648 21.1269 20.5674 21.0278 20.6089 20.7635C20.6854 20.2756 20.691 19.695 20.8281 19.2222C20.9532 18.7917 21.0879 18.5042 21.3645 18.1584C21.5295 17.9524 22.034 18.3198 21.8698 18.5242Z" fill="#FFC2B0"/>
<path d="M21.266 18.0116L20.8125 19.0091C20.8356 19.065 21.5235 19.5458 21.5944 19.291L21.9379 18.2887C21.9826 18.1258 21.8861 17.9437 21.7148 17.8679C21.5362 17.7888 21.3378 17.8527 21.2652 18.0116H21.266Z" fill="#4F8BFA"/>
<path d="M22.0457 20.6731C21.5826 20.848 21.1116 21.0038 20.6405 21.1611C20.3886 21.2457 20.1192 21.3288 19.9096 21.4837C19.7048 21.6355 19.4577 21.7529 19.3668 21.9868C19.2496 22.2871 19.3094 22.6537 19.3158 22.9827C19.327 23.5178 19.3413 24.4514 19.3493 24.6694C19.3525 24.7548 19.8929 24.8531 20.0706 24.8834C20.1694 24.9002 20.3233 24.9217 20.3233 24.8491C20.3233 24.3483 20.2986 23.2335 20.2978 22.7184C20.2978 22.5363 21.0239 21.9365 21.0837 21.9102C21.0032 21.9461 21.2351 21.8998 21.2542 21.8926C21.2941 21.8774 21.2136 21.6946 21.2542 21.6802C21.7787 21.4941 21.7994 21.5604 22.3191 21.3647C22.5008 21.296 22.6116 21.1227 22.5327 20.9239C22.4642 20.7506 22.2274 20.6044 22.0449 20.6739L22.0457 20.6731Z" fill="#2BADAA"/>
<path d="M22.6644 21.3264C22.2539 21.5756 21.7023 21.4677 21.3229 21.756C21.0838 21.9373 20.6741 22.351 20.6144 22.4924C20.5881 22.5547 20.486 23.1704 20.4645 23.4595C20.4263 23.9898 20.282 24.7884 20.2549 25.3083C20.2517 25.3698 21.4178 25.6197 21.4297 25.5479C21.5118 25.0503 21.5764 24.5608 21.6473 24.0377C21.6641 23.9139 21.684 23.5936 21.7071 23.4707C21.7191 23.4044 21.7326 23.3389 21.7486 23.2734C21.7557 23.2439 21.7637 23.2151 21.7717 23.1856C21.7908 23.1153 21.79 23.1081 21.8179 23.0226C21.8434 22.946 21.9773 22.8222 22.1527 22.6936C22.5289 22.4189 22.7744 22.2456 23.157 21.9749C23.2662 21.8982 23.2327 20.9798 22.6628 21.3256L22.6644 21.3264Z" fill="#2BADAA"/>
<path d="M22.1009 21.831L21.2648 21.3957C21.0656 21.2919 20.9755 21.0595 21.0648 20.8798C21.154 20.7001 21.39 20.6379 21.5892 20.7417L22.4253 21.1769C22.6246 21.2807 22.7147 21.5131 22.6254 21.6928C22.5361 21.8725 22.3002 21.9348 22.1009 21.831Z" fill="#2BADAA"/>
<path d="M21.1836 21.0014C21.1644 20.7379 21.4402 19.8873 21.4498 18.2773L23.4161 19.2644C23.2974 20.2867 23.3516 20.3266 23.2989 21.4862L21.2147 20.9543C21.4849 20.995 21.186 21.0334 21.1836 21.0014Z" fill="#4F8BFA"/>
<path d="M22.0957 21.1912C22.1467 21.2735 22.8441 20.9261 22.8019 19.6371C22.7963 19.4734 22.8178 19.4598 22.9844 19.5189L23.2028 19.4023C23.163 20.2353 23.2985 20.4877 23.1446 21.2711C23.092 21.5386 22.766 21.6448 22.5157 21.4755L22.0957 21.192V21.1912Z" fill="#4F8BFA"/>
<path d="M22.652 21.7439C22.0439 21.5195 21.5178 21.4141 21.1568 21.0156C20.987 20.9206 21.1568 21.3103 21.1767 20.9765L21.2078 21.0196C21.3879 20.9222 21.5601 20.2897 21.7299 20.3847L23.21 21.2871C23.3798 21.3822 23.2849 21.4852 23.104 21.5826L23.0928 21.482C22.9127 21.5794 22.821 21.8398 22.6512 21.7447L22.652 21.7439Z" fill="#4F8BFA"/>
<path d="M23.1678 21.2146L22.7605 20.7578C21.9659 21.919 21.3768 21.0373 21.1465 20.9271C21.5091 21.2649 21.431 21.1116 21.9834 21.316C22.1532 21.4111 21.7092 21.3831 21.7212 21.3711L23.1056 22.1346C23.2053 22.0931 23.3049 21.4263 23.3113 21.2042C23.3129 21.1427 23.2077 21.2601 23.167 21.2146H23.1678Z" fill="#4F8BFA"/>
<path d="M21.3895 17.8578C21.258 17.9944 21.2692 18.091 21.2676 18.3011C21.266 18.5063 21.4063 18.7028 21.6135 18.7858L23.7273 19.6308C23.7273 19.6308 23.8636 18.8473 23.6755 18.6884C23.4754 18.5199 22.9 18.1813 22.629 17.9864C22.232 17.6997 21.694 17.5416 21.3895 17.857V17.8578Z" fill="#4F8BFA"/>
<path d="M22.2921 18.2018L22.0283 17.3281L22.6006 17.5366L22.815 18.2497C22.8596 18.3663 22.4763 18.6514 22.2921 18.2018Z" fill="#FFC2B0"/>
<path d="M22.2373 18.0012C22.2477 18.0236 22.5083 17.9381 22.4971 17.9102C22.4971 17.9102 22.3983 18.0747 22.2692 18.1266L22.2373 18.002V18.0012Z" fill="#EA8A6C"/>
<path d="M23.6288 19.0306C23.7093 19.4107 23.9492 19.6008 24.0194 19.9825C24.0807 20.3123 24.0505 21.1605 24.0082 21.2347C23.8329 21.5414 22.7672 21.5342 22.2842 21.6764C22.0196 21.7546 21.8044 21.4376 22.069 21.3601C22.3296 21.2835 22.6174 21.2268 22.9314 21.1581C23.1514 21.1102 23.4184 21.0175 23.4168 20.9009C23.4168 20.8514 23.377 20.2197 23.3148 19.9354C23.2446 19.616 23.255 19.3508 23.1873 19.0306C23.1299 18.7598 23.5722 18.7614 23.6296 19.0306H23.6288Z" fill="#FFC2B0"/>
<path d="M20.8737 20.5656C20.9949 20.6287 21.0507 20.77 20.9965 20.8794L20.81 21.2596C20.7558 21.369 20.6123 21.4073 20.4912 21.3442C20.37 21.2811 20.3142 21.1398 20.3684 21.0304L20.5549 20.6502C20.6091 20.5408 20.7526 20.5025 20.8737 20.5656Z" fill="#FFC2B0"/>
<path d="M23.0221 18.9732L23.207 20.1041C23.2405 20.1719 24.0878 20.0226 24.0599 19.9475L23.7466 18.7584C23.7291 18.7233 23.4828 18.6027 23.3035 18.6186C23.117 18.6354 22.9934 18.7919 23.0229 18.9724L23.0221 18.9732Z" fill="#4F8BFA"/>
<path d="M22.4351 21.592L22.2478 21.5385L22.1873 21.5617L22.1705 21.5321L20.4943 20.6592C20.4744 20.6488 20.4409 20.6504 20.4202 20.6624L19.7802 21.0386V21.0282L19.6582 21.0769L19.6638 21.1264H19.6646C19.667 21.1312 19.671 21.136 19.6781 21.1392L21.4221 22.048C21.4221 22.048 21.4261 22.0512 21.4269 22.0544C21.4635 22.1886 21.5241 22.3084 21.6381 22.2381L22.3467 21.8196C22.4033 21.7885 22.4367 21.7318 22.4359 21.6671V21.5928L22.4351 21.592Z" fill="#A8C4E5"/>
<path d="M21.4936 22.1845L19.485 21.1383C19.4619 21.1263 19.4619 21.1048 19.4858 21.0912L20.3395 20.5897C20.3634 20.5753 20.4016 20.5745 20.4247 20.5865L22.4333 21.6327C22.4564 21.6446 22.4564 21.6662 22.4325 21.6798L21.5789 22.1813C21.555 22.1957 21.5167 22.1965 21.4936 22.1845Z" fill="#E1EAF4"/>
<path d="M21.55 21.5097L21.0638 21.2565C21.0582 21.2533 21.0582 21.2485 21.0638 21.2453L21.2702 21.1239C21.2758 21.1207 21.2853 21.1199 21.2909 21.1231L21.7771 21.3763C21.7827 21.3795 21.7827 21.3843 21.7771 21.3875L21.5707 21.5089C21.5651 21.5121 21.5555 21.5129 21.55 21.5097Z" fill="#A8C4E5"/>
<path d="M21.318 21.0065C21.3053 20.9586 21.2598 20.9027 21.2168 20.8803L19.225 19.8581C19.2074 19.8493 19.1931 19.8477 19.1827 19.8517C19.1795 19.8533 19.1763 19.8557 19.174 19.8589L19.1182 19.9212L19.174 19.9164L19.4729 21.0224C19.4856 21.0704 19.531 21.1263 19.5741 21.1486L21.4575 22.1157L21.5213 22.1772L21.53 22.1924C21.5667 22.1996 21.6464 22.1413 21.6464 22.1413L21.3172 21.0065H21.318Z" fill="white"/>
<path d="M21.506 22.2397L19.5142 21.2175C19.4711 21.1952 19.4257 21.1393 19.4129 21.0913L19.1108 19.9733C19.0981 19.9254 19.122 19.9046 19.165 19.927L21.1569 20.9492C21.1999 20.9716 21.2454 21.0275 21.2581 21.0754L21.5602 22.1934C21.5729 22.2413 21.549 22.2621 21.506 22.2397Z" fill="#FFCF2E"/>
<path d="M20.3885 21.1558C20.4044 21.2149 20.3494 21.2285 20.2657 21.1854C20.182 21.1423 20.1007 21.0592 20.0848 21.0001C20.0688 20.941 20.1238 20.9274 20.2075 20.9706C20.2912 21.0137 20.3725 21.0967 20.3885 21.1558Z" fill="white"/>
<path d="M21.573 21.6495C21.5156 21.5217 21.573 21.3836 21.7021 21.3421L22.1756 21.2502C22.2226 21.2462 22.4737 21.2973 22.4864 21.3532C22.5438 21.481 22.4864 21.6192 22.3573 21.6607L21.9118 21.8053C21.7834 21.8468 21.6304 21.7773 21.573 21.6495Z" fill="#FFC2B0"/>
<path d="M22.2742 18.0073L22.1108 18.024C21.8589 18.0504 21.6094 17.8731 21.5552 17.6295L21.3767 16.8261C21.3225 16.5825 21.4843 16.3621 21.7354 16.3358L21.8987 16.319C22.1506 16.2926 22.4001 16.4699 22.4543 16.7135L22.6328 17.5169C22.687 17.7605 22.5252 17.9809 22.2742 18.0073Z" fill="#FFC2B0"/>
<path d="M22.0768 16.9466C21.9198 17.0369 21.7755 17.0049 21.5723 16.9482C21.3507 16.8859 21.2526 16.6982 21.3881 16.5409C21.4615 16.4563 21.5053 16.3652 21.6791 16.279C22.1708 16.033 22.7782 16.2327 22.9073 16.8148C22.9073 16.8148 23.0675 17.4577 22.7654 17.6989C22.7112 17.742 22.6228 17.7165 22.5917 17.6494C22.5917 17.6494 22.7535 17.4617 22.5096 17.326C22.4355 17.2852 22.3518 17.1782 22.3398 17.0808C22.3279 16.9826 22.1629 16.8987 22.0784 16.9466H22.0768Z" fill="#BF730D"/>
<path d="M22.7026 17.5315C22.6476 17.6018 22.5591 17.5954 22.5049 17.5171C22.4515 17.4389 22.4531 17.3183 22.5081 17.248C22.5631 17.1777 22.6516 17.1841 22.7058 17.2624C22.76 17.3406 22.7576 17.4612 22.7026 17.5315Z" fill="#FFC2B0"/>
<path d="M21.5576 16.9432C21.5544 16.9576 22.1084 17.0678 22.3156 17.3968C22.3531 17.4567 22.4503 17.4304 22.4703 17.3689C22.5053 17.2571 22.5205 17.0926 22.3985 16.9376C22.1865 16.6685 21.5807 16.8378 21.5584 16.9432H21.5576Z" fill="#BF730D"/>
<path d="M3.4253 14.1503L2.86019 14.4769C2.78367 14.5209 2.7207 14.4737 2.7207 14.3715C2.7207 14.2693 2.78367 14.1495 2.86019 14.1048L3.4253 13.7782C3.50182 13.7342 3.56478 13.7814 3.56478 13.8836C3.56478 13.9858 3.50182 14.1056 3.4253 14.1503Z" fill="#FFCF2E"/>
<path d="M3.4253 12.0429L2.86019 12.3695C2.78367 12.4134 2.7207 12.3663 2.7207 12.2641C2.7207 12.1619 2.78367 12.0421 2.86019 11.9974L3.4253 11.6707C3.50182 11.6268 3.56478 11.6739 3.56478 11.7762C3.56478 11.8784 3.50182 11.9982 3.4253 12.0429Z" fill="#FFCF2E"/>
<path d="M3.4253 16.207L2.86019 16.5336C2.78367 16.5775 2.7207 16.5304 2.7207 16.4282C2.7207 16.3259 2.78367 16.2062 2.86019 16.1614L3.4253 15.8348C3.50182 15.7909 3.56478 15.838 3.56478 15.9402C3.56478 16.0424 3.50182 16.1622 3.4253 16.207Z" fill="#FFCF2E"/>
<path d="M3.4253 18.2616L2.86019 18.5883C2.78367 18.6322 2.7207 18.5851 2.7207 18.4829C2.7207 18.3806 2.78367 18.2608 2.86019 18.2161L3.4253 17.8895C3.50182 17.8456 3.56478 17.8927 3.56478 17.9949C3.56478 18.0971 3.50182 18.2169 3.4253 18.2616Z" fill="#FFCF2E"/>
<path d="M3.4253 20.5429L2.86019 20.8695C2.78367 20.9134 2.7207 20.8663 2.7207 20.7641C2.7207 20.6619 2.78367 20.5421 2.86019 20.4974L3.4253 20.1707C3.50182 20.1268 3.56478 20.1739 3.56478 20.2762C3.56478 20.3784 3.50182 20.4982 3.4253 20.5429Z" fill="#FFCF2E"/>
<path d="M41.0324 22.7559C40.9838 22.4596 40.8467 22.351 40.8467 22.351C41.0914 22.1809 41.3895 21.7904 41.3895 21.7904C41.3895 21.7904 41.5409 21.0668 41.5393 20.8824C41.5377 20.6979 41.6668 19.9368 41.7067 19.9049C41.7458 19.8729 41.7378 20.1508 41.721 20.3952C41.721 20.3952 41.9602 20.3601 42.0327 20.495C42.1052 20.6308 42.012 20.8632 41.9602 20.9758C41.9092 21.0884 41.8685 22.026 41.7984 22.1729C41.7418 22.2927 41.2077 22.811 41.0786 23.0961C41.0659 22.9843 41.0491 22.8637 41.0308 22.7559" fill="#8F5B14"/>
<path d="M39.9047 22.4553C39.8608 22.1487 39.8353 22.1063 39.7285 21.8867C39.7285 21.8867 39.9094 22.1311 40.0306 22.3755C40.1517 22.619 40.1502 22.7061 40.0553 22.7468C40.0234 22.7604 39.9899 22.7732 39.9605 22.7836C39.9461 22.7069 39.9294 22.6286 39.9047 22.4553Z" fill="#8F5B14"/>
<path d="M38.4518 23.3048C38.5236 23.2001 38.5746 23.1426 38.6081 23.1115C38.6033 23.2145 38.6152 23.3055 38.6152 23.3055C39.1612 23.5946 39.9591 23.4964 39.9591 23.4964C39.9591 23.4964 39.9973 23.2864 39.9926 23.0811C40.1225 22.9374 40.4684 22.717 40.8454 22.3496C40.8454 22.3496 40.9817 22.4582 41.0311 22.7545C41.0797 23.05 41.1252 23.4421 41.0773 23.486C41.0295 23.5292 40.7633 23.7017 40.7378 23.8111C40.7115 23.9205 40.6979 25.1288 40.5242 25.2965C40.5242 25.2965 39.3071 25.5505 38.675 25.2134C38.6304 25.1535 38.6216 24.3294 38.6216 24.3294C38.6216 24.3294 38.3953 24.2224 38.2207 24.0403C38.2207 24.0403 38.3148 23.506 38.4526 23.3055" fill="#E94E1D"/>
<path d="M38.0765 22.38C38.1123 22.1556 38.1315 21.8034 38.1705 21.6716C38.2088 21.539 38.2885 21.5039 38.2885 21.5039V22.0502C38.3586 21.7187 38.4001 21.583 38.4248 21.5934C38.4495 21.6037 38.3283 22.2602 38.3339 22.364C38.3387 22.4583 38.3531 23.1914 38.3451 23.546C38.2686 23.7736 38.2215 24.0419 38.2215 24.0419C38.3913 24.2184 38.6089 24.3246 38.6225 24.331C38.5053 24.573 38.3252 24.8253 38.106 24.7503C37.7066 24.6137 38.0422 22.6052 38.0781 22.3808" fill="#8F5B14"/>
<path d="M38.4792 26.3194C38.5804 25.3052 38.6752 25.2109 38.6752 25.2109C39.3073 25.548 40.5244 25.294 40.5244 25.294C40.5706 26.6588 40.4654 28.8582 40.4654 28.8582C39.6357 28.9349 38.3492 28.8422 38.3644 28.7576C38.3795 28.6729 38.3779 27.3337 38.4792 26.3194Z" fill="#2BADAA"/>
<path d="M39.0258 31.7891H38.3428C38.3428 31.7891 38.3675 32.0286 38.3882 32.2283C38.4089 32.428 38.397 33.1124 38.397 33.1124H38.7875L38.8019 33.0038H39.0992L38.9724 32.2131L39.0258 31.7899V31.7891Z" fill="#192743"/>
<path d="M40.3325 31.7891H39.6494C39.6494 31.7891 39.6741 32.0286 39.6948 32.2283C39.7156 32.428 39.7036 33.1124 39.7036 33.1124H40.0942L40.1085 33.0038H40.4058L40.2791 32.2131L40.3325 31.7899V31.7891Z" fill="#192743"/>
<path d="M39.7144 31.7887L39.5303 28.8857C39.8491 28.8921 40.1839 28.8857 40.4652 28.8594C40.4349 29.6236 40.2747 31.4093 40.2404 31.7887H39.7136H39.7144Z" fill="#8F5B14"/>
<path d="M38.3976 31.7893C38.3904 31.358 38.3577 29.3583 38.3641 28.7617C38.3697 28.8088 38.7794 28.8583 39.2823 28.8791L39.0081 31.7893H38.3976Z" fill="#8F5B14"/>
<path d="M38.0864 24.4075C38.1231 24.2893 38.1598 24.1703 38.1964 24.0522C38.2004 24.0394 38.2219 24.045 38.2179 24.0577C38.1813 24.1767 38.1446 24.2949 38.1079 24.4131C38.104 24.4259 38.0824 24.4203 38.0864 24.4075Z" fill="#0A1C29"/>
<path d="M40.1165 32.5532C40.1181 32.5396 40.1404 32.5396 40.1388 32.5532C40.1228 32.6865 40.1157 32.8199 40.1173 32.9541C40.1173 32.9676 40.0949 32.9676 40.0949 32.9541C40.0933 32.8199 40.1005 32.6865 40.1165 32.5532Z" fill="white"/>
<path d="M38.7807 32.9313C38.7767 32.9305 38.7727 32.9273 38.7735 32.9217C38.7815 32.7924 38.7895 32.663 38.7975 32.5336C38.7975 32.52 38.8206 32.52 38.8198 32.5336C38.8118 32.663 38.8038 32.7924 38.7959 32.9217C38.7959 32.9265 38.7927 32.9289 38.7895 32.9305C38.8006 32.9337 38.799 32.9513 38.7863 32.9513C38.7743 32.9513 38.7719 32.9361 38.7807 32.9313Z" fill="white"/>
<path d="M39.7288 21.8844C39.8356 22.104 39.8611 22.1455 39.905 22.453C39.9488 22.7596 39.9695 22.77 39.9894 22.9976C40.0094 23.2244 39.96 23.496 39.96 23.496C39.96 23.496 39.1621 23.5942 38.6161 23.3051C38.6161 23.3051 38.5747 22.996 38.6727 22.8762C38.77 22.7556 38.8393 22.7141 38.8457 22.5224C38.852 22.3308 38.8289 21.8979 39.245 21.7757C39.6619 21.6536 39.7296 21.8859 39.7296 21.8859" fill="#382814"/>
<path d="M31.9642 32.1416C32.0734 32.1416 32.0232 31.902 31.9531 31.8477C31.8829 31.7934 31.8558 31.946 31.8558 31.946C31.6868 31.8493 31.4979 31.6465 31.4979 31.6465C31.4302 31.7072 31.0898 31.9747 31.0898 31.9747C31.0898 31.9747 31.1209 32.2614 31.2062 32.5329C31.2915 32.8045 31.4158 32.8085 31.5976 32.7518L31.5952 33.1575C31.5952 33.1575 32.0702 33.3379 32.3348 33.0872L32.24 32.62C32.1172 32.588 31.9642 32.1416 31.9642 32.1416Z" fill="#FCBF8F"/>
<path d="M32.4074 31.7445C32.5461 31.659 32.6449 31.3316 32.3022 31.203C32.0144 31.0944 31.9196 31.2965 31.8901 31.4027C31.7498 31.3779 31.6271 31.3883 31.5673 31.3979C31.4286 31.4202 31.1066 31.5967 31.0898 31.9721C31.0898 31.9721 31.4294 31.7045 31.4979 31.6439C31.4979 31.6439 31.6868 31.8467 31.8558 31.9433C31.8558 31.9433 31.8837 31.7908 31.9531 31.8451C32.0232 31.8994 32.0734 32.1382 31.9642 32.139C31.9642 32.139 32.1172 32.5846 32.24 32.6174C32.3627 32.6493 32.6592 32.2037 32.4249 31.7756C32.4193 31.7652 32.413 31.7549 32.4074 31.7453V31.7445Z" fill="#192743"/>
<path d="M33.4679 33.75C33.2917 33.3659 32.5361 33.1998 32.3344 33.084C32.0698 33.3347 31.5948 33.1543 31.5948 33.1543C31.1397 33.1982 30.6654 33.425 30.4096 33.9082C30.1537 34.3913 29.7695 38.144 29.7695 38.144H30.3809L30.8232 36.2153H33.1506V35.8751C33.1506 35.8751 33.6607 35.9366 33.8847 35.6172C34.1087 35.2969 33.6432 34.1358 33.4671 33.7516L33.4679 33.75Z" fill="#30B3AF"/>
<path d="M33.0713 36.2168C33.0713 36.2168 33.4061 38.0584 33.4945 39.1461H30.3916C30.3916 39.1461 30.6267 37.0857 30.8236 36.2168H33.0713Z" fill="#FFCF2E"/>
<path d="M33.3424 39.1465C33.3424 39.1465 32.6856 41.2628 32.629 41.4201C32.5724 41.5767 32.3086 42.8009 31.7881 44.1043C31.7881 44.1043 31.871 44.6186 31.8806 44.958H30.0322C30.0322 44.958 30.2347 44.4932 30.6292 44.4054C31.0238 44.3175 31.1465 44.3367 31.1465 44.3367L31.93 39.1473H33.3424V39.1465Z" fill="#FCBF8F"/>
<path d="M33.4474 43.3983C33.4474 43.3983 33.2027 44.0899 33.0018 44.2225C32.8002 44.3542 32.0406 44.3319 32.0406 44.3319L32.0868 44.1746C32.133 44.0172 32.4024 44.0396 32.4909 43.9198C32.5794 43.8 32.6671 43.2825 32.6671 43.2825C32.6671 43.2825 32.5092 43.0389 32.2797 42.6827C32.4503 42.1165 32.5571 41.6749 32.6065 41.4928L33.1054 43.0062L33.4474 43.3991V43.3983ZM31.5751 41.5854L31.8501 39.6728L31.811 39.1465H30.4911C30.4911 39.1465 30.4656 39.767 30.5325 39.9259C30.5652 40.0026 31.0666 40.7924 31.5751 41.5854Z" fill="#FCBF8F"/>
<path d="M32.6675 43.283C32.6675 43.283 32.5798 43.8005 32.4914 43.9203C32.4029 44.0401 32.1335 44.0177 32.0872 44.175L32.041 44.3324C32.041 44.3324 32.8006 44.3547 33.0023 44.2229C33.2039 44.0912 33.4478 43.3988 33.4478 43.3988L33.1059 43.0059C33.0349 43.0865 32.6675 43.2822 32.6675 43.2822V43.283Z" fill="#192743"/>
<path d="M30.6292 44.4046C30.2347 44.4932 30.0322 44.9572 30.0322 44.9572H31.8806C31.8702 44.6178 31.7881 44.1035 31.7881 44.1035L31.1911 44.1315C31.1911 44.1315 31.0238 44.3159 30.6292 44.4046Z" fill="#192743"/>
<path d="M30.8802 34.1121L30.3071 34.2878L29.9492 33.2831L30.5223 33.1074L30.8802 34.1121Z" fill="#192743"/>
<path d="M31.3154 33.9842L30.9177 34.3571C30.9177 34.3571 30.6698 34.1183 30.4506 34.0528C30.2314 33.9865 30.1716 33.9969 30.0632 33.8252C29.9556 33.6535 29.9907 33.5457 30.0011 33.5042C30.0114 33.4627 30.2537 33.4491 30.665 33.5098L30.6076 33.3477C30.6076 33.3477 30.7081 33.3572 30.8563 33.5162C31.0046 33.6751 31.1138 33.862 31.3162 33.9849L31.3154 33.9842Z" fill="#FCBF8F"/>
<path d="M29.8499 38.1465C29.8499 38.1465 29.8053 38.3693 29.8611 38.6848C29.9169 39.0002 30.2181 39.3196 30.2875 39.3077C30.3568 39.2957 30.1074 38.7151 30.1767 38.4436C30.1767 38.4436 30.2166 38.874 30.262 38.8876C30.3074 38.902 30.305 38.2527 30.3002 38.1465H29.8499Z" fill="#FCBF8F"/>
<path d="M31.5976 32.7685C31.5896 32.7685 31.5833 32.7637 31.5801 32.7565C31.5769 32.7477 31.5825 32.7381 31.592 32.7357C31.706 32.7022 31.8566 32.6383 31.8582 32.6383C31.867 32.6343 31.8782 32.6383 31.8822 32.6463C31.8861 32.6551 31.8822 32.6646 31.8734 32.6686C31.8718 32.6686 31.7196 32.7333 31.6032 32.7677C31.6016 32.7677 31.5992 32.7677 31.5976 32.7677V32.7685ZM30.8412 36.2177C30.8412 36.2081 30.8332 36.2009 30.8229 36.2009H30.6866L30.6706 35.1747C30.6706 35.1651 30.6619 35.1579 30.6523 35.1579C30.6427 35.1579 30.6348 35.1659 30.6348 35.1747L30.6515 36.2177C30.6515 36.2265 30.6595 36.2344 30.6698 36.2344H30.8237C30.8332 36.2344 30.842 36.2273 30.842 36.2177H30.8412ZM33.1686 35.8775C33.1686 35.8679 33.1606 35.8607 33.1511 35.8607C32.578 35.8495 32.0057 35.439 31.6263 35.0964C31.2541 34.7602 30.9903 34.4224 30.9408 34.3577L31.3194 34.0031C31.4557 34.0598 32.7653 34.6093 33.3312 34.9607C33.3392 34.9654 33.3503 34.9638 33.3559 34.9559C33.3615 34.9479 33.3591 34.9375 33.3511 34.9327C32.7549 34.5621 31.337 33.9736 31.3226 33.968C31.3154 33.9648 31.3075 33.9664 31.3027 33.9712L30.905 34.3441C30.8986 34.3497 30.8978 34.3585 30.9026 34.3657C30.905 34.3697 31.1863 34.7458 31.6008 35.1204C31.8447 35.3408 32.0862 35.5173 32.3189 35.6451C32.6115 35.8056 32.8912 35.8894 33.1495 35.8942C33.159 35.8942 33.167 35.887 33.1678 35.8783L33.1686 35.8775ZM31.1911 44.1487L31.7881 44.1207C31.7953 44.1207 31.8025 44.116 31.804 44.1088L32.2966 42.6872C32.4234 42.2664 32.5142 41.9174 32.574 41.6858C32.5947 41.6067 32.6107 41.5436 32.6234 41.4973C32.6258 41.4885 32.6202 41.4789 32.6107 41.4773C32.6011 41.4749 32.5915 41.4805 32.5891 41.4893C32.5764 41.5356 32.5597 41.5987 32.5397 41.6786C32.4799 41.9094 32.3891 42.2584 32.2631 42.6785L31.7746 44.0888L31.2118 44.1152L31.5928 41.5891L31.8678 39.6765L31.9475 39.1502C31.9491 39.1414 31.9419 39.1326 31.9324 39.131C31.9228 39.1294 31.9132 39.1358 31.9116 39.1454L31.8319 39.6717L31.557 41.5844L31.1728 44.1303C31.1728 44.1351 31.1736 44.1399 31.1776 44.1439C31.1807 44.1471 31.1855 44.1495 31.1911 44.1495C31.1911 44.1495 31.1911 44.1495 31.1919 44.1495L31.1911 44.1487Z" fill="#192743"/>
</g>
</g>
<defs>
<clipPath id="clip0_2776_38491">
<rect width="56" height="48" fill="white"/>
</clipPath>
<clipPath id="clip1_2776_38491">
<rect width="53.7142" height="47.8545" fill="white" transform="translate(1 0.5)"/>
</clipPath>
</defs>
</svg>
