<svg width="56" height="48" viewBox="0 0 56 48" fill="none" xmlns="http://www.w3.org/2000/svg">
<path d="M20.4323 36.6855C20.4323 36.6855 20.1732 37.31 20.0801 38.6482L24.2385 38.8091C24.2385 38.8091 24.3151 37.58 23.2616 37.4222C22.2074 37.2647 22.2364 36.7459 22.2364 36.7459L20.433 36.6863H20.4323V36.6855Z" fill="#065D66"/>
<path d="M24.9342 36.3809C24.9342 36.3809 24.6752 37.0053 24.582 38.3435L28.7405 38.5044C28.7405 38.5044 28.817 37.2753 27.7636 37.1175C26.7094 36.96 26.7384 36.4412 26.7384 36.4412L24.935 36.3816H24.9342V36.3809Z" fill="#065D66"/>
<path d="M12.9472 3.16016H12.9928C13.161 3.16016 13.2971 3.29672 13.2971 3.46463V33.3793C13.2971 33.5209 13.1822 33.6358 13.0408 33.6358H12.8989C12.7574 33.6358 12.6426 33.5209 12.6426 33.3793V3.46502C12.6426 3.29672 12.779 3.16054 12.9468 3.16054L12.9472 3.16016Z" fill="#21284F"/>
<path d="M7.56416 39.3668C7.53517 39.3668 7.50618 39.3567 7.48259 39.3362C7.43118 39.2909 7.42615 39.2128 7.471 39.1613L12.5561 33.3508C12.6013 33.2993 12.6794 33.2943 12.7308 33.3392C12.7822 33.3844 12.7873 33.4626 12.7424 33.5141L7.65733 39.3246C7.63297 39.3524 7.59857 39.3668 7.56416 39.3668Z" fill="#21284F"/>
<path d="M9.52538 35.1655C9.48247 35.1655 9.44034 35.1431 9.41753 35.1028C9.38389 35.0432 9.40438 34.9678 9.46392 34.9338L12.722 33.0787C12.7815 33.045 12.8569 33.0655 12.891 33.1251C12.9246 33.1847 12.9041 33.2601 12.8446 33.2942L9.58646 35.1492C9.56713 35.1601 9.54626 35.1655 9.52538 35.1655Z" fill="#21284F"/>
<path d="M18.3538 39.3674C18.319 39.3674 18.2846 39.3531 18.2602 39.3248L13.0147 33.2756C12.9699 33.2237 12.9753 33.1456 13.0271 33.1007C13.0789 33.0558 13.157 33.0612 13.2018 33.1131L18.4474 39.1623C18.4922 39.2142 18.4868 39.2923 18.435 39.3372C18.4114 39.3577 18.3828 39.3674 18.3538 39.3674Z" fill="#21284F"/>
<path d="M12.9655 37.7616C12.8971 37.7616 12.8418 37.7063 12.8418 37.6378V33.6375C12.8418 33.569 12.8971 33.5137 12.9655 33.5137C13.0339 33.5137 13.0892 33.569 13.0892 33.6375V37.6378C13.0892 37.7063 13.0339 37.7616 12.9655 37.7616Z" fill="#21284F"/>
<path d="M12.9658 37.7603C12.9457 37.7603 12.9252 37.7552 12.9071 37.7456L10.2126 36.2897C10.1523 36.2572 10.1299 36.1822 10.1623 36.1218C10.1948 36.0615 10.2698 36.039 10.3301 36.0715L12.9658 37.4956L15.6139 36.0715C15.6742 36.039 15.7492 36.0619 15.7817 36.1222C15.8141 36.1826 15.7913 36.2576 15.731 36.2901L13.0242 37.7459C13.006 37.7556 12.9859 37.7606 12.9654 37.7606L12.9658 37.7603Z" fill="#21284F"/>
<path d="M12.9534 37.4459C12.9097 37.4459 12.8676 37.4231 12.8452 37.3821L11.0615 34.1667C11.0283 34.1067 11.0499 34.0313 11.1098 33.998C11.1697 33.9648 11.2451 33.9864 11.2784 34.0464L13.0621 37.2617C13.0953 37.3217 13.0736 37.3971 13.0137 37.4304C12.9948 37.4409 12.9739 37.4459 12.9538 37.4459H12.9534Z" fill="#21284F"/>
<path d="M0.493164 4.88626V25.5839L23.3756 19.6592V3.70898L0.493164 4.88626Z" fill="white"/>
<path d="M0 4.68003V5.19303C0 5.35629 0.137623 5.48551 0.30076 5.47545L23.5381 3.99254C23.6869 3.98287 23.8029 3.85946 23.8029 3.71012V3.41957C23.8029 3.25747 23.6668 3.12825 23.5049 3.13715L0.267514 4.3976C0.11752 4.40573 0 4.52992 0 4.68003Z" fill="#1B1F3F"/>
<path d="M0 25.2819V25.9079C0 26.0522 0.136463 26.1578 0.276019 26.1214L23.7612 20.0079C23.8582 19.9828 23.9262 19.895 23.9262 19.7944V19.2617C23.9262 19.1177 23.7906 19.0121 23.651 19.0481L0.165843 25.0683C0.0684248 25.0935 0 25.1813 0 25.2819Z" fill="#1B1F3F"/>
<path d="M27.2272 22.292C27.2272 22.292 27.2272 24.6334 27.2771 26.7883C27.3269 28.9433 27.3393 29.6404 27.0529 29.9894C26.7664 30.3379 25.2468 30.3604 25.0616 29.977C24.6882 29.2048 24.4891 27.7973 24.377 27.0003C24.2648 26.2034 23.7422 23.4256 23.7422 22.9648C23.7422 22.9648 26.1069 22.0305 27.2272 22.2924V22.292Z" fill="#192743"/>
<path d="M24.3607 27.7129L24.6375 36.4866C24.6375 36.4866 26.2604 36.7605 27.0691 36.4866C27.0691 36.4866 27.2145 30.4613 27.2516 29.44C27.2516 29.44 24.6464 26.7415 24.3604 27.7129H24.3607Z" fill="#192743"/>
<path d="M21.183 27.6562L20.0801 36.8578C20.0801 36.8578 21.6399 37.0698 22.6358 37.045C22.6358 37.045 23.0285 33.7477 23.2941 32.6764C23.5597 31.6051 24.0159 29.8034 24.0909 29.3883C24.0909 29.3883 21.839 27.7228 21.1834 27.6562H21.183Z" fill="#192743"/>
<path d="M21.4542 23.3879C21.4542 23.3879 21.252 24.453 21.201 26.919C21.1449 29.6279 21.3796 30.5247 22.5555 30.5993C23.7315 30.674 24.0303 29.7211 24.2356 28.8619C24.4409 28.0026 24.9825 25.0883 25.0942 24.5277C25.2063 23.9671 25.3555 22.3418 25.3555 22.3418L21.4538 23.3879H21.4542Z" fill="#192743"/>
<path d="M27.1241 12.9379C27.1241 12.9379 27.4883 13.2992 27.9487 14.121C28.4091 14.9431 29.7907 16.5498 30.1642 17.0106C30.5376 17.4713 30.3509 18.7918 29.94 18.7666C29.5294 18.7418 28.8695 18.6796 28.0233 17.8946C27.1771 17.11 26.6417 16.6241 26.6417 16.6241C26.6417 16.6241 26.6258 13.1863 27.1237 12.9375L27.1241 12.9379Z" fill="#5B8EF5"/>
<path d="M31.0801 16.8724C31.0801 16.8724 32.1339 16.5079 32.3759 16.3087C32.5584 16.1586 32.5406 15.9586 32.7138 15.7818C33.1054 15.3817 33.4243 14.9063 33.6025 14.9303C33.9454 14.9763 33.2565 15.7187 33.3617 15.7241C34.2195 15.7671 34.8597 14.6687 34.9358 14.9422C35.0035 15.186 34.228 15.9412 34.228 15.9412C34.228 15.9412 35.0893 15.232 35.1802 15.3423C35.3642 15.5659 34.4356 16.1772 34.4356 16.1772C34.4356 16.1772 35.3066 15.603 35.416 15.8046C35.4902 15.9416 34.5728 16.4894 34.5728 16.4894C34.5728 16.4894 35.2273 16.1489 35.3263 16.3284C35.3812 16.4283 34.2284 16.8852 34.0498 16.9451C33.6872 17.067 33.676 17.1308 33.0041 17.0233C32.7652 17.0287 31.4914 17.8613 31.4914 17.8613L31.0809 16.8728L31.0801 16.8724Z" fill="#8E5913"/>
<path d="M29.7168 16.7398C29.7168 16.7398 32.1066 16.1076 32.4055 16.0078C32.4055 16.0078 32.9532 16.6206 33.0279 17.2687C33.0279 17.2687 31.0362 18.7326 29.941 18.7701L29.7168 16.7398Z" fill="#5B8EF5"/>
<path d="M22.9956 12.3307C22.9956 12.3307 21.3967 12.5164 20.8513 12.7655C20.3058 13.0147 20.6955 15.4319 20.6808 16.7523C20.6661 18.0727 20.6514 20.9496 20.6661 22.1206C20.6808 23.2913 20.6406 24.3127 20.9208 24.4125C21.2011 24.5123 24.6069 24.6365 25.2996 23.6902C25.462 23.4786 25.6978 22.9927 25.6978 22.9927C25.6978 22.9927 26.1547 23.9517 27.0099 23.9517C27.865 23.9517 28.1746 23.7026 28.1746 23.6279C28.1746 23.5533 27.507 18.5215 27.4629 17.7493C27.4189 16.9771 27.345 15.5572 27.345 15.0342C27.345 14.5111 27.1827 13.0537 27.1239 12.9416C27.0648 12.8294 25.5907 12.244 22.9956 12.3311V12.3307Z" fill="#5B8EF5"/>
<path d="M23.2948 12.3273C23.2948 12.3273 23.2418 12.3369 23.1533 12.3543C23.1873 12.5826 23.4711 13.4082 25.2072 16.3539C25.2072 16.3539 25.4411 15.3093 25.7682 14.2175C26.0102 13.4105 26.0005 12.8344 25.7558 12.5369C25.1686 12.3969 24.3394 12.2855 23.2948 12.3273Z" fill="white"/>
<path d="M23.4274 10.6781C23.4274 10.6781 23.3192 11.8388 23.1533 12.3533C23.1533 12.3533 23.7096 13.1275 25.029 12.8949C25.3027 12.8118 25.4106 12.6292 25.4771 12.4879C25.4771 12.4879 25.3692 12.3881 25.4024 12.0395L23.4278 10.6777L23.4274 10.6781Z" fill="#8E5913"/>
<path d="M25.283 7.71558C25.7036 7.86491 26.0218 8.21388 26.1347 8.64602C26.1853 8.83907 26.2232 9.08126 26.2232 9.37219C26.2232 10.2442 26.2812 11.6223 25.7087 12.0045C25.1361 12.3864 24.0243 11.6973 23.8999 11.5642C23.7754 11.4315 23.5083 10.953 23.3026 10.3769C22.979 9.47201 23.1534 8.22626 23.9664 7.7945C24.438 7.5438 24.9127 7.58404 25.283 7.71558Z" fill="#8E5913"/>
<path d="M23.341 10.9677C23.3592 11.0017 23.3874 11.03 23.423 11.0455C23.4489 11.0567 23.4771 11.0609 23.4937 11.0385C23.5312 10.9886 23.6367 10.5901 23.668 10.4218C23.699 10.2535 23.9916 9.46273 24.0415 9.14511C24.0914 8.82748 24.1907 8.55976 24.2096 8.45994C24.2096 8.45994 23.5312 8.11755 23.1392 8.24213C23.1392 8.24213 22.9277 8.55976 22.9772 9.50645C23.0194 10.3061 23.2656 10.8261 23.341 10.9681V10.9677Z" fill="#3A2604"/>
<path d="M25.9263 8.03738C25.9263 8.03738 26.2313 8.40491 26.1068 8.52949C25.9824 8.65406 24.632 8.8034 23.9787 8.63549C23.3254 8.4672 23.1387 8.2432 23.1387 8.2432C23.1387 8.2432 23.3772 7.81531 23.9165 7.59556C24.4515 7.37775 25.2482 7.30927 25.9267 8.03777L25.9263 8.03738Z" fill="#3A2604"/>
<path d="M23.892 10.1333C23.892 10.1333 23.701 9.56886 23.4025 9.64352C23.1037 9.71819 23.3917 10.2776 23.4358 10.4157C23.4872 10.5778 23.8889 10.8877 23.9252 10.3825C23.9298 10.3186 23.9333 10.2331 23.892 10.1333Z" fill="#8E5913"/>
<path d="M21.6015 12.8499C21.6015 12.8499 21.1535 12.468 20.7549 12.8418C20.3567 13.2155 18.8468 15.6315 18.3071 17.1098C18.0914 17.7242 17.9916 18.2306 18.1745 18.4964C18.357 18.7622 19.4854 18.7537 20.4978 17.4917C21.5103 16.2297 22.3813 14.8512 22.3646 14.2697C22.348 13.6886 22.0743 12.9911 21.6011 12.8499H21.6015Z" fill="#5B8EF5"/>
<path d="M19.2257 17.0057C19.0529 16.5948 18.7854 16.4099 18.6532 16.3398C18.6018 16.4385 18.5534 16.5364 18.5078 16.6331L19.2253 17.0057H19.2257Z" fill="#5B8EF5"/>
<path d="M15.454 15.6684C15.4212 15.5914 15.2801 15.0923 15.0933 14.9198C14.9062 14.7472 14.7613 14.6672 14.2552 14.4014C14.0732 14.3058 14.031 14.6033 14.2591 14.743C14.9824 15.1856 14.4578 15.1005 14.0534 14.9287C13.7759 14.8107 13.3928 14.6695 13.1918 14.5573C12.7715 14.3225 12.5504 14.5554 12.9324 14.731C13.2961 14.8985 13.639 15.1794 13.639 15.1794C13.639 15.1794 12.7607 14.8888 12.6219 14.842C12.4832 14.7952 12.3378 14.9894 12.5005 15.102C12.6633 15.2146 13.4778 15.4827 13.4778 15.4827C13.4778 15.4827 12.5674 15.2181 12.4418 15.2637C12.3374 15.3016 12.3243 15.5241 12.6169 15.5771C12.9096 15.6305 13.3139 15.8235 13.3139 15.8235C13.3139 15.8235 12.6127 15.6618 12.5728 15.7976C12.5299 15.9439 12.8164 15.9771 13.0638 16.0677C13.2648 16.1412 13.392 16.1319 13.5834 16.2089C13.9371 16.3512 14.2061 16.3497 14.694 16.4031C14.7937 16.4139 15.1119 16.5342 15.1119 16.5342C15.1119 16.5342 15.4869 15.7458 15.4544 15.6684H15.454Z" fill="#8E5913"/>
<path d="M18.9286 16.6502C18.9286 16.6502 17.99 16.2351 17.0514 15.9631C16.3702 15.7658 15.8657 15.4737 15.5248 15.3848C15.5248 15.3848 15.0423 15.8718 14.8135 16.6456C14.8135 16.6456 18.1481 19.3004 19.1335 18.4922C19.1335 18.4922 19.9565 17.2588 18.9286 16.6506V16.6502Z" fill="#5B8EF5"/>
<path d="M36.5275 37.4441C36.5232 37.4441 36.519 37.4441 36.5147 37.4437C36.4181 37.4367 36.3454 37.3528 36.352 37.2561C36.546 34.5286 36.7896 32.8302 36.9601 31.8862C37.0594 31.3357 37.1452 30.9755 37.1994 30.7704C37.3045 30.3743 37.3293 30.3627 37.3954 30.3313C37.453 30.3042 37.5202 30.31 37.572 30.3468C37.6238 30.3832 37.6517 30.4462 37.6455 30.5093C37.6428 30.534 37.6354 30.5573 37.6238 30.5778C37.5759 30.7105 37.0598 32.2568 36.7022 37.2812C36.6956 37.3737 36.6187 37.4445 36.5275 37.4445V37.4441Z" fill="#192743"/>
<path d="M44.3721 38.6064C44.2808 38.6064 44.2035 38.5356 44.1973 38.4431C43.8459 33.4044 43.2173 30.1012 43.2112 30.0683C43.193 29.9732 43.2552 29.8811 43.3503 29.8625C43.445 29.8443 43.5374 29.9066 43.556 30.0018C43.5622 30.0347 44.195 33.3588 44.5476 38.4187C44.5545 38.5155 44.4815 38.5994 44.3848 38.606C44.3806 38.606 44.3767 38.6064 44.3724 38.6064H44.3721Z" fill="#192743"/>
<path d="M39.039 35.7196C39.0351 35.7196 39.0317 35.7196 39.0282 35.7196C38.935 35.7134 38.8647 35.6333 38.8705 35.5401C39.1585 31.0376 39.4028 29.9017 39.4619 29.6812C39.4175 29.3601 39.1097 26.9843 39.1411 23.1871C39.1418 23.0942 39.2172 23.0195 39.31 23.0195C39.4047 23.0203 39.4797 23.0965 39.4789 23.1898C39.4457 27.2338 39.7979 29.6444 39.8013 29.6684L39.8075 29.7102L39.7932 29.7501C39.7832 29.7806 39.5249 30.6027 39.2075 35.5614C39.2017 35.6507 39.1275 35.7196 39.0394 35.7196H39.039Z" fill="#192743"/>
<path d="M45.7589 36.4837C45.6708 36.4837 45.5966 36.4152 45.5908 36.3258C45.2641 31.315 44.5258 29.9671 44.5184 29.9543L44.4863 29.8978L44.5006 29.834C44.508 29.8019 45.2135 26.5695 45.0067 23.199C45.0009 23.1058 45.0716 23.0257 45.1648 23.0199C45.2583 23.0137 45.338 23.0849 45.3438 23.1781C45.5378 26.3432 44.939 29.386 44.8431 29.8472C44.9927 30.1601 45.6302 31.7328 45.9283 36.3038C45.9345 36.397 45.8637 36.4771 45.7705 36.4833C45.7667 36.4833 45.7632 36.4833 45.7593 36.4833L45.7589 36.4837Z" fill="#192743"/>
<path d="M43.5799 31.0932C39.6422 31.1191 38.4434 31.0672 36.7757 31.0672C36.541 31.0672 36.4378 30.5291 36.6214 30.4026C37.5577 29.758 38.6196 29.447 39.8095 29.2071C41.023 28.9626 42.4468 28.9514 43.661 29.1924C44.3244 29.324 44.9375 29.2222 45.1529 29.9356C45.3241 30.504 44.0855 31.0901 43.5799 31.0936V31.0932Z" fill="#663A30"/>
<path d="M43.3835 30.7232C41.5569 30.7232 38.4434 30.7154 36.7757 30.7154C36.541 30.7154 36.4378 30.4582 36.6214 30.3317C37.5577 29.6871 38.8493 29.3923 40.0396 29.1524C41.253 28.9079 42.6768 28.8967 43.8911 29.1377C44.5544 29.2693 44.8618 29.3559 45.1529 29.8647C45.3767 30.2562 43.8864 30.7232 43.3835 30.7232Z" fill="#C48051"/>
<path d="M44.694 22.3027H39.8234C39.4415 22.3027 39.1318 22.6126 39.1318 22.9949V25.1312C39.1318 25.5135 39.4415 25.8233 39.8234 25.8233H44.694C45.0759 25.8233 45.3855 25.5135 45.3855 25.1312V22.9949C45.3855 22.6126 45.0759 22.3027 44.694 22.3027Z" fill="#663A30"/>
<path d="M44.483 22.3027H39.6125C39.2305 22.3027 38.9209 22.6126 38.9209 22.9949V25.1312C38.9209 25.5135 39.2305 25.8233 39.6125 25.8233H44.483C44.865 25.8233 45.1746 25.5135 45.1746 25.1312V22.9949C45.1746 22.6126 44.865 22.3027 44.483 22.3027Z" fill="#C48051"/>
<path d="M35.9155 31.5039L37.2963 35.1796C37.2963 35.1796 37.4057 35.5646 36.5305 36.3024C36.2514 36.5376 35.6383 37.2026 35.6387 37.3582C35.6391 37.5137 36.2108 37.4386 36.4462 37.4057C36.6821 37.3729 38.6505 36.2424 38.4851 35.6687C38.4731 34.5835 37.3984 31.2617 37.3984 31.2617L35.9151 31.5039H35.9155Z" fill="#D3926E"/>
<path d="M38.4882 34.998L38.9134 35.9687L36.6771 38.095C36.6771 38.095 35.5015 37.8234 35.5908 37.2953C35.6731 36.8063 36.3701 36.4995 36.6361 36.2063C37.1746 35.612 37.0609 35.1702 37.0609 35.1702C37.0609 35.1702 37.1035 35.1749 37.1684 35.1826C37.6168 35.2371 38.0722 35.1733 38.4886 34.998H38.4882Z" fill="#192743"/>
<path d="M43.5614 29.941C42.5296 31.1949 40.2673 30.8912 38.6731 30.5999C38.1926 30.5124 37.7727 30.4262 37.465 30.3836C37.3401 30.3666 37.2334 30.3561 37.1492 30.3569C34.1512 30.3716 33.7028 28.491 34.728 27.5501C35.3995 26.9338 38.0685 27.0584 38.7577 27.015C38.9054 27.0062 39.1022 26.9934 39.331 26.9806C40.7165 26.8982 43.2811 26.7539 43.2811 26.7539C43.2784 26.7988 43.418 27.0205 43.566 27.3358C43.849 27.9374 44.1532 29.2218 43.5618 29.941H43.5614Z" fill="#065D66"/>
<path d="M37.4103 28.1532L38.4127 34.5293C38.0304 34.8655 37.5904 35.0392 36.8722 34.9874C36.8722 34.9874 34.2314 29.6829 34.2314 28.7575C34.2314 27.9362 35.281 26.979 37.4103 28.1532Z" fill="#065D66"/>
<path d="M40.0512 27.0358C39.9572 27.1449 37.5508 27.2679 37.5508 27.2679C37.5508 27.2679 38.6954 26.6195 39.0689 26.2539C39.4593 26.5549 39.8173 26.8435 40.0512 27.0358Z" fill="#182847"/>
<path d="M35.39 29.2956L35.8744 32.5744C35.8744 32.5744 36.0344 33.1369 35.4839 34.224C35.3084 34.5706 35.0842 35.0608 35.1492 35.2129C35.2141 35.3649 35.6432 35.4705 35.8605 35.3401C36.0777 35.2098 37.5359 33.2816 37.135 32.7887C37.0546 32.6858 36.9703 32.5237 36.9417 32.3786C36.7032 31.1723 37.2042 29.0781 37.2042 29.0781L35.3896 29.2952L35.39 29.2956Z" fill="#D3926E"/>
<path d="M36.9991 32.2402L37.5921 32.9409L36.1571 35.8231C36.1571 35.8231 34.7086 35.7763 34.7519 35.2981C34.7334 34.7259 35.2208 34.7302 35.3983 34.2741C35.626 33.6875 35.6399 32.7385 35.6399 32.7385" fill="#192743"/>
<path d="M35.4115 25.4695C34.8765 26.4243 35.0833 27.3903 35.2507 29.0531C35.4126 30.6645 35.517 31.8468 35.517 31.8468C35.517 31.8468 35.737 32.017 36.2585 32.0205C36.7796 32.024 37.0626 31.8429 37.0626 31.8429C37.0626 31.8429 37.5906 27.0665 37.729 26.4293C38.0263 25.0594 36.144 24.1615 35.4115 25.4691V25.4695Z" fill="#065D66"/>
<path d="M41.6612 21.1894C41.3662 21.3105 39.7646 21.791 39.2744 21.579C39.1623 21.5306 39.136 21.3898 39.1515 21.2319C39.177 20.9743 39.3112 20.671 39.3614 20.6462C39.4407 20.6064 40.0093 20.4806 40.346 20.245C40.3503 20.2419 40.3549 20.2388 40.3592 20.2353C40.4632 20.1599 40.4999 20.0044 40.5011 19.8252C40.5042 19.4299 40.3329 18.9215 40.3329 18.9215L41.6121 18.5153L41.7281 18.4785C41.7281 18.4785 41.822 19.6864 41.8885 19.7935C41.9558 19.9015 42.8136 20.2771 42.9748 20.3843C43.136 20.4914 41.9558 21.0683 41.6608 21.189L41.6612 21.1894Z" fill="#D3926E"/>
<path d="M39.3611 20.6453C39.3611 20.6453 40.1168 21.9441 39.9042 23.0304C39.721 23.9663 38.4433 24.8685 38.124 25.0546C37.434 25.4573 36.7265 24.8925 36.6859 24.5501C36.6457 24.2081 37.5093 22.6517 38.0223 21.9669C38.6258 21.1618 39.1469 20.4909 39.3607 20.6453H39.3611Z" fill="#FFCF2E"/>
<path d="M43.4459 26.3823C43.4451 26.4534 43.4459 26.5192 43.4467 26.5796C43.4478 26.7065 43.4517 26.8063 43.4587 26.874C43.4706 26.9951 42.902 27.0535 42.1586 27.0504C41.9815 27.0492 41.7952 27.0446 41.605 27.0372C40.9544 27.0113 40.2535 26.9452 39.7204 26.8399C39.5728 26.8109 39.4413 26.7417 39.3563 26.6415C39.2782 26.5494 38.7756 26.5475 38.8011 26.4101C38.885 25.9664 38.4037 23.1568 38.6253 22.7212C38.7691 22.4369 38.8711 22.1328 38.9094 21.8163C38.9469 21.5053 38.979 21.1741 38.9937 20.9837C38.9995 20.9087 39.0026 20.8561 39.0018 20.8348C38.9987 20.7141 39.1541 20.6522 39.4939 20.5822C39.4966 20.5822 39.9744 20.716 41.0681 20.8263C41.8087 20.901 41.6816 20.4425 41.8853 20.3071C42.2661 20.0533 42.9747 20.3822 42.9747 20.3822C42.9747 20.3822 43.4235 20.6232 43.5449 21.0867C43.5835 21.2364 43.5808 21.8171 43.5615 22.5595C43.529 23.8025 43.4505 25.4982 43.4459 26.3823Z" fill="#FFCF2E"/>
<path d="M43.9591 26.9887C43.5938 27.1218 42.6041 26.8905 42.1588 27.0518C41.9817 27.0506 41.7954 27.046 41.6052 27.0386C40.9546 27.0127 40.2537 26.9466 39.7206 26.8413C39.5729 26.8123 39.4415 26.7431 39.3564 26.6429C39.9498 26.2277 41.4591 25.3279 41.7335 25.0393C42.0695 24.6864 41.8147 23.4024 41.8147 23.4024C41.8128 22.2348 42.1344 21.861 42.9899 22.1547C43.1971 22.2259 43.6606 21.8672 43.833 22.0591C43.8006 23.3022 45.0523 24.7363 44.7264 26.4723C44.6681 26.7837 43.9583 26.9288 43.9591 26.9891V26.9887Z" fill="#FFCF2E"/>
<path d="M41.8221 18.8281C41.4866 19.3782 41.2152 19.5516 40.3585 19.4556C40.1993 19.4378 40.0682 19.384 39.9615 19.3059C39.7489 19.1504 39.6349 18.8993 39.5974 18.649C39.5707 18.4737 39.5823 18.2988 39.6229 18.1572C39.7791 17.616 39.9944 16.6093 40.3698 15.9919C41.1839 14.6529 42.264 16.0097 42.3576 16.7076C42.4515 17.4055 42.1565 18.2776 41.8218 18.8277L41.8221 18.8281Z" fill="#D3926E"/>
<path d="M41.2171 15.7881C41.2171 15.7881 41.2945 17.1449 42.0402 17.649C42.0402 17.649 42.2528 18.2359 41.9822 18.492C41.4595 18.9864 41.6045 20.4302 41.6721 20.537C41.7398 20.6438 41.8658 20.4596 42.0402 20.45C42.2145 20.4403 42.2145 20.508 42.4468 20.45C42.6792 20.3919 43.1346 20.3726 43.3669 20.6922C43.3669 20.6922 43.5115 20.2786 43.4346 19.8294C43.3298 19.2174 43.3766 17.3387 43.4442 17.0091C43.5119 16.6794 43.4539 14.8963 41.4201 15.1772C41.4201 15.1772 39.948 14.7021 39.977 16.9313C39.977 16.9313 40.3257 15.5939 41.2168 15.7877L41.2171 15.7881Z" fill="#5C3225"/>
<path d="M41.9384 17.8916C41.9384 17.8916 42.1074 17.3125 42.4035 17.5663C42.6992 17.8201 42.4692 18.4836 42.0664 18.4696C41.6636 18.4557 41.8863 18.0274 41.9388 17.8916H41.9384Z" fill="#D3926E"/>
<path d="M38.124 21.6314C38.124 21.6314 38.7275 20.8464 38.7878 20.7458C38.8481 20.6452 39.1566 19.8703 39.2737 19.6385C39.3908 19.4072 39.5493 19.1244 39.5826 19.0188C39.6158 18.9131 39.7326 18.9437 39.7527 19.0749C39.7527 19.0749 39.9336 18.9441 39.9336 19.1252C39.9336 19.3062 39.8234 19.6385 39.8234 19.6385C39.8234 19.6385 39.6182 20.3489 39.6881 20.3489C39.7581 20.3489 39.9085 20.2904 39.9792 20.0154C40.0496 19.7403 40.244 19.7887 40.2417 19.907C40.2386 20.0544 40.0886 20.6854 39.8977 20.9269C39.7067 21.1683 39.2583 21.082 39.0839 21.4499C38.9099 21.8178 38.124 21.631 38.124 21.631V21.6314Z" fill="#D3926E"/>
<path d="M38.6939 20.8301C38.6939 20.8301 36.5252 23.7514 36.638 24.7511C36.7776 25.9879 38.1136 25.2745 38.2748 24.8834C38.436 24.4923 39.2181 21.3694 39.2181 21.3694C39.2181 21.3694 38.937 21.2243 38.6939 20.8305V20.8301Z" fill="#FFCF2E"/>
<path d="M38.5752 28.5839L35.9928 25.976C35.9016 25.8835 35.9341 25.728 36.0551 25.6804L37.4448 25.1318C37.5121 25.1051 37.5886 25.1214 37.6396 25.1728L39.9916 27.5479C40.0716 27.6284 40.0581 27.7618 39.9642 27.8253L38.8048 28.6064C38.7329 28.6547 38.6366 28.6455 38.5756 28.5836L38.5752 28.5839Z" fill="#663A30"/>
<path d="M38.6491 28.4737L36.1325 25.9323C36.0637 25.8626 36.0903 25.7446 36.1827 25.7121L37.4658 25.2595C37.5145 25.2424 37.5686 25.2548 37.605 25.2916L39.8943 27.6032C39.9538 27.6635 39.943 27.7634 39.8719 27.8094L38.8165 28.4918C38.7635 28.5263 38.6936 28.5185 38.6491 28.4737Z" fill="#EFF3F9"/>
<path d="M37.2683 25.3851C37.2243 25.341 37.174 25.3112 37.1361 25.259C37.1137 25.2284 37.0708 25.2686 37.0928 25.2988C37.1114 25.3243 37.1856 25.3746 37.1945 25.3978C37.203 25.4203 37.1686 25.4238 37.1322 25.4396C37.0893 25.4586 37.0464 25.4772 37.0035 25.4961C36.9401 25.524 36.8655 25.5727 36.7979 25.5863C36.6626 25.613 36.5852 25.5472 36.5071 25.4501C36.4836 25.4207 36.4403 25.4605 36.4638 25.4899C36.5501 25.5971 36.6595 25.7046 36.7998 25.6497C36.9127 25.6056 37.0232 25.5518 37.1342 25.5035C37.1864 25.4806 37.2525 25.4706 37.2749 25.4141C37.2784 25.4048 37.2749 25.3924 37.2683 25.3855V25.3851Z" fill="#D0D6DD"/>
<path d="M37.4617 25.5233C37.2046 25.6638 36.9445 25.7984 36.6816 25.9276C36.6476 25.9443 36.675 25.9961 36.709 25.9795C36.9719 25.8506 37.2321 25.7156 37.4892 25.5752C37.5224 25.557 37.495 25.5052 37.4617 25.5233Z" fill="#192743"/>
<path d="M37.74 25.7987C37.483 25.9392 37.2228 26.0738 36.9599 26.203C36.9259 26.2197 36.9533 26.2715 36.9874 26.2549C37.2502 26.126 37.5104 25.991 37.7675 25.8506C37.8007 25.8324 37.7733 25.7805 37.74 25.7987Z" fill="#192743"/>
<path d="M38.0457 26.119C37.7886 26.2595 37.5285 26.3941 37.2656 26.5233C37.2316 26.54 37.259 26.5918 37.293 26.5752C37.5559 26.4463 37.8161 26.3113 38.0731 26.1709C38.1064 26.1527 38.0789 26.1009 38.0457 26.119Z" fill="#483249"/>
<path d="M41.9458 22.0282C41.8391 22.7614 42.5952 24.5781 42.9188 25.2045C43.2424 25.8305 44.7094 27.3408 44.7697 26.2541C44.83 25.1674 43.6255 21.1674 43.5451 21.0889C43.4646 21.0103 42.1371 20.7109 41.9458 22.0282Z" fill="#FFCF2E"/>
<path d="M40.2261 26.2524C39.6709 26.6026 38.9453 25.8737 38.3326 25.9012C37.7199 25.9286 37.2714 26.2857 37.1767 26.4501C37.0816 26.6142 37.5069 26.4962 37.7292 26.4281C37.9514 26.36 38.2302 26.2517 38.2302 26.2517C38.2302 26.2517 37.4783 26.5399 37.372 26.6796C37.2656 26.8192 37.5939 26.8687 38.2665 26.6606C38.2665 26.6606 37.1377 26.7438 37.4732 26.9852C37.8088 27.2262 38.27 27.1461 38.4671 27.1442C38.6643 27.1426 38.9535 27.3075 39.3029 27.3597C39.9419 27.4549 40.0513 27.0347 40.6417 27.1194C40.7008 27.1279 40.2261 26.2528 40.2261 26.2528V26.2524Z" fill="#D3926E"/>
<path d="M53.0523 35.2011C52.9591 35.2011 52.8806 35.1287 52.8744 35.0343C52.8679 34.9361 52.9425 34.851 53.0407 34.8448C54.9484 34.7198 55.4378 27.9587 55.4657 25.3639C55.4668 25.266 55.5465 25.1875 55.6439 25.1875C55.6447 25.1875 55.645 25.1875 55.6458 25.1875C55.7444 25.1887 55.8233 25.2691 55.8221 25.3678C55.8221 25.3918 55.7931 27.7804 55.4587 30.1581C54.9987 33.4303 54.1931 35.1268 53.0642 35.2007C53.0604 35.2007 53.0561 35.2007 53.0523 35.2007V35.2011Z" fill="#192743"/>
<path d="M50.8862 34.7807C50.8007 34.7807 50.7288 34.7146 50.723 34.6283C50.7169 34.5378 50.7849 34.4596 50.875 34.4534C52.7955 34.3196 53.3966 27.8444 53.4662 25.3606C53.4685 25.2701 53.5412 25.1989 53.6344 25.2012C53.7248 25.2039 53.796 25.2794 53.7937 25.3695C53.7929 25.3923 53.7256 27.6765 53.3533 29.9521C52.8423 33.0777 52.0162 34.7022 50.8978 34.7804C50.8939 34.7804 50.89 34.7804 50.8862 34.7804V34.7807Z" fill="#192743"/>
<path d="M44.9927 44.8642C44.9888 44.8642 44.985 44.8642 44.9811 44.8638C44.8933 44.8576 44.8272 44.781 44.8334 44.6928C45.0352 41.922 46.66 35.0514 46.6762 34.9822C46.6967 34.8963 46.7829 34.8433 46.8684 34.8638C46.9542 34.8843 47.0072 34.9702 46.9867 35.0561C46.9704 35.1249 45.3514 41.9711 45.1516 44.716C45.1454 44.8 45.0754 44.8642 44.9927 44.8642Z" fill="#192743"/>
<path d="M55.3033 44.8605C55.2245 44.8605 55.1561 44.8021 55.1452 44.7216C54.8047 42.1473 53.7439 35.2895 52.9394 34.4855C52.8772 34.4233 52.8768 34.3219 52.9394 34.2596C53.0016 34.1973 53.1029 34.1973 53.1652 34.2596C54.2105 35.3046 55.4112 44.2976 55.4618 44.6798C55.4734 44.7672 55.412 44.8477 55.3246 44.8589C55.3176 44.8601 55.3103 44.8605 55.3033 44.8605Z" fill="#192743"/>
<path d="M52.5027 41.9141C52.4087 41.9141 52.3302 41.8406 52.3248 41.7458C52.3237 41.728 52.2228 39.9325 51.9939 38.0642C51.5977 34.8326 51.1601 34.0662 50.9347 33.8972C50.8558 33.838 50.84 33.7262 50.8987 33.6476C50.9579 33.5687 51.0696 33.5528 51.1481 33.6117C52.2467 34.4349 52.6395 40.9821 52.6805 41.7257C52.6859 41.8239 52.6105 41.9083 52.5123 41.9137C52.5088 41.9137 52.5057 41.9137 52.5023 41.9137L52.5027 41.9141Z" fill="#192743"/>
<path d="M43.1862 42.3404C43.175 42.3404 43.1634 42.3392 43.1521 42.3369C43.0636 42.3179 43.0072 42.2309 43.0261 42.1423C43.0876 41.8521 44.5419 35.0253 45.2072 34.1397C45.2613 34.0673 45.3642 34.0526 45.4365 34.1072C45.5087 34.1617 45.5234 34.2643 45.4689 34.3366C44.9525 35.0237 43.7618 40.2532 43.3466 42.21C43.3304 42.287 43.2623 42.34 43.1866 42.34L43.1862 42.3404Z" fill="#192743"/>
<path d="M44.4771 33.7302C44.6039 33.7046 44.7237 33.6868 44.7759 33.6868C46.1966 33.6745 49.6994 33.5623 50.8808 33.5708C51.059 33.5723 51.2256 33.5971 51.376 33.6451C52.0471 33.8617 52.5845 34.0118 53.4933 34.3755C54.2669 34.5755 54.5255 34.6734 54.5255 34.6734C54.5255 34.6734 54.4795 34.9136 54.3639 35.0556C54.3492 35.0796 54.3272 35.0997 54.3001 35.116C54.2955 35.1191 54.2912 35.1229 54.2866 35.1256C54.2827 35.128 54.2781 35.1287 54.2742 35.1307C54.27 35.1326 54.2653 35.1345 54.2607 35.1361C54.2545 35.138 54.2483 35.1396 54.2417 35.1403C54.2274 35.1442 54.2135 35.1489 54.1973 35.15C52.2856 35.2997 48.7894 35.8503 45.4818 35.4963C45.4354 35.4912 45.391 35.3396 45.355 35.3233C45.3129 35.304 45.2781 35.2769 45.251 35.244C44.9762 34.9082 44.4106 34.2679 44.0952 33.9135C44.0855 33.9023 44.0755 33.8923 44.0666 33.8818C44.0611 33.8752 44.0611 33.8687 44.0666 33.8617C44.0963 33.8203 44.2939 33.7677 44.4775 33.7309L44.4771 33.7302Z" fill="#663A30"/>
<path d="M44.0654 33.8604V33.8813L44.094 33.913C44.4099 34.2674 44.9754 34.9077 45.2503 35.2435C45.2774 35.2764 45.3122 35.3035 45.3543 35.3228C45.4231 35.0903 45.9187 34.8953 45.9187 34.8953L44.5931 33.7931C44.5931 33.7931 44.5413 33.7621 44.4768 33.73C44.3933 33.6882 44.2893 33.6449 44.2494 33.6654C44.1799 33.701 44.0654 33.86 44.0654 33.86V33.8604Z" fill="#663A30"/>
<path d="M54.3435 34.8032C52.4524 34.9695 48.9836 35.4063 45.6837 35.1022C45.5817 35.093 45.5059 35.0539 45.4552 34.9962C45.1661 34.6647 44.5634 34.0236 44.2464 33.6886C44.185 33.6236 44.8116 33.4948 44.9531 33.492C46.3722 33.465 49.8634 33.3187 51.0382 33.3145C51.2157 33.3137 51.3819 33.3358 51.5315 33.381C52.2803 33.6073 53.35 34.1049 54.4328 34.503C54.5975 34.5637 54.5476 34.7846 54.3435 34.8028V34.8032Z" fill="#C48051"/>
<path d="M55.7157 24.9285L53.5934 24.6855C53.392 24.6623 53.228 24.8542 53.2377 25.1026C53.2609 25.7181 53.2597 27.1306 53.2377 28.0823C53.2308 28.3922 53.4171 28.6738 53.6676 28.7323L55.5313 29.1671C55.7358 29.2565 55.9411 29.0886 55.9453 28.827C55.9608 27.9291 55.9917 26.1034 55.9998 25.3165C56.0018 25.12 55.875 24.9474 55.7153 24.9288L55.7157 24.9285Z" fill="#663A30"/>
<path d="M55.5682 24.8953L53.4459 24.6523C53.2445 24.6291 53.0806 24.821 53.0903 25.0693C53.1134 25.6849 53.1123 27.0974 53.0903 28.0491C53.0833 28.359 53.2696 28.6406 53.5201 28.699L55.3838 29.1339C55.5883 29.2233 55.7936 29.0554 55.7979 28.7938C55.8133 27.8959 55.8443 26.0702 55.8524 25.2833C55.8543 25.0868 55.7275 24.9142 55.5678 24.8956L55.5682 24.8953Z" fill="#C48051"/>
<path d="M53.0987 31.2996C53.0987 31.2996 47.406 28.9091 45.8299 28.9598C44.2542 29.0105 43.7458 29.6171 44.1525 30.7212C44.5592 31.8254 48.1513 32.9446 49.5066 33.1481C50.862 33.3516 54.5898 33.2154 53.0987 31.2996Z" fill="#5B8EF5"/>
<path d="M43.4417 38.3338C43.4506 38.3977 43.635 40.7789 43.4417 41.2006C43.2484 41.6223 41.9286 42.3527 41.4512 42.5214C41.4512 42.5214 43.7823 42.4932 44.1754 42.5214C44.5686 42.5497 45.1395 42.4557 45.1395 42.1465C45.1395 41.8374 44.7371 41.3972 44.7371 41.0037C44.7371 40.6102 45.5516 36.3101 45.3831 35.9731C45.2145 35.6358 43.1019 35.9449 43.4421 38.3338H43.4417Z" fill="#FCBF8F"/>
<path d="M51.8215 34.7748C50.3069 35.0015 49.253 34.8754 47.7879 34.4483C47.1342 34.2568 46.4813 34.0541 45.8245 33.8854C45.4193 33.7813 45.0095 33.6614 44.6612 33.4293C44.6578 33.4273 44.6551 33.425 44.6516 33.4231C43.9774 32.9654 43.1118 31.705 44.1772 31.301C44.3729 31.2268 44.8557 31.1838 45.4665 31.1598H45.4707C45.8419 31.1455 46.2613 31.1378 46.6919 31.1331C48.2128 31.1165 49.8704 31.1444 50.0687 31.0724C50.0811 31.0678 50.0935 31.0627 50.1066 31.0565C50.4483 30.8952 50.9084 30.2089 51.4716 30.2584C52.0561 30.3095 53.6829 31.301 53.6829 31.301C53.6829 31.301 54.0397 31.9491 54.1437 32.7077C54.2716 33.6432 53.604 34.5094 51.8219 34.7752L51.8215 34.7748Z" fill="#5B8EF5"/>
<path d="M45.0669 40.3049C44.9506 40.3463 44.8226 40.3703 44.6869 40.3807C44.6641 40.3827 44.6409 40.3842 44.6165 40.385C44.1743 40.4051 43.671 40.2921 43.2879 40.1776C43.2879 40.1776 43.192 38.5504 43.1383 36.739C43.1 35.4434 43.0826 32.9979 43.2113 32.2803C43.2148 32.2567 43.3157 31.3402 44.4062 31.1247C44.811 31.0446 45.2343 31.1339 45.394 31.1506C45.4326 31.1541 45.4581 31.1575 45.467 31.1587H45.4713L45.675 32.7832L45.7342 33.2579L45.7535 33.4107C45.7554 33.6208 45.7709 34.0139 45.7775 34.5226C45.7995 36.0245 45.7512 38.5346 45.0665 40.3045L45.0669 40.3049Z" fill="#5B8EF5"/>
<path d="M47.0392 32.854C46.7416 32.7898 46.4516 32.7016 46.1686 32.5886C46.0225 32.832 45.8787 33.0533 45.7341 33.2591C45.4519 33.663 45.1666 34.0096 44.8651 34.3582C44.8728 34.3636 44.8782 34.3721 44.879 34.3837C45.0217 36.3839 44.9567 38.3945 44.6869 40.3815C44.6641 40.3835 44.6409 40.385 44.6165 40.3858C44.8879 38.4096 44.9521 36.4091 44.8129 34.4193C44.5783 34.6882 44.3328 34.9602 44.0699 35.2616C43.6408 35.7521 43.34 36.05 43.1251 36.2547C43.1243 36.2381 43.1243 36.2214 43.1236 36.2052C43.083 34.6178 43.083 32.9987 43.2117 32.2814C43.2152 32.2578 43.2198 32.2366 43.2241 32.2161C43.2268 32.2045 43.2287 32.1925 43.2322 32.1801C43.233 32.1758 43.2341 32.172 43.2349 32.1677C43.301 31.941 43.4069 31.7348 43.582 31.5758C43.6764 31.4895 43.7811 31.4195 43.8913 31.363C43.9072 31.3549 43.9238 31.3471 43.9396 31.3394C43.9733 31.3235 44.0077 31.3092 44.0428 31.2953C44.0823 31.281 44.1213 31.267 44.1611 31.2539C44.1627 31.2531 44.1631 31.2531 44.1646 31.2531C44.1851 31.2469 44.206 31.2407 44.2265 31.2353C44.2659 31.2237 44.3057 31.214 44.3463 31.2051C44.3622 31.2017 44.378 31.199 44.3939 31.1955C44.4089 31.1928 44.4248 31.1893 44.4406 31.1866C44.6706 31.1467 44.9076 31.1378 45.1342 31.1432C45.2204 31.1452 45.307 31.1487 45.3939 31.1521C45.8285 31.1699 46.2719 31.1901 46.6751 31.0744C46.7957 31.0392 46.912 30.9924 47.0234 30.9297C46.7361 31.5665 46.4671 32.0857 46.2046 32.5302C46.4822 32.6389 46.7659 32.7252 47.0578 32.7886C47.1011 32.7975 47.0825 32.8645 47.0392 32.8548V32.854Z" fill="#5B8EF5"/>
<path d="M42.9103 32.5965C42.889 32.6603 41.9527 34.9777 41.575 35.2822C41.1977 35.587 39.6205 35.6559 39.0947 35.5913C39.0947 35.5913 41.2917 36.6521 41.6469 36.8618C42.0022 37.0715 42.5809 37.2502 42.7247 36.9605C42.8685 36.6707 42.6965 36.0706 42.8797 35.702C43.063 35.3333 45.8286 31.6842 45.8278 31.2896C45.827 30.895 43.7035 30.199 42.9099 32.5961L42.9103 32.5965Z" fill="#FCBF8F"/>
<path d="M48.5361 29.8497C48.5326 29.8911 48.3026 29.9662 48.0023 30.0753C47.8894 30.1167 47.7606 30.16 47.6296 30.2076C47.4003 30.2912 47.1131 30.3786 46.9214 30.5353C46.7254 30.6955 46.6701 30.8196 46.5711 31.0479C46.1927 31.9207 45.636 32.6976 45.0843 33.4721C44.2872 34.5909 43.2999 35.3144 43.2952 35.3163C43.2001 35.357 41.878 34.4524 41.8858 34.4366C42.8279 32.4538 43.3184 31.1365 43.8925 30.0138C43.9037 29.9917 44.1743 29.3456 44.6382 29.0586C44.7318 29.0005 44.8331 28.953 44.9343 28.9147C44.9645 28.9023 45.3136 28.804 45.6147 28.799C45.6526 28.7982 45.6913 28.8005 45.7303 28.8025C45.9541 28.8114 46.1958 28.8446 46.4405 28.8949C46.5684 28.9205 46.6991 28.9475 46.8263 28.9851C47.5469 29.1986 48.2972 29.577 48.3772 29.6377C48.3861 29.6447 48.395 29.6517 48.4035 29.6582C48.4932 29.7306 48.5411 29.7967 48.5365 29.8497H48.5361Z" fill="#5B8EF5"/>
<path d="M46.8478 31.0601C46.8373 31.0404 46.825 31.0226 46.8138 31.004C46.8145 30.9986 46.8141 30.9928 46.8122 30.9866C46.7473 30.7653 46.6819 30.544 46.617 30.3231C46.6023 30.2736 46.525 30.2948 46.5397 30.3444C46.5876 30.5069 46.6355 30.6697 46.6835 30.8322C46.6328 30.7781 46.5779 30.7274 46.518 30.6806C46.4504 30.6276 46.3796 30.5784 46.3089 30.5301C46.2764 30.508 46.1272 30.4303 46.0827 30.3815C46.0831 30.3769 46.0835 30.3722 46.082 30.3668C46.0812 30.3645 46.0808 30.3618 46.08 30.3595C46.0746 30.3374 46.0514 30.3273 46.0309 30.3316C46.0274 30.3324 46.0244 30.3331 46.0209 30.3335C45.9985 30.3382 45.9892 30.3625 45.993 30.3827C46.0004 30.4252 46.0468 30.4457 46.0789 30.4689C46.16 30.527 46.2439 30.5815 46.3259 30.6384C46.5076 30.7649 46.675 30.9011 46.779 31.1007C46.8029 31.1464 46.8721 31.1061 46.8482 31.0601H46.8478Z" fill="#5B8EF5"/>
<path d="M47.9932 27.7089C47.9932 27.7089 48.251 28.165 48.2189 28.6455C48.2189 28.6455 49.6767 28.4621 50.1789 28.1561C50.6814 27.8501 49.7691 26.5192 49.2352 26.8245C48.7014 27.1297 47.9932 27.7085 47.9932 27.7085V27.7089Z" fill="#30B3AF"/>
<path d="M51.2362 23.7346C51.2362 23.7346 49.1343 26.926 49.0833 27.2057C49.0319 27.4854 49.8677 29.1505 50.3281 28.7575C50.7889 28.3644 52.2204 23.6971 51.2362 23.7346Z" fill="#30B3AF"/>
<path d="M53.4029 23.3843C53.4029 23.3843 50.8252 25.3663 50.6833 25.4C49.9674 25.5691 51.0143 24.302 51.1152 24.0981C51.1519 24.025 51.3834 23.3488 51.3394 22.9951C51.2609 22.3634 51.1152 21.5591 51.1152 21.5591L51.4693 21.2047L52.6398 20.0332C52.5513 21.8825 53.4025 23.3847 53.4025 23.3847L53.4029 23.3843Z" fill="#FCBF8F"/>
<path d="M54.5144 27.8022L54.4333 29.5018C54.3815 30.0883 54.3726 30.6775 54.4066 31.2655L54.412 32.5639C54.412 32.5639 52.8881 32.6873 51.1701 31.2938C50.6908 30.905 50.1565 30.8133 50.0525 30.7115C49.819 30.484 49.855 29.6468 49.7556 28.959C49.7212 28.7149 49.6702 28.4905 49.5836 28.3179C49.2539 27.6575 49.337 27.131 49.7556 26.411C50.3019 25.4716 50.2157 25.3943 50.9807 24.1234C50.9718 24.1659 50.823 24.9408 52.2321 23.3295C52.2541 23.304 52.2777 23.2773 52.3009 23.2502L52.3028 23.2483C52.6909 22.8002 52.9701 22.6323 53.0574 22.5863C53.0756 22.577 53.0969 22.5782 53.1139 22.5894C53.3385 22.7387 54.857 23.9021 54.5141 27.8026L54.5144 27.8022Z" fill="#30B3AF"/>
<path d="M42.4906 27.6092C43.033 27.904 46.3935 29.6929 46.8837 29.9541C46.9158 29.9711 46.9552 29.9568 46.9691 29.9235C47.0874 29.6341 47.5722 28.439 47.4964 28.4882C47.4156 28.5404 43.9878 26.7008 43.5804 26.4818C43.5568 26.469 43.5278 26.4737 43.5089 26.4923L42.4775 27.5125C42.4481 27.5415 42.4547 27.5902 42.4906 27.6096V27.6092Z" fill="#663A30"/>
<path d="M42.7789 27.5893C43.2745 27.8389 46.3436 29.3547 46.7916 29.576C46.821 29.5903 46.857 29.5783 46.8697 29.5493C46.9787 29.3017 47.4264 28.2807 47.3568 28.3229C47.2826 28.3677 44.1521 26.809 43.7798 26.6233C43.7581 26.6125 43.7319 26.6163 43.7141 26.6326L42.767 27.5062C42.7403 27.5309 42.7457 27.5723 42.7789 27.5889V27.5893Z" fill="#EFF3F9"/>
<path d="M43.6725 26.8972C43.5623 26.7989 43.3571 26.6001 43.2055 26.7262C43.1692 26.7564 43.2094 26.819 43.2465 26.7885C43.3056 26.7393 43.4514 26.8183 43.5012 26.8538C43.5333 26.8771 43.5631 26.9014 43.5925 26.9266C43.5183 26.9989 43.4436 27.0709 43.3694 27.1432C43.2991 27.2117 43.226 27.3301 43.1317 27.2725C43.0037 27.1943 42.9345 27.1235 42.7749 27.1115C42.7273 27.108 42.7316 27.1823 42.7787 27.1858C42.9624 27.1993 43.0265 27.2902 43.1452 27.4028C43.1541 27.411 43.1703 27.416 43.1819 27.4106C43.2589 27.3746 43.3149 27.3003 43.3748 27.2415C43.475 27.1444 43.5755 27.0469 43.6756 26.9498C43.6899 26.9359 43.6872 26.9099 43.6729 26.8972H43.6725Z" fill="#D0D6DD"/>
<path d="M43.959 26.99C43.7994 27.1951 43.6347 27.3963 43.4653 27.5936C43.434 27.6299 43.4893 27.6798 43.5206 27.6435C43.69 27.4462 43.8543 27.2454 44.0143 27.0399C44.0437 27.0024 43.9884 26.9521 43.959 26.99Z" fill="#192743"/>
<path d="M44.3321 27.1853C44.1724 27.3904 44.0077 27.5916 43.8384 27.7889C43.8071 27.8252 43.8624 27.8752 43.8937 27.8388C44.063 27.6415 44.2273 27.4407 44.3873 27.2353C44.4167 27.1977 44.3614 27.1474 44.3321 27.1853Z" fill="#192743"/>
<path d="M44.7061 27.3885C44.5464 27.5935 44.3817 27.7947 44.2124 27.992C44.1811 28.0284 44.2364 28.0783 44.2677 28.0419C44.437 27.8446 44.6013 27.6438 44.7614 27.4384C44.7907 27.4009 44.7355 27.3506 44.7061 27.3885Z" fill="#192743"/>
<path d="M51.9351 24.4911C51.8145 24.6737 51.7294 24.8772 51.6792 25.0904C51.4484 26.0723 50.7158 27.9606 50.7158 29.0845C50.7158 29.8761 52.0843 30.7152 52.6089 30.232C53.1335 29.7488 53.9144 26.0901 53.9875 25.2722C54.1003 24.0102 52.9414 22.9687 51.9351 24.4915V24.4911Z" fill="#30B3AF"/>
<path d="M44.6843 28.432C44.602 28.2486 44.1524 28.4769 44.9657 29.5706C45.1154 29.7714 45.5669 30.426 46.2619 30.537C46.7112 30.609 48.8799 30.5622 48.8799 30.5622L49.2355 29.4762C49.2139 29.5625 47.0579 29.8801 46.9992 29.4762C46.9729 29.2951 46.0841 28.5535 45.8046 28.5024C45.5251 28.4517 45.703 28.7821 45.8301 28.9601C45.9573 29.1381 46.369 29.7265 45.4996 29.2444C45.2688 29.1164 44.837 28.7717 44.6847 28.432H44.6843Z" fill="#FCBF8F"/>
<path d="M51.1158 28.7305C51.1158 28.7305 48.4055 29.6002 47.516 29.5491C47.516 29.5491 47.5616 30.1522 47.4766 30.6413C47.4766 30.6413 52.2539 30.9009 52.61 30.2312C52.9656 29.5615 51.1162 28.7305 51.1162 28.7305H51.1158Z" fill="#30B3AF"/>
<path d="M48.2521 28.2975C48.2177 28.0433 48.0739 27.8166 47.9931 27.7068C47.8299 27.8074 47.6142 27.793 47.4696 27.66C47.3482 27.547 47.2423 27.4007 47.177 27.2294C47.0854 26.9914 47.1144 26.6483 47.0274 26.4931C46.9941 26.4332 46.9435 26.4014 46.8608 26.4154C46.853 26.4169 46.8449 26.4181 46.8368 26.42C46.5233 26.4835 45.7509 26.7817 45.6523 27.0526C45.6407 27.0835 45.6372 27.1098 45.6392 27.1326C45.6419 27.1713 45.662 27.198 45.6937 27.2154C45.6991 27.2189 45.7045 27.2208 45.7103 27.2236C45.7095 27.241 45.7095 27.2588 45.7103 27.2773C45.713 27.3346 45.7234 27.3965 45.7405 27.4572C45.7405 27.458 45.7412 27.458 45.7412 27.4588C45.7571 27.516 45.7791 27.5717 45.8073 27.6209C45.8182 27.6402 45.8301 27.6588 45.8425 27.6754C45.8444 27.6781 45.8468 27.6808 45.8495 27.6836C46.0153 27.8971 46.751 28.5374 47.0251 28.6415C47.0931 28.6678 47.1635 28.6871 47.2338 28.7014C47.3015 28.7146 47.3695 28.7235 47.4364 28.7281C47.7658 28.7521 48.0719 28.6825 48.2188 28.6442C48.2223 28.6337 48.2258 28.6241 48.2293 28.6144C48.2347 28.597 48.2389 28.5799 48.2432 28.5625C48.2633 28.4728 48.2644 28.3834 48.2528 28.2971L48.2521 28.2975ZM46.4139 27.6367C46.2569 27.6058 46.1286 27.3899 46.0157 27.2294C46.0915 27.2154 46.1622 27.1949 46.2113 27.1748C46.3891 27.1025 46.6686 27.6874 46.4139 27.6367Z" fill="#FCBF8F"/>
<path d="M45.3241 27.4932C45.2967 27.4932 45.2704 27.4793 45.2553 27.4541C45.2329 27.4162 45.2453 27.3667 45.2831 27.3442L48.184 25.6168C48.2223 25.594 48.271 25.6068 48.2938 25.6447C48.3163 25.6826 48.3039 25.7321 48.266 25.7545L45.3651 27.482C45.3523 27.4897 45.338 27.4932 45.3241 27.4932Z" fill="#192743"/>
<path d="M45.283 27.3457L45.0557 27.5732L45.3649 27.4834C45.2822 27.4335 45.2548 27.3875 45.283 27.3457Z" fill="#492749"/>
<path d="M45.7181 27.0875C45.7181 27.0875 45.6451 27.2956 45.7406 27.4604C45.836 27.6252 46.0154 27.231 46.0154 27.231C46.0154 27.231 45.8778 26.913 45.7181 27.0875Z" fill="#FCBF8F"/>
<path d="M50.3534 18.5585C50.3534 18.5585 49.4132 22.2718 50.76 22.4753C52.1069 22.6787 53.0737 21.4071 53.1754 21.1018C53.2771 20.7966 53.5303 19.8046 52.8692 18.9906C52.2085 18.1766 50.9123 17.541 50.353 18.5581L50.3534 18.5585Z" fill="#FCBF8F"/>
<path d="M54.1749 18.8612C54.2549 18.9308 54.662 19.5982 54.471 20.2648C54.2677 20.977 53.3086 21.3658 53.0109 21.7392C52.6309 22.2166 52.8381 20.9902 52.6236 20.6517C52.4303 20.3476 52.3224 20.2404 51.9706 20.1607C51.9242 20.1503 51.8759 20.1391 51.8272 20.1263C51.506 20.0412 51.5396 19.4133 51.2856 19.3459C51.0308 19.2779 50.3957 19.4566 50.3277 18.6852C50.2604 17.9137 51.1963 17.3338 51.8237 17.5032C52.4504 17.6731 52.675 17.7013 52.9293 17.6669C52.9293 17.6669 53.3793 16.1515 54.4718 16.902C56.1171 18.0325 54.2051 18.8426 54.1757 18.8608L54.1749 18.8612Z" fill="#192743"/>
<path d="M51.8272 20.1264C51.8272 20.1264 52.2261 19.3124 52.552 19.7194C52.8779 20.1264 52.7674 20.9404 52.3734 21.0081C51.9795 21.0758 51.7932 20.6352 51.8272 20.1264Z" fill="#FCBF8F"/>
<path d="M43.0454 35.8335C43.0454 35.8335 42.9924 36.5117 42.4651 37.7532L38.665 35.9964C38.665 35.9964 39.1575 34.8602 40.1739 35.1998C41.1902 35.5407 41.4013 35.0625 41.4013 35.0625L43.0446 35.8335H43.0454Z" fill="#192743"/>
<path d="M44.8136 41.0059C44.8136 41.0059 45.1356 41.6047 45.3633 42.9344L41.2177 43.514C41.2177 43.514 41.0174 42.2915 42.0561 42.0276C43.0953 41.7641 43.0141 41.2477 43.0141 41.2477L44.8129 41.0066V41.0059H44.8136Z" fill="#192743"/>
<path d="M44.6166 40.4404C44.6166 40.4404 44.6151 40.4404 44.6143 40.4404C44.5822 40.4388 44.5575 40.4121 44.5586 40.38L44.8582 33.311C44.8957 32.4277 45.6434 31.7379 46.5267 31.7727L52.5929 32.1724C52.625 32.1743 52.649 32.2022 52.6471 32.2343C52.6451 32.2664 52.6173 32.2908 52.5852 32.2885L46.5205 31.8888C45.7041 31.8563 45.009 32.497 44.9742 33.3164L44.6746 40.3854C44.6734 40.4168 44.6475 40.4412 44.6166 40.4412V40.4404Z" fill="#192743"/>
<path d="M23.0163 22.9271C22.8161 22.9271 22.6421 22.859 22.4991 22.7244C22.1867 22.4311 22.0147 21.8075 22.0008 20.9208L22 20.8658L22.9537 20.7958L23.907 20.7656L23.912 20.8202C23.9905 21.7034 23.8846 22.3418 23.6051 22.666C23.4667 22.8265 23.2846 22.914 23.0643 22.9256C23.048 22.9263 23.0322 22.9267 23.0167 22.9267L23.0163 22.9271ZM22.1179 20.9738C22.1369 21.799 22.2957 22.3743 22.5783 22.6397C22.709 22.7623 22.8702 22.8196 23.0577 22.8099C23.2452 22.8002 23.3998 22.7263 23.5169 22.5905C23.7698 22.2969 23.868 21.7081 23.8011 20.8856L22.9587 20.9123L22.1179 20.9742V20.9738Z" fill="#192743"/>
<path d="M50.0347 29.1395C50.0092 29.1395 49.9856 29.1225 49.9786 29.0966C49.9701 29.0656 49.9887 29.0339 50.0196 29.0254L51.6181 28.5921L51.9146 25.5798C51.9177 25.5481 51.9463 25.5245 51.978 25.5276C52.0097 25.5307 52.0333 25.5593 52.0302 25.5911L51.7256 28.683L50.0498 29.1372C50.0447 29.1387 50.0397 29.1391 50.0347 29.1391V29.1395Z" fill="#192743"/>
<path d="M40.6469 26.0416C40.623 26.0416 40.6002 26.0265 40.592 26.0021C40.5816 25.9719 40.5978 25.9387 40.628 25.9286L42.8423 25.1711L41.998 23.0406C41.986 23.0108 42.0007 22.9771 42.0305 22.9651C42.0603 22.9531 42.0939 22.9678 42.1059 22.9976L42.995 25.2415L40.6659 26.0385C40.6597 26.0404 40.6535 26.0416 40.6469 26.0416Z" fill="#192743"/>
<path d="M49.8659 32.1195C49.8458 32.1195 49.8264 32.109 49.8156 32.0909C49.7994 32.0634 49.8086 32.0278 49.8365 32.0115L51.1404 31.2482C51.1679 31.232 51.2034 31.2413 51.2197 31.2691C51.2359 31.2966 51.2266 31.3322 51.1988 31.3484L49.8949 32.1117C49.8856 32.1172 49.8755 32.1199 49.8655 32.1199L49.8659 32.1195Z" fill="#192743"/>
<path d="M4.71099 8.51604L4.71834 8.92923C4.72066 9.06076 4.81112 9.16329 4.91549 9.15323L19.8394 7.69818C19.9349 7.68889 20.0076 7.58792 20.0057 7.46798L20.0014 7.23431C19.9991 7.10354 19.9098 7.00141 19.8058 7.01031L4.87877 8.28623C4.78251 8.29436 4.70867 8.39572 4.71099 8.51681V8.51604Z" fill="#E0E1E2"/>
<path d="M4.83594 10.0617L4.84328 10.4749C4.8456 10.6065 4.92099 10.7094 5.00797 10.6993L17.4071 9.28836C17.4864 9.27946 17.5467 9.17887 17.5448 9.05856L17.5405 8.82488C17.5382 8.69412 17.4636 8.59159 17.3774 8.6001L4.97511 9.83193C4.89508 9.84005 4.834 9.94103 4.83632 10.0617H4.83594Z" fill="#E0E1E2"/>
<path d="M25.6979 23.05C25.6678 23.05 25.6423 23.0268 25.6403 22.9962L25.1486 16.3613C25.1463 16.3292 25.1702 16.3013 25.2019 16.299C25.234 16.2967 25.2619 16.3206 25.2642 16.3528L25.7559 22.9877C25.7582 23.0198 25.7343 23.0477 25.7026 23.05C25.701 23.05 25.6995 23.05 25.6983 23.05H25.6979Z" fill="#192743"/>
</svg>
