<svg width="32" height="32" viewBox="0 0 32 32" fill="none" xmlns="http://www.w3.org/2000/svg">
<svg x="0" y="2.29" width="31.43" height="26.86" viewBox="0 0 31.4286 26.8571" fill="none">
<g id="Frame 10">
<rect id="Rectangle 181" y="18.8571" width="14.5" height="8" rx="1.5" fill="var(--fill-0, #FFF2EB)"/>
<rect id="Rectangle 182" x="8.57143" y="12" width="14.2857" height="14.8571" rx="1.5" fill="var(--fill-0, #FEE5D7)"/>
<rect id="Rectangle 183" x="17.1429" width="14.2857" height="26.8571" rx="1.5" fill="var(--fill-0, #FB9A4C)"/>
<g id="Union">
</g>
<path id="Union_2" d="M28.6495 12.7202C28.7029 12.486 28.5393 12.2579 28.3004 12.2334L23.6551 11.7554C23.3122 11.7201 23.0882 12.1063 23.2891 12.3864L24.5102 14.0893L12.7698 22.508C12.321 22.8298 12.218 23.4545 12.5399 23.9034C12.8617 24.3522 13.4864 24.4551 13.9353 24.1333L25.6757 15.7146L26.8967 17.4174C27.0976 17.6976 27.5352 17.6094 27.6118 17.2732L28.6495 12.7202Z" fill="var(--fill-0, #B6161C)"/>
<path id="Union_3" d="M27.6495 11.7202C27.7029 11.486 27.5393 11.2579 27.3004 11.2334L22.6551 10.7554C22.3122 10.7201 22.0882 11.1063 22.2891 11.3864L23.5102 13.0893L11.7698 21.508C11.321 21.8298 11.218 22.4545 11.5399 22.9034C11.8617 23.3522 12.4864 23.4551 12.9353 23.1333L24.6757 14.7146L25.8967 16.4174C26.0976 16.6976 26.5352 16.6094 26.6118 16.2732L27.6495 11.7202Z" fill="var(--fill-0, white)"/>
</g>
</svg>
<svg x="11" y="7.43" width="8" height="8" viewBox="0 0 8 8" fill="none">
<g id="star">
<path id="Star 1" d="M3.91033 0.181698C3.94701 0.107374 4.05299 0.107374 4.08967 0.181699L5.1523 2.33482C5.16687 2.36434 5.19503 2.38479 5.2276 2.38953L7.60371 2.7348C7.68573 2.74671 7.71848 2.84751 7.65913 2.90536L5.93976 4.58134C5.91619 4.60431 5.90544 4.63741 5.911 4.66985L6.31689 7.03636C6.3309 7.11805 6.24516 7.18035 6.17179 7.14178L4.04653 6.02446C4.0174 6.00915 3.9826 6.00915 3.95347 6.02446L1.82821 7.14178C1.75484 7.18035 1.6691 7.11805 1.68311 7.03636L2.089 4.66985C2.09456 4.63741 2.08381 4.60431 2.06024 4.58134L0.340869 2.90536C0.281517 2.84751 0.314268 2.74671 0.39629 2.7348L2.7724 2.38953C2.80497 2.38479 2.83313 2.36434 2.8477 2.33482L3.91033 0.181698Z" fill="var(--fill-0, #FFCF2E)"/>
<path id="Intersect" d="M5.15234 2.33478C5.1669 2.36427 5.195 2.38472 5.22754 2.38947L6.5 2.57404V4.034L5.93945 4.58088C5.9159 4.60384 5.90559 4.63732 5.91113 4.66974L6.31641 7.03596C6.33042 7.11765 6.24524 7.17999 6.17187 7.14142L5 6.52521V2.02619L5.15234 2.33478Z" fill="var(--fill-0, #DBA900)"/>
</g>
</svg>
</svg>