<svg width="56" height="50" viewBox="0 0 56 50" fill="none" xmlns="http://www.w3.org/2000/svg">
<g clip-path="url(#clip0_2776_38257)">
<path d="M23.3103 0.564925L37.3849 4.22363C38.6708 4.55737 39.7178 6.0535 39.7219 7.5673L39.8263 38.7468C39.8315 40.3334 38.7648 41.3388 37.4454 40.9884L23.6433 37.414C22.3302 37.0657 21.1685 35.5383 21.1852 33.9622L20.8574 2.7171C20.8731 1.21266 22.0306 0.232221 23.3103 0.564925Z" fill="#192743"/>
<path d="M22.6814 0.8735L36.7726 4.5322C38.0753 4.87011 39.1378 6.42758 39.1431 8.00688L39.2495 39.201C39.2548 40.7231 38.2224 41.6516 36.9459 41.2783L23.1385 37.4429C21.8975 37.079 20.7723 35.6015 20.7514 34.1002L20.3255 3.13485C20.3036 1.57842 21.4152 0.544955 22.6824 0.8735H22.6814Z" fill="white"/>
<path d="M22.3172 4.12457L37.1913 8.03176C37.4606 8.10246 37.6797 8.42373 37.6808 8.75019L37.7392 22.6853C37.7403 23.0055 37.5253 23.2062 37.2591 23.1324L22.5082 19.0557C22.2483 18.984 22.0353 18.6689 22.0312 18.3518L21.8516 4.58308C21.8474 4.26077 22.0562 4.05595 22.3172 4.12457Z" fill="#EDEDED"/>
<path opacity="0.2" d="M36.5506 11.5177L23.0042 7.9141L23 7.5918L36.5485 11.1923L36.5506 11.5187V11.5177ZM36.5558 12.6593L23.0177 9.04426L23.0219 9.36656L36.5579 12.9847L36.5558 12.6593ZM33.1384 13.2051L26.3965 11.3961L26.3996 11.7184L33.1394 13.5285L33.1373 13.2041L33.1384 13.2051Z" fill="#192743"/>
<path d="M24.3294 16.0728C24.8263 16.209 25.225 15.8264 25.2177 15.2192C25.2104 14.611 24.8012 14.008 24.3033 13.8728C23.8065 13.7376 23.4088 14.1213 23.4161 14.7285C23.4234 15.3346 23.8326 15.9366 24.3284 16.0728H24.3294Z" fill="white"/>
<path d="M24.3214 15.3582C24.4957 15.406 24.6345 15.2719 24.6324 15.0588C24.6303 14.8456 24.4873 14.6356 24.313 14.5878C24.1387 14.54 23.9999 14.6741 24.002 14.8872C24.0041 15.1004 24.1471 15.3104 24.3214 15.3582Z" stroke="#E6373E" stroke-width="1.38254"/>
<path d="M27.0601 16.8192C27.5601 16.9554 27.9609 16.5727 27.9546 15.9645C27.9484 15.3553 27.5381 14.7501 27.0371 14.615C26.5371 14.4798 26.1374 14.8635 26.1436 15.4717C26.1499 16.0799 26.5601 16.683 27.059 16.8192H27.0601Z" fill="white"/>
<path d="M27.0529 16.1034C27.2282 16.1512 27.3681 16.0171 27.366 15.804C27.3639 15.5908 27.2199 15.3798 27.0456 15.3319C26.8713 15.2841 26.7304 15.4182 26.7324 15.6314C26.7345 15.8445 26.8786 16.0556 27.0529 16.1034Z" stroke="#FA8223" stroke-width="1.38254"/>
<path d="M29.8024 17.5678C30.3044 17.705 30.7084 17.3214 30.7032 16.7121C30.698 16.1018 30.2857 15.4956 29.7836 15.3594C29.2815 15.2232 28.8786 15.6079 28.8838 16.2172C28.8891 16.8265 29.3003 17.4316 29.8024 17.5688V17.5678Z" fill="white"/>
<path d="M29.7961 16.8505C29.9715 16.8984 30.1134 16.7642 30.1113 16.5511C30.1092 16.338 29.9652 16.1259 29.7898 16.078C29.6145 16.0302 29.4736 16.1643 29.4746 16.3785C29.4757 16.5927 29.6207 16.8037 29.7961 16.8516V16.8505Z" stroke="#A6AEBB" stroke-width="1.38254"/>
<path d="M32.5604 18.3213C33.0645 18.4596 33.4716 18.0749 33.4674 17.4646C33.4633 16.8533 33.0499 16.245 32.5447 16.1078C32.0395 15.9706 31.6345 16.3563 31.6387 16.9666C31.6429 17.5769 32.0562 18.1841 32.5604 18.3213Z" fill="white"/>
<path d="M32.555 17.6026C32.7314 17.6504 32.8733 17.5163 32.8723 17.3021C32.8712 17.088 32.7261 16.8759 32.5497 16.828C32.3733 16.7802 32.2314 16.9143 32.2324 17.1285C32.2335 17.3427 32.3786 17.5548 32.555 17.6026Z" stroke="#67B781" stroke-width="1.38254"/>
<path d="M35.3301 19.0775C35.8374 19.2158 36.2465 18.8321 36.2434 18.2197C36.2403 17.6063 35.8259 16.997 35.3176 16.8598C34.8103 16.7226 34.4022 17.1073 34.4053 17.7196C34.4095 18.331 34.8228 18.9392 35.3301 19.0785V19.0775Z" fill="white"/>
<path d="M35.3265 18.3566C35.504 18.4055 35.647 18.2703 35.6459 18.0562C35.6449 17.842 35.4998 17.6289 35.3223 17.58C35.1449 17.5322 35.0019 17.6663 35.0029 17.8805C35.004 18.0946 35.1491 18.3078 35.3265 18.3556V18.3566Z" stroke="#418B5A" stroke-width="1.38254"/>
<g opacity="0.6">
<path d="M22.5201 20.0322L37.2627 24.1193C37.5288 24.1931 37.747 24.5123 37.748 24.8325L37.8054 38.5191C37.8065 38.8342 37.5935 39.0265 37.3295 38.9506L22.7069 34.7003C22.4501 34.6255 22.2383 34.3125 22.2341 34.0016L22.0577 20.4751C22.0535 20.1591 22.2602 19.9605 22.5201 20.0322Z" fill="#EDEDED"/>
<path opacity="0.2" d="M36.6279 27.5332L23.2005 23.7663L23.1963 23.4492L36.6258 27.2129V27.5332H36.6268H36.6279ZM36.6331 28.654L23.214 24.8767L23.2182 25.1928L36.6352 28.9742V28.655H36.6341L36.6331 28.654ZM33.246 29.1333L26.5636 27.2431L26.5667 27.5602L33.247 29.4514L33.2449 29.1333H33.246Z" fill="#192743"/>
<path d="M24.5144 31.8016C25.0071 31.943 25.4016 31.5749 25.3953 30.9781C25.3891 30.3813 24.983 29.7814 24.4893 29.6411C23.9967 29.5007 23.6031 29.8708 23.6105 30.4666C23.6178 31.0623 24.0228 31.6602 24.5154 31.8026L24.5144 31.8016Z" fill="white"/>
<path d="M24.5068 31.0996C24.679 31.1495 24.8168 31.0195 24.8147 30.8106C24.8126 30.6016 24.6707 30.3926 24.4974 30.3427C24.3252 30.2928 24.1874 30.4228 24.1895 30.6317C24.1916 30.8407 24.3335 31.0497 24.5057 31.0996H24.5068Z" stroke="#E6373E" stroke-width="1.38254"/>
<path d="M27.2216 32.5809C27.7163 32.7233 28.114 32.3542 28.1088 31.7564C28.1036 31.1586 27.6955 30.5576 27.1997 30.4152C26.7039 30.2728 26.3083 30.6439 26.3145 31.2418C26.3208 31.8386 26.7268 32.4385 27.2216 32.5809Z" fill="white"/>
<path d="M27.2139 31.876C27.3872 31.9259 27.526 31.797 27.5239 31.587C27.5218 31.378 27.3799 31.168 27.2055 31.1181C27.0312 31.0682 26.8934 31.1981 26.8955 31.4071C26.8976 31.6161 27.0396 31.8261 27.2128 31.876H27.2139Z" stroke="#FA8223" stroke-width="1.38254"/>
<path d="M29.9395 33.3604C30.4374 33.5039 30.8372 33.1338 30.833 32.5349C30.8278 31.935 30.4197 31.333 29.9207 31.1906C29.4229 31.0482 29.0241 31.4193 29.0293 32.0182C29.0346 32.6171 29.4427 33.218 29.9395 33.3604Z" fill="white"/>
<path d="M29.9337 32.6564C30.108 32.7063 30.2479 32.5774 30.2458 32.3673C30.2437 32.1573 30.1017 31.9473 29.9264 31.8974C29.7521 31.8475 29.6122 31.9774 29.6143 32.1864C29.6164 32.3964 29.7583 32.6065 29.9326 32.6564H29.9337Z" stroke="#A6AEBB" stroke-width="1.38254"/>
<path d="M32.6731 34.1478C33.173 34.2913 33.5759 33.9212 33.5728 33.3212C33.5686 32.7203 33.1584 32.1162 32.6584 31.9738C32.1585 31.8314 31.7566 32.2025 31.7608 32.8024C31.7649 33.4023 32.1741 34.0043 32.6741 34.1488L32.6731 34.1478Z" fill="white"/>
<path d="M32.6681 33.4407C32.8435 33.4906 32.9844 33.3616 32.9823 33.1516C32.9813 32.9416 32.8372 32.7306 32.6619 32.6806C32.4865 32.6307 32.3456 32.7597 32.3477 32.9707C32.3487 33.1807 32.4928 33.3918 32.6671 33.4417L32.6681 33.4407Z" stroke="#67B781" stroke-width="1.38254"/>
<path d="M35.4194 34.9366C35.9225 35.0811 36.3275 34.711 36.3244 34.109C36.3213 33.507 35.91 32.9009 35.4069 32.7574C34.9038 32.6139 34.4988 32.9851 34.503 33.5871C34.5071 34.188 34.9163 34.7921 35.4194 34.9366Z" fill="white"/>
<path d="M35.4152 34.2289C35.5916 34.2799 35.7325 34.1499 35.7314 33.9389C35.7304 33.7278 35.5864 33.5167 35.411 33.4658C35.2346 33.4159 35.0937 33.5448 35.0947 33.7559C35.0958 33.9669 35.2398 34.178 35.4152 34.2279V34.2289Z" stroke="#418B5A" stroke-width="1.38254"/>
</g>
<path d="M28.3792 31.5092C28.3792 31.5092 28.9856 31.0704 29.018 30.8614C29.0514 30.6524 29.2789 30.3603 29.1224 30.0099C28.9658 29.6606 28.3927 30.5381 28.3927 30.5381C28.3927 30.5381 28.519 30.0775 28.3698 30.0754C28.2195 30.0733 28.1245 30.7335 28.1245 30.7335L28.0264 31.0257L28.3792 31.5081V31.5092Z" fill="#8F5B14"/>
<path d="M17.5106 36.683C17.5106 36.683 17.138 37.3308 16.9334 37.3859C16.7288 37.441 16.4606 37.6988 16.0953 37.5813C15.7299 37.4638 16.5441 36.8026 16.5441 36.8026C16.5441 36.8026 16.0973 36.9773 16.0796 36.8296C16.0608 36.682 16.7101 36.5156 16.7101 36.5156L16.9919 36.3867L17.5117 36.6841L17.5106 36.683Z" fill="#8F5B14"/>
<path d="M20.3989 47.9151C20.3989 47.9151 20.1119 48.6231 20.5148 48.6637C21.093 48.7209 21.2663 48.4339 21.6129 48.1459C21.9594 47.8579 22.3811 47.6271 22.0753 47.5127C21.6129 47.3401 21.093 47.6853 20.8039 47.7425C20.5148 47.7997 20.3989 47.9151 20.3989 47.9151Z" fill="#192743"/>
<path d="M20.373 47.1474L20.395 47.8087C20.395 48.0135 20.4774 48.1726 20.6872 48.1538L20.8626 48.1382C21.0724 48.1195 21.1538 47.9469 21.1538 47.7421L21.1893 47.0195L20.373 47.1485V47.1474Z" fill="#8F5B14"/>
<path d="M22.8162 48.9162L22.7588 49.3196C22.7588 49.3196 22.7588 49.5494 23.4519 49.4922C24.145 49.435 25.0531 49.383 24.9549 49.0888C24.8975 48.9162 23.9727 48.8008 23.6836 48.8008C23.3945 48.8008 22.8162 48.9162 22.8162 48.9162Z" fill="#192743"/>
<path d="M22.8165 48.1992V48.875C22.8165 48.979 22.9584 49.0507 23.0628 49.0414L23.3206 49.0196C23.425 49.0102 23.567 48.9145 23.567 48.8106V48.1348L22.8154 48.1992H22.8165Z" fill="#8F5B14"/>
<path d="M23.576 48.6356L23.9831 43.3758C23.9831 43.3508 24.1021 40.3471 24.1021 39.6672C24.1021 39.0714 23.9654 36.7913 23.9309 36.2278L20.1743 35.9336C20.1033 36.2403 20.0282 36.5241 19.9551 36.7997C19.7892 37.4297 19.6462 37.9724 19.6065 38.5474C19.5491 39.3958 20.1367 42.2415 20.142 42.2706L20.1472 42.2976L20.143 42.3246C20.1409 42.334 19.9802 43.2936 20.025 43.7282C20.0678 44.1431 20.3288 46.8525 20.3768 47.3505C20.4457 47.3796 20.5793 47.4223 20.7776 47.4223C20.9759 47.4223 21.1054 47.3807 21.1753 47.3516L21.4697 42.543L21.6492 39.6235L21.9394 39.6141L22.4206 43.514L22.4174 43.5338C22.3746 43.8208 22.2713 44.6224 22.2984 44.8771C22.3308 45.1765 22.7859 48.226 22.8454 48.6366C22.8965 48.6762 23.5113 48.673 23.575 48.6366L23.576 48.6356Z" fill="#8F5B14"/>
<path d="M22.3348 30.4672L22.22 29.074C22.22 29.074 22.7116 28.9336 22.5947 28.2776C22.4778 27.6215 21.7524 26.7482 21.2847 27.0195C20.9382 27.2212 20.7722 27.7317 20.6626 28.184C20.553 28.6363 20.7159 29.5554 21.0739 29.7352C21.4319 29.9161 21.6198 30.6679 21.6198 30.6679L22.3066 30.4568L22.3348 30.4672Z" fill="#8F5B14"/>
<path d="M24.027 36.2076C24.027 36.2076 24.2869 39.0367 24.2734 39.911C24.2598 40.7854 24.2118 41.7991 24.2118 41.7991C24.2118 41.7991 22.8653 42.0216 21.6263 41.8033C20.3873 41.585 19.7423 41.2637 19.7423 41.2637C19.7423 41.2637 19.5439 38.9348 19.5011 38.0801C19.4583 37.2255 20.0773 35.6992 20.0773 35.6992L24.027 36.2076Z" fill="#FFCF2E"/>
<path d="M24.1213 33.7231V36.8349C24.1213 36.8349 23.1276 37.5502 21.9136 37.4306C20.6997 37.3111 19.7613 36.5968 19.7613 36.5968L20.23 34.7794L20.1194 34.0048L19.1382 35.4084C19.1382 35.4084 18.6455 35.9407 18.3533 36.2558C18.061 36.5708 17.4556 37.0075 17.4556 37.0075L16.917 36.2807L18.3981 34.3188C18.3981 34.3188 19.4858 29.7441 20.8104 29.7441C21.0139 29.7441 21.2268 29.7535 21.4408 29.7701C21.4408 29.7701 21.4627 30.0706 21.8406 30.1309C22.2184 30.1912 22.5806 29.9334 22.5806 29.9334C23.1474 30.0529 23.6234 30.3638 23.8468 30.5447C24.2883 30.9024 24.8958 31.7622 25.1713 32.1199C25.4469 32.4775 25.9437 32.7957 25.9437 32.7957C25.9437 32.7957 26.6055 32.1999 26.9374 31.9015C27.2683 31.6031 27.9864 30.9741 27.9864 30.9741L28.6127 31.5303C28.6127 31.5303 28.0919 32.4276 27.7109 32.9475C27.3236 33.4756 26.3863 34.7347 25.9448 34.6754C25.5033 34.6162 24.1234 33.722 24.1234 33.722L24.1213 33.7231Z" fill="#30B3AF"/>
<path d="M21.329 26.5902C21.2967 26.5808 21.2622 26.5715 21.2247 26.5611C21.1077 26.5309 20.9637 26.5268 20.7863 26.5673C19.9878 26.7503 19.5619 27.5893 19.6256 28.0655C19.6892 28.5427 20.0723 28.6654 19.6005 29.3641C19.1277 30.0628 19.0703 30.4547 19.612 30.8685C20.1537 31.2823 19.8333 31.6358 19.7946 31.8968C19.756 32.1578 19.9126 32.6818 20.4929 32.8346C21.0733 32.9864 21.4699 32.9802 21.901 32.661C22.4939 32.2222 22.1599 31.8864 22.1098 31.2584C22.0712 30.7781 22.7475 30.4807 22.1881 29.729C21.5764 28.9077 21.4919 28.3577 21.4919 28.3577L21.7726 27.0955C21.2674 27.7037 21.4846 27.9241 21.6317 27.7765C22.5075 26.9042 22.0399 26.1317 21.3301 26.5891L21.329 26.5902Z" fill="#382814"/>
</g>
<defs>
<clipPath id="clip0_2776_38257">
<rect width="23.8257" height="49" fill="white" transform="translate(16 0.5)"/>
</clipPath>
</defs>
</svg>
