<svg width="32" height="32" viewBox="0 0 32 32" fill="none" xmlns="http://www.w3.org/2000/svg">
<svg x="0.18" y="2.8" width="31.64" height="27.24" viewBox="0 0 31.6354 27.2412" fill="none">
<g id="Group 16193">
<path id="Rectangle 14" d="M15.2465 3.67508C15.499 3.32358 15.9523 3.23158 16.2724 3.52285C17.2242 4.38887 19.3761 6.79567 23.0607 13.1776C26.7453 19.5595 27.7537 22.6265 28.0278 23.8838C28.12 24.3067 27.8137 24.6532 27.383 24.6961L1.9586 27.2318C0.435712 27.3837 -0.554641 25.6683 0.338337 24.4254L15.2465 3.67508Z" fill="var(--fill-0, #30B3AF)"/>
<g id="Intersect">
<path d="M23.4285 25.0905C23.1553 24.8234 22.864 24.5133 22.5579 24.1643C22.1693 23.7212 21.757 23.2153 21.3279 22.6551C20.6855 21.8162 20.4046 20.6249 20.1026 19.3438C19.8113 18.1084 19.5003 16.7894 18.8264 15.6221C18.1525 14.4548 17.1657 13.526 16.2414 12.656C15.2829 11.7539 14.3917 10.915 13.9864 9.93923C13.7157 9.28753 13.4838 8.67751 13.2944 8.11938C13.1452 7.67991 13.0223 7.27261 12.9276 6.90248L10.3955 10.4268C10.9391 11.4726 11.8377 12.4863 12.8044 13.5768C13.8213 14.7239 14.9135 15.956 15.7471 17.3999C16.5808 18.8438 17.1017 20.4058 17.5867 21.8599C18.0477 23.2425 18.4763 24.5276 19.1103 25.5212L23.4285 25.0905Z" fill="var(--fill-0, #80DDDA)"/>
<path d="M14.9774 25.9334C14.4673 25.1192 14.2141 24.0453 13.944 22.8995C13.6527 21.664 13.3417 20.345 12.6678 19.1777C11.9939 18.0105 11.0071 17.0816 10.0828 16.2117C9.22562 15.4049 8.42224 14.6487 7.97211 13.7999L6.05743 16.4649C6.24895 16.6848 6.44592 16.907 6.6458 17.1325C7.66265 18.2796 8.75487 19.5117 9.58851 20.9556C10.4221 22.3995 10.9431 23.9614 11.428 25.4156C11.5234 25.7015 11.6174 25.9832 11.712 26.2591L14.9774 25.9334Z" fill="var(--fill-0, #80DDDA)"/>
<path d="M7.83048 26.6462C7.81547 26.5827 7.80045 26.5191 7.78538 26.4551C7.49411 25.2197 7.18313 23.9007 6.50921 22.7334C5.83529 21.5661 4.84846 20.6373 3.92419 19.7673C3.87641 19.7224 3.8288 19.6776 3.78141 19.6329L1.86998 22.2934C2.43128 22.9824 2.96995 23.7146 3.42991 24.5112C3.8899 25.308 4.25467 26.1406 4.57074 26.9713L7.83048 26.6462Z" fill="var(--fill-0, #80DDDA)"/>
</g>
<path id="Ellipse 2" d="M26.8334 23.8117C26.3426 24.0951 23.4046 20.0342 20.422 14.8681C17.4394 9.70198 15.5108 5.00318 16.0016 4.71979C16.4925 4.4364 19.2168 8.67574 22.1995 13.8418C25.1821 19.0079 27.3243 23.5284 26.8334 23.8117Z" fill="var(--fill-0, #1F7370)"/>
<g id="Ellipse 3">
</g>
<g id="Subtract">
</g>
<path id="Subtract_2" d="M30.59 20.6632C30.9814 20.8682 31.1324 21.3524 30.9274 21.7438C30.7223 22.1349 30.239 22.2857 29.8477 22.0807C28.0029 21.1144 26.0469 21.0782 24.5101 21.3454C24.2065 20.9365 23.8216 20.4035 23.4936 19.9227C25.4016 19.4567 28.0568 19.3364 30.59 20.6632Z" fill="var(--fill-0, #FA8324)"/>
<path id="Vector 6 (Stroke)" fill-rule="evenodd" clip-rule="evenodd" d="M29.0476 0.00158509C29.4886 0.0291455 29.8237 0.408962 29.7961 0.84993C29.7557 1.49757 29.5887 1.99075 29.3441 2.36828C29.0991 2.74655 28.8115 2.95228 28.6414 3.06567C28.2738 3.31075 27.7771 3.21141 27.532 2.84379C27.287 2.47616 27.3863 1.97947 27.7539 1.73439C27.8505 1.67 27.9296 1.60906 28.0012 1.49844C28.0734 1.38708 28.1731 1.16915 28.1992 0.750124C28.2268 0.309157 28.6066 -0.0259754 29.0476 0.00158509Z" fill="var(--fill-0, #FFD857)"/>
<path id="Intersect_2" d="M23.3973 14.8C22.072 14.7998 20.9979 13.725 20.9979 12.3996C20.9981 11.0744 22.0721 10.0004 23.3973 10.0002C24.7227 10.0002 25.7975 11.0743 25.7977 12.3996C25.7977 13.7251 24.7228 14.8 23.3973 14.8Z" fill="var(--fill-0, #FFD857)"/>
<rect id="Rectangle 16" x="30.9883" y="9.59996" width="1.6" height="2.88897" rx="0.8" transform="rotate(75 30.9883 9.59996)" fill="var(--fill-0, #5B8EF5)"/>
<path id="Rectangle 178" d="M23.8649 3.29924C24.0232 3.06175 24.3722 3.06175 24.5305 3.29924L26.1831 5.77813C26.3603 6.04396 26.1698 6.40001 25.8503 6.40001H22.5451C22.2256 6.40001 22.0351 6.04396 22.2123 5.77813L23.8649 3.29924Z" fill="var(--fill-0, #40CCC8)"/>
<path id="Rectangle 179" d="M27.951 14.7811C28.0654 14.3543 28.5041 14.1011 28.9308 14.2154L30.8627 14.7331C31.2895 14.8474 31.5427 15.2861 31.4284 15.7129L30.9107 17.6447C30.7964 18.0715 30.3577 18.3247 29.9309 18.2104L27.9991 17.6928C27.5723 17.5784 27.3191 17.1397 27.4334 16.713L27.951 14.7811Z" fill="var(--fill-0, #EB5C61)"/>
<path id="Vector 3 (Stroke)" fill-rule="evenodd" clip-rule="evenodd" d="M18.3977 0.199986C18.8396 0.199967 19.1978 0.558124 19.1978 0.999951C19.1978 1.00654 19.1978 1.01322 19.1978 1.01999C19.1979 1.83325 19.1982 3.98826 18.2121 5.95809C18.0143 6.35318 17.5337 6.51314 17.1386 6.31536C16.7436 6.11759 16.5836 5.63698 16.7814 5.24188C17.5892 3.62812 17.5978 1.80263 17.5978 1.00002C17.5978 0.558193 17.9559 0.200005 18.3977 0.199986Z" fill="var(--fill-0, #EB6065)"/>
</g>
</svg>
</svg>