<svg viewBox="0 0 361 250" fill="none" xmlns="http://www.w3.org/2000/svg">
<mask id="mask0_1330_22607" style="mask-type:luminance" maskUnits="userSpaceOnUse" x="11" y="0" width="340" height="250">
<path d="M350.4 0H11.0308V250H350.4V0Z" fill="white"/>
</mask>
<g mask="url(#mask0_1330_22607)">
<path d="M30.6326 116.904C30.8855 115.881 31.3946 114.938 32.1123 114.163C33.3486 112.782 33.6456 112.747 33.6955 111.002C33.7453 109.257 34.7343 108.643 34.9816 107.77C35.3783 106.88 35.5049 105.893 35.3457 104.932C34.9583 103.125 34.9226 101.262 35.2403 99.4421C35.754 97.5308 36.6778 97.1982 36.8771 95.3844C37.0765 93.5705 36.3424 86.1219 35.5719 85.9442C34.8014 85.7664 30.8435 95.0709 30.5771 97.2804C30.6047 98.8364 30.4019 100.388 29.9752 101.885C28.8856 103.088 28.1124 104.542 27.7251 106.117C27.4548 108.236 27.725 111.243 27.2804 112.806C26.8086 114.207 26.2445 115.576 25.5918 116.902H30.6307L30.6326 116.904Z" fill="#67C08C"/>
<path d="M25.5894 116.904C26.3061 115.914 26.6514 114.705 26.565 113.487C26.1588 111.981 26.036 110.414 26.2028 108.863C26.911 107.169 27.2576 105.347 27.2205 103.511C26.7712 101.352 26.5782 99.1481 26.6455 96.944L26.9599 95.7972C27.4181 94.1103 27.4015 92.33 26.9119 90.6519C26.1223 87.5937 23.4619 83.0676 22.7048 83.4326C21.9478 83.7977 21.5242 88.2894 21.6238 89.7631C21.7235 91.2367 20.263 93.0774 19.9928 95.4876C19.6836 98.0523 19.6431 100.642 19.872 103.215C20.1308 106.126 21.2137 109.657 21.4916 112.199C21.6548 113.765 21.622 115.346 21.3938 116.904H25.5894Z" fill="#67C08C"/>
<path d="M21.4056 116.904C21.6629 114.931 21.6357 112.93 21.3251 110.964C20.9411 108.932 20.2489 106.97 19.2723 105.146C18.6785 104.385 18.3519 103.451 18.3427 102.487C18.3545 100.733 18.0102 98.9954 17.3307 97.3779C16.4789 96.0676 15.7799 94.6645 15.2473 93.1959C15.1375 91.5127 14.5572 89.8938 13.5721 88.5226C12.332 87.2783 11.9046 86.8368 11.4523 86.9171C11 86.9974 10.8524 89.0349 11.3143 91.038C11.7524 92.3623 11.9699 93.7491 11.9583 95.1436C11.7751 96.5039 11.7475 97.8807 11.8759 99.2473C12.081 101.182 14.6512 104.408 14.7509 105.914C14.8505 107.42 13.9516 107.78 14.3675 109.49C14.9508 112.176 16.1108 114.704 17.7677 116.901H21.4094L21.4056 116.904Z" fill="#67C08C"/>
<path d="M16.1478 116.904H31.9431L32.6331 137.786H15.1646L16.1478 116.904Z" fill="#F05F46"/>
<path d="M195.987 97.7544C195.524 100.127 195.221 102.528 195.081 104.941C195.148 106.906 193.751 108.859 194.839 109.205C195.928 109.551 197.306 106.029 197.306 106.029C197.306 106.029 199.253 109.525 199.688 110.69C200.124 111.856 201.433 113.749 202.311 113.491C203.188 113.233 200.71 107.789 200.71 107.789C200.71 107.789 203.252 112.174 204.112 112.116C204.973 112.059 202.562 106 202.562 106C203.414 107.757 204.419 109.436 205.567 111.017C206.092 111.226 206.38 110.564 205.916 108.647C205.575 107.349 205.095 106.091 204.484 104.895C205.215 106.12 206.007 107.307 206.857 108.452C207.24 108.758 207.974 108.907 206.987 106.141C205.484 102.181 203.166 98.578 200.183 95.564L195.987 97.7544Z" fill="#FCBF8F"/>
<path d="M167.45 203.678C167.45 203.678 167.833 214.573 167.935 214.716C168.036 214.859 167.214 216.274 167.214 216.274L163.804 217.061L160.59 215.779C160.59 215.779 160.358 205.649 159.948 204.072C159.538 202.495 167.448 203.678 167.448 203.678" fill="#FF9391"/>
<path d="M160.592 215.781C161.831 216.101 163.125 216.154 164.386 215.934C165.647 215.714 166.846 215.227 167.902 214.506C167.902 214.506 181.357 218.78 181.145 222.555C181.145 222.555 181.764 223.644 176.029 223.69C170.294 223.736 161.389 223.927 161.144 223.806C160.899 223.686 159.802 224.345 160.592 215.779" fill="#192743"/>
<path d="M135.037 204.362C135.037 204.362 134.997 215.257 134.909 215.41C134.821 215.563 135.675 216.939 135.675 216.939L139.11 217.618L142.28 216.232C142.28 216.232 142.186 206.102 142.545 204.511C142.903 202.921 135.035 204.358 135.035 204.358" fill="#FCBF8F"/>
<path d="M142.28 216.238C141.052 216.598 139.76 216.692 138.493 216.512C137.225 216.333 136.011 215.885 134.931 215.198C134.931 215.198 121.62 219.902 121.956 223.667C121.956 223.667 121.381 224.776 127.106 224.638C132.831 224.5 141.745 224.405 141.987 224.279C142.228 224.153 143.338 224.774 142.28 216.24" fill="#192743"/>
<path d="M172.057 93.991C172.057 93.991 175.663 201.102 175.672 212.304L158.915 213.143C158.915 213.143 153.37 149.35 152.496 128.825C152.496 128.825 146.278 176.577 143.76 213.384L127.633 210.737C127.633 210.737 128.936 167.517 128.84 95.0995L172.057 93.991Z" fill="#192743"/>
<path d="M109.881 104.987C110.132 107.184 110.235 109.396 110.188 111.606C109.984 113.393 111.117 115.274 110.099 115.513C109.082 115.752 108.079 112.438 108.079 112.438C107.471 112.846 106.979 113.404 106.651 114.059C106.17 115.091 105.718 116.186 104.926 115.893C104.135 115.601 104.84 113.791 104.84 113.791C104.84 113.791 103.623 115.976 102.923 115.591C101.76 114.945 103.27 112.029 103.27 112.029C102.925 112.712 102.51 113.358 102.032 113.957C101.701 114.351 100.098 114.739 100.66 113.026C100.852 112.266 101.168 111.542 101.597 110.884C101.213 111.545 100.763 112.167 100.255 112.74C99.8913 112.992 98.6723 112.872 99.7724 110.419C101.267 107.371 103.465 104.72 106.186 102.682L109.881 104.987Z" fill="#FCBF8F"/>
<path d="M161.052 28.6321C167.448 28.2425 173.744 30.3589 178.599 34.5305C180.145 35.7731 181.459 37.2781 182.48 38.9763C186.204 45.5571 191.979 79.3289 202.931 94.6829L194.354 101.355C194.354 101.355 179.58 82.433 176.145 68.0538C176.145 68.0538 173.888 104.033 174.378 107.046C174.378 107.046 146.029 115.234 125.821 104.742L136.392 60.2268C136.392 60.2268 114.478 98.9987 113.516 106.835L103.463 104.857C103.463 104.857 114.017 52.0787 136.083 34.0756C139.709 31.1467 144.179 29.4515 148.84 29.238L161.052 28.6321Z" fill="#66B881"/>
<path d="M350.4 137.897H12.7539V143.939H350.4V137.897Z" fill="#C48051"/>
<path d="M332.215 238.817C332.07 238.805 331.935 238.74 331.837 238.633C331.739 238.527 331.685 238.388 331.686 238.243L327.356 141.72C327.339 141.569 327.382 141.418 327.476 141.299C327.57 141.18 327.707 141.103 327.858 141.085C327.933 141.085 328.006 141.1 328.075 141.129C328.144 141.159 328.206 141.201 328.258 141.254C328.31 141.308 328.351 141.371 328.378 141.441C328.405 141.51 328.418 141.584 328.416 141.658L332.745 238.182C332.762 238.332 332.719 238.483 332.625 238.601C332.531 238.72 332.394 238.796 332.243 238.815H332.216" fill="#C48051"/>
<path d="M19.1116 238.817C19.256 238.805 19.3907 238.74 19.4888 238.633C19.5869 238.527 19.6411 238.388 19.6406 238.243L23.9704 141.72C23.9877 141.569 23.9446 141.418 23.8505 141.299C23.7564 141.18 23.619 141.103 23.4682 141.085C23.3938 141.086 23.3203 141.101 23.2519 141.13C23.1836 141.16 23.1218 141.202 23.07 141.256C23.0183 141.309 22.9778 141.372 22.9507 141.441C22.9236 141.51 22.9106 141.584 22.9124 141.658L18.5826 238.182C18.5659 238.332 18.6092 238.483 18.7033 238.601C18.7973 238.72 18.9344 238.796 19.0848 238.815H19.1116" fill="#C48051"/>
<path d="M47.5047 106.91C47.6404 106.91 47.7734 106.871 47.8875 106.798C48.0017 106.725 48.0924 106.62 48.1487 106.497L68.2833 62.5585C68.3219 62.4742 68.3435 62.3831 68.3468 62.2904C68.3502 62.1978 68.3352 62.1054 68.3027 62.0185C68.2702 61.9316 68.2209 61.8519 68.1575 61.7841C68.0942 61.7162 68.0181 61.6615 67.9335 61.6229C67.8489 61.5844 67.7576 61.5629 67.6647 61.5595C67.5717 61.5562 67.4791 61.5712 67.3919 61.6036C67.3048 61.636 67.2249 61.6851 67.1569 61.7483C67.0888 61.8115 67.0339 61.8874 66.9953 61.9718L46.853 105.91C46.804 106.018 46.7828 106.136 46.7914 106.254C46.8 106.371 46.838 106.485 46.902 106.585C46.9661 106.684 47.0541 106.766 47.158 106.823C47.262 106.88 47.3785 106.909 47.497 106.91" fill="#110D27"/>
<path d="M62.6963 205.261C62.6963 205.261 60.2698 236.274 63.578 239.573C66.8861 242.872 71.7372 245.951 72.18 247.932C72.6227 249.912 57.8452 247.712 56.5208 245.732C55.1964 243.752 55.4187 240.453 54.0943 231.205C52.7699 221.958 50.7861 205.251 50.7861 205.251L62.6963 205.261Z" fill="#D3926E"/>
<path d="M72.1803 247.932C71.8794 246.594 69.5372 244.728 67.0283 242.639C66.4744 246.875 58.1369 242.532 55.2715 240.904C55.3153 242.587 55.742 244.238 56.5192 245.732C57.8437 247.712 72.6211 249.91 72.1803 247.932Z" fill="#050521"/>
<path d="M83.7569 205.261C83.7569 205.261 81.3304 236.274 84.6385 239.573C87.9467 242.872 92.7978 245.951 93.2405 247.932C93.6833 249.912 78.9058 247.712 77.5814 245.732C76.2569 243.752 76.4793 240.453 75.1549 231.205C73.8305 221.958 71.8467 205.251 71.8467 205.251L83.7569 205.261Z" fill="#D3926E"/>
<path d="M93.2405 247.932C92.9395 246.594 90.5973 244.728 88.0884 242.639C87.5345 246.875 79.197 242.532 76.3335 240.904C76.3771 242.587 76.8037 244.238 77.5812 245.732C78.9057 247.712 93.6813 249.91 93.2405 247.932Z" fill="#050521"/>
<path d="M56.8583 21.1568C56.8583 21.1568 66.6103 16.4854 72.0709 27.5025C77.5315 38.5195 80.2359 51.3734 77.0447 56.8265C73.8534 62.2796 64.4043 60.548 64.4043 60.548C64.4043 60.548 51.8252 66.1138 46.7881 60.6206C41.7511 55.1273 43.9131 24.1805 56.8583 21.1568Z" fill="#192743"/>
<path d="M84.1709 139.154L88.2898 214.974L44.9521 216.383L43.3306 139.154L47.0968 124.601L68.989 120.142L84.1709 139.154Z" fill="#D2EDDB"/>
<path d="M41.9199 64.1909L57.4449 57.8356L67.08 57.7324C67.08 57.7324 81.158 64.189 82.5705 65.7601C83.9831 67.3313 96.8804 99.8148 99.234 102.787L83.5672 107.078L87.437 144.789C87.437 144.789 66.252 150.579 54.3246 146.198L49.6173 129.141L48.0475 146.041C46.0516 146.558 43.9794 146.717 41.9276 146.511L41.9199 64.1909Z" fill="#065D66"/>
<path d="M79.632 80.8195L55.8633 87.137L64.0622 117.814L87.831 111.496L79.632 80.8195Z" fill="white"/>
<path d="M57.6212 89.1554L55.3461 89.7594C55.3038 89.773 55.2591 89.778 55.2148 89.7738C55.1705 89.7697 55.1276 89.7567 55.0885 89.7355C55.0494 89.7142 55.0151 89.6853 54.9876 89.6505C54.9601 89.6156 54.94 89.5755 54.9285 89.5326C54.9171 89.4898 54.9145 89.445 54.9209 89.4011C54.9274 89.3572 54.9427 89.3151 54.966 89.2773C54.9893 89.2395 55.02 89.2068 55.0564 89.1813C55.0927 89.1557 55.1339 89.1378 55.1774 89.1287L57.4525 88.5246C57.5347 88.5073 57.6203 88.5221 57.6919 88.5659C57.7634 88.6098 57.8154 88.6793 57.837 88.7602C57.8586 88.8411 57.8483 88.9272 57.8082 89.0007C57.768 89.0743 57.7011 89.1296 57.6212 89.1554Z" fill="#E7EEFD"/>
<path d="M58.7555 93.4117L56.4804 94.0157C56.4381 94.0294 56.3934 94.0343 56.3491 94.0302C56.3048 94.0261 56.2618 94.013 56.2228 93.9918C56.1837 93.9706 56.1494 93.9416 56.1219 93.9068C56.0944 93.8719 56.0743 93.8319 56.0628 93.789C56.0514 93.7461 56.0488 93.7014 56.0552 93.6575C56.0616 93.6136 56.077 93.5714 56.1002 93.5336C56.1235 93.4958 56.1543 93.4632 56.1906 93.4376C56.227 93.4121 56.2682 93.3942 56.3117 93.385L58.5868 92.781C58.6689 92.7637 58.7546 92.7785 58.8262 92.8223C58.8977 92.8661 58.9496 92.9356 58.9713 93.0165C58.9929 93.0974 58.9826 93.1836 58.9424 93.2571C58.9023 93.3306 58.8354 93.3859 58.7555 93.4117Z" fill="#E7EEFD"/>
<path d="M59.7389 97.078L57.4639 97.682C57.3817 97.6993 57.2961 97.6845 57.2245 97.6407C57.153 97.5969 57.1011 97.5273 57.0794 97.4464C57.0578 97.3655 57.0681 97.2794 57.1083 97.2059C57.1484 97.1324 57.2153 97.077 57.2952 97.0513L59.5703 96.4473C59.6524 96.4299 59.7381 96.4447 59.8096 96.4885C59.8812 96.5324 59.9331 96.6019 59.9548 96.6828C59.9764 96.7637 59.9661 96.8498 59.9259 96.9233C59.8858 96.9969 59.8188 97.0523 59.7389 97.078Z" fill="#E7EEFD"/>
<path d="M60.7683 100.933L58.4932 101.537C58.411 101.555 58.3254 101.54 58.2538 101.496C58.1823 101.452 58.1303 101.383 58.1087 101.302C58.0871 101.221 58.0974 101.135 58.1376 101.061C58.1777 100.988 58.2446 100.932 58.3245 100.907L60.5996 100.302C60.6419 100.289 60.6866 100.284 60.7309 100.288C60.7752 100.292 60.8182 100.305 60.8572 100.326C60.8963 100.348 60.9306 100.377 60.9581 100.411C60.9856 100.446 61.0057 100.486 61.0172 100.529C61.0286 100.572 61.0312 100.617 61.0248 100.661C61.0184 100.705 61.003 100.747 60.9797 100.785C60.9565 100.822 60.9257 100.855 60.8893 100.881C60.853 100.906 60.8118 100.924 60.7683 100.933Z" fill="#E7EEFD"/>
<path d="M61.7991 104.79L59.524 105.394C59.4826 105.405 59.4394 105.408 59.3969 105.402C59.3544 105.397 59.3134 105.383 59.2763 105.362C59.2392 105.34 59.2067 105.312 59.1806 105.278C59.1546 105.244 59.1354 105.205 59.1244 105.164C59.1133 105.123 59.1105 105.08 59.1161 105.037C59.1217 104.995 59.1356 104.954 59.1571 104.917C59.1785 104.88 59.2071 104.847 59.2411 104.821C59.2751 104.795 59.3139 104.776 59.3553 104.765L61.6304 104.161C61.7125 104.144 61.7982 104.159 61.8698 104.203C61.9413 104.246 61.9932 104.316 62.0148 104.397C62.0365 104.478 62.0262 104.564 61.986 104.637C61.9459 104.711 61.8789 104.766 61.7991 104.792" fill="#E7EEFD"/>
<path d="M62.8288 108.645L60.5537 109.249C60.4716 109.266 60.3859 109.252 60.3144 109.208C60.2428 109.164 60.1909 109.094 60.1693 109.014C60.1476 108.933 60.158 108.847 60.1981 108.773C60.2383 108.699 60.3052 108.644 60.385 108.618L62.6601 108.014C62.7423 107.997 62.8279 108.012 62.8995 108.056C62.971 108.1 63.023 108.169 63.0446 108.25C63.0662 108.331 63.0559 108.417 63.0157 108.49C62.9756 108.564 62.9087 108.619 62.8288 108.645Z" fill="#E7EEFD"/>
<path d="M64.1682 113.674L61.8931 114.278C61.811 114.296 61.7253 114.281 61.6537 114.237C61.5822 114.193 61.5303 114.123 61.5086 114.043C61.487 113.962 61.4973 113.876 61.5375 113.802C61.5776 113.729 61.6446 113.673 61.7244 113.647L63.9995 113.043C64.0418 113.03 64.0865 113.025 64.1308 113.029C64.1751 113.033 64.2181 113.046 64.2571 113.067C64.2962 113.089 64.3305 113.117 64.358 113.152C64.3855 113.187 64.4056 113.227 64.4171 113.27C64.4285 113.313 64.4312 113.358 64.4247 113.402C64.4183 113.446 64.4029 113.488 64.3797 113.526C64.3564 113.563 64.3256 113.596 64.2893 113.622C64.2529 113.647 64.2117 113.665 64.1682 113.674Z" fill="#E7EEFD"/>
<path d="M73.7792 86.6274L63.9746 89.2334L64.6711 91.8394L74.4757 89.2334L73.7792 86.6274Z" fill="#192743"/>
<path d="M70.4663 99.3177C71.9811 97.1644 73.6395 95.1153 75.4305 93.1842C77.0251 91.7545 77.5062 89.1875 78.6007 89.7782C79.6951 90.3688 77.9662 94.1055 77.9662 94.1055C77.9662 94.1055 82.1829 92.9873 83.4287 92.4483C84.6746 91.9093 87.1432 91.508 87.609 92.3853C88.0747 93.2626 81.9184 95.4435 81.9184 95.4435C81.9184 95.4435 84.9851 94.526 85.5812 95.2523C86.1772 95.9786 81.9127 98.2474 81.9127 98.2474C83.0956 97.7537 84.3466 97.4412 85.6233 97.3204C86.183 97.5727 85.8801 98.2971 84.0248 99.3809C82.1695 100.465 82.4915 100.581 82.4915 100.581C83.2072 100.167 83.9831 99.8656 84.7915 99.6885C85.3167 99.7516 85.4987 100.805 82.5796 102.12C79.4289 103.788 75.8795 104.563 72.3178 104.36L70.4663 99.3177Z" fill="#F9A58F"/>
<path d="M41.9199 64.1928C34.0731 69.9823 17.7526 102.229 36.8982 112.08C56.0438 121.931 74.5607 106.602 74.5607 106.602L69.8534 97.8385C69.8534 97.8385 49.2952 103.785 46.1576 97.3683C45.2528 95.3814 44.7716 93.2288 44.7445 91.0467C44.7175 88.8647 45.1452 86.7008 46.0005 84.6922C46.0005 84.6922 42.3914 65.9131 41.9199 64.1909" fill="#065D66"/>
<path d="M72.0459 39.1808C72.0459 39.1808 72.9199 37.7243 73.6885 38.2652C75.6473 39.6452 73.6885 41.6865 72.4484 42.1644L72.0459 39.1808Z" fill="#EA6868"/>
<path d="M59.3347 21.1453C57.4829 21.3559 55.7096 22.0094 54.1655 23.0502C52.6213 24.0909 51.3521 25.4882 50.4658 27.1232C49.5794 28.7581 49.1021 30.5823 49.0745 32.4407C49.0469 34.2991 49.4698 36.1366 50.3071 37.797C51.6276 41.098 53.2982 44.2486 55.2905 47.1952C57.0804 49.4861 57.9336 52.3681 57.6786 55.2611L57.3969 58.1855C64.2797 61.2284 67.0665 57.7402 67.0665 57.7402L66.756 51.0332C73.9914 49.8329 72.4006 36.4878 72.2166 32.5293H72.2051C72.2051 32.3802 72.2051 32.2331 72.2051 32.0821C72.1318 30.5029 71.7339 28.9555 71.0362 27.536C70.3386 26.1164 69.3559 24.8549 68.1492 23.8297C66.9424 22.8044 65.5374 22.0373 64.0212 21.5759C62.5049 21.1144 60.9098 20.9666 59.3347 21.1453Z" fill="#D3926E"/>
<path d="M75.2233 39.517V39.4922L75.2788 39.5878L75.2501 39.6604L75.208 39.5629L75.2233 39.517Z" fill="#060633"/>
<path d="M50.2819 41.0578C50.2186 40.6506 50.1458 40.2474 50.0614 39.8498C49.3913 37.7272 48.8952 35.5539 48.578 33.3512C48.52 31.9388 48.6489 30.525 48.9613 29.1462C50.0845 24.0983 54.2513 21.2408 59.1963 20.4648C73.462 18.2266 74.2977 34.6738 75.0414 39.1961C75.4151 41.4649 76.7664 43.382 77.1861 45.6068C78.3361 51.6161 77.6768 57.8682 72.0456 60.4122C65.6689 63.2926 52.8138 61.4195 51.2517 60.3892C48.2023 58.3785 51.7673 53.0458 51.1904 49.5614C50.7246 46.7498 50.7227 43.8885 50.2819 41.075M61.3525 53.0038C63.7005 53.7798 68.3906 51.4383 70.1443 49.0052C71.4661 46.4028 72.1549 43.5267 72.1549 40.6096C72.1549 37.6924 71.4661 34.8163 70.1443 32.2139C65.6248 24.513 58.788 29.3239 56.8656 31.3672C54.9432 33.4104 53.337 35.9544 53.4616 41.7898C53.5507 43.5038 53.9318 45.1901 54.5886 46.7765C55.1742 48.2547 56.0865 49.5822 57.2575 50.6604C58.4286 51.7385 59.8283 52.5395 61.3525 53.0038Z" fill="#192743"/>
<path d="M54.4146 101C51.8274 101.164 49.2683 100.387 47.2117 98.8133C46.4343 98.1348 45.8111 97.2984 45.384 96.3603C44.957 95.4221 44.7358 94.4038 44.7354 93.3736C44.735 93.3518 44.7392 93.3302 44.7479 93.3102C44.7565 93.2902 44.7693 93.2723 44.7855 93.2576C44.8016 93.2429 44.8207 93.2319 44.8415 93.2252C44.8623 93.2185 44.8843 93.2163 44.906 93.2188C44.9275 93.2195 44.9487 93.2245 44.9684 93.2335C44.988 93.2424 45.0056 93.2552 45.0202 93.271C45.0348 93.2868 45.0461 93.3054 45.0535 93.3256C45.0609 93.3458 45.0642 93.3673 45.0631 93.3888C45.0733 94.3695 45.289 95.3373 45.6963 96.23C46.1036 97.1227 46.6935 97.9205 47.4283 98.5725C49.8874 100.685 53.945 101.21 59.5148 100.132C59.5359 100.127 59.5578 100.127 59.5791 100.13C59.6004 100.134 59.6207 100.142 59.6387 100.154C59.6567 100.166 59.672 100.182 59.6837 100.2C59.6953 100.218 59.7031 100.239 59.7065 100.26C59.7107 100.281 59.7106 100.303 59.7065 100.324C59.7023 100.345 59.694 100.365 59.682 100.382C59.6701 100.4 59.6548 100.415 59.6369 100.427C59.6191 100.439 59.5991 100.447 59.5781 100.451C57.8783 100.797 56.1493 100.981 54.4146 101Z" fill="#060633"/>
<path d="M51.6547 115.373C48.3659 115.366 45.088 114.998 41.8797 114.276C41.839 114.266 41.8039 114.24 41.7818 114.205C41.7596 114.169 41.7521 114.126 41.7609 114.085C41.7656 114.065 41.7743 114.046 41.7865 114.029C41.7988 114.012 41.8142 113.997 41.832 113.986C41.8498 113.975 41.8696 113.968 41.8903 113.965C41.911 113.961 41.9322 113.962 41.9525 113.967C42.0752 113.997 54.2767 117.004 62.7062 112.891C62.7451 112.872 62.79 112.869 62.831 112.883C62.8719 112.897 62.9057 112.926 62.9247 112.965C62.9438 113.004 62.9466 113.049 62.9326 113.09C62.9186 113.13 62.8889 113.164 62.85 113.183C59.3267 114.737 55.5 115.487 51.649 115.379" fill="#060633"/>
<path d="M77.4316 105.094C74.5884 103.939 71.6864 102.935 68.7376 102.084C66.7078 101.713 65.0173 99.8492 64.4174 100.881C63.8175 101.913 67.1218 104.112 67.1218 104.112C67.1218 104.112 63.0968 105.314 61.8069 105.495C60.517 105.677 58.286 106.589 58.3454 107.542C58.4048 108.496 64.5535 107.189 64.5535 107.189C64.5535 107.189 59.4858 108.796 59.3535 109.687C59.2213 110.578 65.9699 109.479 65.9699 109.479C63.9762 109.953 62.0283 110.603 60.149 111.419C59.8193 111.906 60.4327 112.349 62.5007 112.305C63.9092 112.249 65.3074 112.041 66.6714 111.686C65.2521 112.157 63.8576 112.698 62.493 113.309C62.0944 113.624 61.7743 114.347 64.8333 113.961C69.1805 113.356 73.3497 111.839 77.0655 109.509L77.4316 105.094Z" fill="#F9A58F"/>
<path d="M99.9066 103.225C99.6342 101.594 98.7236 100.139 97.375 99.1776C96.0264 98.2166 94.3502 97.8291 92.7152 98.1004L73.585 103.261L74.8519 110.842L94.7699 110.394C95.5797 110.26 96.3549 109.968 97.0514 109.534C97.7479 109.101 98.352 108.535 98.8292 107.869C99.3064 107.203 99.6473 106.45 99.8325 105.652C100.018 104.855 100.044 104.028 99.9085 103.221" fill="#065D66"/>
<path d="M309.316 171.133C309.532 171.133 309.742 171.06 309.911 170.925C310.08 170.791 310.199 170.604 310.248 170.394L315.932 145.827C315.974 145.586 315.922 145.339 315.786 145.135C315.65 144.932 315.442 144.788 315.203 144.733C314.965 144.679 314.714 144.717 314.503 144.841C314.292 144.965 314.136 145.164 314.068 145.399L308.383 169.964C308.351 170.104 308.35 170.249 308.382 170.389C308.414 170.529 308.477 170.66 308.567 170.773C308.657 170.885 308.771 170.976 308.9 171.038C309.03 171.101 309.172 171.133 309.316 171.133Z" fill="#18142D"/>
<path d="M279.405 171.133C279.621 171.133 279.83 171.06 280 170.925C280.169 170.791 280.287 170.604 280.336 170.394L286.021 145.827C286.063 145.586 286.01 145.339 285.875 145.135C285.739 144.932 285.53 144.788 285.291 144.733C285.053 144.679 284.802 144.717 284.591 144.841C284.38 144.965 284.224 145.164 284.156 145.399L278.471 169.964C278.439 170.104 278.439 170.249 278.471 170.389C278.502 170.529 278.566 170.66 278.655 170.773C278.745 170.885 278.859 170.976 278.989 171.038C279.118 171.101 279.261 171.133 279.405 171.133Z" fill="#18142D"/>
<path d="M295.014 102.225H337.019L321.544 147.102H279.539L295.014 102.225Z" fill="#DBDBDB"/>
<path d="M289.831 173.177H286.046C285.78 173.202 285.534 173.327 285.356 173.526C285.178 173.724 285.082 173.983 285.088 174.249L280.622 240.428C280.58 240.709 280.648 240.996 280.81 241.23C280.973 241.464 281.219 241.627 281.498 241.687H281.576C281.842 241.662 282.088 241.537 282.266 241.339C282.444 241.14 282.54 240.881 282.534 240.615L286.927 175.509H290.023C289.747 174.762 289.68 173.954 289.831 173.173" fill="#18142D"/>
<path d="M319.254 238.862L310.259 174.149C310.245 173.901 310.142 173.666 309.969 173.488C309.796 173.309 309.564 173.199 309.316 173.177H306.771C306.865 173.498 306.93 173.828 306.962 174.161C307.008 174.612 306.993 175.067 306.918 175.514H308.501L317.362 239.254C317.366 239.391 317.398 239.526 317.457 239.65C317.515 239.774 317.599 239.884 317.703 239.974C317.807 240.064 317.928 240.132 318.06 240.172C318.191 240.213 318.33 240.225 318.466 240.21C318.738 240.121 318.969 239.936 319.113 239.689C319.258 239.443 319.306 239.152 319.25 238.872" fill="#18142D"/>
<path d="M314.999 170.18H257.092V175.849H314.999V170.18Z" fill="#DBDBDB"/>
<path d="M185.683 128.684C183.889 129.928 182.181 131.292 180.571 132.765C179.379 134.08 177.242 134.472 177.731 135.378C178.219 136.284 181.33 134.865 181.33 134.865C181.33 134.865 180.391 138.35 179.939 139.376C179.486 140.403 179.147 142.444 179.873 142.834C180.6 143.224 182.426 138.138 182.426 138.138C182.426 138.138 181.311 142.57 181.907 143.071C182.503 143.572 184.751 138.141 184.751 138.141C184.197 139.813 183.792 141.531 183.54 143.273C183.749 143.736 184.351 143.488 185.265 141.957C185.862 140.902 186.343 139.786 186.701 138.629C186.403 139.88 186.169 141.145 185.999 142.419C186.049 142.853 186.438 143.415 187.532 141.005C189.053 137.498 189.821 133.713 189.787 129.892L185.683 128.684Z" fill="#966018"/>
<path d="M231.566 36.7992C231.664 36.8488 231.758 36.8966 231.867 36.9368C232.645 37.104 233.394 37.3821 234.092 37.7625C234.721 38.2633 234.955 39.1253 235.549 39.6738C235.997 40.079 236.611 40.2683 237.052 40.6811C237.574 41.3509 237.944 42.1265 238.135 42.9537C238.489 43.8578 239.072 44.6567 239.447 45.5513C240.364 48.1578 240.315 51.0052 239.309 53.579C238.892 54.5882 238.735 56.0637 237.905 56.7824C237.195 57.3845 236.003 57.5775 235.714 58.581C239.305 60.2115 242.677 62.2871 245.748 64.7585C246.388 65.2277 246.858 65.8908 247.089 66.6488C247.167 67.2308 247.079 67.8228 246.836 68.3576C246.123 70.2002 244.728 71.9395 244.989 73.9005C245.126 74.5672 245.399 75.199 245.789 75.7576C246.179 76.3162 246.679 76.7898 247.258 77.1498C248.373 77.9316 249.654 78.4438 250.842 79.1128C253.493 80.5095 255.508 82.8627 256.477 85.6917C256.93 87.104 256.977 88.6149 256.611 90.0521C256.245 91.4894 255.481 92.7951 254.407 93.8207C252.897 94.7665 251.448 95.8058 250.068 96.9324C248.195 99.0349 248.076 102.615 245.566 103.882C244.081 104.423 242.457 104.453 240.954 103.966C238.97 103.553 238.761 96.8942 237.031 95.8353C235.973 95.1912 233.245 100.572 232.35 99.7153C230.422 98.2487 229.095 96.1324 228.616 93.7615C228.289 89.3653 233.6 86.0071 233.136 81.6339C232.839 78.8548 230.261 76.781 229.745 74.0324C229.579 72.6337 229.69 71.2162 230.071 69.8599L231.304 64.0589C231.8 61.7194 230.069 61.2798 228.16 60.63C223.014 58.8754 217.751 56.9563 213.711 53.3248C211.713 51.53 211.713 49.2727 212.056 46.742C212.185 45.7978 212.363 44.8632 212.499 43.9209C212.511 43.0567 212.579 42.1941 212.702 41.3386C212.894 40.6945 213.624 40.3925 214.044 39.8745C214.464 39.3565 214.571 38.6857 214.951 38.1543C216.062 36.6042 219.083 35.983 220.827 35.5988C223.087 35.0994 225.414 34.9773 227.714 35.2376C228.437 35.2933 229.146 35.4684 229.812 35.7555C230.426 36.048 230.962 36.4971 231.557 36.8049" fill="#192743"/>
<path d="M214.814 93.1919C216.578 93.2705 218.345 93.1789 220.091 92.9186C220.283 92.7485 221.783 90.1739 223.349 87.4445C225.103 84.3729 226.93 81.1006 227.052 80.8388C227.091 80.7604 227.188 80.4565 227.332 79.9959C227.348 79.9443 227.361 79.8927 227.378 79.8411C227.923 78.0425 229 74.2981 229.623 72.1173L230.098 70.4487C230.098 70.4487 229.778 70.376 229.224 70.2785L228.526 70.1601L228.04 70.0855C225.872 69.7534 223.678 69.6254 221.486 69.7032C218.995 69.8217 216.9 70.0855 216.005 70.2116L215.547 70.2805L215.054 85.9975L214.814 93.1919Z" fill="#966018"/>
<path d="M199.364 171.019C199.364 171.019 204.721 234.784 199.523 240.499C197.795 242.263 195.949 243.909 193.996 245.422C192.225 246.888 207.412 245.782 207.543 245.009C207.893 240.575 208.508 236.166 209.387 231.806C212.877 216.073 215.487 176.338 215.487 176.338L199.364 171.019Z" fill="#966018"/>
<path d="M228.565 246.906C229.18 245.712 229.494 244.387 229.477 243.045C229.731 239.263 230.271 235.506 231.091 231.806C234.581 216.073 237.19 176.338 237.19 176.338L221.071 171.025C221.071 171.025 226.426 234.789 221.228 240.506C220.249 241.553 219.203 242.535 218.096 243.446C217.609 243.857 217.124 244.256 216.651 244.646C214.46 246.445 227.192 248.972 228.569 246.911" fill="#966018"/>
<path d="M207.692 116.658C202.939 122.113 199.822 128.793 198.695 135.932C196.296 148.692 198.264 193.355 198.264 193.355L238.85 194.693C238.85 194.693 246.313 138.453 231.486 117.856L207.692 116.658Z" fill="#192743"/>
<path d="M236.897 141.11C235.53 142.813 234.28 144.605 233.155 146.475C232.389 148.073 230.447 149.051 231.173 149.784C231.9 150.516 234.48 148.275 234.48 148.275C234.48 148.275 234.568 151.882 234.428 152.995C234.288 154.107 234.541 156.162 235.348 156.328C236.155 156.494 236.462 151.102 236.462 151.102C236.462 151.102 236.653 155.669 237.364 155.98C238.075 156.292 238.691 150.449 238.691 150.449C238.634 152.209 238.733 153.971 238.988 155.715C239.319 156.097 239.827 155.692 240.26 153.968C240.532 152.787 240.676 151.581 240.69 150.37C240.76 151.654 240.895 152.933 241.094 154.203C241.267 154.604 241.798 155.032 242.167 152.412C242.629 148.619 242.289 144.772 241.171 141.117L236.897 141.11Z" fill="#966018"/>
<path d="M183.749 128.954L189.84 131.519C189.84 131.519 201.94 115.949 203.334 110.075C204.727 104.202 205.906 100.518 205.906 100.518L207.69 116.664L231.484 117.86C231.484 117.86 234.359 113.038 236.264 100.354C236.264 100.354 240.057 110.866 239.396 119.424C238.35 127.409 236.739 135.31 234.575 143.069L242.817 145.097C242.817 145.097 252.017 117.562 250.1 102.741C248.184 87.9206 245.023 76.2613 237.809 72.6775C235.045 71.5541 232.163 70.7436 229.218 70.2615C228.991 70.209 228.759 70.1763 228.526 70.1641C228.358 70.5177 227.951 72.1175 224.825 74.046C221.483 76.1027 215.844 74.1435 215.547 70.3494V70.2826C215.547 70.2826 215.14 70.3953 214.471 70.5998C211.587 71.4714 203.845 74.0288 203.104 76.5576C202.185 79.6731 195.531 103.89 194.634 106.805C193.737 109.72 183.762 128.961 183.762 128.961" fill="#D2EDDB"/>
<path d="M225.912 35.8819C227.692 36.1026 229.391 36.7487 230.867 37.7652C232.342 38.7818 233.549 40.1387 234.385 41.7204C235.222 43.3022 235.662 45.062 235.67 46.8502C235.678 48.6384 235.252 50.4019 234.43 51.9909C233.122 55.1511 231.478 58.1628 229.527 60.9742C227.783 63.1595 226.933 65.9227 227.148 68.7076L227.39 71.523C220.739 74.3901 218.094 70.9955 218.094 70.9955L218.462 64.5466C211.514 63.3176 213.18 50.4981 213.396 46.6926H213.408C213.408 46.5492 213.408 46.4059 213.421 46.2625C213.508 44.7442 213.906 43.2598 214.592 41.9014C215.277 40.543 216.235 39.3394 217.406 38.3654C218.577 37.3914 219.937 36.6678 221.4 36.2392C222.863 35.8107 224.399 35.6865 225.912 35.8743" fill="#966018"/>
<path d="M233.362 55.932C232.072 57.7555 229.475 43.1756 222.786 42.1703C216.097 41.1649 213.12 50.781 213.12 50.781C212.459 47.412 213.001 43.9184 214.654 40.9069C216.212 38.3485 218.717 36.5033 221.627 35.7693C224.537 35.0352 227.62 35.4711 230.211 36.9829C236.653 40.7903 239.505 47.2296 233.353 55.9244" fill="#192743"/>
<path d="M230.859 54.9055C231.063 54.5589 231.386 54.2986 231.769 54.1734C232.265 53.945 232.816 53.8663 233.356 53.9472C233.895 54.028 234.399 54.2648 234.805 54.6284C236.093 56.0676 233.14 59.5214 230.527 57.5738C230.527 57.5738 229.795 56.7557 230.859 54.8978" fill="#966018"/>
<path d="M228.565 246.905C229.18 245.712 229.494 244.386 229.477 243.044C228.519 243.383 221.011 245.938 218.1 243.448C217.613 243.859 217.128 244.258 216.655 244.648L215.969 245.222C214.079 246.779 212.53 248.129 212.288 249.211C211.828 251.267 227.2 248.983 228.58 246.917" fill="#192743"/>
<path d="M206.866 246.905C207.482 245.712 207.795 244.386 207.778 243.044C206.82 243.383 199.312 245.938 196.401 243.448C193.666 245.762 190.916 247.729 190.588 249.201C190.128 251.258 205.499 248.974 206.879 246.907" fill="#192743"/>
<path d="M272.102 104.068C272.102 104.068 260.868 124.204 259.563 124.364C258.258 124.525 256.991 101.77 256.991 101.77L251.933 102.045C251.933 102.045 245.96 132.945 256.094 136.23C266.227 139.516 276.345 116.939 276.345 116.939L272.102 104.068Z" fill="#FCBF8F"/>
<path d="M246.612 220.078C246.612 220.078 247.674 227.49 245.019 231.196C242.365 234.902 236.879 240.197 238.294 241.607C239.708 243.018 255.459 235.078 255.105 233.314C254.75 231.55 252.274 224.313 252.805 220.078H246.612Z" fill="#FCBF8F"/>
<path d="M254.15 229.728C254.584 231.362 254.978 232.685 255.109 233.314C255.463 235.078 239.712 243.02 238.298 241.609C237.247 240.562 239.994 237.379 242.566 234.292C244.013 235.2 247.682 236.165 254.156 229.728" fill="#192743"/>
<path d="M265.054 221.897C265.054 221.897 266.116 229.309 263.462 233.015C260.807 236.722 255.322 242.016 256.736 243.427C258.151 244.837 273.902 236.897 273.547 235.133C273.193 233.369 270.716 226.133 271.247 221.897H265.054Z" fill="#FCBF8F"/>
<path d="M307.545 147.792C307.545 147.792 311.942 169.094 304.94 172.095C297.939 175.096 274.4 180.378 272.991 184.675C271.582 188.972 272.991 224.015 272.991 224.015L261.792 224.345C261.792 224.345 258.29 184.767 258.618 180.927C259.371 172.095 259.787 174.132 259.787 174.132C259.787 174.132 256.619 173.154 255.212 180.789C254.587 184.176 254.578 220.771 254.578 220.771L243.385 221.1C243.385 221.1 235.718 172.238 244.276 165.52C252.834 158.801 276.294 149.069 276.294 149.069L307.545 147.792Z" fill="#F15E46"/>
<path d="M281.239 97.682C281.239 97.682 272.259 99.7635 268.292 104.97C265.172 109.684 262.593 114.733 260.604 120.022L270.379 124.128C270.379 124.128 273.135 141.33 274.764 150.156C274.764 150.156 295.848 156.403 308.8 150.156L309.845 121.836L317.78 118.504C317.78 118.504 313.604 100.389 303.788 97.6801C293.973 94.9717 286.64 95.807 281.237 97.6801" fill="white"/>
<path d="M315.884 119.301L304.936 123.608C304.936 123.608 307.399 135.318 306.393 139.806C305.082 145.646 290.63 157.754 287.623 159.224L290.63 163.62C290.63 163.62 313.479 155.103 316.193 141.463C318.907 127.824 315.884 119.307 315.884 119.307" fill="#FCBF8F"/>
<path d="M270.381 124.271C270.419 124.27 270.455 124.254 270.482 124.226C270.508 124.199 270.523 124.162 270.522 124.124C270.804 121.65 271.692 119.284 273.108 117.233C273.125 117.202 273.13 117.165 273.121 117.13C273.112 117.095 273.091 117.065 273.061 117.044C273.032 117.024 272.995 117.016 272.96 117.021C272.924 117.025 272.892 117.043 272.868 117.071C271.408 119.165 270.501 121.594 270.233 124.131C270.234 124.169 270.25 124.205 270.277 124.232C270.304 124.258 270.341 124.273 270.379 124.273" fill="#060423"/>
<path d="M303.487 124.273C303.504 124.276 303.521 124.276 303.537 124.273L304.988 123.753C305.02 123.737 305.044 123.71 305.058 123.677C305.071 123.644 305.072 123.607 305.06 123.574C305.048 123.54 305.024 123.513 304.992 123.496C304.961 123.479 304.925 123.473 304.89 123.481L303.581 123.952L300.378 113.58C300.375 113.56 300.367 113.54 300.356 113.523C300.344 113.506 300.329 113.491 300.312 113.48C300.294 113.469 300.274 113.462 300.254 113.459C300.233 113.457 300.212 113.459 300.192 113.465C300.172 113.471 300.154 113.481 300.138 113.495C300.122 113.508 300.11 113.525 300.102 113.544C300.093 113.563 300.089 113.584 300.089 113.604C300.089 113.625 300.094 113.646 300.102 113.665L303.349 124.177C303.355 124.196 303.364 124.213 303.377 124.227C303.389 124.242 303.405 124.254 303.422 124.263C303.442 124.273 303.465 124.278 303.487 124.278" fill="#060423"/>
<path d="M290.63 163.614C289.977 164.289 289.172 164.8 288.282 165.103C286.86 165.56 282.502 166.342 281.84 166.632C280.433 167.595 278.956 168.453 277.422 169.199C276.717 169.222 279.993 165.784 279.993 165.784C279.993 165.784 276.786 168.328 276.159 167.886C275.533 167.445 278.741 164.428 278.741 164.428C278.741 164.428 275.36 166.563 274.938 166.007C274.517 165.451 277.771 163.352 277.771 163.352C277.771 163.352 274.532 164.778 274.206 164.329C273.88 163.88 278.26 160.736 280.359 160.294C282.457 159.853 289.104 159.033 289.104 159.033L290.63 163.614Z" fill="#FCBF8F"/>
<path d="M272.594 231.548C273.027 233.182 273.422 234.505 273.552 235.134C273.907 236.898 258.156 244.839 256.74 243.429C255.689 242.381 258.436 239.199 261.008 236.112C262.455 237.02 266.124 237.985 272.598 231.548" fill="#192743"/>
<path d="M292.917 86.3705C292.917 86.3705 306.198 80.9919 301.973 65.2729C301.973 65.2729 292.222 55.0395 283.593 60.0644C281.023 61.5268 278.992 63.7742 277.801 66.4751C276.609 69.176 276.319 72.1873 276.974 75.0648C277.204 76.2116 292.917 86.3705 292.917 86.3705Z" fill="#5C3225"/>
<path d="M289.223 60.6473C291.015 60.7758 292.749 61.3341 294.277 62.2746C295.806 63.2151 297.084 64.5101 298.003 66.0492C298.921 67.5883 299.454 69.326 299.554 71.1144C299.654 72.9027 299.32 74.6888 298.579 76.3204C297.435 79.5493 295.948 82.6469 294.144 85.56C292.512 87.8358 291.806 90.6434 292.167 93.4176L292.551 96.2215C286.047 99.423 283.222 97.074 283.222 97.074L283.261 89.7057C276.249 88.836 277.25 75.9305 277.269 72.1212H277.281C277.281 71.9778 277.281 71.8345 277.281 71.6911C277.288 70.1684 277.61 68.6635 278.225 67.2697C278.84 65.876 279.736 64.6231 280.856 63.5887C281.977 62.5543 283.299 61.7605 284.74 61.2565C286.181 60.7525 287.71 60.5491 289.233 60.6588" fill="#FCBF8F"/>
<path d="M297.457 80.0208C296.263 81.9093 293.164 67.7595 286.423 67.1039C279.682 66.4483 277.204 76.2134 277.204 76.2134C276.371 72.8779 276.735 69.3568 278.233 66.261C280.769 61.8897 287.326 57.6599 293.965 61.1309C300.605 64.6019 303.167 71.0069 297.457 80.0208Z" fill="#5C3225"/>
<path d="M296.647 61.8992C296.751 60.8934 297.152 59.941 297.799 59.1625C298.446 58.3839 299.31 57.8142 300.281 57.5252C301.253 57.2363 302.289 57.2411 303.258 57.5391C304.227 57.8372 305.085 58.415 305.725 59.1995C306.364 59.9841 306.756 60.9402 306.851 61.9469C306.946 62.9536 306.739 63.9657 306.257 64.8553C305.775 65.7449 305.04 66.472 304.143 66.9447C303.247 67.4174 302.23 67.6144 301.222 67.5109C299.869 67.3716 298.627 66.7021 297.769 65.6498C296.911 64.5974 296.507 63.2483 296.647 61.8992Z" fill="#5C3225"/>
<path d="M295.155 79.4148C295.341 79.0576 295.651 78.7802 296.028 78.6349C296.512 78.3794 297.06 78.2714 297.606 78.3244C298.151 78.3774 298.669 78.5891 299.094 78.9331C300.457 80.3055 297.684 83.9027 294.97 82.0983C294.97 82.0983 294.203 81.3185 295.161 79.4224" fill="#FCBF8F"/>
<path d="M257.104 102.433C256.511 101.545 258.474 95.5964 258.474 95.5964L250.187 100.136L252.749 105.218L257.104 102.433Z" fill="#FCBF8F"/>
<path d="M261.679 93.2992L253.947 87.3262L246.938 98.3012C246.852 98.4543 246.826 98.6336 246.866 98.8046C246.905 98.9755 247.006 99.1258 247.151 99.2263L251.737 102.77C251.87 102.883 252.04 102.943 252.215 102.939C252.39 102.935 252.557 102.867 252.684 102.747L261.679 93.2992Z" fill="#065D66"/>
<path d="M262.164 93.3737L253.755 86.8751C253.751 86.8704 253.745 86.8667 253.739 86.8641C253.733 86.8616 253.726 86.8604 253.72 86.8604C253.713 86.8604 253.707 86.8616 253.701 86.8641C253.695 86.8667 253.689 86.8704 253.684 86.8751L252.87 87.9245C252.865 87.9291 252.861 87.9346 252.859 87.9406C252.856 87.9467 252.855 87.9532 252.855 87.9598C252.855 87.9664 252.856 87.9729 252.859 87.9789C252.861 87.985 252.865 87.9905 252.87 87.9952L261.278 94.4938C261.287 94.5026 261.3 94.5076 261.313 94.5076C261.326 94.5076 261.338 94.5026 261.347 94.4938L262.162 93.4445C262.166 93.4398 262.17 93.4343 262.173 93.4283C262.175 93.4222 262.177 93.4156 262.177 93.4091C262.177 93.4025 262.175 93.396 262.173 93.3899C262.17 93.3839 262.166 93.3783 262.162 93.3737" fill="white"/>
<path d="M262.237 92.2267L254.852 86.5232C254.831 86.5075 254.805 86.5005 254.778 86.5037C254.752 86.5069 254.729 86.5201 254.712 86.5404L253.897 87.5897L261.441 93.4156L262.256 92.3663C262.264 92.356 262.27 92.3442 262.274 92.3316C262.277 92.319 262.278 92.3058 262.276 92.2929C262.275 92.2799 262.271 92.2674 262.264 92.2561C262.258 92.2447 262.247 92.2347 262.237 92.2267Z" fill="white"/>
<path d="M255.49 97.546C255.808 97.1369 255.997 96.643 256.033 96.1267C256.069 95.6105 255.951 95.0952 255.694 94.6459C255.436 94.1966 255.051 93.8335 254.587 93.6025C254.122 93.3715 253.6 93.283 253.085 93.3482C252.57 93.4135 252.086 93.6294 251.694 93.9688C251.303 94.3082 251.021 94.7558 250.884 95.2551C250.747 95.7543 250.762 96.2827 250.927 96.7735C251.091 97.2643 251.398 97.6954 251.808 98.0124C252.081 98.2229 252.392 98.3779 252.725 98.4684C253.057 98.5589 253.404 98.5832 253.746 98.5399C254.088 98.4965 254.418 98.3865 254.717 98.2159C255.016 98.0454 255.279 97.8178 255.49 97.546Z" fill="white"/>
<path d="M252.356 89.7211C252.356 89.7211 254.697 93.2763 254.239 93.6681C253.78 94.0599 251.339 91.7185 251.364 91.7682C251.388 91.8179 253.526 94.6753 253.1 95.3997C252.675 96.1241 249.985 93.3106 249.985 93.3106C249.985 93.3106 252.188 95.8451 251.869 96.3268C251.551 96.8084 249.177 94.6066 249.019 94.7729C248.862 94.9391 251.047 96.6651 250.677 97.2805C250.307 97.896 247.135 95.5718 247.197 94.7614C247.22 94.5311 247.32 94.3151 247.48 94.1478C247.641 93.9805 247.852 93.8715 248.082 93.8382C248.082 93.8382 248.335 92.5002 249.062 92.2976C249.062 92.2976 250.041 90.7017 250.823 90.9903C250.823 90.9903 251.034 89.3656 252.356 89.7154" fill="#FCBF8F"/>
<path d="M181.873 126.348C183.22 124.383 184.698 122.511 186.297 120.744C187.725 119.433 188.131 117.113 189.128 117.627C190.124 118.141 188.601 121.549 188.601 121.549C188.601 121.549 192.405 120.492 193.524 119.991C194.644 119.49 196.875 119.101 197.306 119.888C197.737 120.675 192.192 122.713 192.192 122.713C192.192 122.713 197.032 121.455 197.586 122.099C198.14 122.744 192.219 125.244 192.219 125.244C194.043 124.624 195.919 124.166 197.824 123.875C198.332 124.099 198.067 124.756 196.399 125.758C195.251 126.417 194.034 126.952 192.771 127.352C194.137 127.016 195.519 126.748 196.911 126.551C197.387 126.603 198.004 127.017 195.378 128.239C191.555 129.927 187.421 130.8 183.24 130.8L181.873 126.348Z" fill="#FBAC77"/>
<path d="M177.384 152.828H148.022V155.867H177.384V152.828Z" fill="#DBDBDB"/>
<path d="M179.036 150.98H149.157V152.857H179.036V150.98Z" fill="#192743"/>
<path d="M156.716 112.9H102.083V186.681H156.716V112.9Z" fill="#192743"/>
<path d="M172.092 175.342H102.083V185.975H172.092V175.342Z" fill="#B3B3B3"/>
<path d="M102.084 188.042C102.445 188.042 102.792 187.898 103.048 187.644C103.303 187.389 103.447 187.043 103.447 186.683V102.869C103.447 102.509 103.303 102.163 103.048 101.909C102.792 101.654 102.445 101.51 102.084 101.51H88.0175C87.6561 101.51 87.3095 101.654 87.0539 101.909C86.7984 102.163 86.6548 102.509 86.6548 102.869C86.6548 103.23 86.7984 103.576 87.0539 103.83C87.3095 104.085 87.6561 104.228 88.0175 104.228H100.721V186.681C100.721 187.041 100.865 187.387 101.12 187.642C101.376 187.896 101.723 188.04 102.084 188.04" fill="#DBDBDB"/>
<path d="M201.407 238.016C201.769 238.019 202.117 237.88 202.375 237.627C202.633 237.375 202.78 237.031 202.783 236.67C202.787 236.31 202.647 235.963 202.394 235.705C202.141 235.448 201.796 235.302 201.434 235.298L148.513 234.237L130.669 188.594C130.605 188.426 130.509 188.272 130.385 188.142C130.261 188.011 130.113 187.906 129.949 187.833C129.784 187.76 129.607 187.72 129.426 187.716C129.246 187.711 129.067 187.743 128.899 187.808C128.732 187.873 128.578 187.971 128.449 188.095C128.319 188.22 128.215 188.369 128.144 188.534C128.072 188.699 128.034 188.876 128.031 189.056C128.029 189.235 128.062 189.413 128.129 189.58L146.305 236.066C146.403 236.317 146.573 236.533 146.794 236.687C147.015 236.841 147.277 236.927 147.547 236.932L201.38 238.012H201.409" fill="#DBDBDB"/>
<path d="M169.848 216.154C169.848 216.154 169.698 226.5 169.778 226.649C169.859 226.798 169.021 228.092 169.021 228.092L165.748 228.677L162.762 227.306C162.762 227.306 163.024 217.688 162.712 216.171C162.399 214.653 169.848 216.154 169.848 216.154Z" fill="#FBAC77"/>
<path d="M162.762 227.308C163.922 227.671 165.147 227.782 166.354 227.633C167.56 227.485 168.721 227.08 169.758 226.446C169.758 226.446 182.318 231.14 181.934 234.711C181.934 234.711 182.469 235.773 177.028 235.544C171.586 235.315 163.128 235.072 162.902 234.948C162.676 234.824 161.61 235.395 162.762 227.302" fill="#192743"/>
<path d="M189.306 216.154C189.306 216.154 189.156 226.5 189.237 226.649C189.317 226.798 188.47 228.092 188.47 228.092L185.198 228.677L182.212 227.306C182.212 227.306 182.475 217.688 182.162 216.171C181.85 214.653 189.296 216.154 189.296 216.154" fill="#FBAC77"/>
<path d="M182.222 227.308C183.382 227.671 184.607 227.782 185.814 227.633C187.02 227.485 188.181 227.08 189.218 226.446C189.218 226.446 201.778 231.14 201.394 234.711C201.394 234.711 201.929 235.773 196.488 235.544C191.046 235.315 182.588 235.072 182.362 234.948C182.136 234.824 181.07 235.395 182.222 227.302" fill="#192743"/>
<path d="M62.6216 211.136C62.6216 189.708 79.5074 172.275 100.261 172.275C121.015 172.275 137.901 189.708 137.901 211.136C137.901 232.565 121.015 249.998 100.261 249.998C79.5074 249.998 62.6216 232.565 62.6216 211.136ZM66.7118 211.136C66.7118 230.317 81.7614 245.923 100.253 245.923C118.745 245.923 133.795 230.319 133.795 211.136C133.795 191.954 118.744 176.35 100.253 176.35C81.7633 176.35 66.7118 191.954 66.7118 211.136Z" fill="#DBDBDB"/>
<path d="M70.6602 211.136C70.6602 194.278 83.9388 180.554 100.261 180.554C116.584 180.554 129.862 194.268 129.862 211.136C129.862 228.004 116.584 241.718 100.261 241.718C83.9388 241.718 70.6602 228.004 70.6602 211.136ZM73.3857 211.136C73.3857 226.494 85.4415 238.99 100.261 238.99C115.081 238.99 127.137 226.496 127.137 211.136C127.137 195.777 115.081 183.282 100.261 183.282C85.4415 183.282 73.3857 195.777 73.3857 211.136Z" fill="white"/>
<path d="M95.2858 211.136C95.1433 210.126 95.3136 209.096 95.7738 208.185C96.2341 207.274 96.9623 206.525 97.8612 206.037C98.7601 205.55 99.7867 205.348 100.804 205.458C101.821 205.569 102.78 205.986 103.553 206.655C104.326 207.323 104.875 208.212 105.128 209.2C105.381 210.189 105.325 211.231 104.968 212.187C104.611 213.143 103.97 213.968 103.13 214.55C102.29 215.133 101.292 215.447 100.269 215.448C99.0361 215.53 97.8204 215.123 96.887 214.316C95.9536 213.508 95.3781 212.365 95.2858 211.136Z" fill="#100259"/>
<path d="M135.827 210.683H64.6665V211.589H135.827V210.683Z" fill="#192743"/>
<path d="M100.716 174.314H99.8071V247.76H100.716V174.314Z" fill="#192743"/>
<path d="M126.213 185.966L74.2847 236.332L74.9181 236.981L126.847 186.616L126.213 185.966Z" fill="#192743"/>
<path d="M74.3102 185.962L73.6768 186.612L125.601 236.984L126.235 236.334L74.3102 185.962Z" fill="#192743"/>
<path d="M116.798 157.662C116.798 157.662 113.923 169.91 125.015 175.881C136.107 181.852 147.994 182.112 151.124 188.978C154.254 195.844 160.304 220.607 160.304 220.607H173.033L170.294 181.923L180.336 220.607H191.395C191.395 220.607 193.601 179.064 181.499 169.908C169.397 160.753 151.536 155.424 148.747 152.555C146.278 150.013 116.798 157.662 116.798 157.662Z" fill="#065D66"/>
<path d="M170.292 182.15H170.332C170.363 182.146 170.391 182.136 170.417 182.12C170.443 182.104 170.466 182.083 170.484 182.059C170.502 182.034 170.515 182.006 170.521 181.977C170.528 181.947 170.529 181.916 170.524 181.887C169.853 179.25 168.57 176.807 166.779 174.755C163.904 171.223 158.252 166.443 147.639 163.725C147.609 163.715 147.578 163.711 147.547 163.714C147.516 163.717 147.485 163.726 147.458 163.741C147.431 163.756 147.407 163.777 147.387 163.801C147.368 163.826 147.354 163.854 147.347 163.884C147.339 163.914 147.337 163.946 147.342 163.977C147.347 164.008 147.358 164.037 147.375 164.063C147.392 164.09 147.414 164.112 147.44 164.129C147.466 164.147 147.495 164.159 147.526 164.164C158.018 166.854 163.595 171.563 166.426 175.042C168.16 177.04 169.409 179.41 170.077 181.967C170.086 182.02 170.113 182.068 170.154 182.103C170.196 182.138 170.248 182.158 170.302 182.158" fill="#080435"/>
<path d="M152.251 154.673C141.482 161.048 128.897 163.681 116.467 162.16L117.682 147.911C117.682 147.911 100.719 149.787 99.8109 142.717C99.0768 137 104.051 106.21 115.175 102.867C126.299 99.5245 142.654 100.828 150.505 106.048C158.356 111.268 161.484 122.052 165.409 124.015C169.334 125.978 182.805 124.338 182.805 124.338L185.68 133.377C185.68 133.377 158.944 143.935 152.105 136.597L152.251 154.673Z" fill="#FFCF2E"/>
<path d="M131.445 149.789H102.083V152.828H131.445V149.789Z" fill="#DBDBDB"/>
<path d="M135.79 143.929L136.398 144.139C138.271 144.789 143.873 146.754 144.448 147.197C145.151 147.723 141.224 151.901 141.224 151.901C141.224 151.901 134.309 150.145 132.578 148.006C130.847 145.867 135.789 143.937 135.789 143.937" fill="#FBAC77"/>
<path d="M140.321 151.645C140.321 151.645 143.58 154.543 144.028 154.275C144.477 154.007 141.776 151.062 141.776 151.062L140.321 151.645Z" fill="#FBAC77"/>
<path d="M141.736 150.757C141.736 150.757 146.627 154.816 147.294 154.176C147.961 153.536 142.378 149.589 142.378 149.589L141.736 150.757Z" fill="#FBAC77"/>
<path d="M142.909 149.633C142.909 149.633 148.136 153.251 148.745 152.555C149.355 151.859 143.445 148.417 143.445 148.417L142.909 149.633Z" fill="#FBAC77"/>
<path d="M143.66 148.268C143.66 148.268 148.519 151.725 149.111 151.022C149.703 150.319 144.197 147.052 144.197 147.052L143.66 148.268Z" fill="#FBAC77"/>
<path d="M137.034 144.497L131.69 141.936V147.605L133.851 148.751L137.034 144.497Z" fill="#FBAC77"/>
<path d="M133.381 147.912H103.502V149.789H133.381V147.912Z" fill="#192743"/>
<path d="M131.566 141.935H131.817V140.215L113.358 135.246L117.841 122.415L117.603 122.333L113.032 135.42L131.566 140.404V141.935Z" fill="#080435"/>
<path d="M168.067 12.3627H168.058C168.081 12.2366 168.104 12.1123 168.123 11.9804C168.939 6.36295 164.383 2.99705 158.614 2.54214C153.807 2.15987 149.824 3.55325 148.696 8.22652C148.291 9.88152 148.324 11.6127 148.789 13.2515C149.364 15.6694 149.88 17.7413 150.489 19.4902C151.498 22.382 149.723 25.2242 148.778 28.1448L148.038 30.4384C150.953 33.5138 155.592 34.07 158.48 34.07C159.176 34.0702 159.844 33.799 160.342 33.3143C160.84 32.8296 161.128 32.1699 161.144 31.4763L161.223 28.3856C161.319 27.8256 159.895 26.9808 160.456 27.0247H160.466C168.006 27.6192 167.569 15.7114 168.058 12.357" fill="#FCBF8F"/>
<path d="M161.15 30.169L161.395 27.0401C163.764 27.1809 166.142 27.0132 168.468 26.5412C170.4 25.8206 173.259 9.57026 173.259 9.57026C169.062 11.4988 162.118 8.6853 162.118 8.6853L159.569 15.1839L158.357 15.031C158.313 14.4114 158.171 13.8026 157.938 13.2267C157.889 13.1123 157.834 13.0007 157.773 12.8922C157.712 12.7845 157.644 12.681 157.569 12.5826C157.495 12.4848 157.413 12.394 157.322 12.3112C157.276 12.271 157.23 12.2309 157.182 12.1965C156.927 12.0021 156.618 11.8925 156.297 11.883C155.864 11.8806 155.437 11.9843 155.053 12.185C154.588 12.3751 154.203 12.7191 153.962 13.1591C153.722 13.5991 153.641 14.1083 153.732 14.601C153.742 14.6793 153.751 14.7596 153.767 14.8361C153.838 15.2052 153.948 15.5659 154.095 15.9122C154.133 16.0077 154.173 16.1033 154.217 16.195C154.261 16.2868 154.282 16.3346 154.317 16.4015C154.351 16.4684 154.409 16.5811 154.457 16.6671C154.505 16.7532 154.566 16.8678 154.618 16.9558C154.784 17.2432 154.967 17.5208 155.166 17.7872C153.542 20.0917 151.698 22.2335 149.659 24.1826L149.209 27.0401L150.698 27.1853L160.128 28.1085L161.15 30.169Z" fill="#FCBF8F"/>
<path d="M154.609 16.9479C154.555 16.8562 154.501 16.7599 154.448 16.6593C154.402 16.5733 154.354 16.4854 154.308 16.3936C154.262 16.3019 154.243 16.2579 154.208 16.1872C154.174 16.1165 154.126 15.996 154.085 15.9043C153.939 15.5574 153.829 15.1961 153.758 14.8263C153.742 14.7479 153.733 14.6676 153.723 14.5912C153.631 14.0985 153.713 13.5893 153.953 13.1493C154.194 12.7093 154.579 12.3653 155.044 12.1752C155.428 11.975 155.855 11.8713 156.288 11.8732C156.608 11.8845 156.917 11.994 157.173 12.1867C157.221 12.223 157.267 12.2612 157.313 12.3033C157.403 12.3867 157.486 12.4775 157.56 12.5747C157.635 12.6732 157.703 12.7767 157.763 12.8844C157.825 12.9927 157.88 13.1044 157.928 13.2188C158.162 13.7948 158.303 14.4036 158.348 15.0232L159.559 15.1761L162.109 8.67745C162.109 8.67745 169.055 11.4929 173.25 9.56241C177.212 7.62429 174.578 -0.126268 169.67 0.470076C164.761 1.06642 163.076 2.67578 161.045 1.94182C159.013 1.20786 151.72 -3.25898 147.691 4.48393C143.663 12.2268 146.417 22.703 149.648 24.1709C151.688 22.222 153.533 20.0801 155.157 17.7755C154.958 17.509 154.775 17.2314 154.609 16.9441V16.9479Z" fill="#DD7222"/>
<path d="M139.417 93.7636C139.279 92.8628 139.095 91.9696 138.865 91.0877C138.811 91.0647 138.786 91.0284 138.817 90.9711L138.721 90.692C138.541 90.7242 138.357 90.73 138.175 90.7092C137.136 90.6369 136.093 90.6497 135.056 90.7475C133.909 90.8771 132.789 91.1854 131.737 91.6611C130.271 92.3305 128.725 92.8078 127.137 93.0812C126.692 93.2239 126.21 93.1965 125.785 93.0043C125.36 92.812 125.022 92.4688 124.837 92.0415C124.775 91.9517 124.724 91.8503 124.67 91.7586C123.962 90.3794 123.45 88.9089 123.148 87.3892C122.84 86.112 122.604 84.8185 122.441 83.5149C122.301 82.4502 122.182 81.3818 122.073 80.3134C122.013 79.7399 122.151 79.5488 122.686 79.2927C122.935 79.1788 123.197 79.0947 123.466 79.0423C124.312 78.8963 125.165 78.7955 126.021 78.7403C127.583 78.5817 129.153 78.5492 130.719 78.4288C132.16 78.3424 133.594 78.1681 135.014 77.9069C135.792 77.784 136.538 77.5121 137.213 77.1061H137.249C137.224 77.0296 137.26 77.001 137.331 76.9972C137.572 76.8454 137.766 76.6305 137.893 76.376C137.996 76.2067 138.117 76.0496 138.255 75.9077C138.278 75.8102 138.38 75.8217 138.447 75.7758L138.46 75.7567L138.512 75.6114C138.507 75.6039 138.503 75.5953 138.501 75.5863C138.5 75.5773 138.5 75.568 138.502 75.559C138.504 75.5501 138.508 75.5416 138.513 75.5342C138.518 75.5268 138.525 75.5205 138.533 75.5158C138.529 75.5044 138.528 75.4923 138.529 75.4802C138.53 75.4681 138.534 75.4565 138.54 75.4461C138.546 75.4356 138.555 75.4267 138.565 75.4199C138.575 75.4132 138.586 75.4087 138.598 75.4069C138.626 75.3022 138.681 75.207 138.759 75.1317C138.759 75.0667 138.773 75.0132 138.849 75.0036C138.88 74.9367 138.838 74.8412 138.926 74.7972C139.186 74.3205 139.282 73.772 139.2 73.2356C139.141 72.6907 138.998 72.1582 138.777 71.6568C138.275 70.827 137.598 70.1165 136.793 69.5753C136.006 68.9729 135.019 68.6902 134.031 68.784L132.733 69.0459V69.0612C132.557 69.2019 132.34 69.2811 132.114 69.2867C131.413 69.5199 130.773 69.8945 130.094 70.1793C129.334 70.5506 128.552 70.8743 127.752 71.1484C127.384 71.3132 126.992 71.4196 126.59 71.4638L126.385 71.502L125.741 71.632C125.46 71.7432 125.154 71.7762 124.856 71.7275L124.733 71.7161L124.423 71.8021L121.944 72.2933C120.497 72.6535 119.206 73.4732 118.266 74.629C117.239 75.9967 116.556 77.5901 116.273 79.2755C115.858 81.3512 115.688 83.4679 115.765 85.5829C115.765 85.5982 115.786 85.6155 115.784 85.6308C115.778 85.6639 115.769 85.6965 115.757 85.7282C115.775 85.9385 115.792 86.1487 115.811 86.357C115.836 86.4093 115.85 86.4663 115.852 86.5243C115.854 86.5823 115.843 86.6399 115.821 86.6935L115.93 87.458C115.93 87.4714 115.957 87.4848 115.957 87.4962C115.95 87.5262 115.941 87.5557 115.93 87.5842C115.95 87.6861 115.971 87.788 115.991 87.89C116.003 87.89 116.028 87.9091 116.026 87.9129C116.017 87.9386 116.006 87.9635 115.993 87.9875C116.122 88.9388 116.315 89.8806 116.568 90.8067C116.687 90.8774 116.67 90.9978 116.664 91.103C116.664 91.1412 116.664 91.1775 116.664 91.2158L116.856 91.9497C116.898 91.9909 116.931 92.0407 116.952 92.0958C116.973 92.151 116.982 92.21 116.978 92.2689L117.17 92.8557C117.198 92.8675 117.22 92.8889 117.234 92.9159C117.247 92.9428 117.25 92.9737 117.243 93.0029C117.772 94.3377 118.419 95.6228 119.177 96.8428C119.21 96.8463 119.242 96.854 119.273 96.8657C119.337 96.801 119.396 96.732 119.451 96.6593C120.357 95.0858 120.856 93.3123 120.904 91.4986C120.914 91.399 120.89 91.2989 120.835 91.215C120.78 91.1311 120.698 91.0686 120.603 91.038C120.164 90.8468 119.783 90.5435 119.499 90.1588C119.09 89.5834 118.81 88.9273 118.678 88.2349C118.546 87.5424 118.564 86.8297 118.732 86.1449C118.827 85.6933 119.07 85.286 119.422 84.9866C119.491 84.9063 119.578 84.8431 119.676 84.8021C119.774 84.7612 119.88 84.7435 119.986 84.7505C120.091 84.7576 120.194 84.7891 120.286 84.8427C120.377 84.8963 120.455 84.9705 120.513 85.0593C120.655 85.2487 120.778 85.4517 120.881 85.6651C121.281 86.5036 121.602 87.3778 121.839 88.2761C122.253 89.5969 122.494 90.9635 122.855 92.3014C123.196 93.5686 123.363 94.876 123.725 96.1413C123.949 96.9288 124.108 97.7335 124.327 98.5248C124.407 98.9853 124.636 99.4067 124.98 99.7242C125.324 100.042 125.763 100.237 126.23 100.281C127.646 100.445 129.077 100.424 130.487 100.22C130.832 100.178 131.171 100.083 131.518 100.063C132.303 100 133.079 99.8587 133.835 99.641C134.874 99.3677 135.919 99.1078 136.933 98.7465L137.145 98.6892C137.289 98.5592 137.473 98.4822 137.667 98.4713C138.035 98.3302 138.355 98.0892 138.593 97.7756C139.19 96.9387 139.51 95.936 139.507 94.9085C139.532 94.6524 139.405 94.3809 139.426 94.1095C139.401 94.0555 139.387 93.9964 139.387 93.9366C139.387 93.8767 139.401 93.8176 139.426 93.7636H139.417Z" fill="#5C3225"/>
<path d="M133.835 99.6487C133.079 99.8667 132.303 100.008 131.518 100.071C131.173 100.09 130.832 100.186 130.487 100.228C129.077 100.432 127.646 100.453 126.23 100.289C125.764 100.245 125.324 100.049 124.98 99.7319C124.636 99.4144 124.407 98.9929 124.327 98.5324C124.112 97.7411 123.944 96.9346 123.725 96.149C123.363 94.8818 123.196 93.5763 122.855 92.3091C122.494 90.9711 122.253 89.6045 121.839 88.2837C121.602 87.3854 121.282 86.5112 120.881 85.6728C120.779 85.4609 120.657 85.2593 120.517 85.0708C120.386 84.9172 120.199 84.8215 119.998 84.8043C119.796 84.7871 119.596 84.8499 119.441 84.9791C119.079 85.2791 118.829 85.6927 118.732 86.1526C118.565 86.8374 118.546 87.5501 118.679 88.2425C118.811 88.9349 119.091 89.591 119.499 90.1665C119.783 90.5508 120.164 90.854 120.603 91.0457C120.698 91.0763 120.78 91.1388 120.835 91.2227C120.89 91.3066 120.914 91.4067 120.904 91.5063C120.856 93.32 120.357 95.0935 119.451 96.667C119.396 96.7398 119.337 96.8088 119.273 96.8734C119.272 96.9073 119.266 96.9408 119.255 96.9728C119.453 97.594 119.581 98.235 119.639 98.8842C119.798 100.123 121.364 102.313 121.506 103.556C123.027 104.792 124.702 105.828 126.489 106.639C127.437 107.183 128.505 107.483 129.599 107.513C130.692 107.543 131.776 107.302 132.752 106.811C133.729 106.319 134.567 105.593 135.193 104.699C135.818 103.804 136.211 102.768 136.335 101.684C136.459 101.034 135.53 99.3467 135.484 99.2149C135.455 99.19 134.861 99.383 133.822 99.6564" fill="#FBAC77"/>
<path d="M137.222 77.1006C136.548 77.5065 135.802 77.7784 135.024 77.9014C133.604 78.1626 132.17 78.3368 130.729 78.4232C129.163 78.5455 127.593 78.5761 126.031 78.7348C125.175 78.7906 124.322 78.8914 123.476 79.0368C123.207 79.0892 122.945 79.1733 122.696 79.2872C122.161 79.5395 122.023 79.7268 122.083 80.3078C122.192 81.3763 122.311 82.4428 122.451 83.5093C122.613 84.813 122.849 86.1065 123.158 87.3837C123.46 88.9034 123.972 90.3739 124.68 91.753C124.733 91.8486 124.785 91.9442 124.846 92.0359C125.032 92.4633 125.37 92.8065 125.795 92.9988C126.22 93.191 126.702 93.2184 127.146 93.0757C128.735 92.8017 130.281 92.3237 131.746 91.6536C132.798 91.1781 133.919 90.8698 135.066 90.74C136.103 90.6423 137.146 90.6295 138.185 90.7018C138.367 90.7227 138.551 90.7169 138.731 90.6846C138.909 90.3573 138.977 89.981 138.922 89.6123C138.939 88.2771 138.863 86.9423 138.694 85.6176C138.386 82.8414 137.921 80.0848 137.303 77.3605C137.284 77.2706 137.253 77.1846 137.228 77.0986L137.222 77.1006Z" fill="#FBAC77"/>
<path d="M121.95 72.2932L124.428 71.802C124.409 71.779 124.39 71.7561 124.371 71.7332C123.782 71.8421 123.192 71.9396 122.606 72.0619C122.369 72.0742 122.142 72.1546 121.95 72.2932Z" fill="#B67843"/>
<path d="M132.733 69.0442L134.031 68.7823C133.581 68.7156 133.122 68.8083 132.733 69.0442Z" fill="#F2C095"/>
<path d="M126.596 71.4636C126.997 71.4193 127.389 71.3129 127.758 71.1482C127.353 71.1746 126.958 71.2819 126.596 71.4636Z" fill="#F2C095"/>
<path d="M124.861 71.7272C125.16 71.7759 125.466 71.7429 125.747 71.6316C125.747 71.6087 125.733 71.5877 125.726 71.5667L124.861 71.7272Z" fill="#B67843"/>
<path d="M125.724 71.5668L125.745 71.6318L126.389 71.5018C126.155 71.3967 125.943 71.5152 125.724 71.5668Z" fill="#F2C095"/>
<path d="M132.12 69.2945C132.345 69.2889 132.563 69.2096 132.739 69.0689C132.512 69.0663 132.292 69.1466 132.12 69.2945Z" fill="#B67843"/>
<path d="M115.828 86.6972C115.85 86.6437 115.861 86.586 115.859 86.528C115.857 86.47 115.844 86.4131 115.818 86.3608C115.79 86.4128 115.776 86.4712 115.778 86.5303C115.78 86.5893 115.797 86.6469 115.828 86.6972Z" fill="#E4E5E5"/>
<path d="M124.371 71.7333C124.388 71.7575 124.408 71.7805 124.428 71.8021L124.739 71.7161C124.612 71.6263 124.491 71.6836 124.371 71.7333Z" fill="#E4E5E5"/>
<path d="M116.675 91.1029C116.675 90.992 116.696 90.8774 116.578 90.8066C116.578 90.9035 116.583 90.9997 116.595 91.0953C116.621 91.1003 116.647 91.1003 116.673 91.0953L116.675 91.1029Z" fill="#B67843"/>
<path d="M116.991 92.2669C116.995 92.2081 116.986 92.1491 116.965 92.094C116.944 92.039 116.911 91.9891 116.869 91.9478C116.859 92.007 116.865 92.0679 116.887 92.124C116.908 92.1801 116.944 92.2294 116.991 92.2669Z" fill="#E4E5E5"/>
<path d="M138.926 74.7952C138.836 74.841 138.88 74.9347 138.85 75.0016C138.949 74.9595 138.947 74.8812 138.926 74.7952Z" fill="#E4E5E5"/>
<path d="M138.448 75.7776C138.389 75.8235 138.288 75.812 138.257 75.9095C138.343 75.9095 138.42 75.8789 138.448 75.7776Z" fill="#E4E5E5"/>
<path d="M115.765 85.73C115.776 85.6981 115.785 85.6656 115.792 85.6325C115.792 85.6173 115.778 85.6 115.773 85.5847C115.76 85.6163 115.75 85.6489 115.742 85.6822C115.742 85.6975 115.757 85.7128 115.765 85.73Z" fill="#E4E5E5"/>
<path d="M117.256 93.0009C117.264 92.9718 117.26 92.9409 117.247 92.9139C117.234 92.8869 117.211 92.8656 117.184 92.8538C117.177 92.8829 117.181 92.9133 117.194 92.94C117.207 92.9668 117.229 92.9882 117.256 93.0009Z" fill="#E4E5E5"/>
<path d="M137.341 76.999C137.27 76.999 137.234 77.0315 137.259 77.1079L137.341 76.999Z" fill="#E4E5E5"/>
<path d="M138.514 75.6189L138.462 75.7641C138.488 75.7514 138.507 75.7291 138.517 75.702C138.527 75.6749 138.525 75.6451 138.514 75.6189Z" fill="#E4E5E5"/>
<path d="M116.672 91.1028C116.646 91.1082 116.619 91.1082 116.593 91.1028C116.59 91.1286 116.596 91.1549 116.61 91.1769C116.624 91.1989 116.645 91.2153 116.67 91.2232C116.67 91.1849 116.67 91.1487 116.67 91.1104L116.672 91.1028Z" fill="#E4E5E5"/>
<path d="M138.598 75.4067C138.586 75.4086 138.575 75.413 138.565 75.4197C138.555 75.4265 138.546 75.4355 138.54 75.4459C138.534 75.4563 138.53 75.4679 138.529 75.48C138.528 75.4921 138.529 75.5042 138.533 75.5156L138.598 75.4067Z" fill="#E4E5E5"/>
<path d="M138.849 75.0037C138.773 75.0132 138.758 75.0667 138.759 75.1317L138.849 75.0037Z" fill="#E4E5E5"/>
<path d="M116 87.9857C116.013 87.9623 116.024 87.938 116.033 87.9131C116.033 87.9131 116.01 87.8978 115.999 87.8901C115.991 87.8959 115.986 87.9032 115.982 87.9114C115.978 87.9197 115.976 87.9287 115.976 87.9379C115.976 87.9471 115.978 87.9562 115.982 87.9644C115.986 87.9727 115.991 87.98 115.999 87.9857H116Z" fill="#B67843"/>
<path d="M115.935 87.5842C115.947 87.5557 115.956 87.5263 115.962 87.4963C115.962 87.4848 115.945 87.4714 115.935 87.458C115.921 87.4868 115.911 87.5169 115.903 87.5478C115.903 87.5574 115.924 87.5727 115.933 87.5861" fill="#A5D0CC"/>
</g>
</svg>
