<svg viewBox="0 0 361 250" fill="none" xmlns="http://www.w3.org/2000/svg">
<path d="M139.078 116.243C139.078 116.243 142.272 58.967 58 52.4211C58 52.4211 69.5615 132.798 139.078 116.243Z" fill="#80D6A3"/>
<path d="M160.644 125.714C160.644 125.714 191.991 47.4681 86.7266 0C86.7266 0 63.3675 117.11 160.64 125.71" fill="#66B881"/>
<path d="M148.796 107.009L134.402 81.2854C134.551 81.2175 134.672 81.1012 134.746 80.9554C134.759 80.9272 134.771 80.898 134.781 80.8682L143.761 53.4139C143.788 53.3405 143.799 53.2621 143.793 53.184C143.788 53.1059 143.765 53.03 143.727 52.9615C143.689 52.8929 143.637 52.8333 143.574 52.7866C143.512 52.74 143.439 52.7074 143.363 52.6911C143.196 52.6618 143.024 52.6937 142.879 52.7809C142.734 52.8681 142.626 53.0047 142.573 53.1657L133.756 80.1331L122.377 59.8029L130.997 33.4492C131.024 33.3757 131.035 33.2973 131.029 33.2193C131.023 33.1412 131.001 33.0653 130.963 32.9967C130.925 32.9282 130.873 32.8685 130.81 32.8219C130.747 32.7752 130.675 32.7427 130.599 32.7264C130.432 32.6974 130.26 32.7293 130.115 32.8165C129.97 32.9037 129.862 33.0401 129.809 33.201L121.573 58.3751L111.189 39.8218C111.189 39.8109 111.205 39.8013 111.212 39.7891C111.229 39.7548 111.242 39.7192 111.253 39.6827C111.253 39.6745 111.253 39.6663 111.253 39.6581C111.253 39.65 111.264 39.6336 111.265 39.62L114.921 20.0289C114.938 19.9523 114.938 19.873 114.921 19.7964C114.904 19.7198 114.871 19.6479 114.823 19.5856C114.776 19.5234 114.715 19.4723 114.645 19.436C114.576 19.3998 114.499 19.3792 114.421 19.3756C114.252 19.3688 114.086 19.4221 113.953 19.5259C113.819 19.6298 113.727 19.7775 113.693 19.943L110.283 38.2167L98.7422 17.596C98.6995 17.5281 98.6434 17.4695 98.5773 17.4239C98.5113 17.3783 98.4367 17.3466 98.358 17.3307C98.2793 17.3147 98.1983 17.3149 98.1197 17.3312C98.0411 17.3475 97.9666 17.3796 97.9008 17.4255C97.7555 17.5052 97.6462 17.6375 97.5954 17.7953C97.5447 17.9531 97.5564 18.1243 97.6281 18.2738L109.037 38.6585L89.6285 35.2493C89.4611 35.2258 89.2907 35.2632 89.1484 35.3545C89.0061 35.4458 88.9011 35.585 88.8526 35.747C88.8281 35.8213 88.8199 35.8999 88.8285 35.9776C88.8371 36.0553 88.8623 36.1303 88.9024 36.1974C88.9425 36.2645 88.9965 36.3223 89.0609 36.3667C89.1252 36.4111 89.1984 36.4411 89.2753 36.4548L109.824 40.0659L121.017 60.0634L121.002 60.1111L93.2915 56.5886C93.123 56.5717 92.9541 56.6157 92.8154 56.7129C92.6768 56.81 92.5776 56.9537 92.536 57.1177C92.5159 57.1929 92.5121 57.2715 92.525 57.3483C92.5378 57.425 92.5668 57.4981 92.6102 57.5627C92.6536 57.6273 92.7104 57.6819 92.7766 57.7227C92.8428 57.7636 92.917 57.7898 92.9942 57.7996L121.267 61.3943C121.3 61.3971 121.334 61.3971 121.368 61.3943C121.399 61.3965 121.43 61.3965 121.462 61.3943C121.504 61.3847 121.546 61.371 121.586 61.3534C121.614 61.3446 121.641 61.3342 121.668 61.3221L121.706 61.2975L133.732 82.7842C133.672 82.7502 133.607 82.7275 133.539 82.7173L105.27 79.1035C105.102 79.0865 104.933 79.1306 104.794 79.2277C104.656 79.3249 104.556 79.4685 104.515 79.6326C104.495 79.7078 104.491 79.7864 104.504 79.8632C104.517 79.9399 104.546 80.013 104.589 80.0776C104.632 80.1422 104.689 80.1967 104.755 80.2376C104.822 80.2785 104.896 80.3047 104.973 80.3145L133.245 83.9092C133.39 83.9236 133.535 83.8933 133.661 83.8226C133.788 83.7519 133.89 83.6441 133.953 83.5137C133.975 83.4702 133.991 83.4245 134.002 83.3774C134.008 83.3321 134.008 83.2863 134.002 83.241L147.679 107.676C147.722 107.744 147.778 107.802 147.844 107.848C147.91 107.894 147.985 107.925 148.063 107.941C148.142 107.957 148.223 107.957 148.302 107.941C148.38 107.924 148.455 107.892 148.52 107.846C148.638 107.775 148.732 107.672 148.793 107.549C148.837 107.465 148.86 107.371 148.86 107.276C148.86 107.181 148.837 107.088 148.793 107.004" fill="#418B5A"/>
<path d="M303.309 64.104C303.298 63.7234 303.216 63.3483 303.067 62.998V62.9912C302.64 62.0357 301.873 61.2728 300.915 60.8502C300.715 60.7588 300.507 60.6831 300.295 60.6238C300.22 60.602 300.143 60.5829 300.067 60.5652L296.665 59.8369L292.999 62.8276C294.458 63.023 295.902 63.3164 297.321 63.7058C298.047 63.9974 298.666 64.5069 299.092 65.1642C299.517 65.8215 299.729 66.5945 299.698 67.3769L299.081 77.8775C298.167 78.8828 297.359 79.9795 296.67 81.1504C296.68 81.1504 294.44 159.456 294.44 159.456C294.42 159.811 293.138 162.379 293.469 162.117L296.879 158.484C297.568 157.786 297.992 156.87 298.08 155.893L303.254 65.2181C303.279 64.7354 303.316 64.3358 303.31 64.1272C303.311 64.1213 303.311 64.1153 303.31 64.1095" fill="#D6D6D6"/>
<path d="M298.741 60.2666L159.469 30.4463H159.46L159.252 30.4026C158.842 30.2949 158.418 30.2489 157.994 30.2663C157.829 30.2751 157.666 30.2951 157.504 30.3263C157.058 30.4097 156.638 30.5965 156.277 30.8717L154.065 32.6268C154.749 32.9219 155.452 33.1693 156.17 33.3673L295.659 63.2326L298.741 60.2666Z" fill="#D6D6D6"/>
<path d="M297.36 62.0911L156.84 32.0049C156.451 31.8715 156.037 31.8271 155.629 31.8748C155.22 31.9224 154.827 32.0611 154.479 32.2804C154.131 32.4998 153.837 32.7943 153.617 33.1423C153.398 33.4904 153.259 33.8832 153.212 34.2918L148.76 110.114C148.76 110.197 148.76 110.282 148.76 110.365L147.701 127.581C147.603 129.253 149.288 130.892 151.195 131.299L291.712 161.392C292.101 161.526 292.515 161.571 292.924 161.523C293.332 161.476 293.725 161.337 294.073 161.118C294.422 160.898 294.716 160.604 294.935 160.255C295.155 159.907 295.293 159.514 295.34 159.106L300.143 74.4831C300.149 74.3832 300.149 74.283 300.143 74.1831L300.633 65.8563C300.599 64.9493 300.256 64.0811 299.661 63.3961C299.066 62.7111 298.254 62.2505 297.36 62.0911Z" fill="#BBBBBC"/>
<path d="M293.751 162.178L288.857 165.951L287.522 164.004L149.263 132.055C146.912 131.86 144.571 132.532 142.681 133.944L87.8855 176.565L87.8146 175.781L79.4332 181.6L78.1704 181.485L78.6463 184.881C78.8482 185.597 79.4455 184.731 80.0101 184.862L223.67 219.378C225.892 219.639 228.128 219.026 229.905 217.669L291.529 169.572C292.393 168.93 292.974 167.977 293.147 166.914L293.751 162.178Z" fill="#BBBBBC"/>
<path d="M149.264 132.055C146.912 131.86 144.571 132.532 142.681 133.944L87.8857 176.565L87.8148 175.781L79.4334 181.6L78.1079 180.43L78.3452 184.592C78.3561 185.274 78.9111 185.533 79.4757 185.662L223.672 219.379C224.495 219.53 225.34 219.512 226.155 219.324L222.296 184.657C223.25 183.907 149.264 132.052 149.264 132.052" fill="#BBBBBC"/>
<path d="M223.184 214.824L79.3125 181.577C77.6474 181.192 77.7238 179.754 79.4816 178.379L143.7 129.167C145.583 127.853 147.897 127.308 150.168 127.643L292.631 160.563C294.296 160.948 294.22 162.387 292.462 163.761L229.409 213.021C227.644 214.401 225.414 215.046 223.184 214.82" fill="#E2E2E2"/>
<g opacity="0.2">
<mask id="mask0_1330_22606" style="mask-type:luminance" maskUnits="userSpaceOnUse" x="117" y="134" width="160" height="57">
<path d="M276.576 134.859H117.677V190.118H276.576V134.859Z" fill="white"/>
</mask>
<g mask="url(#mask0_1330_22606)">
<path d="M158.989 141.326C158.71 141.487 158.381 141.538 158.066 141.469L149.51 139.542C149.201 139.472 149.113 139.295 149.314 139.146L154.861 135.029C155.14 134.868 155.47 134.817 155.785 134.886L164.34 136.813C164.649 136.883 164.737 137.06 164.536 137.209L158.989 141.326Z" fill="#192743"/>
<path d="M169.082 150.989C168.803 151.152 168.472 151.204 168.156 151.134L159.6 149.207C159.292 149.137 159.206 148.96 159.408 148.81L164.958 144.691C165.236 144.534 165.563 144.485 165.875 144.555L174.431 146.482C174.743 146.553 174.827 146.73 174.631 146.876L169.082 150.989Z" fill="#192743"/>
<path d="M164.23 157.288C163.951 157.447 163.623 157.495 163.31 157.424L154.752 155.497C154.448 155.429 154.354 155.252 154.555 155.103L160.105 150.985C160.384 150.828 160.711 150.78 161.024 150.848L169.581 152.775C169.888 152.845 169.977 153.022 169.78 153.168L164.23 157.288Z" fill="#192743"/>
<path d="M150.819 161.66C150.541 161.82 150.214 161.871 149.9 161.803L141.343 159.876C141.037 159.808 140.95 159.629 141.148 159.482L146.697 155.365C146.975 155.205 147.303 155.153 147.617 155.221L156.175 157.147C156.481 157.217 156.566 157.396 156.367 157.543L150.819 161.66Z" fill="#192743"/>
<path d="M127.461 164.723C127.181 164.882 126.852 164.93 126.539 164.859L117.983 162.932C117.673 162.863 117.585 162.685 117.785 162.537L124.299 157.702C124.579 157.545 124.908 157.496 125.221 157.566L133.777 159.493C134.085 159.563 134.17 159.743 133.974 159.887L127.461 164.723Z" fill="#192743"/>
<path d="M142.213 168.046C141.873 168.209 141.486 168.246 141.122 168.15L129.912 165.626C129.511 165.536 129.342 165.341 129.543 165.192L136.058 160.358C136.399 160.197 136.785 160.16 137.149 160.254L148.359 162.778C148.768 162.87 148.928 163.067 148.731 163.212L142.213 168.046Z" fill="#192743"/>
<path d="M215.866 184.679C215.6 184.816 215.294 184.85 215.005 184.778L206.455 182.852C206.142 182.781 206.024 182.624 206.191 182.5L208.6 180.712C208.868 180.577 209.176 180.542 209.467 180.615L218.018 182.541C218.326 182.611 218.44 182.769 218.275 182.892L215.866 184.679Z" fill="#192743"/>
<path d="M227.296 187.394C227.031 187.531 226.725 187.566 226.436 187.493L217.885 185.567C217.573 185.496 217.454 185.339 217.621 185.215L220.03 183.427C220.298 183.292 220.606 183.257 220.898 183.331L229.448 185.256C229.756 185.326 229.871 185.484 229.706 185.605L227.296 187.394Z" fill="#192743"/>
<path d="M239.414 189.995C239.151 190.126 238.849 190.158 238.563 190.085L230.01 188.16C229.703 188.09 229.577 187.936 229.738 187.817L232.056 186.095C232.321 185.965 232.623 185.934 232.91 186.006L241.463 187.932C241.771 188.001 241.891 188.155 241.735 188.273L239.414 189.995Z" fill="#192743"/>
<path d="M231.865 184.078C231.601 184.209 231.299 184.241 231.014 184.168L222.461 182.243C222.154 182.173 222.029 182.019 222.188 181.9L224.506 180.178C224.771 180.048 225.074 180.017 225.36 180.089L233.913 182.015C234.221 182.084 234.341 182.238 234.186 182.357L231.865 184.078Z" fill="#192743"/>
<path d="M201.071 181.295C200.79 181.454 200.46 181.502 200.145 181.431L144.465 168.892C144.161 168.824 144.067 168.645 144.267 168.496L150.782 163.662C151.062 163.505 151.391 163.456 151.705 163.525L207.384 176.065C207.693 176.134 207.781 176.316 207.586 176.46L201.071 181.295Z" fill="#192743"/>
<path d="M140.662 166.677C140.633 166.686 140.602 166.686 140.574 166.677L134.028 165.204C133.992 165.196 133.972 165.182 133.984 165.173L134.393 164.873C134.422 164.864 134.453 164.864 134.482 164.873L141.028 166.346C141.064 166.354 141.084 166.369 141.071 166.377L140.662 166.677Z" fill="#192743"/>
<path d="M123.879 162.305C123.864 162.315 123.846 162.319 123.829 162.316L121.052 161.69C121.037 161.69 121.035 161.676 121.052 161.667L121.461 161.367C121.476 161.357 121.494 161.353 121.512 161.356L124.288 161.982C124.303 161.982 124.306 161.995 124.288 162.005L123.879 162.305Z" fill="#192743"/>
<path d="M162.549 164.297C162.269 164.456 161.94 164.505 161.626 164.434L153.07 162.507C152.766 162.439 152.673 162.259 152.872 162.111L158.421 157.994C158.701 157.834 159.03 157.783 159.345 157.85L167.901 159.777C168.212 159.846 168.297 160.025 168.098 160.174L162.549 164.297Z" fill="#192743"/>
<path d="M174.33 166.942C174.052 167.101 173.724 167.152 173.411 167.085L164.855 165.158C164.548 165.088 164.458 164.91 164.656 164.762L170.205 160.645C170.485 160.485 170.814 160.434 171.129 160.502L179.684 162.429C179.988 162.497 180.075 162.677 179.876 162.825L174.33 166.942Z" fill="#192743"/>
<path d="M186.111 169.601C185.833 169.761 185.505 169.812 185.192 169.744L176.634 167.817C176.329 167.749 176.242 167.57 176.439 167.423L181.988 163.306C182.267 163.145 182.595 163.094 182.909 163.161L191.466 165.088C191.772 165.156 191.857 165.336 191.658 165.484L186.111 169.601Z" fill="#192743"/>
<path d="M197.893 172.256C197.615 172.416 197.288 172.467 196.974 172.399L188.417 170.472C188.107 170.403 188.02 170.224 188.219 170.077L193.768 165.96C194.048 165.799 194.377 165.748 194.693 165.817L203.25 167.743C203.557 167.813 203.643 167.992 203.443 168.139L197.893 172.256Z" fill="#192743"/>
<path d="M209.677 174.908C209.396 175.067 209.066 175.115 208.752 175.045L200.198 173.118C199.893 173.048 199.806 172.871 200.003 172.724L205.552 168.607C205.831 168.446 206.159 168.395 206.473 168.462L215.026 170.388C215.336 170.457 215.424 170.637 215.226 170.784L209.677 174.908Z" fill="#192743"/>
<path d="M221.46 177.558C221.18 177.716 220.851 177.765 220.538 177.694L211.983 175.767C211.675 175.698 211.586 175.519 211.786 175.372L217.335 171.255C217.614 171.094 217.944 171.043 218.259 171.112L226.814 173.039C227.12 173.108 227.208 173.287 227.009 173.434L221.46 177.558Z" fill="#192743"/>
<path d="M247.996 183.534C247.717 183.692 247.388 183.741 247.074 183.67L223.763 178.42C223.455 178.35 223.368 178.172 223.567 178.026L229.116 173.909C229.395 173.748 229.724 173.696 230.039 173.764L253.35 179.015C253.658 179.084 253.744 179.263 253.545 179.41L247.996 183.534Z" fill="#192743"/>
<path d="M175.954 159.924C175.676 160.083 175.349 160.132 175.037 160.06L166.48 158.133C166.173 158.064 166.083 157.889 166.284 157.739L171.834 153.621C172.113 153.463 172.44 153.415 172.752 153.485L181.309 155.412C181.619 155.481 181.701 155.658 181.504 155.804L175.954 159.924Z" fill="#192743"/>
<path d="M187.738 162.578C187.46 162.736 187.133 162.785 186.82 162.714L178.26 160.787C177.956 160.719 177.866 160.543 178.067 160.394L183.617 156.276C183.895 156.119 184.221 156.07 184.532 156.14L193.092 158.068C193.397 158.136 193.486 158.315 193.29 158.461L187.738 162.578Z" fill="#192743"/>
<path d="M199.521 165.232C199.241 165.39 198.913 165.439 198.6 165.368L190.044 163.441C189.741 163.373 189.643 163.196 189.845 163.047L195.395 158.929C195.676 158.772 196.004 158.723 196.317 158.792L204.873 160.719C205.179 160.787 205.269 160.966 205.072 161.112L199.521 165.232Z" fill="#192743"/>
<path d="M211.296 167.884C211.017 168.043 210.689 168.091 210.377 168.02L201.826 166.1C201.518 166.031 201.428 165.855 201.628 165.706L207.179 161.588C207.458 161.43 207.785 161.381 208.098 161.451L216.652 163.373C216.959 163.442 217.047 163.62 216.85 163.766L211.296 167.884Z" fill="#192743"/>
<path d="M223.088 170.534C222.809 170.692 222.481 170.74 222.169 170.67L213.609 168.742C213.3 168.672 213.212 168.498 213.414 168.348L218.964 164.229C219.242 164.071 219.568 164.023 219.88 164.093L228.44 166.021C228.746 166.089 228.834 166.268 228.638 166.414L223.088 170.534Z" fill="#192743"/>
<path d="M234.868 173.186C234.59 173.345 234.262 173.393 233.95 173.322L225.397 171.397C225.086 171.327 224.994 171.151 225.196 171.003L230.747 166.884C231.026 166.726 231.355 166.677 231.668 166.748L240.222 168.673C240.528 168.743 240.614 168.92 240.418 169.066L234.868 173.186Z" fill="#192743"/>
<path d="M246.646 175.84C246.368 175.998 246.041 176.047 245.729 175.976L237.175 174.055C236.87 173.987 236.781 173.811 236.983 173.662L242.533 169.544C242.81 169.387 243.136 169.338 243.447 169.407L252.007 171.336C252.313 171.404 252.4 171.582 252.203 171.728L246.646 175.84Z" fill="#192743"/>
<path d="M180.809 153.625C180.53 153.787 180.2 153.839 179.884 153.77L171.328 151.843C171.024 151.775 170.937 151.597 171.139 151.447L176.688 147.329C176.965 147.172 177.291 147.123 177.603 147.192L186.159 149.119C186.468 149.189 186.554 149.366 186.358 149.514L180.809 153.625Z" fill="#192743"/>
<path d="M192.587 156.279C192.309 156.441 191.98 156.493 191.665 156.425L183.109 154.498C182.801 154.428 182.712 154.251 182.916 154.101L188.466 149.983C188.745 149.825 189.072 149.776 189.385 149.846L197.941 151.773C198.245 151.841 198.334 152.02 198.136 152.166L192.587 156.279Z" fill="#192743"/>
<path d="M204.37 158.931C204.09 159.094 203.76 159.146 203.444 159.076L194.889 157.149C194.584 157.081 194.496 156.903 194.698 156.753L200.247 152.635C200.525 152.477 200.852 152.429 201.164 152.499L209.718 154.425C210.028 154.495 210.115 154.672 209.919 154.82L204.37 158.931Z" fill="#192743"/>
<path d="M216.149 161.583C215.871 161.746 215.543 161.798 215.228 161.729L206.671 159.803C206.363 159.733 206.274 159.556 206.478 159.406L212.027 155.287C212.305 155.129 212.633 155.081 212.946 155.151L221.503 157.078C221.812 157.147 221.896 157.325 221.698 157.471L216.149 161.583Z" fill="#192743"/>
<path d="M227.935 164.235C227.657 164.396 227.329 164.448 227.015 164.381L218.458 162.45C218.149 162.38 218.063 162.203 218.266 162.053L223.815 157.934C224.093 157.776 224.42 157.728 224.733 157.798L233.291 159.722C233.594 159.79 233.681 159.969 233.485 160.115L227.935 164.235Z" fill="#192743"/>
<path d="M239.718 166.887C239.438 167.05 239.107 167.101 238.791 167.032L230.235 165.105C229.932 165.037 229.841 164.859 230.044 164.708L235.593 160.589C235.871 160.432 236.198 160.384 236.511 160.453L245.067 162.38C245.377 162.45 245.465 162.628 245.268 162.774L239.718 166.887Z" fill="#192743"/>
<path d="M251.494 169.541C251.216 169.703 250.887 169.755 250.572 169.687L242.015 167.76C241.707 167.69 241.619 167.513 241.823 167.363L247.373 163.245C247.651 163.087 247.978 163.038 248.291 163.108L256.848 165.035C257.154 165.105 257.241 165.282 257.044 165.428L251.494 169.541Z" fill="#192743"/>
<path d="M157.301 148.337C157.022 148.499 156.692 148.55 156.376 148.481L141.869 145.208C141.561 145.139 141.472 144.961 141.674 144.811L147.223 140.693C147.502 140.535 147.831 140.486 148.144 140.557L162.651 143.829C162.959 143.899 163.046 144.078 162.85 144.224L157.301 148.337Z" fill="#192743"/>
<path d="M270.92 166.523C270.642 166.684 270.313 166.735 269.998 166.666L255.49 163.393C255.187 163.325 255.096 163.146 255.295 162.998L260.842 158.882C261.121 158.721 261.45 158.67 261.764 158.737L276.273 162.01C276.581 162.08 276.67 162.256 276.468 162.406L270.92 166.523Z" fill="#192743"/>
<path d="M152.449 154.634C152.17 154.794 151.842 154.842 151.528 154.771L134.23 150.881C133.92 150.812 133.83 150.636 134.031 150.487L139.581 146.369C139.86 146.211 140.187 146.162 140.5 146.232L157.796 150.127C158.107 150.197 158.192 150.374 157.995 150.52L152.449 154.634Z" fill="#192743"/>
<path d="M139.041 159.008C138.761 159.166 138.433 159.214 138.119 159.144L126.588 156.553C126.279 156.483 126.192 156.305 126.39 156.157L131.939 152.04C132.218 151.879 132.547 151.828 132.862 151.896L144.394 154.487C144.702 154.556 144.789 154.735 144.59 154.882L139.041 159.008Z" fill="#192743"/>
<path d="M170.768 143.978C170.488 144.14 170.158 144.191 169.843 144.121L161.293 142.196C160.984 142.126 160.896 141.949 161.096 141.8L166.644 137.683C166.923 137.522 167.252 137.471 167.567 137.54L176.117 139.466C176.43 139.537 176.516 139.712 176.315 139.862L170.768 143.978Z" fill="#192743"/>
<path d="M182.498 146.615C182.219 146.776 181.89 146.827 181.575 146.759L173.019 144.832C172.714 144.762 172.624 144.585 172.823 144.436L178.364 140.319C178.643 140.158 178.972 140.107 179.287 140.176L187.843 142.103C188.151 142.173 188.241 142.35 188.039 142.498L182.498 146.615Z" fill="#192743"/>
<path d="M194.274 149.264C193.997 149.426 193.669 149.477 193.355 149.408L184.799 147.481C184.494 147.412 184.405 147.235 184.606 147.086L190.153 142.969C190.431 142.808 190.759 142.756 191.074 142.824L199.63 144.751C199.939 144.821 200.024 144.997 199.822 145.147L194.274 149.264Z" fill="#192743"/>
<path d="M206.059 151.922C205.78 152.083 205.451 152.134 205.136 152.065L196.584 150.139C196.275 150.07 196.188 149.892 196.388 149.744L201.936 145.627C202.215 145.465 202.545 145.414 202.86 145.484L211.412 147.409C211.72 147.479 211.81 147.656 211.608 147.805L206.059 151.922Z" fill="#192743"/>
<path d="M217.836 154.574C217.559 154.736 217.231 154.788 216.917 154.719L208.363 152.792C208.053 152.722 207.966 152.545 208.166 152.396L213.714 148.281C213.993 148.119 214.322 148.068 214.637 148.137L223.192 150.064C223.501 150.134 223.584 150.31 223.384 150.46L217.836 154.574Z" fill="#192743"/>
<path d="M229.625 157.224C229.347 157.385 229.019 157.436 228.705 157.368L220.145 155.44C219.839 155.372 219.752 155.195 219.953 155.046L225.5 150.929C225.778 150.768 226.106 150.716 226.419 150.784L234.979 152.713C235.283 152.781 235.373 152.958 235.172 153.108L229.625 157.224Z" fill="#192743"/>
<path d="M241.407 159.878C241.128 160.039 240.798 160.09 240.483 160.021L231.928 158.094C231.618 158.024 231.529 157.846 231.728 157.698L237.276 153.581C237.556 153.42 237.885 153.369 238.201 153.438L246.756 155.365C247.065 155.435 247.153 155.612 246.951 155.761L241.407 159.878Z" fill="#192743"/>
<path d="M253.184 162.53C252.907 162.691 252.579 162.743 252.266 162.674L243.703 160.746C243.399 160.678 243.312 160.501 243.512 160.352L249.06 156.236C249.337 156.075 249.664 156.024 249.978 156.092L258.54 158.02C258.846 158.088 258.932 158.266 258.731 158.414L253.184 162.53Z" fill="#192743"/>
<path d="M260.073 165.754C259.909 165.719 259.739 165.716 259.574 165.744C259.427 165.763 259.287 165.815 259.165 165.897L253.616 170.015C253.523 170.085 253.479 170.165 253.519 170.243C253.553 170.289 253.596 170.328 253.645 170.356C253.694 170.385 253.749 170.404 253.805 170.411L256.039 170.914L248.762 176.314C248.668 176.384 248.626 176.466 248.671 176.542C248.705 176.589 248.748 176.627 248.798 176.656C248.848 176.685 248.903 176.703 248.96 176.708L254.724 178.007C254.89 178.041 255.06 178.045 255.226 178.018C255.377 178.001 255.521 177.948 255.648 177.865L268.839 168.076C268.932 168.007 268.968 167.927 268.927 167.85C268.894 167.803 268.85 167.764 268.8 167.735C268.75 167.706 268.695 167.688 268.637 167.682L260.073 165.754Z" fill="#192743"/>
<path d="M137.474 157.115C137.445 157.124 137.414 157.124 137.386 157.115L130.84 155.642C130.804 155.634 130.784 155.62 130.796 155.611L131.205 155.311C131.234 155.301 131.265 155.301 131.294 155.311L137.84 156.783C137.876 156.792 137.896 156.806 137.883 156.815L137.474 157.115Z" fill="#192743"/>
</g>
</g>
<g opacity="0.2">
<mask id="mask1_1330_22606" style="mask-type:luminance" maskUnits="userSpaceOnUse" x="140" y="177" width="48" height="18">
<path d="M187.105 177.213H140.841V194.693H187.105V177.213Z" fill="white"/>
</mask>
<g mask="url(#mask1_1330_22606)">
<path d="M172.474 194.672L141.108 187.8C140.746 187.721 140.746 187.436 141.108 187.169L154.146 177.574C154.529 177.301 154.999 177.179 155.467 177.232L186.832 184.103C187.195 184.183 187.195 184.466 186.832 184.735L173.795 194.33C173.412 194.603 172.941 194.725 172.474 194.672Z" fill="#192743"/>
</g>
</g>
<path d="M293.498 68.7898L160.345 39.98C158.538 39.5887 156.992 40.411 156.89 41.8183L156.238 50.7697C156.209 50.8792 156.19 50.991 156.181 51.1038L152.188 115.276C152.085 116.682 154.214 119.317 156.022 119.707L287.809 149.708C289.616 150.1 291.163 149.277 291.264 147.87L291.875 136.165C291.904 136.055 291.924 135.943 291.933 135.83L296.584 72.0395C296.517 71.227 296.174 70.4616 295.613 69.87C295.052 69.2784 294.306 68.8959 293.498 68.7857" fill="#F1F9F4"/>
<path d="M233.027 139.47C231.059 147.072 226.881 153.92 221.02 159.148C215.16 164.376 207.881 167.748 200.104 168.839C192.327 169.93 184.402 168.69 177.329 165.277C170.257 161.863 164.356 156.429 160.372 149.661C156.388 142.894 154.5 135.097 154.947 127.256C155.395 119.416 158.157 111.885 162.885 105.614C167.612 99.3436 174.093 94.6158 181.508 92.0287C188.923 89.4417 196.938 89.1114 204.541 91.0797C214.735 93.7191 223.463 100.3 228.806 109.375C234.148 118.45 235.666 129.275 233.027 139.47Z" fill="#D2EDDB"/>
<path d="M231.701 115.396C230.065 114.687 213.26 107.635 207.812 116.04C202.095 124.859 194.407 121.152 194.592 131.844C194.778 142.535 201.002 150.325 210.983 151.537C222.46 152.931 196.969 163.902 204.881 167.874C226.019 162.52 240.202 139.088 231.703 115.396" fill="#66B881"/>
<path d="M181.978 91.8637C181.978 91.8637 199.005 95.2266 198.117 101.516C197.229 107.805 193.25 105.685 186.775 107.769C180.3 109.852 178.559 106.419 174.023 110.96C169.487 115.501 159.929 110.12 159.929 110.12C159.929 110.12 165.549 97.3744 181.979 91.8623" fill="#418B5A"/>
<path d="M155.114 126.848C155.114 126.848 168.136 127.394 170.388 137.251C172.639 147.108 177.099 144.478 178.995 149.092C179.209 149.785 179.245 150.52 179.1 151.231C178.955 151.941 178.633 152.603 178.165 153.157C177.328 154.371 176.224 155.376 174.938 156.096C173.651 156.816 172.217 157.232 170.745 157.311C169.273 157.39 167.802 157.13 166.446 156.552C165.09 155.974 163.885 155.092 162.923 153.975C158.752 149.167 154.505 140.794 155.111 126.844" fill="#418B5A"/>
<g style="mix-blend-mode:multiply" opacity="0.68">
<mask id="mask2_1330_22606" style="mask-type:luminance" maskUnits="userSpaceOnUse" x="166" y="101" width="69" height="69">
<path d="M234.297 101.324H166.635V169.224H234.297V101.324Z" fill="white"/>
</mask>
<g mask="url(#mask2_1330_22606)">
<path d="M222.785 157.474C219.114 161.176 214.749 164.12 209.94 166.136C205.131 168.151 199.973 169.2 194.758 169.223C189.544 169.245 184.377 168.24 179.551 166.265C174.725 164.29 170.335 161.384 166.633 157.712C207.896 165.622 229.327 131.22 222.545 101.322C226.248 104.993 229.191 109.357 231.207 114.166C233.223 118.975 234.272 124.133 234.294 129.348C234.316 134.562 233.311 139.729 231.336 144.555C229.361 149.38 226.455 153.77 222.784 157.472" fill="#66B881"/>
</g>
</g>
<path d="M186.976 187.91C186.074 188.914 183.21 199.141 183.21 199.141L186.347 202.665C186.347 202.665 188.988 200.392 188.848 200.219C188.708 200.046 196.388 188.394 196.388 188.394L186.976 187.91Z" fill="#C48051"/>
<path d="M215.885 204.414C215.885 204.414 219.446 219.946 211.839 225.861C205.916 230.465 194.557 223.462 194.557 223.462L193.939 214.805L195.424 204.032L215.885 204.414Z" fill="#F15E46"/>
<path d="M198.799 176.92C200.058 176.625 201.333 176.406 202.618 176.264C203.834 176.262 205.049 176.332 206.257 176.474L210.955 178.672C216.41 180.523 219.664 184.446 217.193 189.036C217.193 189.036 217.141 196.96 216.83 200.372C216.557 203.321 216.114 207.97 216.557 208.948C217.134 210.215 210.058 217.695 198.747 215.694C189.84 214.119 191.083 210.484 191.57 205.603C191.877 202.534 194.254 194.444 194.359 192.004C194.464 189.564 192.708 187.624 194.249 183.787C195.203 181.423 193.685 180.873 194.148 179.763C194.812 178.744 195.75 177.933 196.855 177.423L198.799 176.92Z" fill="#30B3AF"/>
<path d="M218.095 187.287C218.095 187.287 217.975 204.534 213.307 208.808C208.639 213.081 195.949 200.879 195.949 200.879L196.676 198.997L208.724 202.026L211.959 187.161L218.095 187.287Z" fill="#C48051"/>
<path d="M217.548 183.777C217.548 183.777 219.926 190.322 220.898 194.465C221.871 198.608 211.967 202.442 209.688 195.736C207.41 189.031 210.743 184.909 210.743 184.909L217.548 183.777Z" fill="#30B3AF"/>
<path d="M183.217 199.166L188.738 196.688L191.087 198.798L189.117 202.464C188.729 203.126 188.117 203.627 187.392 203.877C186.666 204.127 185.875 204.11 185.162 203.827C183.497 203.136 182.78 199.96 183.223 199.166" fill="#C48051"/>
<path d="M192.961 197.512C193.102 197.927 193.074 198.381 192.883 198.775C192.691 199.169 192.352 199.472 191.938 199.618L188.938 199.345C188.169 199.481 188.694 199.305 188.488 198.276C188.282 197.246 187.525 197.243 188.924 196.646L191.106 196.331C191.393 196.286 191.684 196.293 191.968 196.35C192.501 196.465 192.803 196.707 192.965 197.517" fill="#C48051"/>
<path d="M199.521 186.961C198.478 189.968 196.598 192.614 194.101 194.588C192 195.406 184.98 189.27 185.344 188.933C191.137 181.11 192.375 178.641 196.575 177.54L199.521 186.961Z" fill="#30B3AF"/>
<path d="M172.026 244.707L176.253 240.049C177.06 239.558 177.994 239.316 178.938 239.355C179.432 239.366 179.439 239.006 179.499 239.439L180.351 241.121C180.555 241.393 180.702 241.702 180.785 242.032C180.868 242.362 180.885 242.704 180.834 243.04C180.783 243.376 180.666 243.699 180.49 243.989C180.313 244.28 180.081 244.532 179.806 244.732L175.333 247.323C174.415 247.896 172.105 247.323 171.265 246.989L171.027 246.892C170.187 246.552 171.1 245.546 172.028 244.71" fill="#192743"/>
<path d="M179.552 239.861C179.545 241.287 176.155 241.77 176.162 240.346L176.185 235.709L179.574 235.224L179.552 239.861Z" fill="#C48051"/>
<path d="M198.053 209.313C198.053 209.313 181.675 198.064 175.036 204.941C171.523 208.581 174.71 237.398 174.71 237.398C175.569 238.09 176.658 238.432 177.758 238.354C178.859 238.276 179.889 237.784 180.641 236.978C180.641 236.978 184.837 221.092 182.852 217.977L190.118 220.949L198.053 209.313Z" fill="#F15E46"/>
<path d="M180.554 247.17L185.005 242.76C185.805 242.338 186.722 242.19 187.614 242.338C188.08 242.407 188.121 242.027 188.136 242.491L188.78 244.355C188.952 244.616 189.068 244.909 189.12 245.217C189.172 245.524 189.159 245.839 189.082 246.142C189.005 246.444 188.865 246.727 188.672 246.972C188.479 247.217 188.237 247.42 187.962 247.566L183.475 249.773C182.194 250.157 180.816 250.051 179.608 249.478L179.392 249.349C178.63 248.895 179.592 247.943 180.553 247.167" fill="#192743"/>
<path d="M188.142 242.928C187.948 244.354 184.624 244.365 184.817 242.938L185.447 238.302L188.772 238.291L188.142 242.928Z" fill="#C48051"/>
<path d="M212.875 214.194C212.875 214.194 193.542 202.796 186.903 209.673C183.389 213.313 183.317 239.925 183.317 239.925C183.317 239.925 186.344 243.3 189.429 240.428C189.429 240.428 196.704 225.825 194.719 222.711L201.985 225.682L212.875 214.194Z" fill="#F15E46"/>
<path d="M194.058 202.228L191.594 201.615C191.16 201.489 190.768 201.248 190.461 200.917C190.153 200.586 189.941 200.178 189.847 199.736L188.797 192.624C188.754 192.451 188.76 192.27 188.814 192.1C188.869 191.93 188.969 191.779 189.104 191.663C189.24 191.547 189.405 191.47 189.581 191.443C189.757 191.415 189.937 191.436 190.102 191.505L192.566 192.117C193 192.243 193.391 192.485 193.699 192.815C194.007 193.146 194.219 193.554 194.313 193.996L195.363 201.108C195.406 201.281 195.4 201.463 195.345 201.632C195.291 201.802 195.19 201.954 195.055 202.07C194.92 202.186 194.755 202.262 194.579 202.29C194.403 202.318 194.222 202.296 194.058 202.228Z" fill="#192743"/>
<path d="M193.44 199.042C193.38 199.329 193.43 199.628 193.579 199.88C193.728 200.132 193.966 200.32 194.246 200.406L196.214 200.943C196.349 200.979 196.49 200.986 196.628 200.964C196.766 200.943 196.898 200.893 197.015 200.818C197.133 200.742 197.234 200.643 197.311 200.527C197.389 200.411 197.441 200.28 197.465 200.142C197.525 199.856 197.476 199.557 197.327 199.304C197.178 199.052 196.94 198.865 196.66 198.779L194.692 198.241C194.557 198.206 194.416 198.199 194.278 198.221C194.14 198.242 194.008 198.292 193.89 198.367C193.773 198.443 193.672 198.541 193.594 198.657C193.517 198.774 193.464 198.904 193.44 199.042Z" fill="#C48051"/>
<path d="M204.213 181.526L203.891 181.545C203.634 181.562 203.377 181.527 203.133 181.443C202.89 181.36 202.666 181.228 202.474 181.057C202.282 180.886 202.126 180.678 202.015 180.446C201.904 180.213 201.84 179.961 201.828 179.704L201.555 173.629C201.536 173.106 201.723 172.595 202.075 172.207C202.427 171.819 202.917 171.584 203.44 171.552L203.761 171.533C204.018 171.517 204.276 171.551 204.519 171.635C204.762 171.719 204.987 171.85 205.179 172.022C205.371 172.193 205.527 172.401 205.637 172.633C205.748 172.865 205.812 173.117 205.825 173.374L206.955 179.16C207.004 180.238 205.302 181.462 204.217 181.526" fill="#C48051"/>
<path d="M205.067 168.623C204.934 168.396 204.75 168.204 204.53 168.06C204.31 167.915 204.06 167.824 203.799 167.792C203.538 167.76 203.273 167.789 203.025 167.876C202.777 167.962 202.552 168.105 202.368 168.293C201.401 168.02 200.347 168.74 199.682 170.304C198.756 172.486 198.554 175.776 199.702 177.274C199.978 177.577 200.32 177.812 200.7 177.963C201.081 178.114 201.491 178.176 201.899 178.146C202.822 177.997 203.68 177.576 204.362 176.937C205.685 175.129 205.589 176.586 206.2 175.136C206.55 174.039 206.63 172.874 206.433 171.74C206.235 170.606 205.767 169.537 205.067 168.623Z" fill="#C48051"/>
<path d="M203.829 169.522C204.723 171.419 205.479 173.379 206.09 175.386C206.09 175.386 209.027 172.794 208.656 171.075C207.418 165.347 204.292 168.893 204.292 168.893L203.829 169.522Z" fill="#4F3629"/>
<path d="M204.734 166.654C205.987 166.79 206.828 167.608 207.389 169.151C207.461 169.348 207.993 170.212 208.028 170.378L207.218 170.251C207.502 171.615 206.708 169.647 205.339 170.075C203.093 169.56 207.952 172.996 205.223 173.133C204.678 173.16 204.194 171.95 203.756 171.53C201.301 169.173 199.496 171.233 199.227 171.144C198.409 170.872 198.758 169.679 199.211 169.228C200.035 168.198 201.134 167.421 202.381 166.989L202.778 166.877C203.409 166.678 204.072 166.601 204.732 166.651" fill="#4F3629"/>
<path d="M160.795 91.5379C159.709 95.7319 157.404 99.5098 154.171 102.394C150.938 105.278 146.922 107.138 142.632 107.74C138.342 108.342 133.969 107.658 130.067 105.774C126.166 103.891 122.91 100.893 120.712 97.1599C118.514 93.4264 117.473 89.125 117.72 84.7997C117.966 80.4743 119.49 76.3193 122.098 72.8599C124.706 69.4005 128.282 66.7922 132.372 65.3647C136.463 63.9373 140.884 63.7549 145.079 64.8405C147.864 65.5614 150.479 66.8238 152.776 68.5556C155.074 70.2875 157.007 72.4548 158.466 74.934C159.926 77.4131 160.883 80.1554 161.282 83.0043C161.682 85.8532 161.516 88.7529 160.795 91.5379Z" fill="#418B5A"/>
<g style="mix-blend-mode:multiply" opacity="0.24">
<mask id="mask3_1330_22606" style="mask-type:luminance" maskUnits="userSpaceOnUse" x="124" y="70" width="38" height="38">
<path d="M161.495 70.4929H124.165V107.954H161.495V70.4929Z" fill="white"/>
</mask>
<g mask="url(#mask3_1330_22606)">
<path d="M155.144 101.473C151.054 105.599 145.492 107.931 139.683 107.957C133.873 107.982 128.291 105.699 124.165 101.609C146.929 105.973 158.754 86.993 155.012 70.4976C159.138 74.5877 161.47 80.1493 161.496 85.959C161.521 91.7688 159.238 97.3507 155.148 101.477" fill="#66B881"/>
</g>
</g>
<path d="M288.719 140.701C287.564 145.164 285.111 149.185 281.671 152.254C278.23 155.323 273.957 157.303 269.392 157.943C264.826 158.584 260.173 157.856 256.021 155.852C251.869 153.848 248.404 150.658 246.066 146.685C243.727 142.712 242.619 138.134 242.881 133.531C243.144 128.929 244.765 124.507 247.541 120.826C250.316 117.145 254.121 114.369 258.474 112.85C262.827 111.332 267.533 111.138 271.996 112.293C277.981 113.843 283.105 117.706 286.241 123.034C289.377 128.361 290.269 134.716 288.719 140.701Z" fill="#66B881"/>
<g style="mix-blend-mode:multiply" opacity="0.13">
<mask id="mask4_1330_22606" style="mask-type:luminance" maskUnits="userSpaceOnUse" x="249" y="118" width="41" height="41">
<path d="M289.464 118.306H249.742V158.169H289.464V118.306Z" fill="white"/>
</mask>
<g mask="url(#mask4_1330_22606)">
<path d="M282.707 151.271C280.552 153.445 277.989 155.172 275.166 156.355C272.343 157.538 269.314 158.154 266.253 158.167C263.192 158.179 260.158 157.589 257.325 156.429C254.492 155.269 251.916 153.563 249.742 151.407C273.966 156.044 286.547 135.854 282.567 118.302C284.74 120.458 286.468 123.02 287.651 125.843C288.834 128.667 289.45 131.695 289.462 134.756C289.475 137.817 288.885 140.851 287.725 143.684C286.565 146.517 284.859 149.094 282.703 151.267" fill="#66B881"/>
</g>
</g>
<path d="M118.922 136.052C119.678 135.563 120.87 135.708 120.99 134.401C120.858 132.725 120.507 131.075 119.945 129.491C118.694 129.308 117.532 128.735 116.625 127.855C116.538 129.265 115.965 130.601 115.004 131.636C114.323 130.818 113.833 131.469 113.718 132.335C113.604 133.201 113.909 134.151 114.973 133.919C114.957 136.017 114.908 138.104 114.864 140.192C114.62 140.192 114.376 140.192 114.132 140.192C114.822 141.412 115.51 142.633 116.196 143.854C117.239 142.344 118.285 140.837 119.333 139.335C118.414 139.366 118.876 136.297 118.916 136.048" fill="#FBAC77"/>
<path d="M114.976 133.917C113.908 134.146 113.605 133.196 113.72 132.33C113.834 131.465 114.331 130.811 115.006 131.632C115.967 130.598 116.539 129.262 116.625 127.852C117.525 128.761 118.719 129.322 119.994 129.434C118.631 127.219 118.722 125.005 114.7 125.992C109.016 127.388 109.076 135.097 109.499 140.353C110.59 140.371 113.088 140.217 113.982 140.2C114.875 140.184 114.283 140.2 114.893 140.192C114.882 138.1 114.973 136.01 114.979 133.919" fill="#192743"/>
<path d="M119.315 139.363C121.174 138.923 121.428 139.716 123.425 138.029C125.423 136.343 129.788 133.456 131.289 130.363C132.789 127.27 133.926 123.408 135.925 120.444C137.297 120.697 138.64 121.239 140.059 121.369C138.539 126.304 138.267 127.157 136.231 132.595C134.195 138.034 127.639 142.517 127.761 150.869C127.882 159.22 129.707 173.686 130.573 183.121C126.974 183.691 123.263 183.213 119.621 183.365C119.439 168.684 119.342 154.01 119.33 139.343C119.355 139.317 119.311 139.367 119.311 139.367" fill="#FFCF2E"/>
<path d="M109.337 140.492C107.12 141.435 105.149 141.654 103.843 145.538C102.536 149.422 99.8469 157.423 100.105 162.337C100.362 167.252 102.356 171.731 103.697 176.279C103.424 178.623 103.105 180.978 102.814 183.326C106.496 183.339 110.178 183.337 113.86 183.352C113.877 168.945 113.964 154.612 114.151 140.173C112.16 140.824 111.56 139.548 109.337 140.489" fill="#FFCF2E"/>
<path d="M113.933 162.185L119.422 162.204C119.368 154.582 119.322 146.961 119.341 139.34C118.292 140.845 117.246 142.351 116.205 143.858C115.521 142.635 114.833 141.415 114.14 140.198C114.059 147.526 113.979 154.856 113.938 162.185" fill="white"/>
<path d="M129.33 183.378C129.955 195.983 130.653 208.582 131.338 221.184L120.68 221.254C119.426 208.041 118.205 194.826 117.019 181.607C116.487 194.798 116.08 207.993 115.592 221.186L104.102 221.27C104.374 208.625 104.511 195.976 104.835 183.333L113.858 183.351C113.858 176.295 113.881 169.24 113.928 162.185L119.417 162.204C119.466 169.256 119.535 176.308 119.626 183.359L129.329 183.378" fill="#065D66"/>
<path d="M105.865 221.258C104.713 223.201 104.85 226.221 104.691 228.349C109.704 228.314 114.69 228.269 119.718 228.239C119.581 226.42 117.882 225.606 116.308 224.865C114.735 224.125 112.869 223.324 112.783 221.245C110.457 221.245 108.172 221.254 105.864 221.257" fill="#192743"/>
<path d="M104.691 228.351C104.691 228.854 104.691 229.358 104.691 229.86L108.187 229.834L108.958 229.075L109.418 229.825L119.709 229.747C119.709 229.244 119.709 228.74 119.709 228.238L104.694 228.352" fill="#DBA900"/>
<path d="M122.713 221.24C121.565 223.185 121.711 226.211 121.556 228.341C126.563 228.309 131.545 228.268 136.567 228.24C136.431 226.42 134.733 225.603 133.158 224.861C131.583 224.119 129.719 223.315 129.629 221.234C127.311 221.234 125.021 221.234 122.712 221.234" fill="#192743"/>
<path d="M121.553 228.341C121.553 228.845 121.553 229.349 121.553 229.852L125.047 229.828L125.816 229.068L126.276 229.82L136.557 229.749C136.557 229.245 136.557 228.741 136.557 228.238L121.556 228.343" fill="#DBA900"/>
<path d="M135.936 120.409C136.228 119.16 136.649 114.889 137.495 114.501C138.34 114.114 137.624 117.471 137.662 117.762C138.815 118.186 140.004 118.416 141.171 118.766C140.851 119.689 140.475 120.592 140.043 121.47C138.68 121.106 137.291 120.808 135.935 120.407" fill="#FBAC77"/>
<path d="M110.358 168.174C110.329 168.256 110.436 168.294 110.372 168.372C108.19 171.026 105.998 173.705 103.818 176.361C103.806 176.378 103.79 176.392 103.771 176.401C103.752 176.41 103.731 176.414 103.71 176.411C103.666 176.411 103.658 176.421 103.62 176.376C103.593 176.352 103.577 176.319 103.575 176.284C103.572 176.248 103.583 176.213 103.606 176.186C104.945 174.499 106.334 172.983 107.65 171.165C107.344 169.078 106.214 163.339 105.933 162.084C105.652 160.829 105.88 161.65 105.89 161.627C106.927 159.121 108.784 153.101 109.217 151.57C109.649 150.038 109.394 151.169 109.469 151.178C109.544 151.188 109.904 150.146 109.478 151.637C108.539 155.001 107.427 158.315 106.147 161.564C106.744 164.837 107.391 167.791 107.899 170.962C108.651 170.04 109.418 169.108 110.162 168.203C110.224 168.125 110.358 168.135 110.361 168.167C110.363 168.2 110.361 168.167 110.361 168.176M129.8 173.831C127.508 171.987 125.22 170.128 122.933 168.3C122.919 168.287 122.903 168.277 122.885 168.27C122.867 168.264 122.848 168.262 122.829 168.263C122.811 168.264 122.792 168.269 122.776 168.278C122.759 168.287 122.744 168.299 122.732 168.314C122.721 168.329 122.712 168.346 122.707 168.364C122.702 168.382 122.701 168.401 122.704 168.42C122.707 168.439 122.714 168.457 122.724 168.473C122.735 168.488 122.748 168.502 122.764 168.512C125.048 170.343 127.348 172.194 129.627 174.042C129.639 174.054 129.653 174.062 129.668 174.068C129.683 174.073 129.7 174.075 129.716 174.074C129.737 174.074 129.757 174.069 129.776 174.06C129.795 174.05 129.811 174.037 129.824 174.021C129.863 173.981 129.824 173.864 129.804 173.839C129.785 173.815 129.804 173.831 129.804 173.831" fill="#192743"/>
<path d="M140.807 119.696C141.14 119.028 142.239 116.962 141.938 116.423C141.637 115.884 140.638 117.856 140.505 117.915C140.651 117.346 141.81 114.634 141.29 114.369C140.771 114.105 140.499 117.193 139.86 117.48C140.012 117.034 141.154 114.255 140.533 114.084C139.913 113.914 139.373 116.811 139.246 117.292C139.337 116.851 140.157 114.008 139.625 113.937C139.093 113.866 138.754 116.689 138.635 117.172C138.71 116.825 139.613 113.851 138.886 113.907C138.159 113.963 137.783 117.069 137.631 117.819C138.676 118.511 139.719 119.124 140.809 119.703" fill="#FBAC77"/>
<path d="M228.081 62.9529C226.926 67.4161 224.473 71.4365 221.032 74.5055C217.592 77.5746 213.319 79.5546 208.753 80.1951C204.188 80.8356 199.535 80.1078 195.383 78.1038C191.231 76.0998 187.766 72.9096 185.427 68.9366C183.089 64.9636 181.98 60.3862 182.243 55.7834C182.506 51.1806 184.127 46.759 186.903 43.0778C189.678 39.3966 193.483 36.6211 197.836 35.1024C202.189 33.5836 206.895 33.3898 211.358 34.5454C217.343 36.095 222.466 39.9584 225.603 45.2858C228.739 50.6132 229.63 56.9682 228.081 62.9529Z" fill="#D2EDDB"/>
<g style="mix-blend-mode:multiply" opacity="0.23">
<mask id="mask5_1330_22606" style="mask-type:luminance" maskUnits="userSpaceOnUse" x="189" y="40" width="40" height="41">
<path d="M228.824 40.5581H189.102V80.4208H228.824V40.5581Z" fill="white"/>
</mask>
<g mask="url(#mask5_1330_22606)">
<path d="M222.067 73.5216C219.912 75.6951 217.349 77.4227 214.526 78.6058C211.703 79.7889 208.674 80.4044 205.613 80.4171C202.552 80.4297 199.518 79.8393 196.685 78.6796C193.852 77.5199 191.276 75.8135 189.102 73.658C213.326 78.2946 225.909 58.1048 221.927 40.5525C224.1 42.708 225.828 45.2706 227.011 48.0938C228.194 50.917 228.809 53.9457 228.822 57.0068C228.835 60.0678 228.244 63.1014 227.085 65.9344C225.925 68.7673 224.219 71.344 222.063 73.5175" fill="#66B881"/>
</g>
</g>
<mask id="mask6_1330_22606" style="mask-type:luminance" maskUnits="userSpaceOnUse" x="181" y="33" width="48" height="48">
<path d="M228.648 33.7056H181.828V80.5177H228.648V33.7056Z" fill="white"/>
</mask>
<g mask="url(#mask6_1330_22606)">
<mask id="mask7_1330_22606" style="mask-type:luminance" maskUnits="userSpaceOnUse" x="181" y="33" width="48" height="48">
<path d="M228.648 33.7056H181.828V80.5177H228.648V33.7056Z" fill="white"/>
</mask>
<g mask="url(#mask7_1330_22606)">
<mask id="mask8_1330_22606" style="mask-type:luminance" maskUnits="userSpaceOnUse" x="181" y="33" width="48" height="48">
<path d="M193.699 77.4673C193.29 77.2327 192.752 76.9218 192.366 76.649C191.751 76.2263 190.947 75.6372 190.363 75.1708C189.497 74.4371 188.675 73.6535 187.9 72.8238C187.385 72.283 186.909 71.706 186.476 71.0974C186.122 70.586 185.64 69.911 185.31 69.3832C185.025 68.9277 184.679 68.299 184.428 67.8245C184.144 67.2858 183.81 66.5453 183.577 65.9835C183.367 65.4775 183.139 64.7834 182.951 64.2693C182.728 63.6301 182.549 62.9762 182.417 62.3123C182.169 61.0852 181.991 59.8449 181.883 58.5976C181.796 57.4532 181.808 56.3035 181.918 55.1611C181.993 54.5501 182.054 53.7264 182.177 53.125C182.293 52.5795 182.425 51.8472 182.564 51.3085C182.723 50.6548 182.918 50.0102 183.148 49.3775C183.347 48.8702 183.592 48.1857 183.814 47.6893C184.06 47.1438 184.415 46.4128 184.705 45.8824C185.319 44.764 186.023 43.6973 186.809 42.6926C187.53 41.8045 188.3 40.9572 189.115 40.1548C189.564 39.732 190.186 39.2002 190.663 38.806C191.035 38.5033 191.548 38.1242 191.946 37.8514C192.482 37.4928 193.212 37.0332 193.767 36.7128C194.12 36.5055 194.603 36.2518 194.974 36.0786C195.345 35.9054 195.818 35.6845 196.185 35.5331C196.49 35.3968 196.906 35.2468 197.217 35.124C197.726 34.9304 198.42 34.7149 198.943 34.5785C201.908 33.7452 205.008 33.5083 208.064 33.8817C209.604 34.0699 211.121 34.4093 212.594 34.8949C213.404 35.1624 214.198 35.4752 214.973 35.8318C215.53 36.08 216.249 36.4659 216.785 36.7591C217.7 37.2977 218.586 37.884 219.439 38.5156C219.956 38.9247 220.632 39.4852 221.12 39.927C221.503 40.2734 221.993 40.7575 222.341 41.1394C222.773 41.6139 223.332 42.263 223.73 42.7676C224.059 43.1767 224.469 43.7618 224.763 44.2022C225.104 44.715 225.524 45.4214 225.821 45.9601C226.081 46.4333 226.385 47.0879 226.619 47.5761C226.881 48.1216 227.164 48.8852 227.363 49.458C227.546 49.9776 227.736 50.6854 227.895 51.2172C228.086 51.8694 228.228 52.5349 228.321 53.2082C228.393 53.7687 228.512 54.5133 228.558 55.0765C228.61 55.6983 228.644 56.5316 228.645 57.1562C228.625 58.4217 228.521 59.6845 228.334 60.9364C228.225 61.6839 228.066 62.4233 227.858 63.1497C227.699 63.6761 227.501 64.3838 227.313 64.902C227.096 65.5311 226.848 66.1488 226.568 66.7526C226.331 67.2367 226.023 67.8886 225.765 68.3604C225.476 68.8827 225.064 69.5659 224.733 70.0623C223.338 72.1566 221.616 74.0135 219.632 75.5622C219.256 75.8554 218.746 76.2345 218.348 76.4977C217.802 76.8536 217.067 77.2995 216.508 77.6241C215.65 78.0942 214.764 78.5122 213.856 78.876C213.35 79.0683 212.671 79.3137 212.152 79.4733C211.634 79.6328 210.976 79.8088 210.466 79.926C207.634 80.5795 204.704 80.697 201.829 80.2724C199.643 79.952 197.513 79.3215 195.504 78.4001C194.946 78.1519 194.221 77.7782 193.692 77.4727" fill="white"/>
</mask>
<g mask="url(#mask8_1330_22606)">
<path d="M203.497 53.8477C202.951 53.4836 202.647 53.2777 201.938 52.8468C202.42 52.7104 202.797 52.6136 203.241 52.5209C203.346 52.9777 203.421 53.3623 203.497 53.8477ZM197.139 53.41C197.302 52.9436 197.449 52.574 197.645 52.1349C198.063 52.2972 198.397 52.4404 198.796 52.6286C198.105 52.9272 197.634 53.1564 197.141 53.4086M206.834 56.4906C206.238 55.9309 205.614 55.4025 204.963 54.9074C204.87 54.0344 204.717 53.1687 204.507 52.3163C208.065 51.9563 208.978 53.5941 206.834 56.4879M193.742 55.5919C192.589 53.0173 193.003 50.8353 196.53 51.7654C196.18 52.5183 195.89 53.2976 195.662 54.0959C195.656 54.1539 195.64 54.2105 195.616 54.2637C195.59 54.3005 195.527 54.3196 195.489 54.3428C194.882 54.7225 194.299 55.1397 193.744 55.5919M200.426 51.9849C199.719 51.6019 198.99 51.26 198.244 50.9608C201.146 46.1346 202.463 50.0062 202.897 51.2772C202.062 51.4614 201.238 51.6977 200.433 51.9849M201.087 47.3783C199.426 47.3483 198.03 49.1061 197.15 50.5844C192.555 49.2657 191.041 52.6559 192.804 56.4484C190.768 58.5662 190.819 59.9231 191.749 59.9258C192.111 59.9258 192.226 59.5835 192.287 59.3994C192.553 58.7198 192.953 58.1007 193.463 57.5789C194.336 58.8553 194.749 57.6975 194.751 57.6852C194.832 57.3675 194.783 57.2952 194.396 56.7306C194.642 56.466 194.924 56.2366 195.233 56.0488C194.921 57.9825 196.085 57.3266 196.096 57.3184C196.196 57.2475 196.196 57.2475 196.655 55.1269C197.814 54.4521 199.028 53.8751 200.283 53.4018C201.461 54.0714 202.597 54.8123 203.685 55.6206C203.727 56.3024 203.412 57.0034 203.8 57.6661C203.851 57.7671 203.927 57.8537 204.02 57.9182C204.113 57.9826 204.221 58.0227 204.333 58.0351C204.446 58.0474 204.56 58.0314 204.665 57.9887C204.77 57.9459 204.862 57.8778 204.934 57.7902C205.108 57.583 205.106 57.5175 205.083 56.7334C205.427 57.0279 205.628 57.2175 205.942 57.5148C204.64 58.7885 206.078 59.0039 206.092 59.0039C206.388 59.0039 206.489 58.9017 206.863 58.5307C207.407 59.1078 207.825 59.7925 208.09 60.5408C208.122 60.7365 208.226 60.9131 208.382 61.0359C208.492 61.1133 208.621 61.1584 208.755 61.1661C208.89 61.1738 209.023 61.1439 209.141 61.0796C209.26 61.0154 209.357 60.9194 209.424 60.8025C209.49 60.6856 209.523 60.5525 209.518 60.4181C209.238 59.2963 208.638 58.2803 207.79 57.4943C210.79 53.5396 209.066 50.4794 204.18 51.0726C204.127 51.0171 204.088 50.9505 204.064 50.8776C203.629 49.6243 202.662 47.5051 201.082 47.396" fill="#418B5A"/>
<path d="M199.628 63.9174C199.501 63.8999 199.382 63.847 199.283 63.7648C199.185 63.6825 199.112 63.5743 199.073 63.4525C199.033 63.3307 199.029 63.2001 199.06 63.0759C199.091 62.9517 199.156 62.8387 199.249 62.75C199.352 62.6826 199.473 62.6465 199.596 62.6461C199.72 62.6457 199.84 62.681 199.944 62.7477C200.048 62.8145 200.13 62.9098 200.181 63.0222C200.232 63.1347 200.249 63.2594 200.231 63.3814C200.221 63.5319 200.152 63.6724 200.039 63.7727C199.926 63.8729 199.779 63.9249 199.628 63.9174ZM199.658 61.1899C199.262 61.1926 198.876 61.3126 198.549 61.5349C198.222 61.7571 197.968 62.0716 197.819 62.4384C197.671 62.8052 197.635 63.2078 197.715 63.5951C197.796 63.9825 197.99 64.3372 198.272 64.6142C198.504 64.9105 198.819 65.1297 199.178 65.2427C199.536 65.3558 199.92 65.3573 200.28 65.2472C200.639 65.1371 200.956 64.9205 201.19 64.626C201.423 64.3316 201.562 63.9732 201.588 63.5982C201.648 63.0236 201.479 62.4484 201.118 61.9975C200.756 61.5466 200.232 61.2565 199.658 61.1899Z" fill="#418B5A"/>
<path d="M192.466 63.4865C192.344 63.4495 192.233 63.3814 192.145 63.2888C192.058 63.1962 191.996 63.0823 191.965 62.9584C191.935 62.8345 191.938 62.7048 191.973 62.5822C192.008 62.4596 192.074 62.3482 192.166 62.2591C192.575 61.9987 193.107 62.5823 192.963 63.1264C192.944 63.2393 192.88 63.3399 192.787 63.4067C192.694 63.4735 192.579 63.5011 192.466 63.4837M207.453 64.5352C207.329 64.5346 207.208 64.4975 207.105 64.4287C207.002 64.36 206.922 64.2624 206.874 64.1483C206.826 64.0341 206.812 63.9084 206.835 63.7867C206.858 63.6651 206.917 63.5528 207.003 63.464C207.089 63.3751 207.2 63.3136 207.32 63.2871C207.441 63.2605 207.568 63.2701 207.683 63.3146C207.799 63.3592 207.898 63.4367 207.97 63.5376C208.042 63.6384 208.083 63.7582 208.087 63.8819C208.086 64.0515 208.019 64.2141 207.901 64.3357C207.783 64.4574 207.622 64.5288 207.453 64.5352ZM207.453 61.8173C207.138 61.8272 206.83 61.9078 206.55 62.0532C206.271 62.1987 206.028 62.4051 205.839 62.6573C205.651 62.9094 205.521 63.2009 205.461 63.5099C205.4 63.819 205.41 64.1376 205.489 64.4424C202.148 63.376 201.086 65.0015 200.786 65.7488C200.097 65.5189 199.36 65.4719 198.647 65.6125C198.289 64.7868 197.628 64.1302 196.799 63.778C195.971 63.4258 195.039 63.4049 194.196 63.7196C194.166 63.651 194.156 63.5755 194.166 63.5014C194.234 63.0101 194.16 62.5098 193.953 62.0589C193.747 61.6081 193.416 61.2253 193 60.9554C192.819 60.8438 192.614 60.7755 192.402 60.7556C192.19 60.7357 191.977 60.7648 191.778 60.8408C191.579 60.9167 191.4 61.0374 191.255 61.1935C191.11 61.3496 191.003 61.5369 190.942 61.7409C190.406 63.1933 191.624 65.2511 193.176 64.8284C193.176 64.9386 193.161 65.0482 193.131 65.1543C192.436 65.5061 191.656 64.8488 190.971 65.3356C190.715 65.5469 190.523 65.8259 190.418 66.1408C190.312 66.4556 190.298 66.7938 190.375 67.1166C190.72 67.1994 191.074 67.2794 191.435 67.3567C191.283 65.8934 193.161 66.4157 193.769 66.908C194.087 67.1505 194.299 67.5068 194.36 67.9022L195.561 68.0494C195.438 67.1896 194.986 66.4111 194.3 65.8784C194.364 64.3606 196.549 64.8474 197.18 65.562C197.331 65.7341 197.439 65.9405 197.492 66.1634C197.263 66.3705 197.087 66.6295 196.979 66.9189C196.871 67.2082 196.834 67.5193 196.872 67.8258C197.292 67.8722 197.716 67.9153 198.145 67.9553C198.13 66.4294 200.481 66.7594 201.169 67.4371C201.381 67.6385 201.508 67.913 201.525 68.2049L202.868 68.2322C202.852 67.8964 202.768 67.5672 202.623 67.264C202.478 66.9608 202.274 66.6895 202.023 66.4662C202.314 65.0874 204.75 65.2634 205.351 66.1389C205.459 66.2949 205.524 66.4763 205.541 66.6653C205.181 66.8606 204.88 67.1496 204.67 67.5017C204.461 67.8539 204.35 68.2561 204.35 68.6658C204.805 68.6713 205.259 68.6713 205.714 68.6658C205.824 67.178 208.407 67.2394 209.01 67.9608C209.155 68.1389 209.23 68.363 209.223 68.5922L210.587 68.4926C210.559 66.5671 208.668 65.9466 206.922 66.1852C206.859 66.0842 206.813 65.973 206.786 65.8566C211.469 65.3875 208.793 62.2823 208.755 62.2509C208.387 61.9601 207.93 61.8063 207.461 61.8159" fill="#418B5A"/>
<path d="M195.747 61.8323C195.619 61.8036 195.502 61.7391 195.409 61.6464C195.316 61.5536 195.252 61.4365 195.223 61.3085C195.195 61.1806 195.203 61.0472 195.248 60.9238C195.292 60.8005 195.371 60.6923 195.474 60.6118C195.904 60.3391 196.442 60.8355 196.322 61.3837C196.301 61.5172 196.23 61.6378 196.124 61.7209C196.017 61.804 195.883 61.8433 195.748 61.831M195.884 59.1035C194.013 58.9767 193.422 61.3387 194.588 62.6315C194.822 62.9133 195.141 63.1131 195.496 63.2018C195.852 63.2904 196.227 63.2634 196.566 63.1246C196.906 62.9859 197.192 62.7425 197.384 62.43C197.576 62.1174 197.663 61.7519 197.633 61.3864C197.666 60.8591 197.507 60.3376 197.185 59.9182C196.864 59.4987 196.402 59.2094 195.884 59.1035Z" fill="#418B5A"/>
<path d="M203.693 62.3928C203.562 62.3858 203.436 62.3395 203.332 62.2601C203.228 62.1807 203.149 62.0718 203.108 61.9474C203.066 61.8231 203.062 61.6891 203.098 61.5628C203.133 61.4365 203.206 61.3237 203.306 61.2391C203.387 61.18 203.481 61.1408 203.58 61.1247C203.679 61.1086 203.78 61.1161 203.876 61.1465C203.971 61.177 204.058 61.2295 204.13 61.2999C204.201 61.3702 204.255 61.4565 204.287 61.5515C204.319 61.6466 204.328 61.7479 204.313 61.8471C204.299 61.9464 204.261 62.0408 204.203 62.1227C204.146 62.2047 204.069 62.2718 203.98 62.3188C203.892 62.3657 203.793 62.391 203.693 62.3928ZM203.719 59.6654C203.301 59.6787 202.896 59.8177 202.557 60.0643C202.219 60.311 201.962 60.6538 201.822 61.0482C201.681 61.4426 201.662 61.8702 201.768 62.2754C201.873 62.6806 202.098 63.0447 202.414 63.3201C202.718 63.594 203.099 63.7673 203.506 63.8161C203.912 63.865 204.324 63.787 204.684 63.5929C205.045 63.3989 205.336 63.0982 205.519 62.732C205.702 62.3658 205.767 61.952 205.706 61.5473C205.658 61.0462 205.43 60.5793 205.065 60.2326C204.7 59.8859 204.222 59.6825 203.719 59.6599" fill="#418B5A"/>
</g>
</g>
</g>
<mask id="mask9_1330_22606" style="mask-type:luminance" maskUnits="userSpaceOnUse" x="118" y="64" width="44" height="44">
<path d="M161.37 64.5037H118.591V107.275H161.37V64.5037Z" fill="white"/>
</mask>
<g mask="url(#mask9_1330_22606)">
<mask id="mask10_1330_22606" style="mask-type:luminance" maskUnits="userSpaceOnUse" x="118" y="64" width="44" height="44">
<path d="M161.37 64.5037H118.591V107.275H161.37V64.5037Z" fill="white"/>
</mask>
<g mask="url(#mask10_1330_22606)">
<mask id="mask11_1330_22606" style="mask-type:luminance" maskUnits="userSpaceOnUse" x="118" y="64" width="44" height="44">
<path d="M129.438 104.484C129.067 104.268 128.574 103.98 128.22 103.738C127.659 103.35 126.923 102.813 126.39 102.386C125.599 101.716 124.848 100.999 124.14 100.241C123.67 99.7468 123.235 99.2195 122.839 98.6634C122.515 98.197 122.075 97.5724 121.774 97.0978C121.514 96.6819 121.197 96.1077 120.968 95.6741C120.709 95.1831 120.404 94.5054 120.191 93.9913C119.999 93.529 119.791 92.9003 119.619 92.4257C119.416 91.8418 119.252 91.2444 119.131 90.6379C118.905 89.5166 118.742 88.3834 118.644 87.2436C118.565 86.1992 118.576 85.1498 118.676 84.1071C118.744 83.548 118.796 82.7966 118.912 82.247C119.018 81.7492 119.138 81.0797 119.266 80.5874C119.412 79.99 119.59 79.4009 119.799 78.8227C119.981 78.359 120.209 77.7318 120.409 77.2804C120.634 76.7758 120.954 76.1144 121.227 75.6302C121.789 74.6085 122.432 73.6339 123.15 72.716C123.809 71.9046 124.512 71.1306 125.257 70.3977C125.666 70.0117 126.235 69.5208 126.671 69.1703C127.012 68.8976 127.48 68.543 127.844 68.2989C128.334 67.9716 128.999 67.5557 129.508 67.2584C129.83 67.0689 130.271 66.837 130.61 66.6788C131.274 66.3496 131.957 66.0583 132.655 65.8061C133.12 65.6302 133.754 65.4351 134.233 65.3015C136.941 64.5405 139.773 64.3246 142.565 64.666C143.595 64.7915 144.32 64.9524 144.327 64.9551C144.759 65.0519 145.335 65.1897 145.763 65.3056C146.048 65.382 146.423 65.5006 146.704 65.5933C147.444 65.8379 148.169 66.1233 148.877 66.4484C149.387 66.6747 150.042 67.028 150.532 67.2966C147.34 65.5045 143.646 64.8184 140.023 65.3451C143.644 64.8147 147.339 65.4964 150.532 67.2843C151.368 67.776 152.177 68.3113 152.957 68.8881C153.429 69.2603 154.048 69.7745 154.492 70.1781C154.841 70.4945 155.29 70.9363 155.608 71.2855C156.002 71.7191 156.513 72.3123 156.877 72.7733C157.177 73.1537 157.552 73.6815 157.821 74.0852C158.132 74.5543 158.517 75.1993 158.788 75.6916C159.027 76.1239 159.305 76.7212 159.518 77.1672C159.756 77.6677 160.015 78.3631 160.199 78.8868C160.366 79.3614 160.539 80.0119 160.685 80.4933C160.859 81.0892 160.989 81.6972 161.074 82.3124C161.139 82.8238 161.248 83.5043 161.29 84.0184C161.337 84.5871 161.369 85.3481 161.371 85.9195C161.352 87.0759 161.257 88.2298 161.086 89.3737C160.986 90.0568 160.841 90.7324 160.651 91.3961C160.356 92.5258 159.963 93.6274 159.475 94.6881C159.258 95.13 158.98 95.7259 158.74 96.1568C158.476 96.6341 158.099 97.2573 157.798 97.7128C156.523 99.6263 154.95 101.323 153.138 102.738C152.794 103.011 152.328 103.353 151.964 103.593C151.47 103.919 150.795 104.327 150.282 104.623C149.498 105.052 148.689 105.433 147.859 105.766C147.397 105.941 146.776 106.165 146.303 106.311C145.83 106.457 145.229 106.617 144.762 106.72C142.175 107.317 139.499 107.424 136.872 107.037C134.874 106.744 132.928 106.168 131.092 105.326C130.582 105.1 129.92 104.759 129.437 104.478" fill="white"/>
</mask>
<g mask="url(#mask11_1330_22606)">
<path d="M138.083 85.6344C138.181 85.1817 138.108 85.0794 137.63 84.4193C136.527 82.8947 136.58 82.8224 136.719 82.6315C137.45 81.6769 137.45 81.6769 137.013 80.0814C138.641 78.9154 138.641 78.9154 139.165 78.5227C139.812 79.2432 140.284 80.1039 140.543 81.0373C138.837 82.2456 138.837 82.2456 138.77 82.401C138.712 82.5408 138.685 82.6917 138.692 82.8431C138.698 82.9944 138.738 83.1424 138.809 83.2765C138.89 83.8358 138.869 84.4053 138.745 84.9566C138.723 85.0016 138.695 85.0589 138.089 85.6385M133.392 85.7653C133.119 84.4344 133.119 84.4344 132.892 84.1493C132.664 83.8643 132.327 83.7048 132.234 83.3311C132.234 83.3311 132.253 82.9547 132.371 82.0615C132.402 81.9164 132.417 81.7681 132.414 81.6196C132.405 80.8014 132.405 79.6995 132.429 78.8772C132.904 78.3295 133.479 77.8777 134.123 77.5462C134.221 78.0549 134.221 78.0549 134.522 79.3695C133.036 80.3132 133.036 80.3132 132.913 80.5246C132.906 80.5368 132.315 81.9319 132.699 82.5101C132.942 82.892 133.071 83.3366 133.347 83.702C133.398 83.7837 133.468 83.8525 133.55 83.9033C133.632 83.9541 133.724 83.9856 133.82 83.9952L133.993 84.0116C134.044 84.2948 134.125 84.5718 134.235 84.838C134.108 84.9157 134.108 84.9157 133.456 85.7749L133.387 85.768M134.227 82.6315C134.15 82.4309 134.056 82.2374 133.946 82.0533C133.732 81.7274 133.732 81.7274 133.841 81.2501C135.477 80.1905 135.477 80.1905 135.627 79.7227C135.709 79.4718 135.709 79.4718 135.17 77.1507C135.551 77.0585 135.944 77.024 136.335 77.0485H136.372C137.042 77.1036 137.687 77.3346 138.24 77.7181C136.113 79.2645 136.113 79.2645 135.99 79.4759C135.769 79.855 135.769 79.855 136.099 81.4028C134.951 82.8688 135.123 83.1197 136.764 85.5171C136.68 85.8867 136.421 87.0172 137.536 87.1181H137.551C139.733 87.1386 140.478 85.0153 140.063 83.0092L140.772 82.506C140.997 87.2408 135.628 90.0924 132.317 86.994C131.494 86.1752 130.949 85.1177 130.76 83.9716C130.571 82.8256 130.747 81.6491 131.265 80.6091C131.282 81.0371 131.272 81.4656 131.236 81.8924C131.056 82.5498 130.998 83.235 131.066 83.9134C131.071 83.9345 131.078 83.955 131.087 83.9748C131.343 84.4009 131.646 84.7966 131.991 85.1544C132.358 85.6344 132.09 86.2645 132.373 86.7649C132.422 86.8667 132.495 86.9545 132.587 87.0198C132.679 87.0852 132.786 87.1261 132.898 87.1386L133.617 87.2081C133.722 87.2171 133.827 87.2012 133.924 87.1616C134.021 87.122 134.108 87.0599 134.176 86.9804C134.468 86.6995 134.525 86.2371 134.906 86.0258C135.286 85.8144 135.27 85.8199 135.357 85.7271L135.402 85.6753C135.49 85.5661 135.555 85.4411 135.596 85.3071C135.58 84.444 135.327 83.6019 134.865 82.8729C134.752 82.7453 134.594 82.6653 134.424 82.6492L134.223 82.6315M136.541 75.813C131.434 75.6193 127.139 82.9888 131.078 87.6036C132.107 88.7986 133.56 89.5459 135.131 89.6873H135.191C141.327 89.9192 144.328 82.7011 140.116 77.804C139.69 77.243 139.153 76.7762 138.538 76.4328C137.923 76.0895 137.243 75.8771 136.542 75.8088" fill="#66B881"/>
<path d="M133.07 94.5285C134.229 94.6417 135.422 94.7276 136.636 94.7835C136.862 94.797 137.087 94.7582 137.296 94.6699C137.504 94.5816 137.689 94.4463 137.836 94.2745C137.983 94.1028 138.089 93.8993 138.144 93.68C138.199 93.4608 138.203 93.2317 138.155 93.0107C140.064 92.0711 140.182 92.0138 141.619 91.2515L141.673 91.2201C142.108 90.9692 142.32 91.4519 142.263 91.6592C142.211 91.8068 142.113 91.9335 141.983 92.0206L141.963 92.0356C136.86 95.854 136.644 95.8281 136.062 95.7653C131.971 95.2867 131.971 95.2867 131.219 95.959C129.68 94.5953 129.482 94.4153 128.458 93.3789C130.01 91.3687 130.865 90.2614 132.16 92.0015C132.283 92.2188 132.454 92.4049 132.66 92.5452C132.866 92.6855 133.102 92.7761 133.349 92.8102C134.412 92.9084 135.501 92.9834 136.607 93.0352C136.654 93.0377 136.698 93.0554 136.734 93.0857C136.769 93.1159 136.793 93.157 136.803 93.2025C136.813 93.2481 136.807 93.2955 136.787 93.3375C136.767 93.3795 136.733 93.4137 136.692 93.4348C136.665 93.4413 136.638 93.4454 136.611 93.4471C135.384 93.3898 134.184 93.3107 133.017 93.1893C132.284 93.1893 132.291 93.9489 132.608 94.2885C132.728 94.4217 132.893 94.5065 133.071 94.5271M141.889 89.7118C141.583 89.7206 141.285 89.808 141.023 89.9655L140.971 89.9969C139.089 90.9747 138.936 91.0551 137.395 91.8106C137.112 91.8433 136.88 91.647 136.607 91.6306C135.499 91.5788 134.406 91.5038 133.343 91.4056L133.276 91.366C131.857 89.3777 129.929 89.4132 128.885 90.5969C128.46 91.1424 127.899 91.8638 127.485 92.4134C127.397 92.3377 127.293 92.282 127.181 92.2502C127.069 92.2184 126.952 92.2112 126.837 92.2291C126.722 92.247 126.612 92.2895 126.515 92.3538C126.418 92.4181 126.336 92.5026 126.274 92.6016C125.023 94.7494 126.464 94.583 126.479 94.5817C126.528 94.5727 126.575 94.5534 126.617 94.5249C126.658 94.4965 126.693 94.4596 126.719 94.4167L127.202 93.5984L127.309 93.713C127.341 93.7471 127.383 93.7921 127.416 93.8248C128.563 94.9991 129.771 96.113 131.034 97.1618C130.559 97.8941 130.067 98.651 131.18 98.891C131.256 98.9052 131.334 98.898 131.406 98.8704C131.479 98.8427 131.542 98.7955 131.589 98.7342C132.357 97.5941 132.357 97.5941 132.134 96.9709C132.287 96.826 132.473 96.72 132.675 96.6618C132.878 96.6037 133.091 96.5951 133.298 96.6368C136.879 97.125 136.948 97.1345 137.856 96.5659C142.931 93.1975 143.242 92.7134 143.345 92.5538C143.519 92.3095 143.628 92.0261 143.665 91.7289C143.702 91.4318 143.665 91.1301 143.557 90.8508C143.449 90.5715 143.274 90.3234 143.046 90.1284C142.819 89.9335 142.547 89.7979 142.254 89.7337C142.137 89.7127 142.019 89.7027 141.9 89.7037" fill="#66B881"/>
</g>
</g>
</g>
<mask id="mask12_1330_22606" style="mask-type:luminance" maskUnits="userSpaceOnUse" x="242" y="111" width="48" height="48">
<path d="M289.478 111.452H242.657V158.264H289.478V111.452Z" fill="white"/>
</mask>
<g mask="url(#mask12_1330_22606)">
<mask id="mask13_1330_22606" style="mask-type:luminance" maskUnits="userSpaceOnUse" x="242" y="111" width="48" height="48">
<path d="M289.478 111.452H242.657V158.264H289.478V111.452Z" fill="white"/>
</mask>
<g mask="url(#mask13_1330_22606)">
<mask id="mask14_1330_22606" style="mask-type:luminance" maskUnits="userSpaceOnUse" x="242" y="111" width="48" height="48">
<path d="M254.53 155.214C254.121 154.978 253.583 154.668 253.197 154.396C252.582 153.973 251.778 153.384 251.194 152.917C250.328 152.183 249.506 151.399 248.731 150.569C248.216 150.028 247.74 149.451 247.307 148.843C246.953 148.331 246.472 147.656 246.142 147.128C245.856 146.673 245.51 146.044 245.259 145.57C244.976 145.031 244.641 144.291 244.408 143.729C244.198 143.223 243.971 142.529 243.782 142.014C243.559 141.375 243.38 140.721 243.248 140.058C242.999 138.83 242.821 137.59 242.713 136.343C242.626 135.198 242.637 134.049 242.747 132.906C242.822 132.295 242.884 131.472 243.006 130.87C243.122 130.325 243.255 129.592 243.394 129.054C243.553 128.4 243.748 127.755 243.977 127.123C244.176 126.615 244.422 125.932 244.644 125.435C244.89 124.889 245.244 124.158 245.535 123.629C246.149 122.511 246.853 121.444 247.639 120.439C248.36 119.551 249.129 118.704 249.945 117.901C250.394 117.479 251.015 116.947 251.493 116.553C251.865 116.25 252.378 115.871 252.776 115.598C253.312 115.239 254.042 114.78 254.597 114.458C254.95 114.252 255.433 113.997 255.803 113.824C256.174 113.651 256.648 113.428 257.016 113.278C257.321 113.142 257.737 112.992 258.048 112.869C258.557 112.676 259.251 112.46 259.775 112.324C262.738 111.491 265.838 111.255 268.894 111.628C270.433 111.817 271.95 112.156 273.423 112.642C274.232 112.909 275.026 113.222 275.801 113.578C276.359 113.827 277.077 114.213 277.613 114.506C278.529 115.044 279.415 115.631 280.268 116.262C280.785 116.671 281.462 117.232 281.95 117.674C282.333 118.02 282.823 118.504 283.17 118.886C283.603 119.361 284.162 120.01 284.56 120.514C284.889 120.93 285.299 121.508 285.592 121.95C285.933 122.463 286.353 123.169 286.651 123.708C286.911 124.181 287.217 124.836 287.45 125.323C287.712 125.868 287.995 126.632 288.194 127.205C288.377 127.724 288.567 128.432 288.726 128.962C288.917 129.615 289.06 130.28 289.152 130.953C289.224 131.514 289.343 132.259 289.389 132.822C289.439 133.444 289.475 134.277 289.476 134.901C289.456 136.167 289.352 137.43 289.165 138.682C289.056 139.43 288.897 140.169 288.689 140.896C288.53 141.423 288.332 142.13 288.144 142.649C287.927 143.278 287.679 143.895 287.399 144.499C287.162 144.983 286.854 145.635 286.595 146.107C286.304 146.629 285.894 147.313 285.562 147.809C284.167 149.903 282.445 151.76 280.462 153.309C280.086 153.602 279.576 153.981 279.177 154.244C278.632 154.6 277.897 155.046 277.338 155.371C276.48 155.841 275.594 156.259 274.685 156.623C274.179 156.815 273.499 157.059 272.982 157.22C272.465 157.381 271.805 157.555 271.295 157.673C268.464 158.326 265.535 158.444 262.66 158.019C260.474 157.699 258.344 157.068 256.335 156.147C255.778 155.899 255.051 155.525 254.523 155.219" fill="white"/>
</mask>
<g mask="url(#mask14_1330_22606)">
<path d="M251.379 146.71C251.329 146.51 251.28 146.307 251.234 146.103C256.693 147.316 262.282 147.843 267.871 147.671C267.865 147.87 267.858 148.067 267.852 148.262C262.319 148.432 256.785 147.91 251.381 146.708M266.09 145.567H266.458C266.458 145.832 266.458 146.095 266.458 146.354C261.631 146.404 256.811 145.949 252.078 144.997C252.037 144.734 251.999 144.468 251.965 144.199L252.259 144.262H252.27C253.217 144.461 254.212 144.638 255.249 144.792H255.262C257.676 145.144 260.105 145.371 262.542 145.474H262.556C263.715 145.526 264.892 145.553 266.074 145.556H266.092M253.285 141.698C253.269 141.227 253.261 140.748 253.262 140.262C253.265 138.811 253.344 137.36 253.498 135.917L253.972 136.002C253.825 137.442 253.747 138.896 253.745 140.348C253.745 140.834 253.752 141.313 253.766 141.784L253.284 141.698M263.998 142.749C263.998 142.279 263.998 141.802 263.998 141.316C263.998 139.864 264.016 138.403 264.043 136.952L264.602 136.965C264.582 138.417 264.571 139.876 264.567 141.328C264.567 141.814 264.567 142.292 264.567 142.762L263.998 142.748M255.697 143.42C255.444 142.301 255.434 142.258 255.085 142.044C255.071 141.558 255.063 141.063 255.063 140.561C255.063 139.092 255.138 137.619 255.272 136.16C255.388 136.121 255.492 136.053 255.573 135.962C255.655 135.871 255.712 135.761 255.738 135.642L255.952 134.886C257.862 135.159 259.907 135.347 262.007 135.458C262.171 136.615 262.178 136.66 262.553 136.849C262.508 138.316 262.482 139.793 262.479 141.262C262.479 141.764 262.479 142.258 262.479 142.744C262.361 142.784 262.256 142.855 262.175 142.949C262.093 143.044 262.039 143.158 262.017 143.281L261.88 144.007C259.729 143.894 257.641 143.696 255.684 143.422M252.193 132.636C254.754 131.474 256.966 130.469 259.637 129.119C261.866 130.942 264.243 132.577 266.742 134.008C261.857 134.079 256.978 133.619 252.193 132.636ZM259.91 127.556C259.803 127.55 259.696 127.572 259.6 127.619C256.962 128.93 254.215 130.007 251.593 131.35C251.48 131.408 251.382 131.491 251.307 131.593C251.231 131.695 251.181 131.813 251.159 131.938C251.068 132.332 250.984 132.729 250.907 133.127C250.851 133.606 250.988 133.902 251.327 134.033C251.533 134.082 251.743 134.13 251.955 134.177C251.955 135.321 251.955 135.389 252.258 135.627C252.086 137.084 251.997 138.55 251.994 140.018C251.994 140.521 252.003 141.016 252.022 141.503C251.922 141.538 251.834 141.602 251.771 141.688C251.709 141.774 251.673 141.877 251.67 141.983L251.605 142.695L251.205 142.604C250.723 142.552 250.68 142.954 250.698 143.198C250.756 143.715 250.828 144.222 250.912 144.717L250.397 144.581C250.241 144.569 249.917 144.545 249.988 145.126C250.128 145.792 250.292 146.437 250.481 147.061C250.534 147.235 250.626 147.395 250.749 147.529C250.872 147.662 251.024 147.766 251.193 147.833C256.859 149.158 262.678 149.709 268.492 149.47C268.672 149.472 268.847 149.409 268.985 149.292C269.123 149.176 269.215 149.014 269.243 148.836C269.283 148.234 269.319 147.607 269.35 146.956C269.322 146.547 269.088 146.333 268.632 146.306L267.934 146.324C267.946 145.837 267.956 145.337 267.964 144.824C267.963 144.727 267.943 144.632 267.904 144.543C267.865 144.454 267.809 144.374 267.739 144.308C267.669 144.241 267.586 144.19 267.496 144.156C267.405 144.122 267.309 144.106 267.213 144.11H266.698C266.487 143.049 266.475 142.987 266.074 142.82C266.074 142.335 266.074 141.841 266.074 141.338C266.074 139.869 266.074 138.391 266.082 136.924C266.203 136.873 266.309 136.794 266.392 136.692C266.474 136.59 266.529 136.469 266.552 136.34L266.697 135.56C266.97 135.56 267.243 135.557 267.515 135.55C267.615 135.546 267.713 135.522 267.804 135.479C267.895 135.437 267.976 135.377 268.044 135.303C268.111 135.229 268.163 135.142 268.197 135.048C268.231 134.954 268.246 134.854 268.241 134.754C268.231 134.348 268.219 133.942 268.207 133.538C268.201 133.403 268.163 133.272 268.095 133.156C268.027 133.04 267.931 132.942 267.817 132.872C265.113 131.38 262.556 129.637 260.18 127.665C260.102 127.601 260.007 127.56 259.907 127.548" fill="#418B5A"/>
<path d="M259.23 132.099C259.149 132.077 259.076 132.033 259.02 131.972C258.963 131.91 258.926 131.833 258.911 131.751C258.897 131.669 258.906 131.584 258.939 131.507C258.971 131.43 259.025 131.364 259.093 131.316C259.366 131.11 259.704 131.342 259.661 131.703C259.654 131.812 259.605 131.913 259.526 131.987C259.446 132.06 259.341 132.101 259.232 132.099M259.505 130.062C259.179 130.078 258.864 130.186 258.598 130.374C258.331 130.563 258.123 130.823 257.999 131.125C257.875 131.426 257.839 131.757 257.895 132.079C257.952 132.4 258.099 132.699 258.319 132.94C259.22 133.82 260.7 133.007 260.719 131.623C260.746 131.259 260.636 130.898 260.412 130.609C260.188 130.321 259.865 130.125 259.505 130.062Z" fill="#418B5A"/>
</g>
</g>
</g>
</svg>
