<svg viewBox="0 0 360 250" fill="none" xmlns="http://www.w3.org/2000/svg">
<path d="M63.868 120.26C58.7176 121.134 51.9685 119.198 48.4466 119.64C44.9243 120.226 41.3251 120.168 37.8232 119.471H32.2706C29.0593 125.944 26.9271 143.613 26.3935 156.569C25.86 169.526 23.9288 190.892 23.9288 190.892L4 232.972L25.5335 234.662L51.3633 191.816L59.7867 234.748H82.7735C82.7735 234.748 70.3345 145.771 63.3026 124.088L63.868 120.26Z" fill="#5B8EF5"/>
<path d="M61.4074 234.744C60.0892 239.258 59.4333 243.938 59.4603 248.64H88.7681C88.7681 248.64 88.9673 239.976 81.5154 239.152C74.0635 238.328 74.1152 234.674 74.1152 234.674L61.4074 234.744Z" fill="#192743"/>
<path d="M7.94988 233.282C6.23401 237.663 5.16432 242.27 4.77441 246.958L33.9688 249.57C33.9688 249.57 34.9444 240.957 27.598 239.472C20.2516 237.987 20.6299 234.354 20.6299 234.354L7.96581 233.292L7.94988 233.282Z" fill="#192743"/>
<path d="M25.1613 229.876C23.7896 229.713 22.4139 229.55 21.0441 229.382L6.45289 227.636C6.2976 227.617 6.2976 227.376 6.45289 227.392C7.82462 227.555 9.20032 227.718 10.5701 227.885L25.1613 229.631C25.3166 229.651 25.3166 229.892 25.1613 229.876ZM80.3089 229.918C77.4726 230.195 74.6309 230.398 71.7839 230.525C71.8121 230.449 71.8229 230.368 71.8157 230.288C71.8085 230.207 71.7833 230.129 71.7421 230.059C71.725 230.019 71.6988 229.984 71.6657 229.956C71.6326 229.927 71.5934 229.907 71.5512 229.897C71.509 229.886 71.465 229.885 71.4225 229.895C71.38 229.904 71.3401 229.923 71.3061 229.95C71.1747 230.035 71.3061 230.245 71.4296 230.163C71.553 230.081 71.5729 230.404 71.5351 230.481C71.5251 230.502 71.5131 230.521 71.4992 230.539L71.2046 230.551C71.1017 230.487 71.0119 230.404 70.9398 230.306C70.6968 229.832 70.5238 229.325 70.4262 228.801C70.0877 227.625 69.7559 226.447 69.4307 225.267C68.7737 222.933 68.1273 220.594 67.4916 218.251C66.2307 213.59 65.0156 208.915 63.8463 204.228C62.6703 199.518 61.5421 194.797 60.4618 190.064C59.388 185.354 58.3607 180.634 57.3799 175.905C56.3964 171.155 55.4586 166.393 54.5667 161.621L54.3676 160.555V160.356C54.4287 156.651 54.4911 152.945 54.5548 149.239C54.6185 145.533 54.6849 141.81 54.7539 138.068C54.7539 137.61 54.7698 137.154 54.7778 136.701C54.774 136.671 54.7594 136.643 54.7369 136.624C54.7143 136.604 54.6854 136.593 54.6553 136.593C54.6253 136.593 54.5963 136.604 54.5738 136.624C54.5512 136.643 54.5367 136.671 54.5329 136.701C54.4718 140.406 54.4094 144.112 54.3457 147.818C54.2847 151.504 54.2223 155.19 54.1586 158.877C54.1586 159.172 54.1586 159.474 54.1427 159.763C54.1232 159.762 54.1037 159.765 54.0856 159.773C54.0675 159.78 54.0514 159.791 54.0384 159.806C54.0253 159.82 54.0158 159.838 54.0104 159.857C54.005 159.875 54.0039 159.895 54.0073 159.914C54.0471 160.135 54.0889 160.354 54.1287 160.571C54.0756 163.709 54.0225 166.849 53.9695 169.99C53.9117 173.43 53.8759 176.875 53.5892 180.307C53.3526 183.726 52.7069 187.105 51.666 190.371C51.5306 190.769 51.3893 191.167 51.2419 191.556C51.1842 191.703 51.4211 191.769 51.4789 191.621C52.6369 188.444 53.383 185.131 53.6987 181.764C54.065 178.34 54.1347 174.896 54.1924 171.456C54.2495 168.232 54.3039 165.006 54.3557 161.778C55.1879 166.243 56.0625 170.701 56.9797 175.153C58.0282 180.247 59.1318 185.328 60.2905 190.397C61.4453 195.44 62.6517 200.474 63.91 205.498C65.1749 210.541 66.4961 215.571 67.8738 220.587C68.56 223.085 69.2582 225.577 69.9683 228.064C70.1395 228.672 70.2987 229.285 70.4899 229.884C70.5581 230.131 70.6745 230.363 70.8323 230.565C68.6728 230.647 66.5127 230.685 64.352 230.679C62.8336 230.679 61.3152 230.653 59.7968 230.601C59.6375 230.601 59.6415 230.842 59.7968 230.846C63.5795 230.964 67.3622 230.947 71.1449 230.796C71.2118 230.824 71.2841 230.837 71.3567 230.835C71.4293 230.832 71.5004 230.813 71.5649 230.78C72.9685 230.718 74.3681 230.641 75.7737 230.543C77.2881 230.437 78.8012 230.309 80.3129 230.159C80.4682 230.143 80.4682 229.898 80.3129 229.914L80.3089 229.918ZM39.8421 147.143C39.3964 140.127 39.4017 133.09 39.858 126.075C39.931 125.198 40.018 124.323 40.1188 123.451C40.1348 123.296 39.8899 123.296 39.874 123.451C39.2026 130.407 39.0695 137.403 39.4758 144.379C39.7605 151.361 40.2184 158.346 40.1009 165.338C40.113 172.252 39.1465 179.133 37.2301 185.776C34.7857 192.604 31.6069 199.146 27.7494 205.287L16.5009 225.068L15.0675 227.587C15.0556 227.615 15.0544 227.646 15.0641 227.674C15.0738 227.703 15.0936 227.727 15.1199 227.742C15.1462 227.757 15.1771 227.762 15.2067 227.756C15.2363 227.749 15.2626 227.732 15.2805 227.708L26.6286 207.747C30.4943 201.565 33.8379 195.07 36.6248 188.332C38.8583 181.862 40.0817 175.087 40.2522 168.244C40.5509 161.212 40.1507 154.173 39.8361 147.141L39.8421 147.143ZM49.0659 124.001C48.7513 124.532 46.6032 128.381 46.2946 128.91C44.6282 131.757 43.3779 133.887 42.4581 135.46L40.294 139.153C40.2124 139.289 39.3603 141.188 40.5071 139.277C42.5723 135.75 44.6388 132.224 46.7067 128.697C46.9914 128.211 49.0958 124.391 49.4044 123.919" fill="#192743"/>
<path d="M279.314 85.017C281.21 83.5006 282.855 81.6953 284.19 79.6674C285.156 78.2248 285.811 76.5968 286.113 74.887C286.416 73.1773 286.359 71.4234 285.946 69.7369C284.928 70.7323 282.265 64.2839 284.462 64.0828C286.66 63.8817 286.336 65.6157 286.336 65.6157C290.716 65.7969 299.705 60.1328 299.705 60.1328C299.573 66.2867 297.73 76.3666 296.824 77.5969C295.918 78.8273 292.37 78.4769 292.37 78.4769C292.167 80.7175 292.213 82.9737 292.508 85.2041C292.508 85.2041 292.862 93.0701 297.961 96.6338C298.16 93.8466 302.54 82.829 301.473 78.7736C299.88 72.7451 302.39 73.647 302.611 68.6001C302.832 63.5532 303.483 57.483 298.805 55.954C298.805 55.954 296.543 50.8971 286.135 52.4659C279.666 53.3121 277.397 60.2523 276.809 66.0478C276.138 71.4653 275.151 76.8392 273.855 82.1421C273.304 84.7482 275.332 95.0053 275.225 96.6358C279.933 94.7624 279.119 85.0588 279.304 85.017C279.304 85.0269 279.304 85.017 279.318 85.017H279.314Z" fill="#3A2604"/>
<path d="M292.371 78.4791C292.371 78.4791 295.918 78.8275 296.824 77.5991C297.73 76.3707 299.574 66.2908 299.705 60.135C299.705 60.135 290.708 65.7991 286.336 65.6179C286.336 65.6179 286.665 63.8819 284.463 64.0849C282.261 64.288 284.929 70.7365 285.946 69.7391C286.359 71.4256 286.416 73.1795 286.113 74.8892C285.811 76.5989 285.156 78.2269 284.19 79.6696C282.855 81.6968 281.21 83.502 279.314 85.0191C281.444 86.3465 283.895 87.0711 286.404 87.1156C288.289 87.1036 288.281 89.3872 290.386 87.9776L291.449 88.3758H293.918C293.408 86.0365 292.361 78.4711 292.361 78.4711L292.371 78.4791Z" fill="#8E5913"/>
<path d="M235.831 233.858C235.831 233.858 235.666 233.418 234.835 234.853C234.005 236.289 233.607 237.989 234.105 238.437C235.984 239.532 237.963 240.444 240.016 241.161C242.556 242.118 247.569 243.603 250.615 244.84C253.777 245.909 257.116 246.36 260.448 246.168C262.439 245.986 264.346 245.371 264.46 244.69C264.453 243.845 264.342 243.004 264.127 242.186L235.831 233.858Z" fill="#192743"/>
<path d="M239.08 229.858C238.681 229.85 238.286 229.931 237.922 230.095C237.559 230.259 237.237 230.503 236.98 230.808C236.275 231.839 235.663 232.931 235.152 234.071C234.893 234.668 234.768 235.154 234.915 235.283C236.788 236.427 238.805 237.315 240.914 237.923C244.983 239.371 252.859 242.6 254.98 243.112C257.758 243.51 260.577 243.544 263.365 243.213L264.233 242.988C264.233 242.988 264.631 241.614 262.511 240.858C259.622 239.823 256.282 238.347 256.282 238.347L250.544 233.396L248.228 231.071L239.08 229.858Z" fill="#192743"/>
<path d="M241.123 225.984L238.525 229.568L237.854 230.493C238.78 231.306 239.755 232.061 240.774 232.755C242.616 234.029 243.464 234.32 245.124 233.611C246.415 232.977 247.758 232.454 249.138 232.048C249.566 232.064 249.934 229.157 249.934 229.157L241.123 225.984Z" fill="#8E5913"/>
<path d="M273.799 146.73C273.799 146.73 272.708 159.16 272.147 163.384C270.931 169.856 269.23 176.226 267.06 182.443C266.013 185.663 264.242 188.601 261.884 191.032C257.546 195.9 253.85 199.509 252.742 202.625C251.633 205.74 247.217 215.149 246.152 217.182C245.087 219.215 239.862 226.517 240.044 226.92C241.595 228.55 243.566 229.721 245.74 230.304C248.481 230.901 250.048 231.262 250.472 230.489C250.896 229.717 256.672 218.387 259.077 214.924C261.482 211.462 270.166 198.962 272.814 196.696C275.843 193.429 278.53 189.861 280.833 186.047C281.884 184.408 291.659 166.717 292.506 165.268C293.352 163.818 273.791 146.733 273.791 146.733" fill="#FFCF2E"/>
<path d="M327.476 239.817C327.416 240.302 327.485 240.795 327.675 241.246C327.996 241.955 328.959 243.329 329.563 243.436C331.174 243.39 332.752 242.965 334.168 242.194C336.18 241.198 340.538 239.48 342.633 238.75C345.916 237.604 349.005 235.963 351.791 233.882C353.574 232.659 354.955 230.936 355.759 228.929C355.913 228.284 355.815 227.605 355.484 227.031C355.126 226.553 354.343 225.767 354.015 225.988C353.686 226.209 327.468 239.817 327.468 239.817" fill="#192743"/>
<path d="M326.257 233.848C326.257 233.848 325.722 234.204 325.811 235.602C326.056 237.37 326.651 239.07 327.561 240.605C328.039 241.003 329.937 240.727 332.24 239.713C334.543 238.7 340.841 236.478 343.263 235.411C346.463 233.966 349.579 232.343 352.597 230.549C353.779 229.712 354.621 228.477 354.968 227.071C355.05 226.494 354.614 225.721 353.425 225.705C352.236 225.689 349.61 226.746 348.533 226.82C347.456 226.894 339.972 227.503 338.031 227.397C336.09 227.292 334.101 226.954 334.101 226.954L326.257 233.848Z" fill="#192743"/>
<path d="M325.165 231.367C325.165 231.367 325.847 233.955 326.138 234.686C326.429 235.417 328.129 235.691 329.795 235.439C331.326 235.11 332.71 234.299 333.745 233.125C333.943 231.783 334.034 230.428 334.018 229.072C334.09 228.436 334.095 227.794 334.034 227.156L325.165 231.367Z" fill="#8E5913"/>
<path d="M272.639 142.824C272.639 142.824 271.245 148.301 273.812 150.77C276.378 153.239 278.938 157.692 280.65 159.331C282.362 160.969 297.113 177.846 299.47 180.703C302.208 183.979 304.713 187.442 306.968 191.067C308.352 193.59 311.167 204.958 312.516 208.368C313.866 211.779 320.679 222.018 321.581 224.128C322.733 226.982 324.043 229.769 325.503 232.478C325.981 232.892 329.371 232.036 331.721 230.053C334.07 228.07 334.707 227.009 334.719 226.615C333.667 224.763 332.517 222.969 331.275 221.239C331.275 221.239 326.074 207.701 323.669 200.994C321.672 194.876 320.034 188.645 318.766 182.335C317.922 178.648 309.853 160.163 308.413 156.454C306.974 152.745 299.948 143.097 299.948 143.097L301.268 135.022C301.268 135.022 297.883 135.922 288.542 137.363C282.958 138.216 277.571 140.064 272.639 142.818" fill="#FFCF2E"/>
<path d="M282.028 82.2996C272.707 83.5578 271.404 97.0799 271.339 107.106C270.676 114.811 269.637 142.51 271.436 145.391C276.523 141.73 300.237 144.107 300.625 138.942C301.676 124.988 302.251 100.869 293.923 88.3877C291.733 88.1687 283.417 82.7157 282.024 82.2996" fill="#30B3AF"/>
<path d="M279.287 88.7678C279.287 88.7678 277.77 88.4314 275.486 91.8896C273.471 95.5978 272.699 99.8543 273.282 104.034C273.985 107.954 275.012 111.743 275.813 116.509C276.613 121.275 276.585 122.545 277.849 124.357C279.113 126.169 278.586 126.674 280.636 127.941C281.759 128.387 282.974 128.55 284.175 128.418C285.376 128.285 286.526 127.86 287.525 127.18C288.754 127.192 289.951 126.792 290.925 126.043C292.057 125.063 293.054 123.937 293.892 122.697L290.553 113.208L287.334 113.843C287.334 113.843 287.975 113.917 287.909 110.403C287.843 106.889 288.208 96.387 285.952 92.3733C283.696 88.3597 282.368 87.7824 279.275 88.7738" fill="#30B3AF"/>
<path d="M269.489 196.694L265.665 164.718C265.587 164.071 265.638 163.414 265.814 162.786C265.99 162.158 266.289 161.571 266.692 161.058C267.095 160.545 267.595 160.117 268.164 159.798C268.733 159.479 269.359 159.275 270.007 159.197L311.7 154.22C313.007 154.067 314.322 154.438 315.357 155.251C316.392 156.065 317.062 157.256 317.221 158.562L321.045 190.538C321.123 191.186 321.072 191.842 320.896 192.47C320.72 193.098 320.422 193.685 320.019 194.197C319.616 194.71 319.116 195.138 318.547 195.458C317.978 195.777 317.353 195.981 316.705 196.059L275.012 201.036C274.364 201.114 273.708 201.063 273.08 200.887C272.452 200.71 271.865 200.412 271.352 200.009C270.839 199.605 270.411 199.105 270.092 198.536C269.772 197.968 269.566 197.341 269.489 196.694Z" fill="#883212"/>
<path d="M265.878 166.502L265.762 165.541C265.671 164.785 265.73 164.019 265.936 163.286C266.141 162.554 266.489 161.869 266.959 161.27C267.43 160.672 268.013 160.173 268.677 159.8C269.341 159.428 270.071 159.19 270.827 159.1L272.34 158.919C272.324 160.741 271.667 162.499 270.485 163.886C269.304 165.272 267.672 166.199 265.876 166.504L265.878 166.502Z" fill="#192743"/>
<path d="M269.276 194.908L269.391 195.87C269.482 196.625 269.72 197.355 270.092 198.019C270.465 198.682 270.964 199.266 271.563 199.736C272.161 200.206 272.845 200.554 273.578 200.76C274.31 200.966 275.076 201.025 275.832 200.934L277.345 200.755C276.9 198.989 275.847 197.435 274.372 196.366C272.897 195.297 271.093 194.781 269.276 194.908Z" fill="#192743"/>
<path d="M317.432 160.336L317.316 159.373C317.226 158.617 316.988 157.887 316.615 157.223C316.243 156.56 315.743 155.976 315.145 155.506C314.547 155.035 313.862 154.687 313.129 154.482C312.397 154.276 311.631 154.217 310.875 154.308L309.362 154.487C309.807 156.254 310.859 157.808 312.335 158.877C313.81 159.946 315.614 160.463 317.432 160.336Z" fill="#192743"/>
<path d="M320.83 188.74L320.945 189.702C321.036 190.457 320.978 191.223 320.772 191.956C320.567 192.689 320.219 193.374 319.748 193.972C319.278 194.57 318.694 195.07 318.031 195.442C317.367 195.815 316.636 196.053 315.881 196.142L314.368 196.324C314.384 194.502 315.04 192.744 316.222 191.357C317.404 189.97 319.036 189.043 320.832 188.738L320.83 188.74Z" fill="#192743"/>
<path d="M293.436 156.396C293.435 156.386 293.435 156.376 293.436 156.366L293.037 152.948C293.019 152.792 292.97 152.642 292.893 152.505C292.816 152.368 292.713 152.247 292.59 152.15C292.467 152.053 292.325 151.982 292.174 151.939C292.023 151.897 291.865 151.884 291.709 151.903L285.104 152.699C284.789 152.737 284.503 152.898 284.307 153.147C284.112 153.396 284.023 153.713 284.06 154.027L284.472 157.473L283.033 157.647L282.621 154.2C282.538 153.504 282.736 152.803 283.169 152.252C283.603 151.7 284.238 151.344 284.934 151.26L291.54 150.464C292.237 150.381 292.937 150.579 293.489 151.013C294.04 151.446 294.396 152.081 294.481 152.777L294.879 156.195C294.879 156.195 294.879 156.215 294.879 156.223L293.443 156.394L293.436 156.396Z" fill="#192743"/>
<path d="M277.02 158.328L274.682 158.608L277.006 178.004L279.345 177.724L277.02 158.328Z" fill="#FCBF8F"/>
<path d="M282.147 175.015L273.973 175.995L274.538 180.711L282.712 179.732L282.147 175.015Z" fill="#192743"/>
<path d="M307.011 154.74L304.672 155.021L306.997 174.417L309.335 174.136L307.011 154.74Z" fill="#FCBF8F"/>
<path d="M311.801 171.469L303.627 172.447L304.191 177.163L312.365 176.186L311.801 171.469Z" fill="#192743"/>
<path d="M287.447 137.979C289.431 139.698 291.293 141.553 293.022 143.529C294.276 145.267 296.771 145.972 296.074 147.031C295.377 148.09 291.849 146.024 291.849 146.024C291.849 146.024 292.52 150.404 292.928 151.7C293.336 152.996 293.478 155.544 292.558 155.944C291.638 156.344 290.119 149.918 290.119 149.918C290.119 149.918 290.877 155.469 290.103 156.02C289.329 156.571 287.346 149.677 287.346 149.677C287.792 151.79 288.055 153.937 288.13 156.096C287.822 156.641 287.135 156.273 286.253 154.304C285.676 152.943 285.247 151.525 284.97 150.073C284.97 150.073 285.434 154.266 285.319 154.794C285.203 155.321 284.668 155.966 283.666 152.896C282.303 148.411 281.876 143.693 282.412 139.036L287.447 137.979Z" fill="#8E5913"/>
<path d="M281.104 145.389L293.637 143.83L288.219 99.1045L281.592 93.6077L274.51 102.22L281.104 145.389Z" fill="#30B3AF"/>
<path d="M213.119 22.2202L204.333 21.4119V241.457L213.119 241.359V22.2202Z" fill="#FEE5D7"/>
<path d="M270.942 11.9136L262.712 9.89087L204.333 26.0629L213.119 26.8254L270.942 11.9136Z" fill="#FFF2EB"/>
<path d="M276.21 0.947663L268.659 0V250L276.202 249.783L276.21 0.947663Z" fill="#FEE5D7"/>
<path d="M200.371 20.3369V240.814L204.353 241.469V26.0588L262.65 10.1535V248.887L268.667 249.972V0L200.371 20.3369Z" fill="#FA8324"/>
<path d="M202.876 25.76H86.8608V241.379H202.876V25.76Z" fill="#FA8324"/>
<path d="M101.868 149.183C100.908 149.181 99.9887 148.799 99.3101 148.12C98.6316 147.441 98.2492 146.522 98.2466 145.562V123.103C98.2466 122.142 98.6281 121.221 99.3073 120.542C99.9864 119.863 100.908 119.481 101.868 119.481C102.828 119.481 103.75 119.863 104.429 120.542C105.108 121.221 105.489 122.142 105.489 123.103V145.556C105.487 146.516 105.104 147.435 104.426 148.114C103.747 148.792 102.828 149.175 101.868 149.178" fill="#192743"/>
<path d="M120.949 129.543H102.165C101.765 129.543 101.382 129.384 101.099 129.102C100.816 128.819 100.658 128.436 100.658 128.036C100.658 127.636 100.816 127.253 101.099 126.97C101.382 126.688 101.765 126.529 102.165 126.529H120.949C121.349 126.529 121.732 126.688 122.015 126.97C122.297 127.253 122.456 127.636 122.456 128.036C122.456 128.436 122.297 128.819 122.015 129.102C121.732 129.384 121.349 129.543 120.949 129.543Z" fill="#192743"/>
<path d="M52.4221 77.6865C54.3103 79.3268 56.0987 81.0786 57.7776 82.9325C58.8706 84.4078 60.8934 95.941 60.8934 95.941L53.1289 93.4823L49.5771 80.639L52.4221 77.6865Z" fill="#3B545E"/>
<path d="M135.572 144.399C135.716 140.915 136.242 137.456 137.141 134.087C138.111 130.247 138.86 126.354 139.382 122.428L140.392 110.544L141.025 88.3539C141.025 88.3539 143.728 82.238 145.747 81.4535C147.766 80.6691 154.24 79.0346 155.811 77.9137L158.158 76.8506L157.362 80.3983C156.031 84.6733 155.047 89.049 154.422 93.4825C152.789 105.073 152.086 110.672 151.537 118.727C150.987 126.782 151.252 147.501 148.335 147.396C145.419 147.29 135.566 146.315 135.566 146.315C135.566 146.315 135.341 146.763 135.566 144.409" fill="#30B3AF"/>
<path d="M106.911 119.328C106.911 119.328 104.644 120.558 104.45 120.634C103.878 120.511 103.323 120.317 102.798 120.057C102.599 119.979 101.221 119.173 100.568 119.366C99.6762 119.895 98.9143 120.618 98.3384 121.48L93.4945 128.592C93.4945 128.592 92.4991 129.587 92.5727 130.053C92.5988 130.182 92.6512 130.304 92.7265 130.411C92.8019 130.519 92.8986 130.61 93.0107 130.679C93.1228 130.747 93.2478 130.792 93.378 130.81C93.5082 130.828 93.6407 130.819 93.7672 130.784C93.7672 130.784 94.1137 131.437 94.2292 131.668C94.3446 131.898 95.4237 131.821 95.4237 131.821C95.4237 131.821 95.7701 133.089 96.5385 133.282C97.307 133.475 97.3071 133.244 97.3071 133.244C97.3071 133.244 97.4225 134.206 97.8446 134.24C98.2666 134.274 99.075 133.431 99.075 133.431L105.802 128.665C105.802 128.665 107.417 126.897 107.723 126.589C108.679 126.226 109.672 125.968 110.684 125.82C110.857 125.13 110.874 124.409 110.735 123.711C110.595 123.013 110.301 122.355 109.876 121.785C108.414 119.67 107.799 119.364 106.917 119.324" fill="#D3926E"/>
<path d="M103.875 124.669C103.337 124.17 101.884 123.17 101.884 123.17C101.884 123.17 101.645 122.908 101.301 122.539L100.962 122.937C100.78 123.712 100.38 124.419 99.8095 124.974C98.8141 126.011 97.9262 125.512 97.964 124.775C97.9788 123.663 98.1076 122.556 98.3482 121.47C98.6 121.093 98.8895 120.742 99.2123 120.423C99.0494 120.257 98.862 120.118 98.6568 120.009C97.9425 119.704 97.1589 119.598 96.3892 119.702C95.6586 119.933 93.2038 120.664 93.2038 120.664C93.2038 120.664 92.7041 128.89 92.8573 128.928C93.0106 128.966 94.7029 129.659 94.7029 129.659C94.7029 129.659 95.8974 128.928 96.6241 129.159C97.3508 129.39 97.1617 130.62 97.1617 130.62C97.3375 130.533 97.5337 130.493 97.7297 130.507C97.9258 130.521 98.1146 130.587 98.2766 130.698C98.8539 131.082 98.4756 132.159 98.4756 132.159L98.8977 132.39C99.3198 132.621 98.7444 133.658 98.7444 133.658C98.7444 133.658 99.7399 134.08 100.128 133.889C100.447 133.656 100.71 133.354 100.897 133.005C101.287 133.09 101.695 133.036 102.049 132.852C102.173 132.752 102.266 132.621 102.32 132.472C102.374 132.323 102.387 132.161 102.356 132.006C102.593 132.071 102.842 132.08 103.084 132.033C103.326 131.987 103.553 131.885 103.75 131.737C103.898 131.63 104.013 131.482 104.081 131.312C104.149 131.142 104.168 130.956 104.134 130.776C104.598 130.616 105.073 130.488 105.555 130.391C105.939 130.353 106.439 129.585 106.439 129.585C106.593 128.827 106.632 128.049 106.555 127.28C106.401 126.242 104.44 125.165 103.903 124.665" fill="#FCBF8F"/>
<path d="M44.1065 79.3987C42.0057 79.7895 40.0772 80.8209 38.5858 82.3512C36.3958 84.79 35.3765 91.0833 35.3765 94.6788C35.3765 98.2744 39.8699 104.822 39.8699 104.822C39.8699 104.822 55.2774 120.489 59.0023 122.541C62.7273 124.594 67.2207 124.98 74.2824 127.035C81.3441 129.089 92.0451 132.36 92.8156 131.847C95.0404 128.093 96.3595 123.872 96.668 119.519C96.668 119.519 87.8941 117.528 84.8122 116.889C81.7303 116.25 68.1206 108.926 66.8365 108.671C65.5524 108.416 63.6272 105.461 63.6272 105.461C63.6272 105.461 59.9042 93.1338 57.0792 89.1541C54.2541 85.1743 48.7333 78.4968 44.1105 79.3987" fill="#192743"/>
<path d="M171.816 118.749C171.816 118.749 169.781 118.229 169.555 117.815C169.328 117.401 168.746 115.296 168.334 115.207C167.922 115.117 167.444 114.233 167.076 113.939C166.708 113.644 166.28 113.686 165.909 114.337C165.539 114.988 165.949 115.394 165.497 116.961C164.814 118.567 163.828 120.028 162.594 121.263C161.798 122.141 161.002 123.282 161.002 123.282C159.861 123.535 158.693 123.637 157.526 123.584C155.718 123.479 154.466 123.344 153.984 124.04C153.502 124.737 154.808 125.165 155.59 125.235C156.373 125.305 157.9 125.331 157.9 125.331C157.9 125.331 157.44 126.081 157.874 126.539C158.308 126.997 158.869 126.652 160.064 126.177C161.259 125.701 161.856 126.226 162.819 125.978C164.281 125.353 165.795 124.859 167.345 124.502C168.784 124.674 170.195 125.026 171.545 125.551C172.269 123.356 172.364 121.003 171.82 118.757" fill="#D3926E"/>
<path d="M149.869 80.2149C142.538 80.2925 140.989 89.807 137.117 94.1511C135.936 97.448 126.076 107.339 121.712 109.859C118.102 112.153 113.031 116.857 108.335 118.251C105.687 119.35 107.409 126.147 108.95 128.245C122.239 126.503 138.103 114.707 147.619 105.565L149.869 80.2129" fill="#FFCF2E"/>
<path d="M53.1471 73.4559L53.2048 71.9488C55.4558 72.1726 57.7278 72.0464 59.94 71.5745C61.7617 70.81 63.8681 55.1059 63.8681 55.1059C59.9241 57.1187 53.171 54.6838 53.171 54.6838L50.981 61.0149L49.8164 60.9133C49.7503 60.3203 49.5917 59.7412 49.3465 59.1972C49.2949 59.0894 49.2377 58.9844 49.1753 58.8826C49.1154 58.7821 49.0489 58.6856 48.9762 58.5939C48.9018 58.5029 48.8191 58.419 48.7293 58.3431C48.6835 58.3053 48.6397 58.2694 48.592 58.2376C48.3401 58.061 48.0394 57.9678 47.7319 57.9708C47.3167 57.9845 46.9113 58.1 46.5513 58.3072C46.1133 58.5072 45.7576 58.8519 45.544 59.2835C45.3304 59.715 45.272 60.2069 45.3787 60.6764C45.3906 60.7521 45.4045 60.8277 45.4205 60.8994C45.5026 61.2513 45.6214 61.5936 45.7749 61.9207C45.8147 62.0103 45.8585 62.0999 45.9023 62.1875C45.9461 62.2751 45.97 62.3189 46.0058 62.3866C46.0416 62.4543 46.1014 62.5558 46.1492 62.6354C46.1969 62.7151 46.2626 62.8246 46.3144 62.9062C46.4845 63.1754 46.67 63.4347 46.8699 63.6826C45.4068 65.9569 43.7266 68.0838 41.8528 70.0336L41.5303 72.793L42.9617 72.8766L53.1511 73.4738L53.1471 73.4559Z" fill="#FCBF8F"/>
<path d="M46.3082 62.8981C46.2524 62.8131 46.1974 62.7229 46.1429 62.6273C46.0885 62.5317 46.0407 62.4488 45.9996 62.3784C45.9638 62.3147 45.9319 62.251 45.8961 62.1794C45.8602 62.1077 45.8105 62.0042 45.7687 61.9126C45.6152 61.5854 45.4964 61.2431 45.4143 60.8913C45.3964 60.8156 45.3844 60.7399 45.3725 60.6663C45.2658 60.1968 45.3242 59.7048 45.5378 59.2733C45.7514 58.8418 46.1071 58.4971 46.5451 58.2971C46.9053 58.0903 47.3106 57.9748 47.7257 57.9607C48.033 57.9588 48.3334 58.052 48.5858 58.2274C48.6336 58.2593 48.6793 58.2951 48.7231 58.333C48.8122 58.4096 48.8948 58.4936 48.97 58.5838C49.0427 58.6755 49.1092 58.7719 49.1691 58.8725C49.2321 58.974 49.2892 59.0791 49.3403 59.187C49.5855 59.7311 49.744 60.3101 49.8102 60.9032L50.9748 61.0027L53.1648 54.6717C53.1648 54.6717 59.9199 57.1086 63.8619 55.0938C67.5789 53.081 64.7617 45.7366 60.0792 46.5051C55.3966 47.2736 53.8537 48.8742 51.8847 48.2471C49.9157 47.62 42.7624 43.6123 39.2027 51.1976C35.643 58.7829 38.6831 68.7314 41.8307 70.0135C43.7045 68.0638 45.3848 65.9369 46.8477 63.6626C46.6478 63.4146 46.4624 63.1554 46.2923 62.8861L46.3082 62.8981Z" fill="#DD7222"/>
<path d="M53.6052 72.7552L40.975 72.0186C40.975 72.0186 40.6206 76.8425 39.6152 77.0635C38.6098 77.2845 24.361 82.2398 25.026 88.74C25.6909 95.2403 28.4702 111.49 30.8254 123.334L63.8742 126.35L78.1947 123.395L76.7413 115.05L71.8836 115.318C71.8836 115.318 75.7678 83.5538 68.1964 80.2011C63.3286 78.1072 58.2161 76.6356 52.98 75.8212L53.6171 72.7433L53.6052 72.7552Z" fill="#192743"/>
<path d="M161.659 128.239L156.803 128.637L157.552 165.795H143.376L142.704 233.535H160.564C162.953 213.298 164.45 143.507 164.45 143.507C167.395 167.476 161.663 128.235 161.663 128.235" fill="#192743"/>
<path d="M182.473 233.812C183.341 237.825 183.884 241.901 184.098 246H158.31C158.31 246 158.123 238.71 163.894 237.909C167.277 237.472 170.456 236.046 173.03 233.808H182.473V233.812Z" fill="#30B3AF"/>
<path d="M172.945 75.9424C180.618 78.1065 191.08 79.8943 194.584 88.0131C198.088 96.132 205.066 119.127 204.071 125.107C203.075 131.088 195.93 131.255 195.93 131.255C195.93 131.255 194.397 156.677 193.74 167.708H171.502L172.25 130.55L167.395 130.152L166.598 117.1C168.12 116.745 169.672 116.533 171.233 116.469L172.945 75.9424Z" fill="#FFCF2E"/>
<path d="M137.624 97.482C137.624 97.482 135.902 144.768 134.801 167.707H157.077C157.077 167.707 161.224 85.1106 161.613 75.614C154.867 76.5338 148.423 80.7744 145.747 81.4513" fill="#FFCF2E"/>
<path d="M161.612 75.614C161.612 75.614 168.332 84.4914 172.961 75.9425L171.268 115.796H159.673C160.599 97.1475 161.453 79.6794 161.618 75.614H161.612Z" fill="white"/>
<path d="M159.668 115.794H171.261L171.231 116.463C169.669 116.527 168.118 116.738 166.596 117.094L167.392 130.146L172.248 130.545L171.5 167.703H185.675L186.348 235.443H168.487C166.098 215.205 164.601 145.415 164.601 145.415C161.657 169.383 157.273 140.475 159.672 115.788" fill="#192743"/>
<path d="M141.353 158.182C140.061 156.659 139.222 154.803 138.933 152.826C138.468 150.208 138.313 147.545 138.471 144.891C138.474 144.814 138.506 144.741 138.561 144.687C138.617 144.634 138.69 144.603 138.767 144.602L145.389 144.465H145.401L152.023 144.602C152.099 144.604 152.173 144.635 152.228 144.688C152.283 144.742 152.315 144.814 152.319 144.891C152.475 147.545 152.32 150.208 151.857 152.826C151.568 154.803 150.729 156.659 149.436 158.182C148.908 158.716 148.278 159.141 147.584 159.43C146.89 159.72 146.146 159.869 145.394 159.869C144.642 159.869 143.898 159.72 143.204 159.43C142.51 159.141 141.88 158.716 141.351 158.182M145.393 145.07L139.062 145.201C138.835 151.327 139.779 155.668 141.787 157.762C142.26 158.237 142.822 158.614 143.44 158.871C144.059 159.128 144.722 159.26 145.392 159.26C146.062 159.26 146.725 159.128 147.344 158.871C147.962 158.614 148.524 158.237 148.996 157.762C151.005 155.666 151.945 151.325 151.722 145.201L145.393 145.07ZM180.048 158.182C178.756 156.659 177.917 154.803 177.627 152.826C177.163 150.208 177.008 147.545 177.166 144.891C177.169 144.814 177.201 144.741 177.256 144.687C177.311 144.634 177.385 144.603 177.462 144.602L184.084 144.465H184.096L190.718 144.602C190.794 144.604 190.867 144.635 190.922 144.688C190.977 144.742 191.01 144.814 191.014 144.891C191.17 147.545 191.015 150.208 190.552 152.826C190.263 154.803 189.424 156.659 188.131 158.182C187.603 158.716 186.973 159.141 186.279 159.43C185.585 159.72 184.841 159.869 184.089 159.869C183.337 159.869 182.593 159.72 181.899 159.43C181.205 159.141 180.575 158.716 180.046 158.182H180.048ZM184.09 145.07L177.759 145.201C177.532 151.327 178.476 155.668 180.484 157.762C180.957 158.237 181.519 158.614 182.137 158.871C182.756 159.128 183.419 159.26 184.089 159.26C184.759 159.26 185.422 159.128 186.041 158.871C186.659 158.614 187.221 158.237 187.693 157.762C189.702 155.666 190.642 151.325 190.419 145.201L184.09 145.07ZM188.563 131.851C191.026 131.851 193.541 131.769 195.958 131.554C195.999 131.553 196.04 131.544 196.077 131.527C196.115 131.51 196.148 131.485 196.176 131.454C196.204 131.423 196.225 131.387 196.238 131.348C196.251 131.309 196.255 131.267 196.252 131.226C196.248 131.185 196.236 131.145 196.216 131.109C196.196 131.073 196.169 131.041 196.137 131.016C196.104 130.99 196.066 130.972 196.026 130.962C195.986 130.952 195.945 130.95 195.904 130.957C188.025 131.442 180.118 131.206 172.282 130.252C172.241 130.242 172.198 130.241 172.156 130.249C172.115 130.257 172.075 130.274 172.04 130.298C172.006 130.322 171.976 130.354 171.954 130.39C171.932 130.426 171.918 130.466 171.913 130.509C171.908 130.551 171.911 130.593 171.924 130.634C171.936 130.674 171.956 130.712 171.984 130.744C172.012 130.776 172.046 130.802 172.084 130.82C172.122 130.838 172.164 130.848 172.206 130.849C177.636 131.488 183.097 131.821 188.563 131.845V131.851ZM171.229 116.765H171.261C178.585 115.957 185.541 115.553 185.611 115.547C185.66 115.544 185.708 115.529 185.75 115.504C185.792 115.478 185.827 115.442 185.852 115.4C185.877 115.357 185.891 115.309 185.893 115.26C185.896 115.211 185.886 115.162 185.866 115.117C183.062 108.901 181.023 102.368 179.794 95.6601C179.792 95.6181 179.781 95.577 179.762 95.5394C179.744 95.5018 179.717 95.4685 179.685 95.4416C179.653 95.4147 179.615 95.3949 179.575 95.3833C179.534 95.3717 179.492 95.3687 179.45 95.3744C179.409 95.3801 179.369 95.3944 179.333 95.4164C179.297 95.4383 179.266 95.4675 179.242 95.5021C179.218 95.5366 179.202 95.5758 179.194 95.617C179.186 95.6583 179.187 95.7008 179.196 95.7417C180.394 102.366 182.389 108.821 185.139 114.966C183.501 115.069 177.48 115.465 171.203 116.16C171.124 116.169 171.051 116.209 171.001 116.272C170.951 116.334 170.928 116.413 170.936 116.493C170.944 116.566 170.979 116.634 171.034 116.684C171.089 116.733 171.161 116.76 171.235 116.76L171.229 116.765Z" fill="#192743"/>
<path d="M166.596 117.096L161.71 116.523C161.71 116.523 157.808 116.324 157.557 117.733C157.306 119.143 156.588 125.956 159.15 126.344C161.819 126.55 164.5 126.55 167.169 126.344L166.606 117.1L166.596 117.096Z" fill="#DB9A6E"/>
<path d="M156.666 233.543C157.533 237.556 158.077 241.632 158.29 245.731H132.504C132.504 245.731 132.317 238.441 138.089 237.641C141.472 237.204 144.65 235.777 147.225 233.539H156.666V233.543Z" fill="#30B3AF"/>
<path d="M156.795 69.0401C156.876 68.2207 156.999 67.406 157.163 66.5993C157.211 66.5754 157.231 66.5415 157.201 66.4918L157.273 66.2369C157.436 66.2567 157.601 66.2527 157.763 66.225C158.692 66.11 159.63 66.0714 160.566 66.1095C161.602 66.1721 162.623 66.3965 163.59 66.7745C164.937 67.3071 166.347 67.6631 167.785 67.8336C168.19 67.9397 168.62 67.8913 168.992 67.6978C169.364 67.5042 169.65 67.1794 169.796 66.7864C169.847 66.7028 169.887 66.6112 169.933 66.5236C170.502 65.247 170.891 63.8976 171.09 62.514C171.305 61.3487 171.456 60.1722 171.54 58.9901C171.613 58.0245 171.669 57.057 171.717 56.0894C171.743 55.5638 171.609 55.4005 171.12 55.1994C170.89 55.1086 170.651 55.0451 170.407 55.0103C169.64 54.9196 168.869 54.8698 168.097 54.861C166.686 54.7933 165.274 54.8391 163.863 54.8052C162.564 54.7963 161.268 54.7078 159.98 54.5405C159.276 54.4673 158.593 54.2583 157.968 53.9253H157.936C157.956 53.8556 157.92 53.8317 157.856 53.8317C157.632 53.7066 157.447 53.5219 157.321 53.2981C157.22 53.1527 157.103 53.0192 156.972 52.9C156.946 52.8144 156.857 52.8283 156.801 52.7905L156.789 52.7726L156.735 52.6431C156.74 52.6361 156.743 52.6281 156.744 52.6198C156.745 52.6116 156.745 52.6031 156.742 52.595C156.74 52.5869 156.736 52.5794 156.731 52.573C156.726 52.5665 156.719 52.5613 156.711 52.5575C156.715 52.547 156.716 52.5359 156.714 52.525C156.713 52.5141 156.709 52.5036 156.702 52.4945C156.696 52.4853 156.688 52.4776 156.679 52.472C156.669 52.4664 156.659 52.4629 156.648 52.462C156.618 52.3696 156.563 52.287 156.49 52.2231C156.49 52.1633 156.473 52.1176 156.403 52.1116C156.371 52.0519 156.403 51.9643 156.323 51.9284C156.067 51.5114 155.954 51.0219 156.003 50.5348C156.03 50.0415 156.132 49.5553 156.307 49.0934C156.717 48.3219 157.292 47.6498 157.99 47.1244C158.668 46.5441 159.541 46.2425 160.432 46.2803L161.609 46.4535V46.4674C161.773 46.5854 161.972 46.6462 162.174 46.6406C162.815 46.8178 163.409 47.1244 164.032 47.3494C164.732 47.6472 165.45 47.9012 166.182 48.1099C166.52 48.2407 166.877 48.3179 167.239 48.3388L167.426 48.3627L168.012 48.4503C168.268 48.5365 168.544 48.5516 168.808 48.4941L168.918 48.4782L169.2 48.5419L171.45 48.8644C172.768 49.1195 173.967 49.7959 174.866 50.7916C175.854 51.9742 176.545 53.3765 176.879 54.8809C177.351 56.7317 177.606 58.6312 177.638 60.541C177.638 60.5549 177.62 60.5709 177.622 60.5848C177.629 60.6139 177.638 60.6425 177.65 60.6704C177.65 60.8695 177.638 61.0507 177.632 61.2398C177.61 61.2876 177.599 61.3396 177.599 61.3921C177.599 61.4446 177.61 61.4966 177.632 61.5444L177.57 62.2352C177.57 62.2472 177.546 62.2611 177.548 62.2711C177.555 62.2977 177.565 62.3237 177.576 62.3487C177.562 62.4423 177.548 62.5359 177.536 62.6275C177.526 62.6275 177.506 62.6494 177.506 62.6494C177.516 62.6715 177.527 62.6928 177.54 62.7131C177.47 63.5759 177.343 64.4331 177.16 65.2793C177.056 65.349 177.076 65.4505 177.086 65.5501C177.086 65.5839 177.086 65.6178 177.086 65.6516L176.945 66.3226C176.909 66.3617 176.882 66.4081 176.866 66.4586C176.85 66.5092 176.845 66.5626 176.851 66.6152L176.708 67.1527C176.684 67.1647 176.664 67.1849 176.654 67.2096C176.643 67.2343 176.641 67.2621 176.648 67.2881C176.237 68.5159 175.718 69.7046 175.095 70.8399C175.066 70.8443 175.037 70.8523 175.01 70.8638C174.949 70.8086 174.893 70.7494 174.84 70.6866C173.951 69.3125 173.418 67.739 173.288 66.1075C173.274 66.0183 173.291 65.9271 173.337 65.8489C173.382 65.7708 173.452 65.7103 173.536 65.6775C173.922 65.4844 174.249 65.1933 174.486 64.8334C174.826 64.2966 175.046 63.6933 175.133 63.0641C175.219 62.435 175.17 61.7945 174.988 61.1861C174.881 60.7835 174.644 60.4277 174.313 60.1747C174.247 60.1056 174.166 60.0529 174.076 60.0206C173.986 59.9884 173.89 59.9775 173.796 59.9889C173.701 60.0003 173.61 60.0337 173.531 60.0863C173.451 60.139 173.385 60.2094 173.337 60.2921C173.219 60.4697 173.118 60.6584 173.037 60.8556C172.719 61.6273 172.474 62.4272 172.306 63.2446C171.997 64.4551 171.846 65.6974 171.587 66.9198C171.343 68.0765 171.255 69.2631 170.99 70.4198C170.827 71.1385 170.719 71.8732 170.564 72.5958C170.514 73.0142 170.328 73.4044 170.034 73.7066C169.741 74.0088 169.356 74.2061 168.939 74.2682C167.676 74.4832 166.39 74.5334 165.113 74.4175C164.8 74.3956 164.492 74.3259 164.179 74.3259C163.471 74.3062 162.767 74.2155 162.077 74.0552C161.131 73.8561 160.18 73.6749 159.252 73.3982L159.053 73.3564C158.917 73.2458 158.748 73.1853 158.573 73.1851C158.236 73.075 157.937 72.873 157.709 72.6018C157.132 71.8766 156.797 70.9889 156.751 70.0634C156.717 69.8345 156.817 69.5836 156.785 69.3387C156.807 69.2892 156.817 69.2354 156.815 69.1813C156.814 69.1273 156.8 69.0743 156.775 69.0262L156.795 69.0401Z" fill="#5C3225"/>
<path d="M161.143 73.8779C162.071 74.1546 161.143 73.8778 162.089 74.0769C162.779 74.2375 163.483 74.3282 164.191 74.3477C164.502 74.3477 164.812 74.4194 165.125 74.4393C166.401 74.5554 167.688 74.5052 168.951 74.29C169.368 74.2279 169.753 74.0306 170.046 73.7284C170.34 73.4262 170.526 73.0359 170.576 72.6176C170.731 71.8949 170.837 71.1603 171.002 70.4416C171.267 69.2829 171.354 68.0983 171.599 66.9416C171.858 65.7192 172.009 64.4769 172.318 63.2684C172.486 62.451 172.731 61.6511 173.049 60.8793C173.13 60.6822 173.231 60.4935 173.349 60.3159C173.397 60.2332 173.463 60.1627 173.543 60.1101C173.623 60.0574 173.714 60.0241 173.808 60.0127C173.903 60.0013 174 60.0122 174.09 60.0444C174.179 60.0767 174.261 60.1294 174.327 60.1985C174.657 60.4515 174.895 60.8072 175.002 61.2098C175.184 61.8183 175.233 62.4587 175.146 63.0879C175.06 63.7171 174.839 64.3204 174.5 64.8571C174.263 65.2169 173.935 65.508 173.55 65.7013C173.467 65.7345 173.397 65.7951 173.352 65.8732C173.307 65.9513 173.29 66.0423 173.303 66.1313C173.433 67.7628 173.967 69.3364 174.856 70.7104C174.909 70.7733 174.965 70.8325 175.025 70.8875C175.027 70.9183 175.034 70.9485 175.045 70.9771C174.895 71.5466 174.809 72.1308 174.787 72.7192C174.703 73.842 174.661 74.9689 174.601 76.1037L172.81 77.9731C172.666 78.001 172.599 78.1244 172.509 78.216C169.965 80.8042 162.441 80.846 161.79 79.5698C161.708 79.4085 161.697 79.1716 161.45 79.1238C161.227 77.3944 161.126 75.6513 161.149 73.9077" fill="#D3926E"/>
<path d="M157.963 53.9253C158.588 54.2583 159.272 54.4672 159.976 54.5405C161.264 54.7077 162.56 54.7962 163.858 54.8053C165.27 54.8411 166.681 54.7933 168.093 54.861C168.865 54.87 169.636 54.9199 170.402 55.0103C170.647 55.045 170.886 55.1085 171.115 55.1995C171.609 55.3986 171.74 55.5638 171.712 56.0894C171.665 57.057 171.611 58.0245 171.537 58.9901C171.453 60.1722 171.303 61.3487 171.087 62.514C170.889 63.8976 170.5 65.2471 169.931 66.5236C169.887 66.6112 169.845 66.7028 169.793 66.7864C169.647 67.1791 169.361 67.5037 168.989 67.6972C168.618 67.8907 168.188 67.9393 167.782 67.8336C166.344 67.6627 164.934 67.3067 163.587 66.7745C162.62 66.3962 161.6 66.1718 160.563 66.1095C159.627 66.0707 158.69 66.1087 157.76 66.223C157.598 66.251 157.432 66.255 157.268 66.235C157.091 65.9497 157.011 65.6141 157.042 65.2793C156.962 64.0773 156.966 62.8713 157.053 61.6699C157.197 59.1547 157.482 56.6496 157.905 54.1662C157.919 54.0846 157.941 54.0069 157.961 53.9273L157.963 53.9253Z" fill="#D3926E"/>
</svg>
