<svg viewBox="0 0 360 250" fill="none" xmlns="http://www.w3.org/2000/svg">
<path d="M296.132 120.26C301.282 121.134 308.031 119.199 311.553 119.641C315.076 120.226 318.675 120.169 322.177 119.471H327.729C330.941 125.944 333.073 143.613 333.606 156.57C334.14 169.526 336.071 190.893 336.071 190.893L356 232.972L334.467 234.662L308.637 191.816L300.213 234.748H277.226C277.226 234.748 289.666 145.771 296.697 124.088L296.132 120.26Z" fill="#5B8EF5"/>
<path d="M298.593 234.744C299.911 239.258 300.567 243.938 300.54 248.64H271.232C271.232 248.64 271.033 239.976 278.485 239.152C285.937 238.328 285.885 234.674 285.885 234.674L298.593 234.744Z" fill="#192743"/>
<path d="M352.05 233.282C353.766 237.663 354.836 242.27 355.226 246.958L326.031 249.57C326.031 249.57 325.056 240.957 332.402 239.472C339.748 237.987 339.37 234.354 339.37 234.354L352.034 233.292L352.05 233.282Z" fill="#192743"/>
<path d="M334.839 229.876C336.21 229.713 337.586 229.55 338.956 229.382L353.547 227.636C353.702 227.617 353.702 227.376 353.547 227.392C352.175 227.555 350.8 227.718 349.43 227.885L334.839 229.631C334.683 229.651 334.683 229.892 334.839 229.876ZM279.691 229.918C282.527 230.195 285.369 230.398 288.216 230.525C288.188 230.449 288.177 230.368 288.184 230.288C288.192 230.207 288.217 230.129 288.258 230.059C288.275 230.019 288.301 229.984 288.334 229.956C288.367 229.927 288.407 229.907 288.449 229.897C288.491 229.886 288.535 229.885 288.578 229.895C288.62 229.904 288.66 229.923 288.694 229.95C288.825 230.035 288.694 230.245 288.57 230.163C288.447 230.081 288.427 230.404 288.465 230.481C288.475 230.502 288.487 230.521 288.501 230.539L288.795 230.551C288.898 230.487 288.988 230.404 289.06 230.306C289.303 229.832 289.476 229.325 289.574 228.801C289.912 227.625 290.244 226.447 290.569 225.267C291.226 222.933 291.873 220.594 292.508 218.251C293.769 213.59 294.984 208.915 296.154 204.228C297.33 199.518 298.458 194.797 299.538 190.064C300.612 185.354 301.639 180.634 302.62 175.905C303.604 171.155 304.541 166.393 305.433 161.621L305.632 160.555V160.356C305.571 156.651 305.509 152.945 305.445 149.239C305.382 145.533 305.315 141.81 305.246 138.068C305.246 137.61 305.23 137.154 305.222 136.701C305.226 136.671 305.241 136.643 305.263 136.624C305.286 136.604 305.315 136.593 305.345 136.593C305.375 136.593 305.404 136.604 305.426 136.624C305.449 136.643 305.463 136.671 305.467 136.701C305.528 140.406 305.591 144.112 305.654 147.818C305.715 151.504 305.778 155.19 305.841 158.877C305.841 159.172 305.841 159.474 305.857 159.763C305.877 159.762 305.896 159.765 305.914 159.773C305.932 159.78 305.949 159.791 305.962 159.806C305.975 159.82 305.984 159.838 305.99 159.857C305.995 159.875 305.996 159.895 305.993 159.914C305.953 160.135 305.911 160.354 305.871 160.571C305.924 163.709 305.977 166.849 306.031 169.99C306.088 173.43 306.124 176.875 306.411 180.307C306.647 183.726 307.293 187.105 308.334 190.371C308.469 190.769 308.611 191.167 308.758 191.556C308.816 191.703 308.579 191.769 308.521 191.621C307.363 188.444 306.617 185.131 306.301 181.764C305.935 178.34 305.865 174.896 305.808 171.456C305.75 168.232 305.696 165.006 305.644 161.778C304.812 166.243 303.937 170.701 303.02 175.153C301.972 180.247 300.868 185.328 299.709 190.397C298.555 195.44 297.348 200.474 296.09 205.498C294.825 210.541 293.504 215.571 292.126 220.587C291.44 223.085 290.742 225.577 290.032 228.064C289.861 228.672 289.701 229.285 289.51 229.884C289.442 230.131 289.326 230.363 289.168 230.565C291.327 230.647 293.487 230.685 295.648 230.679C297.166 230.679 298.685 230.653 300.203 230.601C300.362 230.601 300.358 230.842 300.203 230.846C296.421 230.964 292.638 230.947 288.855 230.796C288.788 230.824 288.716 230.837 288.643 230.835C288.571 230.832 288.5 230.813 288.435 230.78C287.031 230.718 285.632 230.641 284.226 230.543C282.712 230.437 281.199 230.309 279.687 230.159C279.532 230.143 279.532 229.898 279.687 229.914L279.691 229.918ZM320.158 147.143C320.604 140.127 320.598 133.09 320.142 126.075C320.069 125.198 319.982 124.323 319.881 123.451C319.865 123.296 320.11 123.296 320.126 123.451C320.797 130.407 320.931 137.403 320.524 144.379C320.24 151.361 319.782 158.346 319.899 165.338C319.887 172.252 320.854 179.133 322.77 185.776C325.214 192.604 328.393 199.146 332.251 205.287L343.499 225.068L344.933 227.587C344.944 227.615 344.946 227.646 344.936 227.674C344.926 227.703 344.906 227.727 344.88 227.742C344.854 227.757 344.823 227.762 344.793 227.756C344.764 227.749 344.737 227.732 344.72 227.708L333.371 207.747C329.506 201.565 326.162 195.07 323.375 188.332C321.142 181.862 319.918 175.087 319.748 168.244C319.449 161.212 319.849 154.173 320.164 147.141L320.158 147.143ZM310.934 124.001C311.249 124.532 313.397 128.381 313.705 128.91C315.372 131.757 316.622 133.887 317.542 135.46L319.706 139.153C319.788 139.289 320.64 141.188 319.493 139.277C317.428 135.75 315.361 132.224 313.293 128.697C313.009 128.211 310.904 124.391 310.596 123.919" fill="#192743"/>
<path d="M80.686 85.017C78.7902 83.5006 77.1448 81.6953 75.8102 79.6674C74.8442 78.2248 74.1891 76.5968 73.8868 74.887C73.5845 73.1773 73.6415 71.4234 74.0542 69.7369C75.0716 70.7323 77.7355 64.2839 75.5376 64.0828C73.3396 63.8817 73.664 65.6157 73.664 65.6157C69.2841 65.7969 60.2953 60.1328 60.2953 60.1328C60.4267 66.2867 62.2702 76.3666 63.176 77.5969C64.0819 78.8273 67.6297 78.4769 67.6297 78.4769C67.8331 80.7175 67.7871 82.9737 67.4923 85.2041C67.4923 85.2041 67.1379 93.0701 62.0393 96.6338C61.8402 93.8466 57.4603 82.829 58.5274 78.7736C60.1201 72.7451 57.6095 73.647 57.3885 68.6001C57.1676 63.5532 56.5165 57.483 61.1951 55.954C61.1951 55.954 63.4568 50.8971 73.8652 52.4659C80.3336 53.3121 82.6032 60.2523 83.1905 66.0478C83.8623 71.4653 84.8488 76.8392 86.145 82.1421C86.6965 84.7482 84.6677 95.0053 84.7752 96.6358C80.0667 94.7624 80.8811 85.0588 80.696 85.017C80.696 85.0269 80.6959 85.017 80.682 85.017H80.686Z" fill="#3A2604"/>
<path d="M67.6293 78.4788C67.6293 78.4788 64.0816 78.8272 63.1757 77.5989C62.2699 76.3705 60.4262 66.2906 60.2948 60.1348C60.2948 60.1348 69.2916 65.7988 73.6636 65.6177C73.6636 65.6177 73.3352 63.8816 75.5371 64.0847C77.739 64.2877 75.0713 70.7363 74.0539 69.7388C73.6413 71.4253 73.5843 73.1792 73.8866 74.8889C74.1889 76.5986 74.8438 78.2267 75.8098 79.6694C77.1452 81.6966 78.7905 83.5017 80.6855 85.0189C78.5556 86.3463 76.1053 87.0709 73.5959 87.1153C71.7105 87.1034 71.7185 89.3869 69.6141 87.9774L68.551 88.3755H66.0823C66.592 86.0362 67.6392 78.4709 67.6392 78.4709L67.6293 78.4788Z" fill="#8E5913"/>
<path d="M124.169 233.858C124.169 233.858 124.334 233.418 125.165 234.853C125.995 236.289 126.393 237.989 125.895 238.437C124.016 239.531 122.037 240.443 119.984 241.16C117.444 242.118 112.431 243.603 109.385 244.839C106.223 245.909 102.884 246.359 99.5517 246.167C97.5608 245.986 95.6535 245.371 95.5401 244.69C95.5468 243.845 95.6584 243.003 95.8725 242.186L124.169 233.858Z" fill="#192743"/>
<path d="M120.92 229.858C121.319 229.85 121.714 229.931 122.078 230.095C122.441 230.259 122.763 230.503 123.02 230.808C123.725 231.839 124.337 232.931 124.848 234.071C125.107 234.668 125.232 235.154 125.085 235.283C123.212 236.427 121.195 237.315 119.086 237.923C115.017 239.371 107.141 242.6 105.02 243.112C102.242 243.51 99.4226 243.544 96.6349 243.213L95.7668 242.988C95.7668 242.988 95.3687 241.614 97.489 240.858C100.378 239.823 103.718 238.347 103.718 238.347L109.456 233.396L111.772 231.071L120.92 229.858Z" fill="#192743"/>
<path d="M118.877 225.984L121.475 229.568L122.146 230.493C121.22 231.306 120.245 232.061 119.226 232.755C117.384 234.029 116.536 234.32 114.876 233.611C113.585 232.977 112.242 232.454 110.862 232.048C110.434 232.064 110.066 229.157 110.066 229.157L118.877 225.984Z" fill="#8E5913"/>
<path d="M86.2014 146.73C86.2014 146.73 87.2923 159.16 87.8537 163.384C89.07 169.856 90.7703 176.226 92.9404 182.443C93.9877 185.663 95.7585 188.601 98.1168 191.032C102.455 195.9 106.15 199.509 107.259 202.625C108.368 205.74 112.784 215.149 113.849 217.182C114.914 219.215 120.138 226.517 119.957 226.92C118.406 228.55 116.435 229.721 114.261 230.304C111.52 230.901 109.953 231.262 109.529 230.489C109.105 229.717 103.329 218.387 100.924 214.924C98.5189 211.462 89.8347 198.962 87.1869 196.696C84.1575 193.429 81.4703 189.861 79.1675 186.047C78.1163 184.408 68.3411 166.717 67.495 165.268C66.6489 163.818 86.2093 146.733 86.2093 146.733" fill="#FFCF2E"/>
<path d="M32.5237 239.816C32.584 240.302 32.5154 240.795 32.3246 241.246C32.0041 241.955 31.0405 243.328 30.4373 243.436C28.8259 243.39 27.2481 242.965 25.8324 242.194C23.8196 241.198 19.4616 239.48 17.3672 238.749C14.0838 237.604 10.9951 235.962 8.20892 233.882C6.42583 232.659 5.04524 230.935 4.24124 228.928C4.08658 228.284 4.18479 227.605 4.51586 227.031C4.87422 226.553 5.65672 225.767 5.98521 225.988C6.31371 226.209 32.5317 239.816 32.5317 239.816" fill="#192743"/>
<path d="M33.7427 233.848C33.7427 233.848 34.2782 234.204 34.1886 235.602C33.9441 237.37 33.3493 239.07 32.4388 240.605C31.961 241.003 30.0635 240.727 27.76 239.713C25.4566 238.7 19.1594 236.478 16.7365 235.411C13.537 233.966 10.4211 232.343 7.40323 230.549C6.22112 229.712 5.37945 228.477 5.032 227.071C4.95038 226.494 5.38643 225.721 6.57499 225.705C7.76355 225.689 10.3896 226.746 11.4667 226.82C12.5437 226.894 20.0275 227.503 21.9687 227.397C23.9098 227.292 25.8987 226.954 25.8987 226.954L33.7427 233.848Z" fill="#192743"/>
<path d="M34.8354 231.367C34.8354 231.367 34.1525 233.955 33.8619 234.686C33.5712 235.416 31.8709 235.691 30.2045 235.438C28.6742 235.11 27.2897 234.299 26.2546 233.125C26.0571 231.783 25.9659 230.428 25.9819 229.071C25.9105 228.435 25.905 227.793 25.9659 227.156L34.8354 231.367Z" fill="#8E5913"/>
<path d="M87.361 142.825C87.361 142.825 88.7546 148.301 86.1884 150.77C83.6221 153.239 81.0618 157.692 79.3497 159.331C77.6375 160.969 62.887 177.846 60.5298 180.703C57.7925 183.979 55.2872 187.443 53.0321 191.068C51.6485 193.59 48.8334 204.958 47.4835 208.369C46.1337 211.779 39.3209 222.018 38.4191 224.128C37.2668 226.982 35.9574 229.77 34.4969 232.478C34.0191 232.892 30.6287 232.036 28.2794 230.053C25.9302 228.07 25.2931 227.009 25.2812 226.615C26.333 224.763 27.4827 222.969 28.7254 221.24C28.7254 221.24 33.9256 207.702 36.3306 200.994C38.3285 194.876 39.9658 188.646 41.2342 182.336C42.0783 178.649 50.1473 160.163 51.5867 156.454C53.0261 152.745 60.052 143.097 60.052 143.097L58.7321 135.022C58.7321 135.022 62.1166 135.922 71.4578 137.363C77.0424 138.216 82.4287 140.064 87.361 142.819" fill="#FFCF2E"/>
<path d="M77.9717 82.2996C87.293 83.5578 88.5951 97.0799 88.6608 107.106C89.3238 114.811 90.363 142.51 88.5632 145.391C83.4765 141.73 59.763 144.107 59.3748 138.942C58.3236 124.988 57.7483 100.869 66.0761 88.3877C68.2661 88.1687 76.5821 82.7157 77.9757 82.2996" fill="#30B3AF"/>
<path d="M80.7139 88.7676C80.7139 88.7676 82.2309 88.4312 84.5145 91.8893C86.5292 95.5976 87.3016 99.8541 86.7184 104.034C86.0156 107.954 84.9883 111.742 84.188 116.509C83.3876 121.275 83.4156 122.545 82.1514 124.357C80.8872 126.168 81.4147 126.674 79.3641 127.94C78.2412 128.386 77.026 128.55 75.8251 128.418C74.6242 128.285 73.4741 127.86 72.4756 127.18C71.2469 127.192 70.0497 126.791 69.0751 126.043C67.9438 125.062 66.9465 123.937 66.1087 122.696L69.4474 113.208L72.6667 113.843C72.6667 113.843 72.0256 113.917 72.0913 110.403C72.157 106.889 71.7928 96.3867 74.0484 92.3731C76.3041 88.3595 77.6321 87.7821 80.7259 88.7736" fill="#30B3AF"/>
<path d="M90.5103 196.694L94.3349 164.718C94.4124 164.071 94.3617 163.414 94.1854 162.786C94.0092 162.158 93.7108 161.571 93.3076 161.058C92.9044 160.546 92.4041 160.118 91.8353 159.798C91.2666 159.479 90.6405 159.275 89.9928 159.198L48.2996 154.22C46.9922 154.067 45.6772 154.438 44.6426 155.252C43.6079 156.065 42.9378 157.256 42.7788 158.563L38.9543 190.538C38.8767 191.186 38.9275 191.842 39.1036 192.47C39.2797 193.098 39.5778 193.685 39.9808 194.198C40.3838 194.71 40.8839 195.139 41.4525 195.458C42.021 195.777 42.6469 195.982 43.2944 196.059L84.9876 201.036C85.6353 201.114 86.2918 201.063 86.9198 200.887C87.5478 200.711 88.135 200.412 88.6476 200.009C89.1603 199.606 89.5885 199.105 89.9078 198.537C90.227 197.968 90.4331 197.342 90.5103 196.694Z" fill="#883212"/>
<path d="M94.1219 166.502L94.2374 165.541C94.3283 164.785 94.2693 164.019 94.0639 163.286C93.8584 162.554 93.5106 161.869 93.0402 161.27C92.5698 160.672 91.986 160.173 91.3224 159.8C90.6587 159.428 89.9282 159.19 89.1725 159.1L87.6594 158.919C87.6758 160.741 88.3323 162.499 89.5141 163.886C90.6959 165.272 92.3276 166.199 94.1239 166.504L94.1219 166.502Z" fill="#192743"/>
<path d="M90.7236 194.908L90.6082 195.87C90.5179 196.625 90.2797 197.355 89.9072 198.019C89.5346 198.682 89.035 199.266 88.437 199.736C87.8389 200.206 87.1541 200.554 86.4215 200.76C85.689 200.966 84.9232 201.025 84.1677 200.934L82.6546 200.755C83.1 198.989 84.1522 197.435 85.6273 196.366C87.1024 195.297 88.9064 194.781 90.7236 194.908Z" fill="#192743"/>
<path d="M42.5684 160.336L42.6841 159.373C42.7742 158.617 43.012 157.887 43.3845 157.223C43.757 156.56 44.2567 155.976 44.8548 155.506C45.453 155.035 46.1379 154.687 46.8705 154.482C47.6031 154.276 48.3691 154.217 49.1246 154.308L50.6377 154.487C50.1927 156.254 49.1406 157.808 47.6655 158.877C46.1903 159.946 44.3859 160.463 42.5684 160.336Z" fill="#192743"/>
<path d="M39.17 188.74L39.0545 189.702C38.9636 190.458 39.0224 191.224 39.2278 191.956C39.4332 192.689 39.7813 193.374 40.2517 193.972C40.7221 194.571 41.3058 195.07 41.9694 195.442C42.633 195.815 43.3636 196.053 44.1192 196.143L45.6323 196.324C45.616 194.502 44.9596 192.744 43.7778 191.357C42.596 189.97 40.964 189.044 39.1678 188.739L39.17 188.74Z" fill="#192743"/>
<path d="M66.5644 156.396C66.5654 156.386 66.5654 156.376 66.5644 156.366L66.9627 152.948C66.9812 152.792 67.0303 152.642 67.1071 152.505C67.1839 152.368 67.2868 152.247 67.4101 152.15C67.5335 152.053 67.6746 151.982 67.8257 151.939C67.9768 151.897 68.1348 151.884 68.2906 151.903L74.8964 152.699C75.2108 152.737 75.4972 152.898 75.6928 153.147C75.8884 153.396 75.9772 153.713 75.9396 154.027L75.5275 157.473L76.9669 157.647L77.3791 154.2C77.4616 153.504 77.2643 152.803 76.8305 152.252C76.3968 151.7 75.762 151.344 75.0655 151.26L68.4598 150.464C67.7633 150.381 67.0626 150.579 66.5114 151.013C65.9602 151.446 65.6036 152.081 65.5194 152.777L65.1211 156.195C65.1211 156.195 65.1211 156.215 65.1211 156.223L66.5566 156.394L66.5644 156.396Z" fill="#192743"/>
<path d="M82.9801 158.328L85.3188 158.608L82.9945 178.004L80.6557 177.724L82.9801 158.328Z" fill="#FCBF8F"/>
<path d="M77.8535 175.015L86.0273 175.995L85.4621 180.711L77.2883 179.732L77.8535 175.015Z" fill="#192743"/>
<path d="M52.9889 154.74L55.3276 155.021L53.0033 174.416L50.6645 174.136L52.9889 154.74Z" fill="#FCBF8F"/>
<path d="M48.1989 171.47L56.373 172.447L55.809 177.164L47.6349 176.186L48.1989 171.47Z" fill="#192743"/>
<path d="M72.5528 137.979C70.5692 139.699 68.7068 141.553 66.9785 143.529C65.7242 145.267 63.2295 145.972 63.9263 147.031C64.6231 148.09 68.1511 146.024 68.1511 146.024C68.1511 146.024 67.4802 150.404 67.072 151.7C66.6639 152.996 66.5224 155.544 67.4422 155.945C68.362 156.345 69.8812 149.918 69.8812 149.918C69.8812 149.918 69.1225 155.469 69.897 156.02C70.6714 156.572 72.6544 149.677 72.6544 149.677C72.2078 151.79 71.9453 153.938 71.8699 156.096C72.1785 156.641 72.8655 156.273 73.7474 154.304C74.3237 152.943 74.7534 151.525 75.0295 150.073C75.0295 150.073 74.5657 154.266 74.6811 154.794C74.7966 155.321 75.3322 155.966 76.3336 152.896C77.6966 148.411 78.1235 143.693 77.5879 139.036L72.5528 137.979Z" fill="#8E5913"/>
<path d="M78.8959 145.389L66.3633 143.83L71.7805 99.1048L78.4081 93.6079L85.4897 102.221L78.8959 145.389Z" fill="#30B3AF"/>
<path d="M146.881 22.2204L155.667 21.4121V241.457L146.881 241.36V22.2204Z" fill="#CDF5D8"/>
<path d="M89.0578 11.9134L97.2881 9.89062L155.667 26.0626L146.881 26.8251L89.0578 11.9134Z" fill="#FFF2EB"/>
<path d="M83.7898 0.947663L91.3413 0V250L83.7978 249.783L83.7898 0.947663Z" fill="#CDF5D8"/>
<path d="M159.629 20.3369V240.814L155.647 241.469V26.0588L97.3499 10.1535V248.887L91.3334 249.972V0L159.629 20.3369Z" fill="#48A466"/>
<path d="M157.124 25.7603H273.139V241.38H157.124V25.7603Z" fill="#48A466"/>
<path d="M258.132 149.183C259.091 149.181 260.011 148.798 260.689 148.12C261.368 147.441 261.75 146.521 261.753 145.562V123.103C261.753 122.142 261.371 121.221 260.692 120.542C260.013 119.863 259.092 119.481 258.132 119.481C257.171 119.481 256.25 119.863 255.571 120.542C254.892 121.221 254.51 122.142 254.51 123.103V145.556C254.513 146.516 254.895 147.435 255.574 148.114C256.252 148.792 257.172 149.175 258.132 149.177" fill="#192743"/>
<path d="M239.051 129.543H257.835C258.235 129.543 258.618 129.384 258.901 129.102C259.184 128.819 259.342 128.436 259.342 128.036C259.342 127.636 259.184 127.253 258.901 126.97C258.618 126.688 258.235 126.529 257.835 126.529H239.051C238.651 126.529 238.268 126.688 237.985 126.97C237.703 127.253 237.544 127.636 237.544 128.036C237.544 128.436 237.703 128.819 237.985 129.102C238.268 129.384 238.651 129.543 239.051 129.543Z" fill="#192743"/>
<path d="M307.577 77.6865C305.689 79.3268 303.901 81.0786 302.222 82.9325C301.129 84.4078 299.106 95.941 299.106 95.941L306.871 93.4823L310.422 80.639L307.577 77.6865Z" fill="#3B545E"/>
<path d="M224.428 144.399C224.284 140.915 223.758 137.456 222.859 134.087C221.888 130.247 221.14 126.354 220.617 122.428L219.608 110.544L218.975 88.3539C218.975 88.3539 216.271 82.238 214.252 81.4535C212.234 80.6691 205.759 79.0346 204.188 77.9137L201.841 76.8506L202.637 80.3983C203.969 84.6733 204.952 89.049 205.578 93.4825C207.21 105.073 207.913 110.672 208.463 118.727C209.012 126.782 208.747 147.501 211.664 147.396C214.581 147.29 224.434 146.315 224.434 146.315C224.434 146.315 224.659 146.763 224.434 144.409" fill="#30B3AF"/>
<path d="M253.089 119.328C253.089 119.328 255.356 120.558 255.55 120.634C256.122 120.511 256.677 120.317 257.202 120.057C257.401 119.979 258.779 119.173 259.432 119.366C260.324 119.895 261.086 120.618 261.662 121.48L266.506 128.592C266.506 128.592 267.501 129.587 267.427 130.053C267.401 130.182 267.349 130.304 267.273 130.411C267.198 130.519 267.101 130.61 266.989 130.679C266.877 130.747 266.752 130.792 266.622 130.81C266.492 130.828 266.359 130.819 266.233 130.784C266.233 130.784 265.886 131.437 265.771 131.668C265.655 131.898 264.576 131.821 264.576 131.821C264.576 131.821 264.23 133.089 263.461 133.282C262.693 133.475 262.693 133.244 262.693 133.244C262.693 133.244 262.577 134.206 262.155 134.24C261.733 134.274 260.925 133.431 260.925 133.431L254.198 128.665C254.198 128.665 252.583 126.897 252.277 126.589C251.321 126.226 250.328 125.968 249.316 125.82C249.143 125.13 249.126 124.409 249.265 123.711C249.405 123.013 249.699 122.355 250.124 121.785C251.586 119.67 252.201 119.364 253.083 119.324" fill="#D3926E"/>
<path d="M256.125 124.669C256.663 124.17 258.116 123.17 258.116 123.17C258.116 123.17 258.355 122.908 258.699 122.539L259.038 122.937C259.22 123.712 259.62 124.419 260.19 124.974C261.186 126.011 262.074 125.512 262.036 124.775C262.021 123.663 261.892 122.556 261.652 121.47C261.4 121.093 261.11 120.742 260.788 120.423C260.951 120.257 261.138 120.118 261.343 120.009C262.057 119.704 262.841 119.598 263.611 119.702C264.341 119.933 266.796 120.664 266.796 120.664C266.796 120.664 267.296 128.89 267.143 128.928C266.989 128.966 265.297 129.659 265.297 129.659C265.297 129.659 264.103 128.928 263.376 129.159C262.649 129.39 262.838 130.62 262.838 130.62C262.662 130.533 262.466 130.493 262.27 130.507C262.074 130.521 261.885 130.587 261.723 130.698C261.146 131.082 261.524 132.159 261.524 132.159L261.102 132.39C260.68 132.621 261.256 133.658 261.256 133.658C261.256 133.658 260.26 134.08 259.872 133.889C259.553 133.656 259.29 133.354 259.103 133.005C258.713 133.09 258.305 133.036 257.951 132.852C257.827 132.752 257.734 132.621 257.68 132.472C257.626 132.323 257.613 132.161 257.644 132.006C257.407 132.071 257.158 132.08 256.916 132.033C256.674 131.987 256.447 131.885 256.25 131.737C256.102 131.63 255.987 131.482 255.919 131.312C255.851 131.142 255.832 130.956 255.866 130.776C255.402 130.616 254.927 130.488 254.445 130.391C254.061 130.353 253.561 129.585 253.561 129.585C253.407 128.827 253.368 128.049 253.445 127.28C253.599 126.242 255.56 125.165 256.097 124.665" fill="#FCBF8F"/>
<path d="M315.894 79.3985C317.995 79.7893 319.923 80.8206 321.415 82.351C323.605 84.7898 324.624 91.083 324.624 94.6786C324.624 98.2741 320.131 104.822 320.131 104.822C320.131 104.822 304.723 120.488 300.998 122.541C297.273 124.594 292.78 124.98 285.718 127.034C278.656 129.089 267.955 132.36 267.185 131.846C264.96 128.093 263.641 123.872 263.332 119.519C263.332 119.519 272.106 117.528 275.188 116.889C278.27 116.25 291.88 108.925 293.164 108.671C294.448 108.416 296.373 105.461 296.373 105.461C296.373 105.461 300.096 93.1336 302.921 89.1538C305.746 85.174 311.267 78.4966 315.89 79.3985" fill="#192743"/>
<path d="M188.184 118.749C188.184 118.749 190.219 118.229 190.445 117.815C190.672 117.401 191.254 115.296 191.666 115.207C192.078 115.117 192.556 114.233 192.924 113.939C193.292 113.644 193.72 113.686 194.091 114.337C194.461 114.988 194.051 115.394 194.503 116.961C195.186 118.567 196.172 120.028 197.406 121.263C198.202 122.141 198.998 123.282 198.998 123.282C200.139 123.535 201.307 123.637 202.474 123.584C204.282 123.479 205.534 123.344 206.016 124.04C206.498 124.737 205.192 125.165 204.41 125.235C203.627 125.305 202.1 125.331 202.1 125.331C202.1 125.331 202.56 126.081 202.126 126.539C201.692 126.997 201.131 126.652 199.936 126.177C198.741 125.701 198.144 126.226 197.181 125.978C195.719 125.353 194.205 124.859 192.655 124.502C191.216 124.674 189.805 125.026 188.455 125.551C187.731 123.356 187.636 121.003 188.18 118.757" fill="#D3926E"/>
<path d="M210.131 80.2149C217.462 80.2925 219.011 89.807 222.883 94.1511C224.064 97.448 233.924 107.339 238.288 109.859C241.898 112.153 246.969 116.857 251.665 118.251C254.313 119.35 252.591 126.147 251.05 128.245C237.761 126.503 221.897 114.707 212.381 105.565L210.131 80.2129" fill="#FFCF2E"/>
<path d="M306.853 73.4559L306.796 71.9488C304.545 72.1726 302.273 72.0464 300.06 71.5745C298.239 70.81 296.132 55.1059 296.132 55.1059C300.076 57.1187 306.829 54.6838 306.829 54.6838L309.019 61.0149L310.184 60.9133C310.25 60.3203 310.409 59.7412 310.654 59.1972C310.706 59.0894 310.763 58.9844 310.825 58.8826C310.885 58.7821 310.952 58.6856 311.024 58.5939C311.099 58.5029 311.181 58.419 311.271 58.3431C311.317 58.3053 311.361 58.2694 311.409 58.2376C311.66 58.061 311.961 57.9678 312.269 57.9708C312.684 57.9845 313.089 58.1 313.449 58.3072C313.887 58.5072 314.243 58.8519 314.457 59.2835C314.67 59.715 314.728 60.2069 314.622 60.6764C314.61 60.7521 314.596 60.8277 314.58 60.8994C314.498 61.2513 314.379 61.5936 314.226 61.9207C314.186 62.0103 314.142 62.0999 314.098 62.1875C314.054 62.2751 314.031 62.3189 313.995 62.3866C313.959 62.4543 313.899 62.5558 313.851 62.6354C313.804 62.7151 313.738 62.8246 313.686 62.9062C313.516 63.1754 313.33 63.4347 313.131 63.6826C314.594 65.9569 316.274 68.0838 318.148 70.0336L318.47 72.793L317.039 72.8766L306.849 73.4738L306.853 73.4559Z" fill="#FCBF8F"/>
<path d="M313.691 62.8981C313.747 62.8131 313.802 62.7229 313.857 62.6273C313.911 62.5317 313.959 62.4488 314 62.3784C314.036 62.3147 314.068 62.251 314.103 62.1794C314.139 62.1077 314.189 62.0042 314.231 61.9126C314.384 61.5854 314.503 61.2431 314.585 60.8913C314.603 60.8156 314.615 60.7399 314.627 60.6663C314.734 60.1968 314.675 59.7048 314.462 59.2733C314.248 58.8418 313.892 58.4971 313.454 58.2971C313.094 58.0903 312.689 57.9748 312.274 57.9607C311.966 57.9588 311.666 58.052 311.414 58.2274C311.366 58.2593 311.32 58.2951 311.276 58.333C311.187 58.4096 311.105 58.4936 311.03 58.5838C310.957 58.6755 310.89 58.7719 310.83 58.8725C310.767 58.974 310.71 59.0791 310.659 59.187C310.414 59.7311 310.255 60.3101 310.189 60.9032L309.025 61.0027L306.835 54.6717C306.835 54.6717 300.08 57.1086 296.138 55.0938C292.421 53.081 295.238 45.7366 299.92 46.5051C304.603 47.2736 306.146 48.8742 308.115 48.2471C310.084 47.62 317.237 43.6123 320.797 51.1976C324.357 58.7829 321.316 68.7314 318.169 70.0135C316.295 68.0638 314.615 65.9369 313.152 63.6626C313.352 63.4146 313.537 63.1554 313.707 62.8861L313.691 62.8981Z" fill="#DD7222"/>
<path d="M306.395 72.7552L319.026 72.0186C319.026 72.0186 319.38 76.8425 320.385 77.0635C321.391 77.2845 335.639 82.2398 334.975 88.74C334.31 95.2403 331.53 111.49 329.175 123.334L296.126 126.35L281.806 123.395L283.259 115.05L288.117 115.318C288.117 115.318 284.233 83.5538 291.804 80.2011C296.672 78.1072 301.784 76.6356 307.02 75.8212L306.383 72.7433L306.395 72.7552Z" fill="#192743"/>
<path d="M198.342 128.239L203.197 128.637L202.449 165.795H216.624L217.297 233.535H199.437C197.048 213.298 195.55 143.507 195.55 143.507C192.606 167.476 198.338 128.235 198.338 128.235" fill="#192743"/>
<path d="M177.527 233.812C176.659 237.824 176.116 241.9 175.902 246H201.69C201.69 246 201.877 238.709 196.106 237.909C192.723 237.472 189.544 236.045 186.97 233.808H177.527V233.812Z" fill="#30B3AF"/>
<path d="M187.055 75.9426C179.382 78.1067 168.92 79.8945 165.416 88.0134C161.912 96.1322 154.934 119.127 155.929 125.108C156.925 131.088 164.07 131.255 164.07 131.255C164.07 131.255 165.603 156.677 166.26 167.709H188.498L187.75 130.551L192.605 130.153L193.402 117.1C191.88 116.745 190.328 116.534 188.767 116.469L187.055 75.9426Z" fill="#FFCF2E"/>
<path d="M222.376 97.4817C222.376 97.4817 224.098 144.767 225.199 167.706H202.923C202.923 167.706 198.776 85.1103 198.387 75.6138C205.133 76.5336 211.577 80.7742 214.253 81.4511" fill="#FFCF2E"/>
<path d="M198.387 75.6138C198.387 75.6138 191.668 84.4912 187.039 75.9423L188.731 115.796H200.326C199.4 97.1473 198.546 79.6792 198.381 75.6138H198.387Z" fill="white"/>
<path d="M200.333 115.794H188.74L188.77 116.463C190.331 116.527 191.883 116.738 193.405 117.094L192.608 130.146L187.752 130.545L188.501 167.703H174.326L173.653 235.443H191.513C193.902 215.205 195.399 145.415 195.399 145.415C198.344 169.383 202.728 140.475 200.329 115.788" fill="#192743"/>
<path d="M218.647 158.182C219.939 156.659 220.778 154.803 221.067 152.827C221.532 150.209 221.687 147.545 221.529 144.891C221.526 144.814 221.494 144.741 221.439 144.688C221.383 144.634 221.31 144.603 221.233 144.602L214.611 144.465H214.599L207.977 144.602C207.901 144.604 207.827 144.635 207.772 144.689C207.717 144.742 207.685 144.814 207.681 144.891C207.525 147.545 207.68 150.209 208.143 152.827C208.432 154.803 209.271 156.659 210.564 158.182C211.092 158.717 211.722 159.141 212.416 159.43C213.11 159.72 213.854 159.869 214.606 159.869C215.358 159.869 216.102 159.72 216.796 159.43C217.49 159.141 218.12 158.717 218.649 158.182M214.607 145.07L220.938 145.202C221.165 151.328 220.221 155.668 218.213 157.762C217.74 158.237 217.178 158.614 216.56 158.871C215.941 159.128 215.278 159.261 214.608 159.261C213.938 159.261 213.275 159.128 212.656 158.871C212.038 158.614 211.476 158.237 211.004 157.762C208.995 155.666 208.055 151.326 208.278 145.202L214.607 145.07ZM179.952 158.182C181.244 156.659 182.083 154.803 182.373 152.827C182.837 150.209 182.992 147.545 182.834 144.891C182.831 144.814 182.799 144.741 182.744 144.688C182.689 144.634 182.615 144.603 182.538 144.602L175.916 144.465H175.904L169.282 144.602C169.206 144.604 169.133 144.635 169.078 144.689C169.023 144.742 168.99 144.814 168.986 144.891C168.83 147.545 168.985 150.209 169.448 152.827C169.737 154.803 170.576 156.659 171.869 158.182C172.397 158.717 173.027 159.141 173.721 159.43C174.415 159.72 175.159 159.869 175.911 159.869C176.663 159.869 177.407 159.72 178.101 159.43C178.795 159.141 179.425 158.717 179.954 158.182H179.952ZM175.91 145.07L182.241 145.202C182.468 151.328 181.524 155.668 179.516 157.762C179.043 158.237 178.481 158.614 177.863 158.871C177.244 159.128 176.581 159.261 175.911 159.261C175.241 159.261 174.578 159.128 173.959 158.871C173.341 158.614 172.779 158.237 172.307 157.762C170.298 155.666 169.358 151.326 169.581 145.202L175.91 145.07ZM171.437 131.851C168.974 131.851 166.459 131.769 164.042 131.554C164.001 131.553 163.96 131.544 163.923 131.527C163.885 131.51 163.852 131.485 163.824 131.454C163.796 131.424 163.775 131.388 163.762 131.348C163.749 131.309 163.745 131.268 163.748 131.227C163.752 131.185 163.764 131.146 163.784 131.109C163.804 131.073 163.831 131.041 163.863 131.016C163.896 130.991 163.934 130.972 163.974 130.962C164.014 130.952 164.055 130.95 164.096 130.957C171.975 131.442 179.882 131.206 187.718 130.252C187.759 130.242 187.802 130.242 187.844 130.25C187.885 130.258 187.925 130.274 187.96 130.298C187.994 130.323 188.024 130.354 188.046 130.39C188.068 130.426 188.082 130.467 188.087 130.509C188.092 130.551 188.089 130.593 188.076 130.634C188.064 130.675 188.044 130.712 188.016 130.744C187.988 130.776 187.954 130.802 187.916 130.82C187.878 130.838 187.836 130.848 187.794 130.849C182.364 131.489 176.903 131.821 171.437 131.845V131.851ZM188.771 116.766H188.739C181.415 115.957 174.459 115.553 174.389 115.547C174.34 115.544 174.292 115.529 174.25 115.504C174.208 115.478 174.173 115.442 174.148 115.4C174.123 115.357 174.109 115.31 174.107 115.26C174.104 115.211 174.114 115.162 174.134 115.117C176.938 108.901 178.977 102.368 180.206 95.6604C180.208 95.6184 180.219 95.5772 180.238 95.5396C180.256 95.502 180.283 95.4688 180.315 95.4419C180.347 95.415 180.385 95.3951 180.425 95.3835C180.466 95.372 180.508 95.3689 180.55 95.3746C180.591 95.3803 180.631 95.3946 180.667 95.4166C180.703 95.4386 180.734 95.4678 180.758 95.5023C180.782 95.5369 180.798 95.576 180.806 95.6173C180.814 95.6585 180.813 95.701 180.804 95.742C179.606 102.366 177.611 108.821 174.861 114.966C176.499 115.07 182.52 115.466 188.797 116.161C188.876 116.17 188.949 116.21 188.999 116.272C189.049 116.334 189.072 116.414 189.064 116.493C189.056 116.567 189.021 116.635 188.966 116.684C188.911 116.733 188.839 116.76 188.765 116.76L188.771 116.766Z" fill="#192743"/>
<path d="M193.404 117.096L198.29 116.523C198.29 116.523 202.192 116.324 202.443 117.733C202.694 119.143 203.412 125.956 200.85 126.344C198.181 126.55 195.5 126.55 192.831 126.344L193.394 117.1L193.404 117.096Z" fill="#DB9A6E"/>
<path d="M203.335 233.543C202.467 237.556 201.924 241.631 201.71 245.731H227.496C227.496 245.731 227.684 238.441 221.912 237.64C218.529 237.203 215.35 235.777 212.776 233.539H203.335V233.543Z" fill="#30B3AF"/>
<path d="M203.205 69.0401C203.124 68.2207 203.001 67.406 202.837 66.5993C202.789 66.5754 202.769 66.5415 202.799 66.4918L202.727 66.2369C202.564 66.2567 202.399 66.2527 202.237 66.225C201.308 66.11 200.37 66.0714 199.434 66.1095C198.398 66.1721 197.377 66.3965 196.41 66.7745C195.063 67.3071 193.653 67.6631 192.215 67.8336C191.81 67.9397 191.38 67.8913 191.008 67.6978C190.636 67.5042 190.35 67.1794 190.204 66.7864C190.153 66.7028 190.113 66.6112 190.067 66.5236C189.498 65.247 189.109 63.8976 188.91 62.514C188.695 61.3487 188.544 60.1722 188.46 58.9901C188.387 58.0245 188.331 57.057 188.283 56.0894C188.257 55.5638 188.391 55.4005 188.88 55.1994C189.11 55.1086 189.349 55.0451 189.593 55.0103C190.36 54.9196 191.131 54.8698 191.903 54.861C193.314 54.7933 194.726 54.8391 196.137 54.8052C197.436 54.7963 198.732 54.7078 200.02 54.5405C200.724 54.4673 201.407 54.2583 202.032 53.9253H202.064C202.044 53.8556 202.08 53.8317 202.144 53.8317C202.368 53.7066 202.553 53.5219 202.679 53.2981C202.78 53.1527 202.897 53.0192 203.028 52.9C203.054 52.8144 203.143 52.8283 203.199 52.7905L203.211 52.7726L203.265 52.6431C203.26 52.6361 203.257 52.6281 203.256 52.6198C203.255 52.6116 203.255 52.6031 203.258 52.595C203.26 52.5869 203.264 52.5794 203.269 52.573C203.274 52.5665 203.281 52.5613 203.289 52.5575C203.285 52.547 203.284 52.5359 203.286 52.525C203.287 52.5141 203.291 52.5036 203.298 52.4945C203.304 52.4853 203.312 52.4776 203.321 52.472C203.331 52.4664 203.341 52.4629 203.352 52.462C203.382 52.3696 203.437 52.287 203.51 52.2231C203.51 52.1633 203.527 52.1176 203.597 52.1116C203.629 52.0519 203.597 51.9643 203.677 51.9284C203.933 51.5114 204.046 51.0219 203.997 50.5348C203.97 50.0415 203.868 49.5553 203.693 49.0934C203.283 48.3219 202.708 47.6498 202.01 47.1244C201.332 46.5441 200.459 46.2425 199.568 46.2803L198.391 46.4535V46.4674C198.227 46.5854 198.028 46.6462 197.826 46.6406C197.185 46.8178 196.591 47.1244 195.968 47.3494C195.268 47.6472 194.55 47.9012 193.818 48.1099C193.48 48.2407 193.123 48.3179 192.761 48.3388L192.574 48.3627L191.988 48.4503C191.732 48.5365 191.456 48.5516 191.192 48.4941L191.082 48.4782L190.8 48.5419L188.55 48.8644C187.232 49.1195 186.033 49.7959 185.134 50.7916C184.146 51.9742 183.455 53.3765 183.121 54.8809C182.649 56.7317 182.394 58.6312 182.362 60.541C182.362 60.5549 182.38 60.5709 182.378 60.5848C182.371 60.6139 182.362 60.6425 182.35 60.6704C182.35 60.8695 182.362 61.0507 182.368 61.2398C182.39 61.2876 182.401 61.3396 182.401 61.3921C182.401 61.4446 182.39 61.4966 182.368 61.5444L182.43 62.2352C182.43 62.2472 182.454 62.2611 182.452 62.2711C182.445 62.2977 182.435 62.3237 182.424 62.3487C182.438 62.4423 182.452 62.5359 182.464 62.6275C182.474 62.6275 182.494 62.6494 182.494 62.6494C182.484 62.6715 182.473 62.6928 182.46 62.7131C182.53 63.5759 182.657 64.4331 182.84 65.2793C182.944 65.349 182.924 65.4505 182.914 65.5501C182.914 65.5839 182.914 65.6178 182.914 65.6516L183.055 66.3225C183.091 66.3617 183.118 66.4081 183.134 66.4586C183.15 66.5092 183.155 66.5626 183.149 66.6152L183.292 67.1527C183.316 67.1647 183.336 67.1849 183.346 67.2096C183.357 67.2343 183.359 67.2621 183.352 67.2881C183.763 68.5159 184.282 69.7046 184.905 70.8399C184.934 70.8443 184.963 70.8523 184.99 70.8638C185.051 70.8086 185.107 70.7494 185.16 70.6866C186.049 69.3125 186.582 67.739 186.712 66.1075C186.726 66.0183 186.709 65.9271 186.663 65.8489C186.618 65.7708 186.548 65.7103 186.464 65.6775C186.078 65.4844 185.751 65.1933 185.514 64.8334C185.174 64.2966 184.954 63.6933 184.867 63.0641C184.781 62.435 184.83 61.7945 185.012 61.1861C185.119 60.7835 185.356 60.4277 185.687 60.1747C185.753 60.1056 185.834 60.0529 185.924 60.0206C186.014 59.9884 186.11 59.9775 186.204 59.9889C186.299 60.0003 186.39 60.0337 186.469 60.0863C186.549 60.139 186.615 60.2094 186.663 60.2921C186.781 60.4697 186.882 60.6584 186.963 60.8556C187.281 61.6273 187.526 62.4272 187.694 63.2446C188.003 64.4551 188.154 65.6974 188.413 66.9198C188.657 68.0765 188.745 69.2631 189.01 70.4198C189.173 71.1385 189.281 71.8732 189.436 72.5958C189.486 73.0142 189.672 73.4044 189.966 73.7066C190.259 74.0088 190.644 74.2061 191.061 74.2682C192.324 74.4832 193.61 74.5334 194.887 74.4175C195.2 74.3956 195.508 74.3259 195.821 74.3259C196.529 74.3062 197.233 74.2155 197.923 74.0552C198.869 73.8561 199.82 73.6749 200.748 73.3982L200.947 73.3564C201.083 73.2458 201.252 73.1853 201.427 73.1851C201.764 73.075 202.063 72.8729 202.291 72.6018C202.868 71.8766 203.203 70.9889 203.249 70.0634C203.283 69.8345 203.183 69.5836 203.215 69.3387C203.193 69.2892 203.183 69.2354 203.185 69.1813C203.186 69.1273 203.2 69.0743 203.225 69.0262L203.205 69.0401Z" fill="#5C3225"/>
<path d="M198.857 73.8781C197.929 74.1548 198.857 73.8781 197.911 74.0772C197.221 74.2378 196.517 74.3285 195.809 74.3479C195.498 74.3479 195.188 74.4196 194.875 74.4395C193.599 74.5556 192.312 74.5054 191.049 74.2902C190.632 74.2281 190.247 74.0308 189.954 73.7286C189.66 73.4265 189.474 73.0362 189.424 72.6179C189.269 71.8952 189.163 71.1605 188.998 70.4418C188.733 69.2831 188.646 68.0985 188.401 66.9418C188.142 65.7194 187.991 64.4771 187.682 63.2687C187.514 62.4512 187.269 61.6514 186.951 60.8796C186.87 60.6824 186.769 60.4938 186.651 60.3162C186.603 60.2334 186.537 60.1629 186.457 60.1103C186.377 60.0577 186.286 60.0243 186.191 60.0129C186.097 60.0015 186 60.0124 185.91 60.0447C185.821 60.0769 185.739 60.1296 185.673 60.1987C185.343 60.4517 185.105 60.8075 184.998 61.2101C184.816 61.8185 184.767 62.459 184.854 63.0882C184.94 63.7173 185.161 64.3206 185.5 64.8574C185.737 65.2171 186.065 65.5082 186.45 65.7015C186.533 65.7347 186.603 65.7953 186.648 65.8734C186.693 65.9515 186.71 66.0425 186.697 66.1315C186.567 67.7631 186.033 69.3367 185.144 70.7106C185.091 70.7735 185.035 70.8327 184.975 70.8878C184.973 70.9185 184.966 70.9488 184.955 70.9774C185.105 71.5468 185.191 72.131 185.213 72.7194C185.297 73.8423 185.339 74.9691 185.399 76.1039L187.19 77.9734C187.334 78.0012 187.401 78.1247 187.491 78.2163C190.035 80.8044 197.559 80.8462 198.21 79.57C198.292 79.4088 198.303 79.1719 198.55 79.1241C198.773 77.3946 198.874 75.6516 198.851 73.908" fill="#D3926E"/>
<path d="M202.036 53.9253C201.411 54.2583 200.728 54.4672 200.023 54.5405C198.736 54.7077 197.439 54.7962 196.141 54.8053C194.73 54.8411 193.318 54.7933 191.907 54.861C191.135 54.87 190.364 54.9199 189.597 55.0103C189.353 55.045 189.114 55.1085 188.884 55.1995C188.391 55.3986 188.259 55.5638 188.287 56.0894C188.335 57.057 188.389 58.0245 188.462 58.9901C188.546 60.1722 188.696 61.3487 188.912 62.514C189.11 63.8976 189.5 65.2471 190.069 66.5236C190.113 66.6112 190.155 66.7028 190.206 66.7864C190.352 67.1791 190.639 67.5037 191.01 67.6972C191.382 67.8907 191.812 67.9393 192.217 67.8336C193.655 67.6627 195.065 67.3067 196.412 66.7745C197.379 66.3962 198.4 66.1718 199.436 66.1095C200.372 66.0707 201.31 66.1087 202.239 66.223C202.402 66.251 202.567 66.255 202.731 66.235C202.909 65.9497 202.989 65.6141 202.958 65.2793C203.037 64.0773 203.033 62.8713 202.946 61.6699C202.802 59.1547 202.518 56.6496 202.094 54.1662C202.08 54.0846 202.058 54.0069 202.038 53.9273L202.036 53.9253Z" fill="#D3926E"/>
</svg>
