<svg viewBox="0 0 361 250" fill="none" xmlns="http://www.w3.org/2000/svg">
<mask id="mask0_1330_43462" style="mask-type:luminance" maskUnits="userSpaceOnUse" x="58" y="0" width="246" height="250">
<path d="M303.203 0H58V250H303.203V0Z" fill="white"/>
</mask>
<g mask="url(#mask0_1330_43462)">
<path d="M269.344 135.941C270.013 137.673 269.431 143.279 268.501 144.027C266.82 145.392 260.429 147.022 260.866 148.437C261.302 149.851 272.938 151.101 273.808 148.701C274.679 146.302 273.696 140.279 274.704 136.849C272.939 136.433 271.148 136.13 269.344 135.941Z" fill="#966018"/>
<path d="M273.884 146.341C273.819 146.962 274.273 148.546 273.851 149.024C272.67 150.369 261.622 150.176 260.78 148.467C260.156 147.201 264.876 145.665 265.742 145.43C267.578 148.16 271.252 146.938 273.882 146.341" fill="#192743"/>
<path d="M247.212 135.996C247.895 137.716 247.301 143.283 246.373 144.027C244.692 145.374 238.277 147.015 238.715 148.432C239.154 149.848 250.832 151.099 251.703 148.702C252.573 146.304 251.568 140.339 252.595 136.912C250.823 136.491 249.025 136.184 247.212 135.996Z" fill="#966018"/>
<path d="M251.775 146.353C251.711 146.972 252.167 148.544 251.747 149.024C250.566 150.369 239.478 150.174 238.632 148.464C238.004 147.196 242.728 145.658 243.607 145.423C245.453 148.164 249.129 146.938 251.775 146.353Z" fill="#192743"/>
<path d="M278.314 29.6062C282.302 36.0913 287.895 44.8598 290.16 51.4882C292.074 56.5191 293.486 61.7268 294.376 67.0354C293.243 67.0268 292.363 67.718 291.265 67.7777C288.866 61.7074 286.038 53.5259 283.089 48.2099C280.14 42.8938 277.718 40.6718 275.285 35.6152C276.384 33.8096 277.182 31.3487 278.314 29.6079" fill="#966018"/>
<path d="M239.656 62.7434C238.132 63.3121 236.706 64.1134 235.427 65.119C234.603 65.7095 233.166 65.6309 233.226 66.3426C233.285 67.0542 234.932 66.6839 235.355 66.6839C234.895 67.5064 234.374 68.2936 233.797 69.0391C233.389 69.5698 232.603 70.6227 233.193 70.9914C233.784 71.36 235.144 69.2387 235.439 68.8308C235.243 69.3121 233.891 71.0034 234.396 71.4607C234.901 71.9181 236.533 69.6108 236.832 69.2302C236.475 69.8804 235.285 71.2132 235.306 71.913C235.326 72.6127 236.268 71.7184 236.548 71.4556C237.059 70.9674 237.516 70.4268 237.914 69.8428C237.758 70.3548 236.856 71.3651 236.915 71.8737C236.975 72.3822 237.465 72.0768 238.221 71.1126C239.496 69.0832 240.569 66.934 241.426 64.6957C240.906 63.9868 240.313 63.3347 239.656 62.7502" fill="#966018"/>
<path d="M291.325 67.4329C291.119 68.7258 291.004 70.0318 290.984 71.3409C291.011 72.2147 290.318 73.4947 290.968 73.7523C291.618 74.01 292.05 72.428 292.233 72.0457C292.741 72.8472 293.204 73.6762 293.62 74.5289C293.914 75.1364 294.503 76.3362 295.098 75.988C295.694 75.6399 294.388 73.4281 294.16 72.9861C294.501 73.3872 295.411 75.3856 296.05 75.1552C296.69 74.9248 295.337 72.3837 295.134 71.9536C295.561 72.5782 296.223 74.2592 296.858 74.5733C297.493 74.8873 297.109 73.6278 296.998 73.2626C296.785 72.5798 296.504 71.9205 296.158 71.2949C296.552 71.6908 297.042 72.9281 297.535 73.1448C298.028 73.3616 297.926 72.6789 297.443 71.6566C296.529 69.5954 295.223 67.7314 293.598 66.1682C292.814 66.5466 292.053 66.9706 291.318 67.438" fill="#966018"/>
<path d="M251.704 31.835C250.51 37.9685 248.511 47.8036 245.938 52.7084C243.364 57.6132 241.985 58.5979 239.415 62.7876C240.174 63.2415 240.724 64.257 241.446 64.7058C246.311 60.1714 254.189 53.8842 254.696 47.3155C255.203 40.7468 253.935 37.093 251.704 31.835Z" fill="#966018"/>
<path d="M276.894 56.9358C279.814 67.1549 282.06 63.9141 283.29 77.4747C284.521 91.0354 279.326 123.616 275.856 139.47C273.182 140.624 270.416 139.593 267.704 139.899C267.989 121.017 267.41 102.208 266.8 83.3523C262.612 102.343 258.333 121.287 253.194 140.047C250.655 139.981 248.116 139.943 245.576 139.919C248.428 116.759 248.889 82.3675 257.823 61.5863C264.175 59.8387 270.586 59.5179 276.894 56.9307" fill="#5B8EF5"/>
<path d="M256.164 62.7158C263.69 61.5212 271.235 60.429 278.766 59.2548C277.913 53.0548 277.539 46.3256 276.232 40.2672C277.09 41.4198 278.011 42.5245 278.99 43.5763C281.123 41.839 283.236 40.2006 285.34 38.3541C282.78 34.9819 278.742 26.7151 275.486 24.7627C272.23 22.8104 268.859 23.918 265.564 22.6943C262.717 23.877 260.487 23.9965 257.529 25.4402C254.2 26.916 251.512 29.5409 249.959 32.8349C248.627 36.6175 247.501 40.4692 246.585 44.3733C247.575 44.6429 248.705 44.9382 249.647 45.16C250.361 45.3392 251.099 45.4077 251.834 45.3631C252.495 45.3426 253.37 45.2641 254.077 45.2351C254.606 51.0836 255.521 56.8775 256.164 62.7158Z" fill="#192743"/>
<path d="M260.2 24.6126C260.094 22.8497 259.604 21.0749 259.62 19.3102C256.852 20.2949 256.072 19.0986 255.295 16.6258C254.639 14.3401 254.18 12.0027 253.921 9.63893C255.483 8.33167 257.029 7.00394 258.529 5.63013C259.762 6.79867 261.125 7.82192 262.591 8.67982V8.08251C262.917 7.70876 262.762 7.69511 263.209 7.39987C263.357 7.30259 263.501 7.8743 263.71 8.1064C264.393 8.86243 265.378 10.3932 264.886 11.3643C264.774 11.5879 264.417 11.4684 264.386 11.6442C264.362 11.779 263.794 11.6135 263.786 11.6715C263.786 11.6613 263.786 11.7005 263.786 11.6715C263.786 11.6817 264.379 11.6715 264.378 11.6715C265.001 13.6443 265.047 15.6103 266.813 16.8476C267.132 18.7402 267.479 21.2182 267.861 23.1006C266.799 24.2165 265.364 24.9029 263.828 25.0291C262.669 25.1523 261.496 25.0123 260.398 24.6195" fill="#966018"/>
<path d="M264.296 11.3829C265.115 10.5211 264.344 8.80935 263.707 8.0994C263.511 7.88096 263.354 7.89803 263.205 7.99189C262.777 8.27006 262.709 8.823 262.588 9.27013C261.108 8.20778 259.747 6.98843 258.529 5.63337C257.033 7.00889 255.468 8.3315 253.921 9.64558C254.362 6.40304 255.983 3.57691 259.232 2.70654C260.457 2.49743 261.708 2.49743 262.932 2.70654C263.657 0.513563 265.147 -0.669112 267.557 0.39922C270.422 1.67064 271.406 4.53943 268.822 6.83823C268.822 6.857 268.822 6.85358 268.822 6.85358C268.96 6.86553 268.957 7.18125 268.992 7.23586C270.585 9.47322 269.931 17.2161 267.067 17.1683C264.204 17.1205 264.977 13.0229 263.738 11.7259C264.038 11.5553 264.103 11.5826 264.292 11.3846" fill="#192743"/>
<path d="M281.862 70.5236C278.807 69.6666 276.132 67.8022 274.271 65.2331C273.054 63.7617 271.972 62.1835 271.039 60.5178C271.165 60.4662 271.288 60.4051 271.405 60.3352C273.696 64.5027 277.109 68.9859 281.932 70.1311C281.916 70.2609 281.893 70.3897 281.862 70.5168" fill="#192743"/>
<path d="M254.466 74.1434L254.258 73.8123C256.139 72.4265 257.699 70.6512 258.832 68.6076C259.965 66.5639 260.643 64.3 260.821 61.9702L261.221 61.9958C261.035 64.387 260.336 66.7099 259.17 68.8061C258.005 70.9022 256.401 72.7222 254.468 74.1417" fill="#192743"/>
<path d="M151.641 99.4624C150.363 100.212 149.137 101.048 147.971 101.963C147.095 102.79 145.631 102.942 145.912 103.582C146.194 104.222 148.372 103.425 148.372 103.425C148.372 103.425 147.552 105.738 147.192 106.408C146.832 107.079 146.494 108.446 146.965 108.746C147.436 109.047 148.933 105.705 148.933 105.705C148.933 105.705 147.945 108.649 148.32 109.021C148.696 109.393 150.505 105.83 150.505 105.83C150.042 106.933 149.677 108.075 149.414 109.243C149.53 109.567 149.952 109.431 150.645 108.443C151.104 107.759 151.489 107.029 151.792 106.263C151.522 107.095 151.294 107.94 151.109 108.794C151.121 109.091 151.351 109.492 152.223 107.917C153.436 105.621 154.155 103.096 154.334 100.505L151.641 99.4624Z" fill="#D3926E"/>
<path d="M229.947 70.9468C230.832 72.1355 231.796 73.2633 232.833 74.3224C233.753 75.1023 234.064 76.541 234.668 76.1997C235.272 75.8584 234.243 73.7728 234.243 73.7728C234.243 73.7728 236.632 74.3343 237.337 74.6261C238.042 74.918 239.438 75.0972 239.687 74.5955C239.936 74.0937 236.444 72.9656 236.444 72.9656C236.444 72.9656 239.479 73.6261 239.806 73.2131C240.134 72.8001 236.393 71.3904 236.393 71.3904C237.541 71.7305 238.716 71.9687 239.905 72.1021C240.216 71.9502 240.033 71.5475 238.975 70.9672C238.246 70.5857 237.477 70.2836 236.683 70.0661C237.539 70.2409 238.403 70.3725 239.272 70.4604C239.566 70.4177 239.939 70.1429 238.279 69.4483C235.864 68.4931 233.276 68.0536 230.681 68.1582L229.947 70.9468Z" fill="#D3926E"/>
<path d="M171.433 213.347H91.3008V250H171.433V213.347Z" fill="#5B8EF5"/>
<path d="M225.279 177.768H145.147V250.002H225.279V177.768Z" fill="#5B8EF5"/>
<path d="M303.203 148.437H207.749V250H303.203V148.437Z" fill="#5B8EF5"/>
<path d="M170.642 171.206L169.013 162.794L175.302 161.968L175.544 171.561C175.544 171.561 171.885 172.394 170.644 171.204" fill="#D3926E"/>
<path d="M175.534 170.894C173.963 171.444 172.271 171.552 170.643 171.206C170.643 171.206 162.072 174.684 162.301 177.259C162.301 177.259 161.903 178.019 165.813 177.925C169.723 177.831 175.8 177.768 175.964 177.681C176.128 177.594 177.633 176.611 175.534 170.894Z" fill="#00203E"/>
<path d="M196.293 169.01L192.743 161.212L198.665 158.941L201.141 168.213C201.141 168.213 197.778 169.875 196.293 169.01Z" fill="#D3926E"/>
<path d="M200.971 167.564C199.572 168.466 197.952 168.966 196.288 169.01C196.288 169.01 188.767 174.394 189.591 176.843C189.591 176.843 189.381 177.674 193.161 176.672C196.941 175.671 202.834 174.188 202.974 174.065C203.114 173.942 204.339 172.636 200.971 167.568" fill="#00203E"/>
<path d="M235.495 148.437H207.749V177.768H235.495V148.437Z" fill="#477ED6"/>
<path d="M172.893 177.932H145.147V213.349H172.893V177.932Z" fill="#477ED6"/>
<path d="M119.39 213.272H91.3008V250H119.39V213.272Z" fill="#477ED6"/>
<path d="M176.051 104.68C176.051 104.68 168.131 126.329 167.473 136.178C166.816 146.027 166.762 167.552 166.762 167.552H179.234C179.234 167.552 178.604 144.114 180.136 137.004C181.669 129.895 187.488 117.936 187.927 117.936C188.366 117.936 183.189 148.877 191.289 166.825C191.289 166.825 201.621 164.856 201.187 164.199C200.754 163.542 199.614 149.043 201.146 137.004C202.679 124.966 207.227 102.403 206.788 100.87C206.35 99.3379 176.056 104.683 176.056 104.683" fill="#F15E46"/>
<path d="M178.529 60.0076C185.014 58.2361 188.013 55.7223 195.945 57.2497C203.877 58.7771 225.737 64.1426 233.374 67.264C233.079 69.5551 232.645 71.8262 232.075 74.0649C225.258 72.6654 210.914 71.307 204.579 72.3361C204.579 72.3361 207.156 96.621 207.688 104.263C197.373 107.176 185.692 108.376 175.278 105.661C175.013 102.809 174.399 82.6422 174.399 82.6422C171.727 82.1832 160.688 100.596 156.193 105.376C154.498 107.178 151.778 100.597 150.097 98.7389C156.221 92.2958 160.916 84.6321 163.873 76.2493C166.617 68.2982 170.127 63.0522 178.529 60.0076Z" fill="#30B3AF"/>
<path d="M174.883 56.8194C174.702 56.2394 174.55 55.6504 174.429 55.0548C174.455 55.0258 174.458 54.9968 174.429 54.9712L174.406 54.7766C174.522 54.7434 174.633 54.6934 174.735 54.6281C175.335 54.282 175.963 53.9858 176.612 53.7424C177.334 53.4861 178.092 53.3444 178.858 53.3226C179.927 53.2962 180.987 53.1315 182.014 52.8328C182.793 52.5887 182.957 52.3396 183.078 51.5426C183.089 51.4709 183.09 51.3975 183.096 51.3242C183.115 50.2926 182.991 49.2634 182.727 48.2659C182.538 47.412 182.301 46.5693 182.017 45.7419C181.788 45.0592 181.548 44.3902 181.3 43.7196C181.165 43.3543 181.029 43.2827 180.636 43.2878C180.454 43.2918 180.273 43.3176 180.097 43.3646C179.55 43.5234 179.011 43.7114 178.484 43.9277C177.506 44.2878 176.561 44.7264 175.583 45.1104C174.699 45.4783 173.792 45.7918 172.87 46.049C172.369 46.2024 171.844 46.2575 171.323 46.2112L171.303 46.2248C171.303 46.1719 171.265 46.1651 171.223 46.1839C171.036 46.1627 170.859 46.0907 170.711 45.9757C170.6 45.9057 170.481 45.8485 170.357 45.805C170.315 45.7538 170.258 45.7897 170.209 45.7794H170.195L170.122 45.7077C170.123 45.7016 170.123 45.6954 170.121 45.6894C170.119 45.6835 170.117 45.6779 170.113 45.6731C170.109 45.6683 170.104 45.6643 170.099 45.6615C170.093 45.6586 170.087 45.6569 170.081 45.6565C170.08 45.6486 170.077 45.641 170.073 45.6342C170.069 45.6274 170.063 45.6216 170.057 45.6172C170.05 45.6128 170.042 45.6099 170.035 45.6087C170.027 45.6076 170.019 45.6082 170.011 45.6105C169.966 45.5568 169.907 45.5161 169.84 45.4927C169.823 45.4535 169.798 45.4262 169.75 45.4415C169.712 45.4108 169.711 45.3408 169.644 45.3391C169.35 45.1301 169.132 44.8303 169.025 44.4858C168.901 44.143 168.831 43.7833 168.816 43.4192C168.873 42.7769 169.069 42.1548 169.391 41.5965C169.685 41.0066 170.191 40.5499 170.808 40.3183L171.661 40.0964V40.1067C171.807 40.14 171.96 40.1244 172.096 40.0623C172.583 39.9974 173.074 40.035 173.562 40.0077C174.124 40.0084 174.686 39.9742 175.243 39.9053C175.511 39.8965 175.776 39.8458 176.029 39.7551L176.162 39.7176L176.583 39.6084C176.783 39.5929 176.976 39.5233 177.14 39.407L177.209 39.3643L177.419 39.3251L179.041 38.8967C180.009 38.6908 181.018 38.8052 181.916 39.2226C182.929 39.7412 183.802 40.495 184.462 41.4208C185.317 42.5419 186.037 43.759 186.609 45.0473C186.609 45.0592 186.609 45.0729 186.609 45.0814C186.623 45.0995 186.638 45.1166 186.654 45.1326L186.806 45.5251C186.806 45.5638 186.814 45.6021 186.83 45.6374C186.846 45.6728 186.869 45.7043 186.898 45.7299L187.057 46.218C187.057 46.2283 187.048 46.2419 187.057 46.2487C187.069 46.2646 187.083 46.2794 187.097 46.2931L187.15 46.4945L187.137 46.5184C187.15 46.5308 187.163 46.5422 187.178 46.5525C187.379 47.159 187.54 47.7782 187.659 48.4059C187.61 48.4827 187.659 48.5458 187.688 48.6107L187.722 48.6772C187.755 48.8479 187.785 49.0083 187.819 49.1738C187.806 49.2109 187.801 49.2504 187.805 49.2896C187.808 49.3288 187.82 49.3667 187.84 49.4008L187.898 49.807C187.885 49.8222 187.878 49.8416 187.878 49.8616C187.878 49.8817 187.885 49.901 187.898 49.9162C187.973 50.8687 187.962 51.8259 187.867 52.7765C187.849 52.788 187.831 52.8017 187.816 52.8174C187.758 52.7975 187.701 52.7735 187.645 52.7458C186.646 52.0693 185.83 51.155 185.271 50.0852C185.236 50.0287 185.221 49.9617 185.229 49.8955C185.237 49.8293 185.268 49.7679 185.316 49.7217C185.522 49.4776 185.661 49.1832 185.717 48.8684C185.792 48.4059 185.768 47.9327 185.645 47.4806C185.522 47.0284 185.304 46.6078 185.005 46.247C184.817 46.0048 184.553 45.832 184.256 45.7555C184.191 45.7277 184.121 45.7153 184.051 45.7194C183.98 45.7235 183.912 45.7439 183.851 45.779C183.79 45.8141 183.737 45.863 183.699 45.9217C183.66 45.9804 183.635 46.0474 183.626 46.1173C183.597 46.272 183.583 46.4292 183.584 46.5866C183.591 47.2046 183.656 47.8206 183.778 48.4263C183.918 49.3377 184.172 50.2251 184.348 51.1296C184.519 51.9829 184.797 52.8174 184.952 53.6793C185.048 54.2151 185.186 54.7442 185.294 55.2801C185.381 55.5788 185.367 55.898 185.255 56.1882C185.143 56.4785 184.938 56.7237 184.672 56.886C183.875 57.3969 183.014 57.8019 182.113 58.0908C181.894 58.1659 181.664 58.2086 181.452 58.2973C180.965 58.4885 180.46 58.6303 179.945 58.7206C179.245 58.8605 178.546 59.009 177.836 59.0892L177.692 59.1182C177.568 59.0824 177.436 59.0902 177.317 59.1404C177.056 59.163 176.794 59.1121 176.561 58.9936C175.96 58.667 175.477 58.1603 175.179 57.5447C175.09 57.3997 175.085 57.2034 174.993 57.043C174.993 57.0029 174.985 56.9633 174.968 56.927C174.951 56.8907 174.926 56.8586 174.895 56.8331L174.883 56.8194Z" fill="#5C3225"/>
<path d="M179.932 58.7122C180.447 58.6221 180.952 58.4803 181.439 58.289C181.65 58.2002 181.881 58.1576 182.099 58.0825C183.001 57.7936 183.861 57.3885 184.659 56.8776C184.924 56.7152 185.129 56.4699 185.241 56.1797C185.353 55.8895 185.367 55.5705 185.28 55.2717C185.176 54.7358 185.038 54.2068 184.939 53.6709C184.785 52.8074 184.502 51.978 184.335 51.1213C184.164 50.2168 183.903 49.3276 183.763 48.418C183.641 47.8133 183.576 47.1985 183.568 46.5817C183.567 46.4255 183.581 46.2694 183.609 46.1158C183.643 45.9862 183.726 45.875 183.841 45.8061C183.956 45.7372 184.093 45.716 184.224 45.7472C184.528 45.8214 184.798 45.9964 184.99 46.2438C185.289 46.6047 185.508 47.0256 185.63 47.4781C185.753 47.9306 185.777 48.4042 185.702 48.8669C185.645 49.1817 185.507 49.476 185.301 49.7202C185.253 49.7664 185.222 49.8278 185.214 49.894C185.206 49.9602 185.221 50.0272 185.256 50.0837C185.815 51.1535 186.631 52.0677 187.63 52.7442C187.685 52.7721 187.742 52.7961 187.801 52.8159C187.811 52.836 187.824 52.8544 187.84 52.8705C187.903 53.3005 188.013 53.7223 188.168 54.1283C188.434 54.915 188.135 56.6882 188.42 57.4664C187.875 58.6483 187.179 59.7552 186.352 60.7601C185.945 61.3618 185.396 61.8529 184.753 62.1894C184.109 62.5259 183.393 62.6972 182.667 62.6879C181.941 62.6786 181.229 62.489 180.594 62.1361C179.96 61.7832 179.423 61.2781 179.032 60.6663C178.851 60.1106 178.779 59.5256 178.817 58.9426C178.827 58.9204 179.239 58.8607 179.937 58.7208" fill="#D3926E"/>
<path d="M171.329 46.213C171.849 46.2591 172.373 46.204 172.873 46.0508C173.796 45.7935 174.702 45.4801 175.587 45.1122C176.556 44.7282 177.501 44.2896 178.488 43.9295C179.015 43.7133 179.554 43.5248 180.101 43.3647C180.277 43.3182 180.458 43.2924 180.64 43.2878C181.032 43.2878 181.171 43.3544 181.304 43.7196C181.551 44.3903 181.792 45.0627 182.02 45.7419C182.304 46.5688 182.541 47.4109 182.73 48.2643C182.994 49.2617 183.119 50.291 183.099 51.3225C183.099 51.3959 183.099 51.4693 183.082 51.541C182.961 52.338 182.797 52.5871 182.017 52.8312C180.991 53.1297 179.93 53.2944 178.862 53.321C178.095 53.3426 177.337 53.4843 176.614 53.7408C175.965 53.9841 175.337 54.2804 174.737 54.6265C174.635 54.6918 174.524 54.7418 174.407 54.775C174.165 54.6538 174.09 54.4029 173.977 54.1913C173.58 53.3973 173.238 52.5768 172.953 51.7355C172.326 49.9849 171.797 48.2004 171.37 46.3905C171.356 46.3324 171.347 46.271 171.337 46.2198L171.329 46.213Z" fill="#D3926E"/>
<path d="M179.026 38.8849L177.404 39.3133C177.41 39.2942 177.414 39.2748 177.418 39.2552C177.8 39.1477 178.183 39.0351 178.567 38.9361C178.711 38.8746 178.871 38.8562 179.026 38.8832V38.8849Z" fill="#B67843"/>
<path d="M171.643 40.0846L170.79 40.3064C171.039 40.1346 171.341 40.0561 171.643 40.0846Z" fill="#F2C095"/>
<path d="M176.013 39.7367C175.761 39.8273 175.496 39.878 175.228 39.8869C175.477 39.7849 175.744 39.7338 176.013 39.7367Z" fill="#F2C095"/>
<path d="M177.124 39.397C176.96 39.5132 176.768 39.5828 176.568 39.5983C176.568 39.583 176.568 39.5676 176.568 39.5523L177.129 39.397H177.124Z" fill="#B67843"/>
<path d="M176.563 39.5522C176.563 39.5676 176.563 39.583 176.563 39.5966L176.141 39.7059C176.255 39.5762 176.416 39.5847 176.563 39.5522Z" fill="#F2C095"/>
<path d="M172.081 40.0505C171.945 40.1126 171.792 40.1282 171.646 40.0949C171.781 40.0276 171.936 40.0119 172.081 40.0505Z" fill="#B67843"/>
<path d="M186.886 45.718C186.857 45.6923 186.834 45.6608 186.818 45.6255C186.802 45.5902 186.794 45.5519 186.794 45.5132C186.826 45.5363 186.851 45.5673 186.867 45.6033C186.883 45.6392 186.89 45.6788 186.886 45.718Z" fill="#E4E5E5"/>
<path d="M177.418 39.2571C177.418 39.2759 177.418 39.2964 177.404 39.3151L177.192 39.3544C177.242 39.2639 177.331 39.2639 177.418 39.2571Z" fill="#E4E5E5"/>
<path d="M187.671 48.5971C187.635 48.5323 187.593 48.4691 187.642 48.3923L187.716 48.563C187.703 48.5748 187.687 48.5841 187.671 48.5903V48.5971Z" fill="#B67843"/>
<path d="M187.815 49.3891C187.795 49.355 187.783 49.317 187.779 49.2778C187.776 49.2387 187.781 49.1992 187.794 49.1621C187.817 49.1947 187.831 49.2329 187.835 49.2728C187.839 49.3127 187.832 49.3528 187.815 49.3891Z" fill="#E4E5E5"/>
<path d="M174.455 55.519C174.488 55.5434 174.516 55.5749 174.536 55.6112C174.556 55.6475 174.567 55.6877 174.569 55.729C174.481 55.6863 174.467 55.6044 174.455 55.519Z" fill="#E4E5E5"/>
<path d="M169.631 45.3308C169.697 45.3308 169.699 45.4008 169.738 45.4332C169.667 45.4332 169.645 45.3905 169.633 45.3308" fill="#E4E5E5"/>
<path d="M170.202 45.7793C170.252 45.7896 170.308 45.7521 170.351 45.805C170.298 45.8237 170.245 45.834 170.202 45.7793Z" fill="#E4E5E5"/>
<path d="M186.642 45.1212C186.626 45.1051 186.611 45.0879 186.598 45.0697C186.598 45.0697 186.598 45.0474 186.598 45.0354C186.614 45.0507 186.63 45.0673 186.644 45.0852C186.644 45.0852 186.642 45.1075 186.642 45.1212Z" fill="#E4E5E5"/>
<path d="M187.835 52.8602C187.819 52.8441 187.806 52.8258 187.796 52.8056C187.811 52.7897 187.828 52.7759 187.847 52.7646C187.856 52.7797 187.859 52.7972 187.857 52.8144C187.855 52.8317 187.847 52.8477 187.835 52.8602Z" fill="#E4E5E5"/>
<path d="M173.863 53.6436C173.901 53.6676 173.899 53.6985 173.873 53.7311C173.866 53.7268 173.859 53.7209 173.855 53.7138C173.85 53.7066 173.847 53.6984 173.846 53.6899C173.845 53.6814 173.846 53.6728 173.849 53.6648C173.852 53.6567 173.857 53.6494 173.863 53.6436Z" fill="#D3926E"/>
<path d="M187.879 49.9046C187.866 49.8894 187.859 49.8701 187.859 49.85C187.859 49.83 187.866 49.8106 187.879 49.7954C187.891 49.811 187.898 49.8302 187.898 49.85C187.898 49.8698 187.891 49.889 187.879 49.9046Z" fill="#E4E5E5"/>
<path d="M171.221 46.1875C171.264 46.1686 171.295 46.1755 171.302 46.2287L171.221 46.1875Z" fill="#E4E5E5"/>
<path d="M170.115 45.6992L170.189 45.7713C170.17 45.7709 170.152 45.7632 170.138 45.7499C170.124 45.7365 170.116 45.7184 170.115 45.6992Z" fill="#E4E5E5"/>
<path d="M187.671 48.5971C187.687 48.5913 187.703 48.582 187.715 48.5698C187.725 48.5844 187.729 48.6018 187.726 48.6189C187.724 48.6361 187.716 48.652 187.703 48.6637L187.671 48.5971Z" fill="#E4E5E5"/>
<path d="M170.006 45.6002C170.014 45.5979 170.022 45.5973 170.03 45.5985C170.038 45.5996 170.046 45.6025 170.052 45.607C170.059 45.6114 170.065 45.6172 170.069 45.6241C170.073 45.6309 170.076 45.6386 170.077 45.6466L170.006 45.6002Z" fill="#E4E5E5"/>
<path d="M169.738 45.4332C169.788 45.4179 169.812 45.4435 169.829 45.4844L169.738 45.4332Z" fill="#E4E5E5"/>
<path d="M187.158 46.5351C187.144 46.5254 187.132 46.5147 187.12 46.5033C187.12 46.5033 187.128 46.4889 187.132 46.481C187.138 46.4823 187.143 46.4848 187.148 46.4885C187.152 46.4921 187.156 46.4967 187.158 46.5019C187.161 46.5071 187.162 46.5128 187.162 46.5186C187.162 46.5243 187.16 46.53 187.158 46.5351Z" fill="#B67843"/>
<path d="M187.083 46.2799C187.068 46.2663 187.054 46.2514 187.042 46.2352C187.042 46.2352 187.042 46.2146 187.042 46.2043C187.058 46.2178 187.073 46.2328 187.086 46.249C187.086 46.249 187.086 46.2696 187.086 46.2816" fill="#A5D0CC"/>
<path d="M196.757 165.568C192.936 155.896 197.936 108.422 198.151 106.364L198.545 106.405C198.532 106.531 197.223 118.158 196.4 131.804C195.313 149.841 195.564 161.466 197.125 165.424L196.757 165.568Z" fill="#192743"/>
<path d="M172.08 167.577C171.114 159.711 170.95 146.244 175.648 126.709C177.229 120.005 179.202 113.401 181.556 106.929L181.927 107.072C179.578 113.53 177.61 120.119 176.034 126.807C171.351 146.275 171.515 159.697 172.476 167.529L172.08 167.577Z" fill="#192743"/>
<path d="M98.8443 111.026C98.6825 112.858 98.1463 114.638 97.2691 116.254C95.9584 118.039 93.4156 118.795 92.552 120.834C91.7295 122.776 92.7227 125.316 91.3933 126.956C90.6816 127.837 89.4273 128.238 88.9323 129.256C88.7357 129.711 88.6565 130.207 88.7019 130.7C88.8333 132.222 89.5252 133.641 90.6434 134.681C91.7615 135.722 93.2263 136.31 94.7535 136.332C98.6634 136.25 101.602 132.465 105.464 131.842C107.553 131.501 109.695 132.137 111.796 131.893C113.702 131.606 115.438 130.632 116.678 129.155C117.917 127.678 118.575 125.8 118.527 123.872C118.428 123.1 118.371 122.323 118.356 121.544C118.431 120.823 118.561 120.109 118.745 119.408C119.089 117.713 119.068 115.965 118.683 114.28C118.298 112.595 117.558 111.011 116.512 109.634C115.466 108.258 114.139 107.12 112.618 106.297C111.098 105.475 109.419 104.986 107.695 104.864C105.746 104.762 103.818 105.312 102.216 106.426C100.614 107.541 99.4283 109.157 98.846 111.02" fill="#302D31"/>
<path d="M75.8683 161.757C75.7468 163.12 75.5336 164.475 75.23 165.81C74.8887 166.868 75.3358 168.151 74.689 168.17C74.0422 168.189 73.8494 166.054 73.8494 166.054C73.8494 166.054 72.2418 167.651 71.8236 168.218C71.4055 168.784 70.3969 169.605 69.96 169.331C69.5232 169.056 71.7264 166.477 71.7264 166.477C71.7264 166.477 69.658 168.465 69.1989 168.298C68.7398 168.131 71.0011 165.214 71.0011 165.214C70.2624 166.037 69.4526 166.793 68.5811 167.474C68.2637 167.505 68.2125 167.1 68.7654 166.129C69.1542 165.476 69.6119 164.867 70.1307 164.311C69.5412 164.863 68.9243 165.385 68.2824 165.875C68.0299 165.982 67.5998 165.946 68.5743 164.596C70.0131 162.676 71.8379 161.078 73.9313 159.905L75.8683 161.757Z" fill="#FBAC77"/>
<path d="M143.255 112.747C143.255 112.747 144.545 109.315 145.103 108.352C145.661 107.39 145.487 106.04 146.127 106.157C146.767 106.275 146.508 108.402 146.508 108.402C146.508 108.402 148.412 107.173 148.94 106.707C149.467 106.241 150.624 105.647 150.988 106.006C151.351 106.364 148.667 108.429 148.667 108.429C148.667 108.429 151.104 106.915 151.518 107.173C151.933 107.431 149.114 109.815 149.114 109.815C150.008 109.164 150.957 108.592 151.952 108.108C152.269 108.144 152.235 108.552 151.493 109.385C150.976 109.943 150.4 110.443 149.776 110.878C150.467 110.461 151.178 110.079 151.907 109.733C152.177 109.68 152.59 109.803 151.356 110.927C149.549 112.506 147.432 113.689 145.141 114.4L143.255 112.747Z" fill="#FBAC77"/>
<path d="M126.107 198.428C126.107 198.428 122.465 206.78 124.032 207.71C126.866 209.391 132.136 211.069 131.652 212.431C131.167 213.793 118.432 213.486 118.115 212.221C117.797 210.956 120.876 206.529 119.576 199.022L126.107 198.428Z" fill="#FBAC77"/>
<path d="M118.861 209.219C118.324 210.125 118.066 211.169 118.118 212.221C118.436 213.484 131.172 213.793 131.655 212.431C132.014 211.421 129.235 210.192 126.599 208.972C125.938 210.013 125.081 211.419 118.861 209.219Z" fill="#002A5C"/>
<path d="M72.3836 213.75C72.3836 213.75 64.8848 216.015 64.68 217.824C64.308 221.099 64.9411 226.594 63.5008 226.71C62.0604 226.826 57.1181 215.086 58.1386 214.278C59.1592 213.469 63.2584 213.313 69.5728 209.048L72.3836 213.75Z" fill="#FBAC77"/>
<path d="M60.7716 213.32C59.8574 213.528 58.9728 213.85 58.1383 214.278C57.1144 215.086 62.0635 226.826 63.5005 226.71C64.5688 226.623 64.55 223.584 64.5808 220.681C63.3588 220.51 61.316 219.896 60.7716 213.32Z" fill="#002A5C"/>
<path d="M112.963 162.27C112.963 162.27 131.413 170.974 131.676 176.519C131.938 182.064 126.999 206.074 126.999 206.074L116.931 204.401C116.931 204.401 120.559 183.101 118.978 179.802C117.398 176.503 105.044 175.01 103.856 175.437C102.668 175.863 96.25 193.307 91.6899 199.913C86.623 207.251 68.8863 217.3 68.8863 217.3L64.5806 208.379C64.5806 208.379 79.131 198.558 80.7148 191.697C82.2985 184.837 89.6045 169.134 93.4307 160.426L112.963 162.27Z" fill="#FFCF2E"/>
<path d="M142.349 111.641L147.496 114.542C147.496 114.542 138.038 136.272 121.412 138.119C121.412 138.119 117.927 161.185 118.984 165.407C118.984 165.407 101.354 166.182 92.3795 161.96C92.3795 161.96 95.8985 143.484 97.3064 141.021C97.3064 141.021 80.592 154.217 77.2487 163.192L71.2671 160.552C71.2671 160.552 87.234 132.488 99.3748 129.15C111.516 125.812 116.663 127.655 119.653 127.126C122.643 126.597 132.145 128.445 142.35 111.642" fill="#5B8EF5"/>
<path d="M107.005 105.895C105.925 106.093 104.908 106.549 104.042 107.225C103.176 107.9 102.485 108.774 102.029 109.774C101.573 110.773 101.365 111.867 101.422 112.964C101.479 114.061 101.8 115.128 102.358 116.074C103.269 117.968 104.38 119.759 105.672 121.416C106.817 122.696 107.434 124.362 107.399 126.079L107.374 127.478C111.543 128.999 113.005 127.08 113.005 127.08L112.565 123.223C116.772 122.227 115.304 114.421 115.038 112.095C115.038 112.008 115.024 111.924 115.014 111.832C114.908 110.904 114.612 110.007 114.144 109.198C113.677 108.389 113.049 107.684 112.299 107.127C111.548 106.571 110.691 106.174 109.781 105.962C108.871 105.75 107.928 105.727 107.008 105.895" fill="#FBAC77"/>
<path d="M107.258 112.806C106.154 114.302 105.201 115.902 104.411 117.585C104.333 117.772 103.788 119.186 104.007 119.315C102.851 118.531 101.899 117.484 101.228 116.259C100.634 115.259 100.294 114.13 100.238 112.968C100.182 111.807 100.412 110.65 100.907 109.598C101.402 108.547 102.148 107.632 103.079 106.936C104.01 106.239 105.097 105.781 106.246 105.603C107.474 105.312 108.755 105.335 109.972 105.671C111.189 106.007 112.301 106.643 113.207 107.523C114.604 109.408 115.436 111.652 115.606 113.992C115.132 111.444 111.458 109.924 109.292 109.253C109.355 109.272 108.005 111.642 107.927 111.765C107.71 112.107 107.485 112.458 107.256 112.801" fill="#302D31"/>
<path d="M104.648 117.738C104.512 117.533 104.305 117.384 104.066 117.32C103.755 117.197 103.415 117.168 103.088 117.236C102.76 117.305 102.46 117.468 102.225 117.706C101.488 118.633 103.42 120.65 104.945 119.363C104.945 119.363 105.363 118.836 104.648 117.738Z" fill="#FBAC77"/>
<path d="M68.5637 205.509L68.2021 205.686L72.7556 214.966L73.1172 214.789L68.5637 205.509Z" fill="#192743"/>
<path d="M117.781 199.064L117.704 199.459L127.924 201.441L128.001 201.046L117.781 199.064Z" fill="#192743"/>
</g>
</svg>
