<svg viewBox="0 0 360 250" fill="none" xmlns="http://www.w3.org/2000/svg">
<path d="M68.0593 71.8431H72.3544C72.0323 77.1915 68.8693 80.3529 64.5742 80.7571C66.0071 79.8155 67.112 78.452 67.7363 76.8551C68.3606 75.2583 68.4735 73.5069 68.0593 71.8431Z" fill="#66B881"/>
<path d="M278.684 87.4003L282.412 86.5951C284.52 89.9996 287.923 95.1854 289.545 95.9149C288.676 96.9607 287.474 97.676 286.14 97.9409C283.222 95.8344 279.98 90.3233 278.684 87.4052" fill="#66B881"/>
<path d="M88.9679 92.3459H87.0225C87.593 95.2101 88.3785 98.0273 89.3721 100.774H91.2355C90.1941 98.0489 89.4354 95.2251 88.9679 92.3459Z" fill="#5B8EF5"/>
<path d="M35.3135 73.8691C35.3135 73.8691 38.7985 72.2474 39.6086 69.8977C39.4476 72.6532 36.3667 76.1383 36.3667 76.1383C35.9609 75.2461 35.3135 73.8691 35.3135 73.8691Z" fill="#66B881"/>
<path d="M99.0979 56.2021L97.5566 58.634L100.799 60.9031L102.258 58.1476L99.0979 56.2021Z" fill="#F15E46"/>
<path d="M149.423 87.4036L147.478 90.4828C147.607 91.2318 147.94 91.9308 148.44 92.5028C148.94 93.0748 149.589 93.4976 150.314 93.7247C151.081 92.9929 151.688 92.1101 152.097 91.1318C150.846 90.1918 149.912 88.8913 149.422 87.4052" fill="#66B881"/>
<path d="M155.582 13.8999L152.583 17.3044L153.313 19.2499L156.197 15.6972L155.582 13.8999Z" fill="#5B8EF5"/>
<path d="M72.3545 20.9523L72.9617 19.25C72.9617 19.25 78.3101 19.3708 80.1348 19.25C79.8298 19.8539 79.4627 20.4244 79.0396 20.9523C76.6094 21.0731 72.3545 20.9523 72.3545 20.9523Z" fill="#FFCF2E"/>
<path d="M310.328 101.424C310.604 100.674 311.064 100.005 311.666 99.4788H318.23C317.734 100.044 317.361 100.707 317.135 101.424H310.328Z" fill="#F15E46"/>
<path d="M299.753 148.031C301.119 147.312 302.287 146.269 303.156 144.994C303.913 146.118 304.812 147.139 305.831 148.031C304.981 149.854 303.643 150.829 302.792 150.829C301.213 149.37 299.753 148.031 299.753 148.031Z" fill="#F15E46"/>
<path d="M33.6567 179.787C34.0684 178.632 34.6867 177.561 35.4814 176.627C36.8989 179.338 39.16 181.514 41.9233 182.827C41.3828 183.879 40.7738 184.894 40.1002 185.866C37.4613 184.434 35.2395 182.338 33.6567 179.787Z" fill="#F15E46"/>
<path d="M240.767 12.4409C240.368 13.4771 239.641 14.3545 238.697 14.9397C237.754 15.5248 236.645 15.7858 235.539 15.6828C236.624 18.0347 237.498 20.4782 238.151 22.9847C240.314 22.374 242.176 20.9862 243.379 19.0873C242.94 16.726 242.053 14.4689 240.767 12.4409Z" fill="#66B881"/>
<path d="M303.279 118.197C304.675 118.698 305.927 119.532 306.927 120.628C307.777 119.898 308.376 119.412 308.376 119.412C307.271 118.214 305.896 117.297 304.366 116.737L303.279 118.197Z" fill="#66B881"/>
<path d="M120.735 100.45L119.439 106.04C119.987 107.364 120.919 108.493 122.114 109.283C122.597 107.499 123.654 103.529 123.654 103.529C122.438 103.125 120.737 100.451 120.737 100.451" fill="#F15E46"/>
<path d="M156.96 29.1366L155.177 33.2707L156.96 35.6204L159.068 31.2447L156.96 29.1366Z" fill="#F15E46"/>
<path d="M143.67 14.3879L141.319 19.25C142.374 23.1392 143.751 23.4646 145.533 24.8415C146.35 24.0058 146.937 22.9727 147.236 21.8428C145.371 19.6558 143.507 17.9535 143.67 14.3879Z" fill="#F15E46"/>
<path d="M260.368 54.0958H264.136C265.129 51.4384 266.91 49.148 269.241 47.5315C267.662 47.4107 264.805 46.8036 264.805 46.8036C262.813 48.8826 261.298 51.3712 260.368 54.0958Z" fill="#F15E46"/>
<path d="M280.426 106.365L283.707 104.299C284.219 105.832 285.048 107.24 286.14 108.431C285.146 108.972 284.192 109.582 283.283 110.256C282.021 109.218 281.039 107.88 280.426 106.365Z" fill="#F15E46"/>
<path d="M327.47 25.2844C328.702 24.5914 330.07 24.1764 331.48 24.0685C333.26 25.1003 334.862 26.4138 336.223 27.9578C334.884 28.5649 333.789 28.3217 331.845 29.0513C330.288 27.9144 328.825 26.6558 327.47 25.2844Z" fill="#F15E46"/>
<path d="M188.405 122.331L187.837 126.383L190.431 129.219L191.237 125.493L188.405 122.331Z" fill="#065D66"/>
<path d="M46.0978 85.0522L42.7754 89.1026L47.9627 94.9389L51.4462 91.2107L46.0978 85.0522Z" fill="#F15E46"/>
<path d="M34.5894 111.633L33.2124 107.906C38.3176 105.312 41.8832 107.262 42.4501 111.633C41.3964 110.612 39.9869 110.041 38.5197 110.041C37.0526 110.041 35.643 110.612 34.5894 111.633Z" fill="#065D66"/>
<path d="M31.9947 76.1365L29.9688 78.5667C31.7532 81.2417 34.5071 85.0505 34.5071 85.0505C35.1887 84.1454 35.8116 83.1976 36.372 82.2128C35.2682 79.9532 33.788 77.8979 31.9947 76.1349" fill="#065D66"/>
<path d="M95.5312 40.2377V45.0997L99.4222 48.3416V43.3974L95.5312 40.2377Z" fill="#065D66"/>
<path d="M203.782 7.92516C203.782 7.92516 208.401 8.04594 209.741 6.46606C210.73 8.94938 211.994 11.3143 213.509 13.5167C212.809 14.0042 212.006 14.3237 211.162 14.4502C210.319 14.5767 209.458 14.5069 208.645 14.2463C206.809 12.314 205.179 10.1955 203.782 7.92516Z" fill="#065D66"/>
<path d="M281.397 6.3211L285.285 9.60325C288.067 7.81575 290.297 5.29056 291.727 2.30942C290.273 1.38098 288.726 0.606975 287.111 0C285.888 2.63501 283.896 4.83846 281.397 6.3211Z" fill="#065D66"/>
<path d="M315.072 72.0846L314.463 70.2615L317.623 66.1274L318.353 67.7073L315.072 72.0846Z" fill="#065D66"/>
<path d="M44.4756 168.238C44.6625 166.733 45.2505 165.306 46.1779 164.107C48.4041 163.969 50.6367 163.969 52.8629 164.107C51.0399 165.073 51.0399 168.238 51.0399 168.238H44.4756Z" fill="#065D66"/>
<path d="M106.473 120.629C106.473 120.629 105.014 125.491 103.717 126.87C103.821 127.042 103.961 127.189 104.128 127.3C104.295 127.411 104.485 127.485 104.684 127.514C106.304 126.055 107.52 121.03 107.52 121.03L106.473 120.629Z" fill="#FFCF2E"/>
<path d="M123.012 17.7072L121.472 19.0857L123.659 25.9737L125.118 24.4341L123.012 17.7072Z" fill="#FFCF2E"/>
<path d="M164.741 31.4863L167.416 29.1366L172.845 32.3785L169.523 33.9986L164.741 31.4863Z" fill="#FFCF2E"/>
<path d="M221.955 75.6116C221.955 75.6116 220.496 80.2304 217.215 81.5703C219.037 83.5142 221.955 85.946 221.955 85.946C223.886 84.1218 225.202 81.7432 225.723 79.1385C223.535 76.9499 221.955 75.6132 221.955 75.6132" fill="#FFCF2E"/>
<path d="M175.909 4.03735C175.069 5.25122 174.035 6.31915 172.85 7.19871C174.334 9.02176 176.847 9.63051 178.628 10.4808C179.388 9.83407 180.068 9.09939 180.654 8.29222C178.659 7.41857 176.997 5.92697 175.914 4.03735" fill="#065D66"/>
<path d="M222.079 60.1722V57.7419C224.504 58.4275 227.072 58.4275 229.497 57.7419V60.1722C227.085 60.9436 224.492 60.9436 222.079 60.1722Z" fill="#5B8EF5"/>
<path d="M239.464 39.9928L240.557 38.8993L248.094 41.0863L246.635 42.1814L239.464 39.9928Z" fill="#FFCF2E"/>
<path d="M250.885 76.462L250.279 75.6116L254.776 68.2035L255.505 68.8106L250.885 76.462Z" fill="#FFCF2E"/>
<path d="M284.195 95.9117C283.987 95.2385 283.987 94.5186 284.195 93.8454C285.207 93.7802 286.222 93.7802 287.234 93.8454C287.102 94.5279 287.102 95.2292 287.234 95.9117H284.195Z" fill="#F15E46"/>
<path d="M330.508 42.4199C331.335 40.7352 332.648 39.3377 334.278 38.4082C335.135 39.0193 335.947 39.6898 336.709 40.4149C335.436 41.281 334.376 42.424 333.608 43.7582C331.845 42.9079 330.508 42.4199 330.508 42.4199Z" fill="#FFCF2E"/>
<path d="M161.337 38.8993L159.067 39.5886V47.3688L161.337 46.0723V38.8993Z" fill="#66B881"/>
<path d="M135.039 115.543L134.432 117.064C135.103 118.44 136.093 119.635 137.319 120.552C138.545 121.468 139.973 122.079 141.482 122.333C141.709 121.977 142.136 121.167 142.136 121.167C140.633 120.763 139.228 120.055 138.007 119.088C136.787 118.122 135.777 116.914 135.039 115.543Z" fill="#FFCF2E"/>
<path d="M183.056 90.4005C183.2 89.9943 183.426 89.6218 183.72 89.3058C184.013 88.9898 184.368 88.737 184.762 88.5626C185.157 88.3882 185.583 88.296 186.014 88.2917C186.445 88.2873 186.873 88.3708 187.27 88.5372C186.786 87.819 186.183 87.1884 185.488 86.6723C183.542 86.4291 182.083 88.5356 182.083 88.5356C182.326 89.1949 182.651 89.8214 183.049 90.4005" fill="#5B8EF5"/>
<path d="M203.721 134.02L201.048 135.905C201.681 137.801 203.034 139.373 204.815 140.282C205.437 139.727 206.007 139.116 206.517 138.457C205.276 137.197 204.323 135.683 203.721 134.02Z" fill="#5B8EF5"/>
<path d="M24.3786 76.95L23 83.9185H24.0549L25.5945 76.95H24.3786Z" fill="#5B8EF5"/>
<path d="M45.3682 43.7968V41.9335L48.8516 38.6111V40.3939L45.3682 43.7968Z" fill="#5B8EF5"/>
<path d="M129.894 66.0083C129.122 67.9682 127.726 69.6196 125.922 70.7077C126.442 72.4879 127.106 74.2227 127.908 75.895C129.095 75.2147 130.097 74.2527 130.825 73.094C131.553 71.9352 131.985 70.6151 132.082 69.2502C131.652 67.9951 130.897 66.8765 129.894 66.0083Z" fill="#5B8EF5"/>
<path d="M144.481 51.7461L142.375 53.2036L147.48 56.4455L149.789 55.6402L144.481 51.7461Z" fill="#5B8EF5"/>
<path d="M254.898 96.6411V100.896L260.374 96.6411V93.8389L254.898 96.6411Z" fill="#5B8EF5"/>
<path d="M301.942 173.102C302.47 172.017 303.122 170.997 303.886 170.063C307.898 170.428 310.328 170.913 310.328 170.913C309.429 171.931 308.764 173.135 308.382 174.438C306.296 173.739 304.133 173.29 301.94 173.102" fill="#5B8EF5"/>
<path d="M321.27 35.1291L320.659 33.4268C321.907 32.5554 323.392 32.0888 324.914 32.0901C325.278 33.1836 324.914 33.6088 324.914 33.6088C323.625 33.9172 322.394 34.4304 321.268 35.1291" fill="#5B8EF5"/>
<path d="M168.659 172.076C153.831 172.076 139.336 167.679 127.007 159.441C114.678 151.202 105.068 139.493 99.394 125.794C93.7195 112.095 92.2348 97.0202 95.1276 82.477C98.0204 67.9338 105.161 54.575 115.646 44.0899C126.131 33.6048 139.49 26.4644 154.033 23.5716C168.576 20.6788 183.651 22.1635 197.35 27.8379C211.049 33.5124 222.758 43.1218 230.997 55.4509C239.235 67.7801 243.632 82.2752 243.632 97.1033C243.607 116.98 235.7 136.034 221.645 150.089C207.59 164.144 188.536 172.051 168.659 172.076ZM168.659 64.2304C162.158 64.2304 155.802 66.1583 150.396 69.7705C144.99 73.3826 140.777 78.5166 138.289 84.5234C135.801 90.5301 135.15 97.1398 136.418 103.517C137.686 109.893 140.817 115.751 145.415 120.348C150.012 124.945 155.869 128.076 162.246 129.345C168.623 130.613 175.233 129.962 181.239 127.474C187.246 124.986 192.38 120.773 195.992 115.367C199.604 109.961 201.532 103.605 201.532 97.1033C201.522 88.3882 198.055 80.033 191.892 73.8704C185.73 67.7078 177.375 64.241 168.659 64.2304Z" fill="#FFCF2E"/>
<path d="M201.34 98.8876H136.572C135.592 98.8869 134.622 99.0795 133.716 99.4543C132.811 99.829 131.988 100.379 131.295 101.072C130.602 101.764 130.052 102.587 129.678 103.493C129.303 104.398 129.11 105.369 129.111 106.349V203.857L145.145 193.922H208.725V106.272C208.726 105.302 208.535 104.341 208.165 103.445C207.794 102.548 207.25 101.734 206.564 101.048C205.878 100.362 205.064 99.8182 204.167 99.4475C203.271 99.0768 202.31 98.8865 201.34 98.8876Z" fill="#192743"/>
<path d="M156.462 112.218H159.779L156.251 124.876H152.722L150.498 116.84L148.292 124.876H144.763L141.175 112.218H144.474L146.68 121.328L148.943 112.218H152.432L154.6 121.193L156.462 112.218Z" fill="white"/>
<path d="M161.409 123.571C160.904 123.089 160.507 122.504 160.246 121.856C159.984 121.207 159.864 120.511 159.894 119.813C159.861 119.119 159.979 118.427 160.241 117.785C160.502 117.142 160.901 116.564 161.409 116.091C162.431 115.151 163.78 114.649 165.168 114.691C166.55 114.645 167.895 115.149 168.907 116.091C169.41 116.568 169.806 117.146 170.067 117.788C170.328 118.43 170.45 119.12 170.423 119.813C170.451 120.509 170.332 121.204 170.075 121.851C169.817 122.499 169.426 123.085 168.927 123.571C167.888 124.486 166.552 124.99 165.168 124.99C163.784 124.99 162.448 124.486 161.409 123.571ZM166.645 121.731C167.082 121.206 167.302 120.533 167.258 119.851C167.283 119.515 167.24 119.176 167.131 118.857C167.022 118.537 166.85 118.243 166.625 117.991C166.431 117.791 166.199 117.632 165.942 117.523C165.685 117.414 165.408 117.358 165.129 117.358C164.85 117.358 164.574 117.414 164.317 117.523C164.06 117.632 163.827 117.791 163.633 117.991C163.413 118.245 163.245 118.54 163.139 118.86C163.034 119.179 162.993 119.516 163.019 119.851C162.973 120.537 163.201 121.213 163.652 121.731C163.845 121.939 164.08 122.105 164.341 122.216C164.602 122.327 164.884 122.381 165.168 122.375C165.446 122.378 165.721 122.323 165.975 122.211C166.23 122.1 166.458 121.937 166.645 121.731Z" fill="white"/>
<path d="M175.275 114.807V116.687C175.518 116.114 175.921 115.623 176.435 115.273C176.949 114.923 177.552 114.728 178.174 114.711V117.856H177.408C176.832 117.812 176.262 117.991 175.815 118.355C175.61 118.598 175.456 118.881 175.364 119.186C175.272 119.49 175.243 119.81 175.278 120.127V124.882H172.188V114.807H175.275Z" fill="white"/>
<path d="M179.63 124.876V111.527H182.717V124.876H179.63Z" fill="white"/>
<path d="M185.215 122.914C184.346 121.875 183.87 120.564 183.87 119.21C183.87 117.856 184.346 116.545 185.215 115.506C185.621 115.043 186.123 114.673 186.685 114.422C187.248 114.17 187.858 114.043 188.474 114.049C189.045 114.021 189.615 114.137 190.13 114.384C190.646 114.632 191.092 115.004 191.428 115.467V110.87H194.515V124.219H191.428V122.769C191.104 123.266 190.66 123.672 190.137 123.951C189.613 124.229 189.028 124.37 188.435 124.36C187.825 124.372 187.22 124.248 186.663 123.998C186.106 123.748 185.612 123.378 185.215 122.914ZM190.758 121.054C190.988 120.808 191.166 120.519 191.282 120.202C191.397 119.886 191.447 119.55 191.429 119.213C191.449 118.88 191.4 118.546 191.284 118.232C191.169 117.919 190.989 117.633 190.758 117.392C190.556 117.191 190.317 117.031 190.053 116.922C189.79 116.814 189.508 116.758 189.223 116.759C188.936 116.757 188.652 116.814 188.388 116.927C188.124 117.039 187.886 117.204 187.688 117.411C187.458 117.657 187.279 117.946 187.164 118.263C187.048 118.579 186.998 118.916 187.016 119.252C186.996 119.585 187.046 119.92 187.161 120.233C187.277 120.547 187.456 120.833 187.688 121.073C187.89 121.276 188.13 121.436 188.394 121.545C188.658 121.654 188.941 121.709 189.227 121.707C189.513 121.705 189.795 121.646 190.058 121.534C190.321 121.422 190.558 121.259 190.758 121.054Z" fill="white"/>
<path d="M146.391 141.638C145.914 141.139 145.544 140.549 145.304 139.903C145.063 139.256 144.957 138.568 144.992 137.879C144.955 137.193 145.061 136.507 145.302 135.863C145.542 135.22 145.913 134.633 146.391 134.139C146.867 133.67 147.435 133.303 148.058 133.062C148.682 132.822 149.349 132.712 150.017 132.74C151.13 132.707 152.225 133.03 153.143 133.661C154.013 134.288 154.616 135.219 154.83 136.27H151.493C151.376 135.994 151.178 135.759 150.924 135.598C150.671 135.437 150.375 135.357 150.075 135.368C149.793 135.348 149.51 135.401 149.255 135.522C149 135.643 148.78 135.828 148.617 136.059C148.271 136.601 148.102 137.238 148.134 137.88C148.099 138.523 148.268 139.161 148.617 139.702C148.773 139.927 148.983 140.108 149.228 140.229C149.473 140.349 149.745 140.406 150.018 140.393C150.33 140.434 150.647 140.367 150.916 140.203C151.185 140.039 151.389 139.787 151.495 139.491H154.832C154.585 140.528 153.98 141.445 153.125 142.081C152.222 142.732 151.131 143.071 150.018 143.047C149.349 143.076 148.681 142.965 148.057 142.723C147.433 142.48 146.866 142.111 146.391 141.638Z" fill="white"/>
<path d="M156.423 142.923V129.574H159.511V142.923H156.423Z" fill="white"/>
<path d="M162.656 141.598C161.745 140.584 161.263 139.256 161.313 137.893C161.258 136.53 161.74 135.2 162.656 134.189C163.063 133.726 163.565 133.356 164.127 133.104C164.69 132.853 165.301 132.726 165.917 132.732C166.489 132.704 167.058 132.82 167.574 133.068C168.089 133.315 168.535 133.688 168.871 134.151V132.827H171.958V142.896H168.871V141.438C168.547 141.935 168.103 142.341 167.58 142.62C167.057 142.898 166.471 143.039 165.879 143.029C165.27 143.036 164.668 142.911 164.112 142.664C163.556 142.417 163.059 142.053 162.656 141.598ZM168.199 139.718C168.43 139.473 168.608 139.183 168.723 138.866C168.839 138.55 168.889 138.214 168.871 137.877C168.891 137.544 168.842 137.21 168.726 136.896C168.611 136.583 168.431 136.297 168.199 136.056C167.998 135.855 167.758 135.695 167.495 135.586C167.232 135.478 166.949 135.422 166.664 135.423C166.378 135.422 166.094 135.479 165.83 135.591C165.566 135.703 165.328 135.868 165.13 136.075C164.899 136.321 164.721 136.611 164.605 136.927C164.49 137.243 164.44 137.58 164.458 137.916C164.438 138.25 164.487 138.584 164.603 138.897C164.719 139.211 164.898 139.497 165.13 139.737C165.331 139.939 165.571 140.098 165.834 140.207C166.097 140.316 166.38 140.371 166.664 140.37C166.951 140.372 167.235 140.315 167.499 140.203C167.763 140.091 168.001 139.927 168.199 139.72V139.718Z" fill="white"/>
<path d="M173.837 135.884C173.839 135.448 173.941 135.019 174.137 134.629C174.333 134.24 174.616 133.901 174.965 133.64C175.857 133.002 176.939 132.684 178.034 132.738C179.145 132.682 180.243 132.992 181.16 133.621C181.541 133.901 181.853 134.264 182.072 134.682C182.292 135.101 182.413 135.564 182.426 136.037H179.281C179.282 135.898 179.25 135.76 179.186 135.637C179.123 135.513 179.03 135.406 178.917 135.326C178.633 135.179 178.314 135.113 177.995 135.135C177.19 135.135 176.788 135.384 176.788 135.884C176.788 136.325 177.287 136.631 178.264 136.805C179.198 136.957 180.112 137.214 180.988 137.571C181.414 137.744 181.781 138.037 182.043 138.415C182.338 138.835 182.486 139.341 182.465 139.853C182.47 140.307 182.362 140.755 182.151 141.156C181.94 141.558 181.633 141.901 181.257 142.155C180.365 142.78 179.294 143.097 178.207 143.057C177.122 143.093 176.052 142.799 175.139 142.213C174.733 141.938 174.399 141.57 174.166 141.139C173.932 140.709 173.805 140.229 173.795 139.739H176.96C177.037 140.353 177.477 140.66 178.264 140.66C178.584 140.674 178.9 140.587 179.166 140.411C179.272 140.34 179.359 140.244 179.419 140.131C179.479 140.019 179.511 139.894 179.511 139.766C179.511 139.497 179.319 139.283 178.917 139.133C178.456 138.959 177.982 138.824 177.498 138.731C176.942 138.616 176.386 138.482 175.829 138.328C175.288 138.182 174.797 137.89 174.411 137.484C174.018 137.046 173.812 136.471 173.837 135.884Z" fill="white"/>
<path d="M183.83 135.884C183.832 135.448 183.934 135.019 184.13 134.629C184.326 134.24 184.609 133.901 184.958 133.64C185.85 133.002 186.932 132.684 188.027 132.738C189.138 132.682 190.236 132.992 191.153 133.621C191.534 133.901 191.846 134.264 192.066 134.682C192.285 135.101 192.406 135.564 192.419 136.037H189.254C189.256 135.898 189.223 135.76 189.16 135.637C189.097 135.513 189.004 135.406 188.89 135.326C188.607 135.179 188.288 135.112 187.969 135.135C187.164 135.135 186.761 135.384 186.761 135.884C186.761 136.325 187.261 136.631 188.238 136.805C189.172 136.957 190.086 137.214 190.962 137.571C191.388 137.744 191.755 138.037 192.016 138.415C192.312 138.835 192.46 139.341 192.438 139.853C192.443 140.307 192.336 140.755 192.125 141.156C191.914 141.558 191.607 141.901 191.23 142.155C190.339 142.78 189.268 143.097 188.18 143.057C187.096 143.093 186.026 142.799 185.112 142.213C184.707 141.938 184.373 141.57 184.139 141.139C183.906 140.709 183.779 140.229 183.769 139.739H186.934C187.011 140.353 187.452 140.66 188.238 140.66C188.558 140.675 188.873 140.587 189.14 140.411C189.246 140.34 189.333 140.244 189.394 140.132C189.454 140.019 189.486 139.894 189.486 139.766C189.486 139.497 189.295 139.283 188.89 139.133C188.43 138.959 187.955 138.824 187.472 138.731C186.915 138.616 186.359 138.482 185.803 138.328C185.262 138.182 184.771 137.89 184.384 137.484C184.006 137.039 183.808 136.468 183.83 135.884Z" fill="white"/>
<path d="M159.702 148.294H163.02L159.491 160.952H155.963L153.737 152.916L151.531 160.952H148.002L144.416 148.294H147.714L149.92 157.404L152.183 148.294H155.673L157.84 157.269L159.702 148.294Z" fill="white"/>
<path d="M164.651 159.667C164.146 159.184 163.749 158.599 163.488 157.951C163.227 157.303 163.107 156.606 163.136 155.908C163.103 155.215 163.221 154.523 163.483 153.881C163.745 153.238 164.143 152.661 164.651 152.188C165.673 151.248 167.022 150.745 168.41 150.787C169.793 150.741 171.137 151.245 172.15 152.188C172.652 152.665 173.048 153.243 173.309 153.884C173.57 154.526 173.692 155.216 173.665 155.908C173.693 156.605 173.575 157.299 173.317 157.947C173.059 158.594 172.668 159.18 172.169 159.667C171.671 160.14 171.084 160.509 170.442 160.753C169.8 160.996 169.116 161.11 168.429 161.086C167.033 161.125 165.677 160.616 164.651 159.667ZM169.887 157.807C170.324 157.282 170.544 156.609 170.5 155.928C170.525 155.591 170.482 155.253 170.373 154.933C170.265 154.613 170.093 154.319 169.868 154.067C169.673 153.867 169.441 153.708 169.184 153.599C168.927 153.49 168.651 153.434 168.371 153.434C168.092 153.434 167.816 153.49 167.559 153.599C167.302 153.708 167.07 153.867 166.875 154.067C166.655 154.321 166.487 154.616 166.382 154.936C166.276 155.255 166.236 155.592 166.262 155.928C166.239 156.267 166.282 156.608 166.391 156.93C166.5 157.253 166.671 157.551 166.895 157.807C167.086 158.017 167.321 158.184 167.582 158.296C167.843 158.409 168.126 158.464 168.41 158.459C168.689 158.463 168.965 158.407 169.22 158.295C169.475 158.182 169.702 158.016 169.887 157.807Z" fill="white"/>
<path d="M178.519 150.903V152.782C178.762 152.21 179.165 151.719 179.679 151.369C180.193 151.019 180.796 150.823 181.418 150.806V153.951H180.651C180.076 153.908 179.506 154.087 179.059 154.451C178.857 154.696 178.706 154.979 178.614 155.283C178.522 155.587 178.491 155.906 178.522 156.222V160.978H175.43V150.903H178.519Z" fill="white"/>
<path d="M185.921 160.972H182.833V147.622H185.921V155.101L189.047 150.901H193.189L188.873 156.042L193.189 160.972H189.084L185.9 156.945L185.921 160.972Z" fill="white"/>
<path d="M146.889 170.254C147.222 169.788 147.667 169.413 148.184 169.165C148.7 168.917 149.271 168.804 149.843 168.835C150.459 168.827 151.071 168.953 151.634 169.205C152.197 169.456 152.699 169.828 153.104 170.293C154.012 171.308 154.493 172.635 154.447 173.997C154.502 175.36 154.02 176.69 153.104 177.701C152.701 178.158 152.206 178.522 151.65 178.771C151.094 179.019 150.491 179.144 149.883 179.139C149.292 179.155 148.707 179.017 148.186 178.738C147.664 178.459 147.225 178.049 146.91 177.548V183.8H143.802V168.937H146.889V170.254ZM150.609 175.817C150.841 175.576 151.02 175.29 151.136 174.976C151.252 174.663 151.301 174.329 151.281 173.995C151.299 173.659 151.249 173.323 151.133 173.006C151.018 172.69 150.84 172.4 150.609 172.155C150.411 171.948 150.172 171.785 149.908 171.674C149.644 171.564 149.361 171.508 149.074 171.51C148.79 171.51 148.507 171.565 148.244 171.674C147.981 171.782 147.741 171.942 147.54 172.143C147.308 172.384 147.128 172.67 147.013 172.984C146.897 173.297 146.848 173.631 146.868 173.965C146.85 174.301 146.9 174.638 147.015 174.954C147.131 175.27 147.309 175.56 147.54 175.806C147.739 176.01 147.977 176.174 148.239 176.286C148.502 176.398 148.785 176.456 149.07 176.458C149.356 176.46 149.639 176.405 149.903 176.296C150.168 176.187 150.408 176.027 150.609 175.825V175.817Z" fill="white"/>
<path d="M156.212 178.999V165.65H159.3V178.999H156.212Z" fill="white"/>
<path d="M162.445 177.693C161.534 176.679 161.053 175.351 161.103 173.989C161.048 172.626 161.53 171.296 162.445 170.285C162.852 169.822 163.354 169.452 163.916 169.2C164.479 168.949 165.09 168.821 165.706 168.827C166.278 168.8 166.847 168.915 167.363 169.163C167.878 169.411 168.324 169.783 168.66 170.246V168.922H171.747V178.991H168.66V177.534C168.336 178.03 167.892 178.437 167.369 178.715C166.846 178.993 166.26 179.134 165.668 179.125C165.059 179.133 164.456 179.009 163.899 178.762C163.343 178.515 162.847 178.15 162.445 177.693ZM167.969 175.814C168.199 175.568 168.378 175.278 168.493 174.962C168.609 174.646 168.659 174.309 168.64 173.973C168.661 173.639 168.611 173.305 168.496 172.992C168.38 172.678 168.201 172.392 167.969 172.151C167.767 171.95 167.528 171.791 167.265 171.682C167.001 171.573 166.719 171.518 166.434 171.519C166.148 171.516 165.864 171.572 165.6 171.683C165.337 171.793 165.098 171.957 164.899 172.163C164.669 172.408 164.491 172.698 164.375 173.014C164.26 173.331 164.21 173.667 164.228 174.003C164.208 174.337 164.257 174.671 164.373 174.985C164.488 175.298 164.668 175.584 164.899 175.825C165.101 176.027 165.341 176.188 165.605 176.296C165.869 176.405 166.152 176.46 166.438 176.458C166.724 176.456 167.006 176.398 167.269 176.286C167.532 176.174 167.77 176.011 167.969 175.806V175.814Z" fill="white"/>
<path d="M174.911 177.714C174.434 177.216 174.064 176.625 173.824 175.979C173.583 175.333 173.477 174.644 173.512 173.955C173.475 173.269 173.581 172.583 173.822 171.939C174.062 171.296 174.433 170.709 174.911 170.216C175.387 169.746 175.955 169.379 176.578 169.139C177.202 168.898 177.869 168.788 178.537 168.816C179.65 168.783 180.745 169.106 181.663 169.737C182.533 170.364 183.136 171.295 183.35 172.346H180.013C179.896 172.07 179.698 171.836 179.444 171.675C179.191 171.514 178.895 171.433 178.595 171.444C178.313 171.424 178.03 171.477 177.775 171.598C177.52 171.719 177.3 171.904 177.137 172.135C176.791 172.678 176.622 173.314 176.654 173.957C176.619 174.6 176.788 175.237 177.137 175.778C177.293 176.003 177.503 176.184 177.748 176.305C177.992 176.425 178.264 176.482 178.537 176.469C178.849 176.511 179.166 176.444 179.435 176.28C179.703 176.115 179.908 175.864 180.013 175.567H183.35C183.103 176.604 182.499 177.521 181.643 178.157C180.741 178.809 179.65 179.148 178.537 179.123C177.868 179.152 177.2 179.042 176.576 178.8C175.952 178.557 175.385 178.187 174.911 177.714Z" fill="white"/>
<path d="M189.335 179.141C188.669 179.164 188.005 179.05 187.385 178.806C186.764 178.562 186.201 178.193 185.729 177.722C184.826 176.682 184.329 175.35 184.329 173.973C184.329 172.595 184.826 171.264 185.729 170.224C186.208 169.761 186.777 169.4 187.4 169.162C188.023 168.925 188.688 168.817 189.354 168.844C190.712 168.802 192.033 169.291 193.037 170.206C193.535 170.7 193.922 171.294 194.173 171.948C194.425 172.603 194.534 173.303 194.495 174.004C194.499 174.331 194.473 174.658 194.417 174.981H187.492C187.539 175.409 187.753 175.802 188.087 176.075C188.388 176.343 188.777 176.492 189.18 176.496C189.479 176.509 189.777 176.47 190.063 176.381C190.214 176.325 190.356 176.247 190.485 176.15C190.613 176.035 190.728 175.906 190.829 175.767H194.166C193.895 176.756 193.284 177.619 192.44 178.202C191.53 178.837 190.444 179.166 189.335 179.141ZM190.639 171.91C190.274 171.617 189.819 171.461 189.351 171.469C188.895 171.459 188.452 171.616 188.104 171.91C187.758 172.201 187.532 172.611 187.471 173.06H191.25C191.237 172.834 191.176 172.614 191.071 172.414C190.966 172.214 190.818 172.04 190.639 171.902V171.91Z" fill="white"/>
<path d="M245.828 174.743C246.989 177.371 259.717 184.728 265.556 188.313C262.572 181.995 257.021 168.256 255.024 166.848L245.828 174.743Z" fill="#FF9B29"/>
<path d="M247.408 173.828C251.112 178.857 253.022 176.02 258.392 180.003C255.192 174.16 258.197 172.594 253.882 168.278L247.419 173.83L247.408 173.828Z" fill="#FFDD00"/>
<path d="M245.121 175.643C245.693 177.656 253.657 184.766 257.301 188.168C255.8 183.298 253.159 172.855 251.929 171.565L245.12 175.645L245.121 175.643Z" fill="#FF9B29"/>
<path d="M246.255 175.252C248.348 179.336 249.854 177.651 253.144 181.262C251.458 176.691 253.602 176.063 251.041 172.385L246.255 175.252Z" fill="#FFDD00"/>
<path d="M282.661 197.803C282.077 200.15 287.17 211.445 289.404 216.763C290.67 211.027 294.086 199.021 293.422 197.08L282.661 197.803Z" fill="#FF9B29"/>
<path d="M284.272 197.976C284.214 203.208 287.085 202.248 288.763 207.603C289.62 202.079 292.596 202.522 291.836 197.467L284.272 197.976Z" fill="#FFDD00"/>
<path d="M280.753 197.326C280.047 198.755 282.075 206.678 282.914 210.384C284.525 206.873 288.436 199.623 288.229 198.293L280.753 197.326Z" fill="#FF9B29"/>
<path d="M281.835 197.653C281.115 201.001 283.211 200.768 283.665 204.425C284.971 200.997 286.955 201.675 287.092 198.331L281.835 197.653Z" fill="#FFDD00"/>
<path d="M249.846 160.419C252.989 162.552 255.676 165.29 257.751 168.472C257.751 168.472 243.872 176.846 243.901 176.881C243.93 176.917 242.4 172.168 245.015 170.117C247.63 168.067 244.511 163.445 244.511 163.445L249.846 160.419Z" fill="#F15E46"/>
<path d="M274.081 109.981C276.689 114.772 278.794 119.82 280.362 125.045C285.539 145.836 289.535 166.903 292.332 188.145H281.876C281.876 188.145 266.544 147.833 259.662 129.835C259.662 129.835 247.535 134.491 244.26 135.059C244.26 135.059 250.191 153.306 252.877 162.018L243.492 167.333C243.492 167.333 224.531 135.735 228.02 126.543C231.508 117.35 249.566 116.039 254.77 109.981H274.081Z" fill="#192743"/>
<path d="M292.182 187.403C293.76 190.858 294.636 194.591 294.759 198.388C294.759 198.388 278.551 198.339 278.551 198.388C278.551 198.436 279.714 193.579 283.017 193.179C286.32 192.78 286.04 187.403 286.04 187.403H292.182Z" fill="#F15E46"/>
<path d="M287.981 188.253C287.965 188.255 287.948 188.255 287.932 188.253C287.892 188.253 287.854 188.239 287.822 188.215C287.79 188.191 287.767 188.158 287.755 188.119L269.378 122.19L265.755 125.284C265.721 125.312 265.679 125.327 265.635 125.327C265.609 125.327 265.582 125.322 265.558 125.311C265.533 125.3 265.512 125.284 265.494 125.264C265.462 125.227 265.446 125.179 265.45 125.13C265.454 125.081 265.476 125.036 265.513 125.003L269.265 121.798L269.251 121.742C269.239 121.704 269.24 121.662 269.254 121.625C269.269 121.587 269.295 121.555 269.329 121.534C269.363 121.513 269.404 121.503 269.444 121.508C269.484 121.512 269.521 121.529 269.55 121.557L273.103 118.523C273.121 118.505 273.143 118.492 273.166 118.483C273.19 118.475 273.215 118.471 273.24 118.472C273.265 118.473 273.29 118.48 273.312 118.491C273.335 118.502 273.355 118.517 273.371 118.536C273.387 118.555 273.4 118.577 273.407 118.601C273.415 118.625 273.418 118.65 273.415 118.675C273.413 118.7 273.405 118.724 273.393 118.746C273.381 118.768 273.364 118.788 273.345 118.803L269.687 121.927L288.111 188.031C288.118 188.054 288.12 188.078 288.117 188.102C288.114 188.126 288.107 188.15 288.095 188.171C288.083 188.192 288.067 188.21 288.048 188.225C288.029 188.24 288.007 188.251 287.984 188.258L287.981 188.253ZM257.317 120.486C257.304 120.439 257.273 120.399 257.231 120.374C257.189 120.35 257.138 120.343 257.091 120.356C257.044 120.369 257.004 120.4 256.979 120.443C256.955 120.485 256.949 120.535 256.961 120.583L257.552 122.765C255.691 123.216 241.726 126.594 239.576 127.311C239.515 127.334 239.459 127.368 239.411 127.413C239.363 127.458 239.325 127.512 239.299 127.572C238.961 128.252 239.28 130.526 240.266 134.532C241.037 137.66 242.218 141.818 243.767 146.888C246.405 155.52 249.242 163.924 249.276 164.006C249.289 164.042 249.313 164.074 249.344 164.096C249.376 164.118 249.413 164.13 249.452 164.13C249.472 164.13 249.491 164.127 249.51 164.12C249.533 164.113 249.554 164.101 249.573 164.085C249.591 164.069 249.606 164.049 249.617 164.028C249.627 164.006 249.633 163.982 249.635 163.958C249.636 163.934 249.632 163.909 249.624 163.887C249.595 163.804 246.754 155.406 244.116 146.778C239.489 131.65 239.317 128.351 239.625 127.733C239.638 127.709 239.662 127.667 239.687 127.657C241.802 126.954 255.91 123.535 257.644 123.116L259.472 129.88C259.482 129.919 259.505 129.954 259.537 129.978C259.569 130.003 259.609 130.017 259.649 130.017C259.665 130.02 259.682 130.02 259.698 130.017C259.721 130.01 259.743 129.999 259.762 129.985C259.781 129.97 259.797 129.951 259.809 129.93C259.821 129.909 259.829 129.886 259.832 129.862C259.835 129.837 259.833 129.813 259.826 129.79L257.311 120.491L257.317 120.486Z" fill="#322D27"/>
<path d="M277.32 74.4973C276.587 73.5841 273.862 68.3324 268.607 67.7687C263.352 67.205 261.36 72.3698 261.36 72.3698C262.693 71.9913 263.993 71.5038 265.246 70.9123C265.929 72.6876 266.806 74.3819 267.861 75.9644C267.861 75.9644 268.791 74.4924 269.419 76.0691C270.047 77.6457 268.671 79.4511 267.868 78.8198C269.357 83.3806 271.54 84.181 271.54 84.181C275.374 83.2128 278.775 80.9907 281.203 77.868C279.838 76.8282 278.54 75.7035 277.316 74.5005L277.32 74.4973Z" fill="#5B3124"/>
<path d="M267.874 78.8183C268.009 78.9111 268.172 78.9536 268.336 78.9386C268.499 78.9236 268.652 78.852 268.768 78.7361L268.819 78.6943C268.853 78.6653 268.89 78.633 268.924 78.5992C268.948 78.5751 268.972 78.5477 268.996 78.5219C269.021 78.4962 268.996 78.5219 269.006 78.509C269.016 78.4962 269.048 78.4607 269.069 78.4334L269.112 78.3754C269.136 78.3416 269.161 78.3077 269.183 78.2739C269.206 78.2401 269.24 78.1821 269.265 78.1322L269.294 78.079C269.53 77.6255 269.623 77.1111 269.56 76.6039C269.561 76.5964 269.561 76.5888 269.56 76.5813C269.555 76.5396 269.547 76.4982 269.538 76.4573C269.539 76.4466 269.539 76.4358 269.538 76.4251C269.511 76.3039 269.476 76.1849 269.431 76.0692C269.402 75.9967 269.37 75.9275 269.341 75.8679C269.324 75.8335 269.307 75.8018 269.289 75.7728C269.27 75.7406 269.252 75.7116 269.233 75.6859C269.199 75.6358 269.162 75.5885 269.12 75.5442C269.044 75.4576 268.945 75.3949 268.834 75.3638H268.819C268.679 75.3546 268.538 75.3811 268.411 75.4408C268.283 75.5005 268.173 75.5915 268.09 75.7052L268.046 75.7535L268.014 75.7906L267.991 75.8179L267.967 75.8502C267.909 75.9258 267.876 75.979 267.876 75.979C267.554 75.5424 267.261 75.0863 266.996 74.6133L266.879 74.404C266.851 74.3573 266.827 74.3089 266.801 74.2622L266.71 74.0899C266.653 73.9852 266.597 73.8789 266.548 73.7678C265.792 72.2974 265.26 70.9237 265.26 70.9237C264.673 71.2383 264.06 71.5012 263.427 71.7096L263.345 71.7386L263.184 71.7966L263.023 71.853L262.633 71.985L262.558 72.0092C261.888 72.2314 261.372 72.3812 261.372 72.3812C260.435 75.0012 259.633 77.6679 258.971 80.3708C259.013 81.2275 263.481 82.6141 263.481 82.6141L262.429 83.9863L264.629 88.4714L270.132 83.801C269.831 83.3331 269.619 82.8132 269.509 82.2679C268.802 81.2052 268.253 80.046 267.879 78.8263L267.874 78.8183Z" fill="#B77844"/>
<path d="M262.476 84.0683C261.514 84.098 260.575 83.771 259.839 83.1503C255.447 79.5992 252.142 74.8847 250.302 69.545C248.748 63.5006 247.675 57.3429 247.092 51.1293L237.901 52.2711C237.901 52.2711 240.507 68.9041 242.477 75.6696C244.446 82.4352 251.656 94.2175 251.656 94.2175C251.685 99.7876 252.315 105.338 253.536 110.773H277.181V110.435C277.181 110.435 286.626 112.15 287.778 108.575C288.929 105 281.497 87.4953 277.736 86.2005C273.976 84.9057 270.056 83.8734 270.056 83.8734L264.595 88.4004L262.472 84.0667L262.476 84.0683Z" fill="#5B8EF5"/>
<path d="M239.757 52.0376C239.757 52.0376 238.346 49.39 237.415 47.6249C236.484 45.8598 235.764 43.6148 236.228 43.6342C237.384 44.8246 238.41 46.1349 239.288 47.5428L241.298 47.6007L246.231 48.8006V51.234L239.752 52.0392L239.757 52.0376Z" fill="#B77844"/>
<path d="M245.347 70.893C244.023 70.9907 242.699 71.0981 241.375 71.2151L241.346 71.0831H241.361C244.349 70.7932 247.341 70.5709 250.337 70.4163L250.579 70.4034C250.598 70.4598 250.618 70.5129 250.635 70.5645C248.871 70.6493 247.108 70.7567 245.345 70.8866L245.347 70.893ZM248.704 62.6313C248.695 62.583 248.687 62.5347 248.677 62.4847L248.134 62.5137C245.73 62.6479 243.33 62.8272 240.934 63.0516C240.544 63.0887 240.158 63.1273 239.768 63.166C239.768 63.1998 239.781 63.232 239.786 63.2658C241.221 63.137 242.657 63.02 244.094 62.9147C245.629 62.8074 247.166 62.7134 248.706 62.6329L248.704 62.6313ZM238.653 56.8336L238.882 56.8094L242.167 56.4568C243.993 56.2646 245.818 56.0772 247.643 55.8947C247.633 55.8287 247.625 55.7659 247.616 55.6998C247.02 55.761 246.423 55.8228 245.826 55.885C243.627 56.1191 241.426 56.365 239.224 56.6226L238.615 56.6951L238.637 56.832L238.653 56.8336ZM268.565 85.1151L273.515 84.8542L273.032 84.7077L270.538 84.8413C269.953 84.8725 269.369 84.9031 268.785 84.9331L268.57 85.1103L268.565 85.1151ZM263.128 85.4002L263.052 85.2391L252.966 85.7835C251.004 85.8908 249.043 85.9982 247.081 86.1055L247.142 86.2231C251.666 86.0121 256.19 85.7561 260.714 85.5193L263.129 85.3921L263.128 85.4002ZM286.831 102.428C286.813 102.371 286.794 102.313 286.778 102.257C284.052 102.355 281.327 102.453 278.603 102.553C272.174 102.79 265.744 103.026 259.314 103.262C256.978 103.35 254.643 103.439 252.309 103.529C252.309 103.561 252.309 103.592 252.321 103.621C257.488 103.45 262.655 103.274 267.824 103.093C274.158 102.872 280.493 102.649 286.827 102.426L286.831 102.428ZM283.61 108.523C285.021 108.432 286.435 108.351 287.848 108.266C287.858 108.208 287.866 108.143 287.873 108.08C286.819 108.153 285.768 108.229 284.716 108.296L275.68 108.881C269.657 109.275 263.633 109.669 257.609 110.063L253.446 110.338C253.446 110.377 253.463 110.416 253.47 110.458C257.496 110.209 261.522 109.942 265.537 109.683C271.563 109.297 277.589 108.911 283.613 108.523H283.61ZM263.677 93.2238C269.95 92.8685 276.228 92.6317 282.51 92.5136H282.66L282.565 92.3365C279.792 92.3923 277.022 92.4717 274.255 92.5748C267.976 92.8056 261.703 93.1578 255.436 93.6313C254.12 93.7311 252.803 93.831 251.489 93.9373C251.518 93.9856 251.545 94.0291 251.566 94.0693C252.471 93.9942 253.377 93.9223 254.285 93.8535C257.416 93.6195 260.551 93.4117 263.688 93.2303L263.677 93.2238ZM254.861 78.0564C254.823 78.0081 254.784 77.9598 254.744 77.9082C252.025 78.1713 249.306 78.4365 246.587 78.7038L243.673 78.9937C243.688 79.0275 243.702 79.0646 243.717 79.1C246.369 78.8616 249.02 78.6088 251.669 78.3576L254.858 78.0564H254.861Z" fill="#645146"/>
<path d="M264.822 101.742C264.377 101.661 263.955 101.485 263.584 101.226C263.213 100.966 262.903 100.631 262.673 100.241C261.984 98.9524 261.398 96.3756 260.815 96.3128C260.232 96.25 260.654 99.4307 260.915 100.661C260.915 100.661 258.177 100.313 257.82 100.877C257.462 101.441 256.853 104.568 257.638 105.457C258.422 106.346 262.062 106.992 263.371 106.82L264.822 101.742Z" fill="#B77844"/>
<path d="M282.249 102.135C279.52 101.568 276.752 101.203 273.969 101.043C273.412 99.8816 272.341 97.7703 272.33 97.7477C272.309 97.708 272.272 97.6784 272.229 97.6654C272.186 97.6524 272.139 97.6571 272.1 97.6785C272.06 97.6998 272.03 97.7361 272.017 97.7793C272.004 97.8225 272.009 97.8691 272.03 97.9088C272.04 97.9281 273.011 99.8413 273.583 101.023C269.135 100.713 265.146 100.682 265.08 100.682C265.043 100.681 265.007 100.693 264.977 100.715C264.948 100.737 264.927 100.769 264.919 100.804L263.038 107.436C263.03 107.458 263.028 107.481 263.03 107.504C263.033 107.527 263.04 107.549 263.052 107.569C263.064 107.589 263.079 107.606 263.098 107.619C263.117 107.633 263.139 107.642 263.162 107.646C263.261 107.67 273.222 110.008 277.161 110.609H277.189C277.229 110.609 277.267 110.595 277.297 110.568C277.327 110.542 277.345 110.505 277.35 110.466C277.354 110.444 277.354 110.421 277.349 110.399C277.344 110.377 277.335 110.357 277.321 110.338C277.308 110.32 277.291 110.305 277.272 110.294C277.252 110.283 277.23 110.276 277.208 110.274C273.567 109.718 264.746 107.668 263.405 107.356L265.204 101.017C270.89 101.025 276.565 101.51 282.17 102.466C282.213 102.477 282.258 102.47 282.295 102.447C282.333 102.424 282.359 102.387 282.37 102.344C282.38 102.301 282.373 102.256 282.35 102.219C282.327 102.181 282.29 102.155 282.247 102.144L282.249 102.135Z" fill="#322D27"/>
<path d="M246.218 49.4592C246.218 49.4592 246.862 42.5213 246.36 42.2298C245.857 41.9383 244.488 46.3736 244.488 46.3736C244.488 46.3736 244.561 38.9058 243.913 38.7174C243.266 38.5289 243.032 46.0031 243.032 46.0031C243.032 46.0031 243.134 38.6787 242.303 38.756C241.472 38.8333 241.792 46.0595 241.792 46.0595C241.792 46.0595 241.056 38.8655 240.473 39.0459C239.89 39.2263 240.583 46.2399 240.583 46.2399C240.583 46.2399 239.976 39.2327 239.09 39.4985C238.204 39.7642 239.077 48.034 239.077 48.034L246.213 49.4624L246.218 49.4592Z" fill="#B77844"/>
<path d="M92.0652 71.2166C91.9911 68.9185 90.2196 61.8984 90.7446 61.8598C91.793 61.7825 93.571 68.656 93.571 68.656H98.9709L98.7438 71.5693L92.0619 71.2166H92.0652Z" fill="#FBAC77"/>
<path d="M98.9469 69.4741C98.9469 69.4741 100.659 63.0725 100.168 62.7101C99.6765 62.3478 97.7826 66.7814 97.7826 66.7814C97.7826 66.7814 98.678 59.0818 98.0322 58.816C97.3864 58.5503 96.3235 66.2387 96.3235 66.2387C96.3235 66.2387 97.2318 58.6888 96.3637 58.6695C95.4957 58.6501 95.0335 66.1533 95.0335 66.1533C95.0335 66.1533 95.0641 58.6534 94.4441 58.7709C93.824 58.8885 93.7677 66.2113 93.7677 66.2113C93.7677 66.2113 93.9078 58.911 92.9624 59.0898C92.0171 59.2686 93.1315 69.4918 93.1315 69.4918L98.9421 69.4645L98.9469 69.4741Z" fill="#FBAC77"/>
<path d="M66.6356 73.0075C66.3538 70.4935 65.3843 62.0563 64.703 62.0563C64.0218 62.0563 64.542 69.6529 64.542 69.6529H60.0117V74.2089L66.6356 73.0075Z" fill="#FBAC77"/>
<path d="M60.3307 72.4358C60.3307 72.4358 56.0597 67.3693 56.3512 66.8362C56.6427 66.3032 60.2421 69.508 60.2421 69.508C60.2421 69.508 56.1595 62.9196 56.6314 62.4026C57.1033 61.8856 61.334 68.3968 61.334 68.3968C61.334 68.3968 57.3078 61.9549 58.0808 61.57C58.8539 61.1851 62.4613 67.7784 62.4613 67.7784C62.4613 67.7784 59.2404 61.0015 59.854 60.8533C60.4676 60.7052 63.6305 67.2952 63.6305 67.2952C63.6305 67.2952 60.4064 60.7454 61.334 60.5055C62.2616 60.2655 65.6033 69.9928 65.6033 69.9928L60.3323 72.4375L60.3307 72.4358Z" fill="#FBAC77"/>
<path d="M96.2152 228.814C95.6209 231.399 100.462 244.049 102.581 250C103.87 243.681 107.332 230.465 106.706 228.296L96.2152 228.814Z" fill="#FF9B29"/>
<path d="M97.7856 229.048C97.6713 234.846 100.48 233.857 102.057 239.838C102.952 233.739 105.844 234.309 105.158 228.687L97.7856 229.048Z" fill="#FFDD00"/>
<path d="M92.1874 228.474C91.5544 230.536 94.777 241.073 96.1636 246.019C97.584 240.97 101.169 230.452 100.781 228.658L92.1857 228.474H92.1874Z" fill="#FF9B29"/>
<path d="M93.4517 228.755C93.0249 233.446 95.3746 232.808 96.3183 237.744C97.4006 232.85 99.7309 233.481 99.4926 228.887L93.4517 228.755Z" fill="#FFDD00"/>
<path d="M52.1366 226.719C50.9996 229.172 54.7794 242.539 56.3625 248.797C58.9505 242.768 65.2668 230.29 64.8642 228.037L52.1414 226.722L52.1366 226.719Z" fill="#FF9B29"/>
<path d="M53.9869 227.223C52.9079 232.939 56.4541 232.454 57.3818 238.642C59.4512 232.763 62.8477 233.831 62.9347 228.146L53.9885 227.22L53.9869 227.223Z" fill="#FFDD00"/>
<path d="M56.9992 227.737C56.6948 230.04 62.8372 240.249 65.5701 245.07C66.1612 239.456 68.1388 227.619 67.2869 225.843L56.9992 227.737Z" fill="#FF9B29"/>
<path d="M58.5708 227.73C59.0862 232.723 61.7499 231.492 63.9514 236.414C64.1736 231.05 67.087 231.14 65.8018 226.4L58.5708 227.73Z" fill="#FFDD00"/>
<path d="M76.5211 99.3452C78.4875 99.5964 80.4779 99.5964 82.4444 99.3452C82.4444 99.3452 82.8856 100.82 83.9292 101.167C83.9292 101.167 84.5315 108.127 83.058 107.164C81.5844 106.201 82.1625 105.951 79.9143 105.951C77.6661 105.951 76.2312 107.609 75.645 107.464C75.0588 107.319 75.0813 102.724 75.0732 101.152C75.6692 100.65 76.1599 100.036 76.5211 99.3452Z" fill="#FBAC77"/>
<path d="M76.5211 99.3452C78.4875 99.5964 80.4779 99.5964 82.4444 99.3452C82.4444 99.3452 82.8856 100.82 83.9292 101.167C83.9292 101.167 84.5315 108.127 83.058 107.164C81.5844 106.201 82.1625 105.951 79.9143 105.951C77.6661 105.951 76.2312 107.609 75.645 107.464C75.0588 107.319 75.0813 102.724 75.0732 101.152C75.6692 100.65 76.1599 100.036 76.5211 99.3452Z" fill="#FBAC77"/>
<path d="M85.2253 97.5527C85.2465 97.0831 85.1367 96.6168 84.9082 96.2059C84.6798 95.7951 84.3416 95.4558 83.9316 95.2259C83.5215 94.9961 83.0556 94.8847 82.5859 94.9043C82.1162 94.9238 81.6612 95.0735 81.2716 95.3367C80.5609 95.9819 79.6431 96.3521 78.6836 96.3803C77.7917 96.4083 76.923 96.6711 76.1652 97.1421C75.4074 97.6132 74.7873 98.2759 74.3675 99.0633C73.9295 99.9314 74.0454 104.022 74.1131 106.653C74.1807 109.285 75.3676 111.826 79.5887 111.826C83.8097 111.826 85.2656 109.512 85.2253 107.372C85.1851 105.231 85.4315 100.724 85.2253 97.5479V97.5527ZM83.056 107.164C81.5824 106.198 82.1606 105.951 79.9124 105.951C77.6641 105.951 76.2292 107.608 75.643 107.464C75.0568 107.319 75.0793 102.724 75.0713 101.152C75.6673 100.65 76.1596 100.036 76.5207 99.3452C78.4872 99.5964 80.4776 99.5964 82.444 99.3452C82.444 99.3452 82.8853 100.82 83.9289 101.167C83.9289 101.167 84.5296 108.127 83.056 107.164Z" fill="#192743"/>
<path d="M79.5888 111.828C78.5572 111.861 77.5318 111.655 76.5934 111.226L76.1279 114.984C77.1185 115.94 78.4412 116.474 79.8175 116.474C81.1939 116.474 82.5165 115.94 83.5071 114.984L83.2285 110.992C82.112 111.592 80.855 111.88 79.5888 111.828Z" fill="#FBAC77"/>
<path d="M98.8775 70.2069L91.9379 70.8012C91.9379 70.8012 90.8863 114.983 83.5071 114.983C82.5165 115.938 81.1938 116.472 79.8175 116.472C78.4412 116.472 77.1185 115.938 76.1279 114.983C76.1279 114.983 74.1181 115.221 72.7765 109.895C71.435 104.57 66.8677 71.5517 66.8677 71.5517L59.5723 72.9206C59.5723 72.9206 60.5466 99.2631 63.2216 113.864C64.7565 121.869 65.7914 129.962 66.3201 138.096H98.0964C98.0964 138.096 99.5458 113.107 99.7069 108.847C99.8679 104.587 99.3123 77.1464 98.8823 70.2069H98.8775Z" fill="#F15E46"/>
<path d="M97.2589 138.096L108.442 217.96H94.1249L81.523 164.862L70.9341 217.96H55.3608L67.5714 138.101L97.2589 138.096Z" fill="#2AACAA"/>
<path d="M106.905 217.955C107.427 221.677 107.686 225.431 107.678 229.189H89.6621C89.6621 229.189 90.5189 223.806 94.5885 223.118C98.6582 222.43 98.9207 217.953 98.9207 217.953L106.905 217.955Z" fill="#192743"/>
<path d="M67.4474 217.955C67.9688 221.677 68.2266 225.431 68.2188 229.189H50.2041C50.2041 229.189 51.0609 223.806 55.1305 223.118C59.2002 222.43 59.4627 217.953 59.4627 217.953H67.4474V217.955Z" fill="#192743"/>
<path d="M91.0267 128.345C90.5304 128.358 90.0372 128.263 89.5804 128.069C89.1236 127.874 88.7139 127.584 88.379 127.218C86.3724 125.039 86.717 120.504 86.7299 120.312C86.7339 120.265 86.7553 120.221 86.7899 120.19C86.8245 120.158 86.8697 120.14 86.9167 120.14H95.1301C95.1774 120.139 95.2231 120.157 95.2578 120.189C95.2925 120.221 95.3137 120.265 95.317 120.312C95.3331 120.504 95.6777 125.039 93.6678 127.218C93.3337 127.585 92.9241 127.876 92.4672 128.071C92.0102 128.265 91.5167 128.359 91.0202 128.345H91.0267ZM87.0939 120.51C87.052 121.359 86.9683 125.132 88.6544 126.962C88.9617 127.28 89.33 127.534 89.7375 127.707C90.1449 127.88 90.5831 127.97 91.0258 127.97C91.4686 127.97 91.9068 127.88 92.3142 127.707C92.7217 127.534 93.09 127.28 93.3973 126.962C95.0834 125.131 94.9997 121.359 94.9578 120.51H87.0939Z" fill="#192743"/>
<path d="M62.6646 218.14H62.6372C62.588 218.133 62.5434 218.107 62.5133 218.068C62.4831 218.028 62.4698 217.978 62.4762 217.929L73.8316 138.071C73.835 138.046 73.8432 138.023 73.8556 138.002C73.868 137.981 73.8845 137.962 73.9041 137.947C73.9237 137.932 73.946 137.922 73.9698 137.915C73.9935 137.909 74.0183 137.908 74.0426 137.911C74.0669 137.915 74.0903 137.923 74.1115 137.935C74.1327 137.948 74.1512 137.964 74.166 137.984C74.1808 138.003 74.1916 138.026 74.1978 138.049C74.204 138.073 74.2054 138.098 74.202 138.122L62.8466 217.981C62.8401 218.025 62.8181 218.065 62.7844 218.095C62.7508 218.124 62.7077 218.141 62.663 218.142L62.6646 218.14ZM102.443 218.14C102.468 218.137 102.492 218.129 102.513 218.116C102.535 218.103 102.554 218.087 102.569 218.067C102.583 218.047 102.594 218.024 102.601 218C102.607 217.976 102.608 217.951 102.604 217.926L89.8526 138.067C89.8454 138.018 89.8189 137.973 89.7787 137.943C89.7386 137.913 89.6882 137.899 89.6384 137.906C89.6137 137.91 89.5899 137.918 89.5684 137.931C89.5469 137.943 89.5282 137.96 89.5132 137.98C89.4982 138 89.4873 138.022 89.4812 138.047C89.475 138.071 89.4737 138.096 89.4774 138.121L102.232 217.984C102.238 218.029 102.26 218.07 102.293 218.099C102.327 218.129 102.371 218.145 102.416 218.145L102.443 218.14Z" fill="#192743"/>
</svg>
