<svg preserveAspectRatio="none" width="100%" height="100%" overflow="visible" style="display: block;" viewBox="0 0 19.631 17.8712" fill="none" xmlns="http://www.w3.org/2000/svg">
<g id="Group">
<path id="Vector" d="M4.22097 13.0986C2.53005 11.0855 6.14938 4.13553 6.90389 1.70469C7.38858 0.378626 9.24601 0.383571 9.72723 1.73543C10.1639 3.08764 8.9948 4.25637 8.6043 5.46291C7.82432 7.31059 6.98758 9.15624 6.51175 11.1344C7.59585 12.4822 6.14468 13.9457 4.92341 13.5784C4.67144 13.5028 4.4289 13.3485 4.22098 13.0996L4.22097 13.0986Z" fill="var(--fill-0, #F14676)"/>
<path id="Vector_2" d="M8.22274 16.8926C6.92434 14.782 9.56331 13.1975 10.7091 11.8988C12.6363 10.0024 14.7406 8.34608 16.9167 6.80692C18.8858 5.58309 20.6512 8.89099 18.6805 10.1485C16.4722 11.7039 14.3575 13.4032 12.397 15.3138C11.4041 16.2825 10.4804 18.0138 9.239 17.6365C8.92298 17.5402 8.58699 17.3078 8.22273 16.8916L8.22274 16.8926Z" fill="var(--fill-0, #F14676)"/>
<path id="Vector_3" d="M0.937224 10.612C0.114499 9.85789 0.483736 8.49929 0.279678 7.47434C0.100958 5.30346 -0.0893997 3.11167 0.0896132 0.934988C0.190821 -0.291029 1.99741 -0.297943 2.11172 0.931605C2.15465 1.44505 2.09293 1.95184 2.14004 2.46533C2.21922 4.77836 2.63818 7.06024 3.0278 9.33304C3.19927 10.3325 2.21759 11.1077 1.38653 10.8665C1.22829 10.8209 1.07609 10.7383 0.937231 10.6131L0.937224 10.612Z" fill="var(--fill-0, #F14676)"/>
</g>
</svg>
