<svg preserveAspectRatio="none" width="100%" height="100%" overflow="visible" style="display: block;" viewBox="0 0 17.1563 13.9094" fill="none" xmlns="http://www.w3.org/2000/svg">
<g id="Group">
<path id="Vector" d="M3.73866 10.1945C2.35353 8.65415 5.40148 3.21433 6.04412 1.31827C6.45521 0.282996 7.99303 0.262861 8.38147 1.30569C8.73299 2.34936 7.75644 3.27138 7.42421 4.21269C6.76479 5.65654 6.05838 7.09955 5.64981 8.64073C6.53743 9.67265 5.32513 10.8271 4.3167 10.5578C4.10864 10.5024 3.90896 10.3858 3.73866 10.1953V10.1945Z" fill="var(--fill-0, #FDFDFC)"/>
<path id="Vector_2" d="M7.41394 13.2941C6.32162 11.6312 8.59017 10.3308 9.58014 9.27962C11.243 7.74097 13.0551 6.39108 14.9277 5.13348C16.6207 4.13008 18.1023 6.74009 16.4076 7.77033C14.5074 9.04136 12.686 10.4256 10.9946 11.976C10.1381 12.7621 9.33433 14.1548 8.2764 13.8721C8.00709 13.7999 7.72184 13.6196 7.41394 13.2932V13.2941Z" fill="var(--fill-0, #FDFDFC)"/>
<path id="Vector_3" d="M0.699017 8.13203C0.0429498 7.5607 0.345815 6.51535 0.187251 5.73092C0.0546953 4.06726 -0.0870891 2.38766 0.0672797 0.716452C0.154532 -0.224862 1.60342 -0.245836 1.68899 0.696317C1.72087 1.08979 1.66886 1.47907 1.70409 1.87254C1.75611 3.6461 2.08079 5.39282 2.38197 7.13283C2.51453 7.89796 1.72339 8.50117 1.05809 8.32331C0.93141 8.28975 0.80976 8.22767 0.699017 8.13287V8.13203Z" fill="var(--fill-0, #FDFDFC)"/>
</g>
</svg>
