<svg preserveAspectRatio="none" width="100%" height="100%" overflow="visible" style="display: block;" viewBox="0 0 15.0841 21.5774" fill="none" xmlns="http://www.w3.org/2000/svg">
<g id="Group">
<path id="Vector" d="M0.395602 15.5807C-1.11652 13.1316 2.27596 4.35296 2.99677 1.3C3.45655 -0.367958 5.14812 -0.425343 5.56767 1.24169C5.94661 2.91067 4.86572 4.40611 4.49337 5.922C3.75744 8.24962 2.96984 10.5767 2.5091 13.0564C3.47777 14.6977 2.13587 16.5699 1.0287 16.1542C0.800268 16.0688 0.581512 15.8849 0.395595 15.5821L0.395602 15.5807Z" fill="var(--fill-0, #A469F5)"/>
<path id="Vector_2" d="M4.38541 20.5914C3.20497 17.9573 5.69142 15.8467 6.78004 14.1542C8.60688 11.6734 10.5954 9.49122 12.6492 7.45523C14.505 5.82756 16.1036 9.9658 14.2456 11.6363C12.1615 13.6942 10.1627 15.9313 8.30463 18.4313C7.36361 19.6989 6.47584 21.9329 5.32282 21.4992C5.02931 21.3885 4.71919 21.1055 4.38541 20.59L4.38541 20.5914Z" fill="var(--fill-0, #A469F5)"/>
</g>
</svg>
