<svg width="39" height="48" viewBox="0 0 39 48" fill="none" xmlns="http://www.w3.org/2000/svg">
<path d="M4 48H34.1514C36.3605 48 38.1514 46.2091 38.1514 44V14L25.0996 0H4C1.79086 0 0 1.79086 0 4V44C0 46.2091 1.79086 48 4 48Z" fill="#66B881"/>
<path d="M25.1641 0L31.5308 6.5L38.2159 14H29.1641C26.9549 14 25.1641 12.2091 25.1641 10V0Z" fill="#418B5A"/>
<path fill-rule="evenodd" clip-rule="evenodd" d="M23.7839 21.3054C24.1675 21.7028 24.1563 22.3358 23.759 22.7194L16.5082 29.7194C16.1208 30.0935 15.5066 30.0935 15.1191 29.7194L12.3699 27.0653C11.9726 26.6817 11.9614 26.0486 12.345 25.6513C12.7286 25.254 13.3617 25.2428 13.759 25.6264L15.8137 27.61L22.3699 21.2806C22.7672 20.897 23.4003 20.9081 23.7839 21.3054Z" fill="white"/>
</svg>
