<svg width="32" height="40" viewBox="0 0 32 40" fill="none" xmlns="http://www.w3.org/2000/svg">
<path d="M3.40659 40H28.5928C30.4742 40 31.9994 38.4748 31.9994 36.5934V11.2L21.2182 0H3.40659C1.52518 0 0 1.52518 0 3.40659V36.5934C0 38.4748 1.52518 40 3.40659 40Z" fill="#D3353B"/>
<path d="M26.4709 11.2H31.9995L21.2358 0V5.9642C21.2358 8.85585 23.5792 11.2 26.4709 11.2Z" fill="black" fill-opacity="0.15"/>
<path d="M11.8037 20.216C11.8037 20.664 11.6957 21.084 11.4797 21.476C11.2717 21.868 10.9397 22.184 10.4837 22.424C10.0357 22.664 9.46768 22.784 8.77968 22.784H7.37568V26H5.69568V17.624H8.77968C9.42768 17.624 9.97968 17.736 10.4357 17.96C10.8917 18.184 11.2317 18.492 11.4557 18.884C11.6877 19.276 11.8037 19.72 11.8037 20.216ZM8.70768 21.428C9.17168 21.428 9.51568 21.324 9.73968 21.116C9.96368 20.9 10.0757 20.6 10.0757 20.216C10.0757 19.4 9.61968 18.992 8.70768 18.992H7.37568V21.428H8.70768ZM15.9245 17.624C16.8045 17.624 17.5765 17.796 18.2405 18.14C18.9125 18.484 19.4285 18.976 19.7885 19.616C20.1565 20.248 20.3405 20.984 20.3405 21.824C20.3405 22.664 20.1565 23.4 19.7885 24.032C19.4285 24.656 18.9125 25.14 18.2405 25.484C17.5765 25.828 16.8045 26 15.9245 26H12.9965V17.624H15.9245ZM15.8645 24.572C16.7445 24.572 17.4245 24.332 17.9045 23.852C18.3845 23.372 18.6245 22.696 18.6245 21.824C18.6245 20.952 18.3845 20.272 17.9045 19.784C17.4245 19.288 16.7445 19.04 15.8645 19.04H14.6765V24.572H15.8645ZM26.77 17.624V18.98H23.278V21.128H25.954V22.46H23.278V26H21.598V17.624H26.77Z" fill="white"/>
</svg>
