<svg width="32" height="40" viewBox="0 0 32 40" fill="none" xmlns="http://www.w3.org/2000/svg">
<path d="M3.40659 40H28.5928C30.4742 40 31.9994 38.4748 31.9994 36.5934V11.2L21.2182 0H3.40659C1.52518 0 0 1.52518 0 3.40659V36.5934C0 38.4748 1.52518 40 3.40659 40Z" fill="#3174DB"/>
<path d="M26.4709 11.2H31.9995L21.2358 0V5.9642C21.2358 8.85585 23.5792 11.2 26.4709 11.2Z" fill="black" fill-opacity="0.15"/>
<path d="M12.1728 20.216C12.1728 20.664 12.0648 21.084 11.8488 21.476C11.6408 21.868 11.3088 22.184 10.8528 22.424C10.4048 22.664 9.83682 22.784 9.14882 22.784H7.74482V26H6.06482V17.624H9.14882C9.79682 17.624 10.3488 17.736 10.8048 17.96C11.2608 18.184 11.6008 18.492 11.8248 18.884C12.0568 19.276 12.1728 19.72 12.1728 20.216ZM9.07682 21.428C9.54082 21.428 9.88482 21.324 10.1088 21.116C10.3328 20.9 10.4448 20.6 10.4448 20.216C10.4448 19.4 9.98882 18.992 9.07682 18.992H7.74482V21.428H9.07682ZM19.4736 20.216C19.4736 20.664 19.3656 21.084 19.1496 21.476C18.9416 21.868 18.6096 22.184 18.1536 22.424C17.7056 22.664 17.1376 22.784 16.4496 22.784H15.0456V26H13.3656V17.624H16.4496C17.0976 17.624 17.6496 17.736 18.1056 17.96C18.5616 18.184 18.9016 18.492 19.1256 18.884C19.3576 19.276 19.4736 19.72 19.4736 20.216ZM16.3776 21.428C16.8416 21.428 17.1856 21.324 17.4096 21.116C17.6336 20.9 17.7456 20.6 17.7456 20.216C17.7456 19.4 17.2896 18.992 16.3776 18.992H15.0456V21.428H16.3776ZM26.3664 17.624V18.98H24.1344V26H22.4544V18.98H20.2224V17.624H26.3664Z" fill="white"/>
</svg>
