<svg width="32" height="40" viewBox="0 0 32 40" fill="none" xmlns="http://www.w3.org/2000/svg">
<path d="M3.40659 40H28.5928C30.4742 40 31.9994 38.4748 31.9994 36.5934V11.2L21.2182 0H3.40659C1.52518 0 0 1.52518 0 3.40659V36.5934C0 38.4748 1.52518 40 3.40659 40Z" fill="#808080"/>
<path d="M26.4709 11.2H31.9995L21.2358 0V5.9642C21.2358 8.85585 23.5792 11.2 26.4709 11.2Z" fill="black" fill-opacity="0.15"/>
<path d="M15.94 17.336C16.772 17.336 17.44 17.564 17.944 18.02C18.456 18.468 18.712 19.088 18.712 19.88C18.712 20.664 18.46 21.264 17.956 21.68C17.452 22.088 16.784 22.292 15.952 22.292L15.904 23.216H14.428L14.368 21.176H14.908C15.604 21.176 16.14 21.084 16.516 20.9C16.892 20.716 17.08 20.38 17.08 19.892C17.08 19.54 16.976 19.26 16.768 19.052C16.568 18.844 16.292 18.74 15.94 18.74C15.572 18.74 15.284 18.84 15.076 19.04C14.876 19.24 14.776 19.516 14.776 19.868H13.192C13.184 19.38 13.288 18.944 13.504 18.56C13.72 18.176 14.036 17.876 14.452 17.66C14.876 17.444 15.372 17.336 15.94 17.336ZM15.16 26.084C14.856 26.084 14.604 25.992 14.404 25.808C14.212 25.616 14.116 25.38 14.116 25.1C14.116 24.82 14.212 24.588 14.404 24.404C14.604 24.212 14.856 24.116 15.16 24.116C15.456 24.116 15.7 24.212 15.892 24.404C16.084 24.588 16.18 24.82 16.18 25.1C16.18 25.38 16.084 25.616 15.892 25.808C15.7 25.992 15.456 26.084 15.16 26.084Z" fill="white"/>
</svg>
