<svg width="32" height="40" viewBox="0 0 32 40" fill="none" xmlns="http://www.w3.org/2000/svg">
<path d="M3.40659 40H28.5928C30.4742 40 31.9994 38.4748 31.9994 36.5934V11.2L21.2182 0H3.40659C1.52518 0 0 1.52518 0 3.40659V36.5934C0 38.4748 1.52518 40 3.40659 40Z" fill="#278747"/>
<path d="M26.4709 11.2H31.9995L21.2358 0V5.9642C21.2358 8.85585 23.5792 11.2 26.4709 11.2Z" fill="black" fill-opacity="0.15"/>
<path d="M11.3211 26L9.50905 23.18L7.86505 26H5.96905L8.60905 21.776L5.93305 17.624H7.86505L9.67705 20.432L11.3091 17.624H13.2051L10.5771 21.836L13.2531 26H11.3211ZM16.2116 24.668H18.9716V26H14.5316V17.624H16.2116V24.668ZM22.9314 26.084C22.3474 26.084 21.8194 25.984 21.3474 25.784C20.8834 25.584 20.5154 25.296 20.2434 24.92C19.9714 24.544 19.8314 24.1 19.8234 23.588H21.6234C21.6474 23.932 21.7674 24.204 21.9834 24.404C22.2074 24.604 22.5114 24.704 22.8954 24.704C23.2874 24.704 23.5954 24.612 23.8194 24.428C24.0434 24.236 24.1554 23.988 24.1554 23.684C24.1554 23.436 24.0794 23.232 23.9274 23.072C23.7754 22.912 23.5834 22.788 23.3514 22.7C23.1274 22.604 22.8154 22.5 22.4154 22.388C21.8714 22.228 21.4274 22.072 21.0834 21.92C20.7474 21.76 20.4554 21.524 20.2074 21.212C19.9674 20.892 19.8474 20.468 19.8474 19.94C19.8474 19.444 19.9714 19.012 20.2194 18.644C20.4674 18.276 20.8154 17.996 21.2634 17.804C21.7114 17.604 22.2234 17.504 22.7994 17.504C23.6634 17.504 24.3634 17.716 24.8994 18.14C25.4434 18.556 25.7434 19.14 25.7994 19.892H23.9514C23.9354 19.604 23.8114 19.368 23.5794 19.184C23.3554 18.992 23.0554 18.896 22.6794 18.896C22.3514 18.896 22.0874 18.98 21.8874 19.148C21.6954 19.316 21.5994 19.56 21.5994 19.88C21.5994 20.104 21.6714 20.292 21.8154 20.444C21.9674 20.588 22.1514 20.708 22.3674 20.804C22.5914 20.892 22.9034 20.996 23.3034 21.116C23.8474 21.276 24.2914 21.436 24.6354 21.596C24.9794 21.756 25.2754 21.996 25.5234 22.316C25.7714 22.636 25.8954 23.056 25.8954 23.576C25.8954 24.024 25.7794 24.44 25.5474 24.824C25.3154 25.208 24.9754 25.516 24.5274 25.748C24.0794 25.972 23.5474 26.084 22.9314 26.084Z" fill="white"/>
</svg>
